<?xml version="1.0" encoding="UTF-8" standalone="no"?>
<!-- Created with Inkscape (http://www.inkscape.org/) -->

<svg
   xmlns:dc="http://purl.org/dc/elements/1.1/"
   xmlns:cc="http://creativecommons.org/ns#"
   xmlns:rdf="http://www.w3.org/1999/02/22-rdf-syntax-ns#"
   xmlns:svg="http://www.w3.org/2000/svg"
   xmlns="http://www.w3.org/2000/svg"
   version="1.0"
   width="300pt"
   height="200pt"
   viewBox="0 0 2500 1718"
   id="svg2">
  <defs
     id="defs28" />
  <metadata
     id="metadata4">
Created by potrace 1.10, written by Peter Selinger 2001-2011
<rdf:RDF>
  <cc:Work
     rdf:about="">
    <dc:format>image/svg+xml</dc:format>
    <dc:type
       rdf:resource="http://purl.org/dc/dcmitype/StillImage" />
    <dc:title></dc:title>
  </cc:Work>
</rdf:RDF>
</metadata>
  <g
     transform="matrix(0.1,0,0,-0.1,0,1718)"
     id="g6"
     style="fill:#000000;stroke:none">
    <path
       d="m 1778,15838 c -1,-194 0,-370 1,-390 2,-28 -26,-105 -109,-307 -365,-891 -433,-1173 -431,-1764 3,-615 -60,-1727 -239,-4232 C 887,7565 690,5015 623,4265 c -24,-271 -24,-1390 0,-2152 9,-292 17,-653 17,-801 0,-203 3,-272 13,-280 33,-27 1667,-164 2139,-179 l 196,-6 6,44 c 3,24 12,132 20,239 23,294 55,450 166,815 69,228 47,55 230,1855 561,5517 900,8021 1148,8474 35,64 45,66 76,13 250,-426 601,-2937 1171,-8357 193,-1833 186,-1779 240,-1953 124,-403 157,-571 185,-957 7,-85 14,-159 17,-164 21,-33 2271,134 2331,173 5,3 12,182 16,396 4,215 13,608 21,875 35,1185 31,1543 -25,2210 -322,3842 -616,8247 -595,8920 15,479 -88,886 -436,1721 l -94,224 -5,405 -5,405 -2837,3 -2838,2 -2,-352 z m 5602,255 c 0,-28 0,-28 -61,-25 -59,4 -61,3 -57,-20 3,-21 8,-23 61,-23 l 57,0 0,-305 c 0,-168 3,-315 6,-327 l 6,-23 -1265,0 -1265,0 -10,39 c -10,40 -10,40 22,43 51,5 43,42 -9,46 -40,3 -40,4 -58,62 -23,78 -22,100 3,100 11,0 20,-4 20,-10 0,-20 28,-9 34,13 9,34 7,190 -3,206 -12,19 -31,4 -31,-25 0,-15 -6,-24 -15,-24 -8,0 -15,-4 -15,-10 0,-5 -20,-21 -46,-36 l -45,-27 -41,19 c -52,23 -136,23 -198,-1 -39,-15 -82,-20 -141,-16 -9,1 -28,12 -43,26 -14,13 -26,22 -26,19 0,-5 -44,43 -65,71 -24,32 -35,2 -35,-97 0,-101 -1,-100 85,-107 49,-4 65,-34 48,-87 -8,-27 -15,-55 -16,-61 0,-7 -13,-13 -29,-13 -37,0 -40,-36 -3,-50 25,-9 31,-32 19,-64 -6,-14 -122,-16 -1213,-16 l -1207,0 4,40 c 3,31 8,40 22,40 10,0 20,6 23,13 7,20 -4,37 -24,37 -18,0 -19,12 -19,259 l 0,260 33,3 c 50,5 53,48 3,48 -32,0 -36,3 -36,25 l 0,25 2765,0 2765,0 0,-27 z m -3147,-810 c 10,-17 -41,-387 -59,-436 -23,-60 -19,-93 14,-105 55,-21 72,-24 76,-10 2,7 9,30 15,50 18,56 29,124 54,323 l 23,180 142,3 c 139,2 142,2 142,-19 0,-17 5,-20 25,-17 23,5 25,2 25,-33 0,-35 -3,-39 -25,-39 -25,0 -26,-2 -23,-57 3,-53 5,-58 26,-57 19,0 22,-4 22,-37 0,-30 -3,-37 -15,-33 -26,10 -45,-16 -45,-61 0,-46 17,-69 44,-59 13,5 16,-1 16,-35 0,-39 -1,-41 -25,-35 -28,7 -39,-18 -33,-77 3,-30 6,-34 31,-34 25,1 27,-2 27,-40 0,-38 -2,-41 -27,-40 -27,0 -28,-2 -28,-55 0,-53 1,-55 28,-55 25,1 27,-2 27,-40 0,-38 -2,-41 -27,-40 -27,0 -28,-2 -28,-55 0,-54 1,-55 28,-53 25,2 27,-1 27,-41 0,-42 -1,-42 -31,-38 l -30,4 3,-58 c 3,-57 4,-59 31,-57 26,2 27,0 27,-50 0,-45 -2,-49 -14,-32 -25,34 -46,12 -46,-49 0,-60 9,-73 40,-56 19,10 20,8 20,-41 0,-44 -2,-50 -15,-39 -29,24 -45,4 -45,-55 0,-61 30,-81 50,-32 5,13 9,-260 9,-702 l 1,-725 -28,27 c -15,15 -40,28 -55,29 -14,1 -29,8 -31,15 -11,28 -46,14 -46,-18 0,-17 -8,-43 -19,-57 C 4257,11983 3906,9433 3330,3745 3165,2111 3171,2167 3110,1970 c -47,-154 -120,-436 -135,-522 -6,-37 -7,-38 -46,-38 -54,0 -56,-43 -1,-48 51,-5 43,-92 -9,-92 -40,0 -41,-38 -1,-46 l 27,-5 -12,-147 c -6,-81 -12,-149 -12,-151 -4,-17 -1711,112 -2096,159 -44,6 -85,10 -92,10 -25,0 -18,306 7,313 28,7 25,36 -5,47 -36,14 -38,97 -2,102 14,2 22,10 22,23 0,13 -8,21 -22,23 -22,3 -23,8 -23,95 0,51 -7,306 -15,567 -31,1015 -30,1649 5,2021 43,462 274,3460 380,4939 172,2411 243,3682 237,4295 -4,427 97,816 403,1555 40,96 76,185 81,198 l 9,22 1209,0 c 665,0 1212,-3 1214,-7 z m 3213,-46 c 12,-28 64,-158 117,-287 191,-471 301,-840 347,-1160 6,-41 12,-288 14,-550 4,-454 10,-616 56,-1400 96,-1630 414,-5963 557,-7575 30,-336 23,-1738 -13,-2532 -5,-118 -8,-132 -25,-136 -26,-7 -26,-47 1,-47 17,0 20,-7 20,-50 0,-43 -3,-50 -20,-50 -27,0 -27,-40 0,-47 21,-6 33,-313 12,-313 -4,0 -95,-9 -202,-20 C 7775,1016 6971,953 6434,924 l -121,-6 -7,83 c -4,46 -9,114 -13,152 -5,62 -4,67 14,67 12,0 26,7 33,15 18,21 -3,44 -35,37 -22,-4 -25,-1 -25,26 0,17 -3,37 -6,46 -5,12 1,16 24,16 31,0 58,22 47,40 -3,5 -23,10 -44,10 -38,0 -38,0 -45,48 -10,77 -60,271 -125,487 -69,230 -65,197 -201,1505 -557,5338 -890,7848 -1149,8670 -22,70 -34,3110 -12,3110 15,0 32,-60 61,-215 5,-27 14,-59 18,-70 5,-11 17,-47 27,-80 23,-78 128,-284 160,-312 23,-20 65,-89 65,-106 0,-5 11,-20 25,-35 32,-35 75,-89 75,-94 0,-14 145,-156 153,-151 6,3 7,2 4,-4 -6,-10 0,-16 68,-70 46,-36 115,-76 122,-70 43,44 39,127 -6,127 -5,0 -22,12 -38,28 -15,15 -41,36 -57,47 -35,24 -55,44 -80,78 -10,15 -23,24 -29,20 -5,-3 -7,-1 -3,5 3,6 -2,17 -12,24 -18,13 -89,107 -144,191 -16,22 -28,37 -28,33 0,-4 -14,18 -31,50 -17,33 -39,67 -50,77 -11,10 -17,22 -14,28 4,5 1,9 -4,9 -6,0 -11,7 -11,16 0,9 -9,27 -20,41 -11,14 -17,29 -14,34 3,5 0,9 -7,9 -7,0 -10,3 -6,6 3,4 -2,23 -12,43 -11,20 -19,38 -19,41 0,3 -5,25 -12,49 -6,24 -12,53 -14,65 -1,11 -8,40 -14,62 -7,23 -14,54 -16,70 -6,42 -14,73 -21,84 -18,29 35,30 1273,30 l 1267,0 21,-53 z"
       id="path22" />
    <path
       d="m 17037,16183 c -4,-3 -7,-183 -7,-399 l 0,-392 -76,-184 c -372,-895 -474,-1292 -459,-1778 11,-366 -27,-1152 -135,-2785 -107,-1602 -309,-4300 -450,-6011 -67,-810 -71,-1104 -35,-2334 8,-267 17,-660 21,-875 4,-214 11,-393 16,-396 60,-39 2310,-206 2331,-173 3,5 10,79 17,164 28,387 60,554 186,958 53,172 51,158 214,1767 547,5401 885,7928 1137,8498 65,146 131,37 233,-388 252,-1042 547,-3324 1050,-8110 175,-1662 165,-1589 228,-1795 112,-366 144,-524 168,-820 8,-107 17,-215 20,-239 l 6,-44 196,6 c 472,15 2106,152 2140,179 9,8 12,76 12,275 0,146 9,590 21,987 15,537 19,857 16,1256 l -5,535 -56,675 c -322,3889 -579,7736 -575,8615 2,559 -79,913 -376,1630 -146,352 -166,407 -164,444 1,20 2,195 1,389 l -2,352 -2833,0 c -1559,0 -2837,-3 -2840,-7 z m 5605,-438 3,-375 -2774,0 -2773,0 6,23 c 3,12 6,29 6,38 0,9 9,19 20,22 11,3 20,13 20,22 0,9 -9,19 -20,22 -19,5 -20,14 -20,264 l 0,258 33,3 c 24,2 32,8 32,23 0,15 -8,21 -32,23 -27,3 -33,7 -33,28 l 0,24 2765,0 2765,0 2,-375 z m -2749,-475 c 3,-12 14,-20 26,-20 32,0 31,-67 -1,-72 -21,-3 -23,-9 -23,-58 0,-51 2,-55 23,-54 19,0 22,-4 22,-38 0,-22 -4,-37 -9,-34 -25,16 -41,-7 -41,-60 0,-53 4,-59 38,-55 8,1 12,-12 12,-37 0,-34 -3,-38 -22,-38 -21,1 -23,-4 -26,-56 -3,-56 -2,-58 23,-58 22,0 25,-4 25,-38 0,-34 -3,-38 -22,-38 -21,1 -23,-4 -26,-58 -3,-58 -3,-58 22,-54 25,5 26,3 26,-37 0,-40 -1,-42 -26,-37 -25,4 -25,4 -22,-54 3,-54 5,-59 26,-58 19,0 22,-4 22,-41 0,-40 -2,-42 -25,-37 -24,4 -25,3 -25,-51 0,-59 11,-77 35,-57 13,11 15,5 15,-40 0,-45 -2,-51 -15,-40 -24,20 -45,-5 -45,-55 0,-50 21,-75 45,-55 13,11 15,-77 15,-784 l 0,-797 -29,22 c -16,12 -41,22 -55,22 -16,0 -26,5 -26,14 0,33 -45,9 -48,-25 -5,-45 -1,-45 -269,-33 -429,20 -839,59 -1236,117 -204,29 -187,29 -187,-1 0,-14 2,-25 5,-25 3,0 99,-13 213,-30 386,-55 840,-96 1280,-116 137,-6 152,-8 146,-23 -260,-596 -594,-3065 -1124,-8296 -199,-1963 -178,-1795 -252,-2040 -61,-203 -128,-472 -128,-512 0,-20 -5,-23 -39,-23 -22,0 -43,-5 -46,-10 -11,-18 16,-40 47,-40 23,0 29,-4 24,-16 -3,-9 -6,-29 -6,-46 0,-27 -3,-30 -25,-26 -32,7 -53,-16 -35,-37 7,-8 21,-15 33,-15 18,0 19,-5 14,-67 -4,-38 -9,-105 -13,-150 -6,-76 -8,-83 -28,-83 -203,0 -1485,98 -2030,155 -76,8 -142,15 -147,15 -21,0 -10,307 11,313 12,3 20,14 20,26 0,14 -6,21 -20,21 -17,0 -20,7 -20,50 0,43 3,50 20,50 27,0 27,40 1,47 -17,4 -20,18 -25,136 -35,784 -43,2206 -13,2532 92,1029 364,4622 477,6310 106,1589 141,2302 139,2800 -2,552 67,854 358,1575 53,129 105,259 117,287 l 21,53 1411,0 c 1403,0 1412,0 1417,-20 z m 2873,-190 c 310,-749 409,-1128 407,-1555 -4,-625 56,-1738 217,-4025 101,-1424 353,-4712 400,-5219 35,-372 36,-1006 5,-2021 -8,-261 -15,-516 -15,-567 0,-87 -1,-92 -22,-95 -15,-2 -23,-10 -23,-23 0,-13 8,-21 23,-23 35,-5 33,-88 -3,-102 -30,-11 -33,-40 -5,-47 25,-7 32,-313 7,-313 -7,0 -48,-4 -92,-10 -385,-47 -2092,-176 -2096,-159 0,2 -6,70 -12,151 l -12,147 25,3 c 19,2 25,9 25,28 0,21 -4,25 -26,22 -22,-3 -27,2 -33,29 -10,52 -8,58 27,61 54,5 52,48 -2,48 -39,0 -40,1 -46,38 -15,85 -88,368 -135,520 -62,200 -52,123 -235,1867 -224,2135 -322,3018 -480,4335 -247,2049 -485,3542 -629,3949 -9,24 -16,74 -16,111 l 0,67 248,6 c 556,15 1399,112 1419,164 13,32 -16,32 -217,-1 -381,-64 -774,-101 -1207,-113 l -243,-6 0,1471 0,1472 1331,-2 1330,-3 85,-205 z"
       id="path24" />
  </g>
</svg>
