<?xml version="1.0" encoding="UTF-8" standalone="no"?>
<!-- Created with Inkscape (http://www.inkscape.org/) -->

<svg
   xmlns:dc="http://purl.org/dc/elements/1.1/"
   xmlns:cc="http://creativecommons.org/ns#"
   xmlns:rdf="http://www.w3.org/1999/02/22-rdf-syntax-ns#"
   xmlns:svg="http://www.w3.org/2000/svg"
   xmlns="http://www.w3.org/2000/svg"
   version="1.0"
   width="300pt"
   height="200pt"
   viewBox="0 0 7500 3306"
   id="svg3005">
  <defs
     id="defs3027" />
  <metadata
     id="metadata3007">
Created by potrace 1.10, written by Peter Selinger 2001-2011
<rdf:RDF>
  <cc:Work
     rdf:about="">
    <dc:format>image/svg+xml</dc:format>
    <dc:type
       rdf:resource="http://purl.org/dc/dcmitype/StillImage" />
    <dc:title></dc:title>
  </cc:Work>
</rdf:RDF>
</metadata>
  <g
     transform="matrix(4.0060043,0,0,4.0060043,271.94131,-599.38897)"
     id="g3400">
    <path
       d="m 324.5,19.4 c -26,7.1 -34.8,15.9 -48.6,48.5 -14,33.1 -22.9,41.3 -63.9,58.7 -59.4,25.1 -82.6,40.4 -97,63.7 -2.8,4.5 -6.8,10.9 -9,14.2 -2.1,3.3 -5.3,8.2 -7,11 -1.7,2.7 -4.4,7 -6,9.5 -1.6,2.5 -3.9,6.1 -5,8 -1.1,1.9 -3.4,5.5 -5,8 -1.6,2.5 -3.9,6.1 -5,8 -1.1,1.9 -3.3,5.4 -4.8,7.7 -1.5,2.3 -5.6,9 -9.2,14.8 -3.6,5.8 -7.7,12.4 -9.2,14.8 -1.5,2.3 -3.7,5.8 -4.8,7.7 -1.1,1.9 -3.4,5.5 -5,8 -2.9,4.5 -4.7,7.5 -10.8,17.2 -1.8,2.9 -5.1,8 -7.2,11.3 -14.1,21.5 -14,21.8 23.8,54.4 26.1,22.5 50.2,45.8 63.8,61.5 15.6,18.2 21.6,19.6 38.5,9 5.4,-3.4 9.7,-5.4 11.6,-5.4 l 2.9,0 1.8,18.7 c 1,10.4 2.4,31.4 3.1,46.8 0.8,15.4 2.6,38.3 3.9,51 8.6,77.3 7.8,107 -3.3,142 -4.1,12.7 -4,11.3 -3,33.2 5.7,132.1 5.6,134.7 -5,198.3 -11.5,68.2 -16.5,96.4 -18.2,102.1 -3.8,13.1 -1.9,18.5 7.2,20.9 2.4,0.6 4.9,1.3 5.5,1.5 1.4,0.4 2.4,5.3 2.4,12.1 0,13.9 1.8,14.6 40.5,16.4 27,1.3 45.2,2.4 89,5.5 146.6,10.5 250.5,7.2 357,-11.1 30.5,-5.2 29.2,-4.6 32.3,-15.4 7.1,-24.8 7.2,-34.8 0.7,-70.5 -3.7,-20.1 -5,-30.7 -22.6,-174 -8.7,-71.2 -11.3,-95.2 -11.9,-110.5 -0.6,-14.2 -1.4,-21.8 -2.9,-28 -2.7,-11 -3.1,-71.1 -0.6,-97.5 2.6,-28.3 17.1,-149.4 18,-150.3 0.6,-0.7 11.6,4.8 17.2,8.7 17.8,12.1 18.3,11.9 52.5,-20.5 12.8,-12.1 35.2,-33.1 49.8,-46.6 38.8,-35.9 38.6,-35.6 23,-59.3 -2.2,-3.3 -4.9,-7.6 -6,-9.5 -1.1,-1.9 -3.3,-5.4 -4.8,-7.7 -1.5,-2.4 -4.9,-7.9 -7.7,-12.4 -2.7,-4.4 -6.2,-9.9 -7.7,-12.2 -1.5,-2.3 -3.7,-5.8 -4.8,-7.7 -2.4,-4.2 -12.2,-19.9 -15.6,-25.3 -1.3,-2 -3.4,-5.4 -4.7,-7.5 -1.3,-2 -3.5,-5.5 -4.9,-7.7 -1.4,-2.2 -6.3,-10.1 -10.8,-17.5 -4.6,-7.4 -10.4,-16.7 -12.8,-20.5 -2.5,-3.9 -6.1,-9.5 -8,-12.5 -7.2,-11.4 -8.8,-13.5 -14.2,-17.7 -7.8,-6.2 -15.1,-9.7 -44,-21.2 -52.6,-21 -69.1,-31 -80.7,-49.1 -3.1,-4.7 -7,-10.8 -8.8,-13.5 -4.7,-7.4 -6.6,-10.7 -13.9,-25 C 547,41.5 541.3,33.7 533.8,28.2 525.9,22.4 522.1,20.6 512,17.9 510,17.4 471.4,16.8 422.5,16.5 l -86,-0.4 z M 455.6,22 c 44.6,1.8 51.2,2.5 62.7,6.5 12.5,4.3 9.1,0.4 37.4,42.5 l 23.9,35.5 4.7,36.5 c 2.6,20.1 4.7,39.2 4.7,42.4 0,3.3 0.5,8.8 1.1,12.3 2.8,15.8 -3.7,24.3 -19.7,25.8 -3.2,0.3 -14.5,1.8 -25.1,3.2 l -19.2,2.6 -2,-2.4 c -6.4,-7.6 -6.7,-3.7 6,-79.1 10.3,-61.2 11.3,-71.7 8.4,-81.4 -4.3,-14.5 -12.7,-29.5 -15.2,-27.1 -0.1,0.2 2.3,7 5.3,15.2 4.5,11.9 5.6,16.3 5.7,21.5 0.3,11.2 11.4,10.2 -116.3,9.7 l -109.4,-0.5 -2.4,-2.8 c -1.3,-1.6 -3.3,-4 -4.5,-5.3 l -2,-2.5 2.2,-10 c 2.7,-11.8 5.2,-18 8.9,-21.9 4.4,-4.6 30.8,-18.9 38,-20.6 5.2,-1.3 75.8,-1.3 106.8,-0.1 z M 301,47.3 c 0,6.2 -0.5,8.3 -3.1,13.5 -8.9,17.9 -7.5,32.9 6.3,64.5 10.2,23.6 12.8,38.4 12.8,72.3 0,30.1 0.4,29.7 -28.7,26.4 -15.8,-1.7 -29.7,-4.2 -38.7,-6.7 -2.7,-0.8 -1.9,-44.1 1.3,-61.6 6.7,-37.8 19.1,-69.1 42,-106.4 6.9,-11.4 8.1,-11.7 8.1,-2 z M 527.7,95 c 7.6,4.3 7.6,3.8 0.1,8 l -6.3,3.5 -101.7,0.3 c -112.6,0.3 -104.1,0.7 -113.7,-6.5 l -5.2,-3.8 4.3,-1.8 c 8.1,-3.4 11.5,-3.6 113.8,-3.4 l 102.5,0.2 z m 5.3,18.9 c 0,1 -0.9,5 -2,8.7 -1.1,3.8 -2.8,9.4 -3.6,12.4 -11.9,42.2 -30.2,74.6 -58.9,104 -19.8,20.3 -23.3,25 -32.7,43 -4.6,8.8 -8.5,16 -8.8,15.9 -0.7,0 -9.6,-12 -15.6,-21.2 -2.9,-4.2 -7.1,-9.8 -9.4,-12.5 -2.4,-2.6 -13.1,-15.7 -23.8,-29.2 -10.7,-13.5 -20.6,-25.4 -21.8,-26.5 -7.1,-6.1 -28.4,-35.2 -30.8,-42 -1.3,-3.9 -4.1,-11.5 -6.1,-17 -2,-5.5 -4,-11.1 -4.5,-12.5 -1,-3.1 -7.5,-20.8 -8.5,-23.3 -0.7,-1.6 5.1,-1.7 112.9,-1.7 110.8,0 113.6,0 113.6,1.9 z m -282,4.6 c 0,0.3 -2,12.5 -4.4,27.2 -4,23.9 -4.5,29.1 -5,47.9 -0.7,30.2 0,31.2 21.6,32.5 7.3,0.4 17.4,1.5 22.3,2.3 5,0.9 13.7,2.1 19.3,2.6 14.8,1.5 20.7,4.9 23.3,13.8 0.8,2.9 1.9,4.4 3.3,4.7 1.2,0.2 4.9,0.9 8.3,1.5 22,3.9 37.2,19.2 46.9,46.9 1.5,4.2 3,8 3.4,8.6 5.2,6.8 5.7,9.5 6.9,31 3.5,65.3 4.1,67.8 16.1,71 28.2,7.5 37,-2.8 37,-43.5 0,-10.3 0.4,-13.5 2.1,-18 1.1,-3 2.7,-7.3 3.5,-9.5 0.7,-2.2 2.5,-7.2 3.9,-11 1.5,-3.9 3.3,-8.8 4,-11 0.8,-2.2 2.6,-7.2 4,-11 5,-13.5 7.7,-21.1 10.2,-29 5.4,-17.1 9.5,-21.9 19.6,-23.1 l 5.7,-0.7 4.7,-7.2 4.8,-7.3 17,-2.2 c 73,-9.3 69.1,-5.6 63.9,-61.5 -0.8,-8.8 -1.3,-23.2 -1.2,-32.1 l 0.3,-16.1 47.4,20.3 c 26,11.2 47.6,20.5 47.9,20.8 0.2,0.3 -3.3,6.7 -7.9,14.3 -4.6,7.6 -11.5,19 -15.3,25.3 -42.6,70.5 -47,131.6 -15.2,213.7 5.8,15 5.8,17.5 -1.3,62.4 -11.6,73.3 -12.8,87.4 -14.1,155.4 -0.7,37.8 -0.6,48.5 0.5,54.5 1.6,9 2.6,25.9 3,51 0.3,19 0.4,19.8 7,50.9 1.4,6.7 3.9,25 5.5,40.5 5.6,52.4 16.9,139.8 18.9,145.6 2.9,8.5 10.7,60.4 9.5,63.7 -1.4,4 -3.6,4.9 -8.6,3.5 -2.6,-0.7 -11.6,-1.1 -22.8,-1.1 -25.5,0 -87.8,-2.7 -121,-5.2 -68.5,-5.2 -137.2,-3.7 -258.7,5.6 -111.9,8.7 -106.5,8.6 -109.9,0.8 -2.6,-5.9 -2.6,-8.4 0.2,-17.8 1.7,-5.6 14.7,-83.8 19.4,-116 5.7,-39.8 6.1,-61.7 2.4,-151 l -1.7,-40 3.7,-11.5 c 10.1,-31.5 11.9,-63 6.6,-113 -1.1,-10.7 -2.7,-26 -3.6,-34 -0.8,-8 -1.9,-25.1 -2.4,-38.1 -0.5,-13 -1.9,-31.9 -3,-42 -4.7,-42.8 -4.8,-41.1 3.6,-59.9 37.3,-82.8 23.8,-175.5 -35.3,-242.3 -8,-9 -6.7,-12 7.6,-18.8 5.8,-2.7 29.5,-13.9 52.6,-24.8 C 249,118.4 251,117.5 251,118.5 z m 460.5,76.2 c 6.6,10.8 13.1,21.4 14.5,23.7 1.3,2.3 15.8,26.1 32.2,53 l 29.8,49 -4.2,1.4 c -7.7,2.5 -17.2,6.4 -21.3,8.6 -10.3,5.8 -12.5,7.2 -20,13.1 -12.9,10.2 -25.4,24.7 -35,40.6 -1.1,1.8 -2.7,4.5 -3.6,5.9 -3.8,5.9 -7.3,12.5 -15.5,28.5 -4.8,9.3 -8.8,17.2 -9,17.4 -0.5,0.6 -8.1,-4.8 -13.6,-9.8 -3.1,-2.8 -6.2,-7 -8.4,-11.3 -33.4,-66.4 -24.2,-155.6 22.5,-218.6 5.8,-7.8 17.8,-21.2 19,-21.2 0.3,0 6,8.9 12.6,19.7 z M 140.3,183.6 c 7.5,7.6 26.6,38.4 35.2,56.9 14.3,30.7 20,56.1 19.9,87.5 -0.2,49.3 -10.6,84.6 -31.8,108.5 l -4.4,5 -2.2,-2 c -1.2,-1.1 -3.3,-4 -4.7,-6.5 -1.3,-2.5 -3.4,-6 -4.6,-7.8 -2.6,-3.8 -13.3,-20.6 -16.2,-25.3 -1.1,-1.8 -3.4,-5.5 -5.2,-8.3 -1.7,-2.8 -5.4,-9.2 -8.1,-14.1 -9.2,-16.6 -29.6,-32.6 -53.7,-42 -4.8,-1.9 -9.6,-4.1 -10.4,-4.9 -0.9,-0.7 -2.6,-1.7 -3.7,-2 -7.3,-2.2 -2.1,-11.8 68,-127.4 3,-5.1 6.5,-11.1 7.7,-13.5 4.5,-9 8.2,-10 14.2,-4.1 z M 350,213.5 c 5,6.9 10,13 11,13.5 1.6,0.9 1.8,1.8 1.3,6 -0.7,6.3 0.9,8.4 7.9,10 4.4,1.1 5.6,2 11.1,8.7 7.8,9.4 7.8,9.4 2,7.6 -2.6,-0.8 -6.1,-1.9 -7.8,-2.3 -1.6,-0.5 -8.6,-2.5 -15.5,-4.5 -6.9,-2 -14.2,-4.1 -16.2,-4.7 -7.1,-2 -14.8,-10.6 -14.8,-16.7 0,-1.1 2.1,-5 4.6,-8.7 4.4,-6.4 4.6,-6.9 4.3,-12.8 -0.3,-5.9 0.3,-8.6 2.1,-8.6 0.5,0 5,5.6 10,12.5 z m 44.1,56.1 c 5.4,2.7 21.7,28.5 37.5,59.3 l 4.4,8.5 -3.3,-3.2 c -4.4,-4.2 -11.5,-5.3 -17.1,-2.7 -9.8,4.7 -11.8,18.2 -3.8,25.6 10.8,10.1 27.9,1.3 25.9,-13.4 l -0.5,-4 2.3,3.9 c 3,4.8 3,6.1 0.5,16.9 -5.82447,18.21871 3.49453,37.25076 -11.3,38.1 -12.5,0.8 -14.8,0.3 -16.4,-3.3 -1.9,-4.7 -2.1,-5.8 -6.3,-38.3 -4.5,-34.8 -5.7,-42.4 -7.1,-44.9 -1.7,-3 -14.9,-35.5 -14.9,-36.7 0,-0.6 0.7,-2.8 1.5,-4.8 1.7,-4 2.6,-4.1 8.6,-1 z m 59.9,30.2 c 4.4,-0.2 6.9,0.1 6.7,0.7 -0.2,0.5 -3.3,9.7 -6.8,20.2 -6.9,21 -7,21.1 -9.7,15.5 -4.3,-8.5 -5.7,-11.1 -9.9,-18.5 l -4.4,-7.8 4.7,-8.7 4.6,-8.7 3.9,3.8 c 3.8,3.8 3.9,3.9 10.9,3.5 z m 346.8,34.3 c 1.8,2.8 3.2,5.8 3,6.6 -0.3,1.8 -16.4,8.3 -27.8,11.4 -21.6,5.7 -36.4,19.9 -43.5,41.7 -0.9,2.9 -1.5,5.5 -1.2,5.8 0.5,0.5 6,-7.6 10.8,-16.1 5,-8.8 16.9,-20.3 25.2,-24.4 9.9,-4.8 35.8,-9.9 35.6,-7 0,1.7 -73.1,65.3 -75.5,65.7 -1.4,0.3 -1.5,-0.2 -0.9,-4 0.4,-2.7 0.4,-3.9 -0.2,-3.3 -2.7,2.8 -16.5,22.9 -20.2,29.2 -6,10.4 -10.2,12.4 -18.6,8.9 -7.1,-3 -2.7,-15.8 15,-43.6 5.1,-8 10.9,-17.9 13,-22 13.9,-28 32.1,-42.1 66.5,-51.5 13.3,-3.7 14.9,-3.4 18.8,2.6 z m -744,3.5 c 17.1,5.6 34,15.6 46.3,27.4 7.5,7.2 14.8,19.8 35.8,61.7 11.6,23.3 11.6,23.4 5.8,26.2 -8.9,4.3 -12.9,2.1 -18.7,-10.1 -1.7,-3.7 -3.9,-7.4 -4.9,-8 -1,-0.7 -5.8,-9.2 -10.6,-18.8 -15.6,-31.2 -21.4,-38.3 -40.7,-49.9 -5.6,-3.4 -4.6,-2 1.7,2.4 11.1,7.6 22,22.1 29.5,39.1 8.6,19.5 7.4,19.6 -13.3,0.6 -8.9,-8.1 -25.5,-23 -36.9,-33.1 C 39.3,365 30,356.1 30,355.3 c 0,-2.5 17.7,0.9 27.8,5.3 2.8,1.3 5.2,2.1 5.2,1.9 0,-1 -21.5,-11.6 -27.7,-13.6 -8.6,-2.7 -8.5,-2.4 -3.1,-10.1 l 4.2,-6 4.9,0.6 c 2.7,0.4 9.6,2.3 15.5,4.2 z M 494.5,1047 c 12.1,0.5 31,1.7 42,2.5 11,0.8 42,3.1 69,5 55.9,4 52.4,3.1 52.5,13.1 0,8.5 -2.6,10 -24.2,13.9 -54.7,9.6 -99.4,13.4 -168.3,14.2 -61.6,0.7 -94.4,-0.4 -180,-6.3 -20.3,-1.3 -50.4,-3.3 -66.7,-4.3 -16.4,-0.9 -30.1,-2.1 -30.5,-2.5 -1,-0.9 -1.1,-19.5 -0.1,-21.7 0.5,-1.4 4.3,-1.7 29.5,-2.4 16.8,-0.4 32.1,-1.3 36.8,-2.1 4.4,-0.8 13.2,-1.9 19.5,-2.4 6.3,-0.6 16,-1.5 21.5,-2 47.7,-4.7 148.8,-7.2 199,-5 z"
       id="path3011"
       style="fill:#000000;stroke:none" />
  </g>
  <g
     transform="matrix(4.1792311,0,0,4.1792311,-2588.897,-717.92343)"
     id="g3403">
    <path
       d="m 1881.5,21.9 c -29.8,6.4 -47,21.8 -59.6,53.4 -12.2,30.9 -18.4,36.5 -60.4,54.7 -21.1,9.2 -69.3,32.8 -75.4,36.9 -6.7,4.6 -13,11.3 -17.3,18.6 -1.6,2.7 -4.6,7.6 -6.6,10.7 -2.1,3.2 -7,11.1 -11.1,17.5 -4,6.5 -8.5,13.6 -9.9,15.8 -3,4.8 -6.8,10.7 -9.7,15.5 -2.1,3.3 -4.7,7.6 -9.9,15.7 -1.3,2.1 -4.5,7.3 -7.2,11.6 -12.4,19.8 -23.1,36.4 -38.9,60.7 -6.3,9.7 -7.7,12.8 -8.2,19 -0.9,9.8 0.5,11.5 37.2,45.1 9.9,9 27.8,25.8 39.8,37.4 39.6,38.1 37.9,37.5 60.7,23 5.3,-3.4 10,-4.6 10,-2.5 0,0.5 2,25.4 4.4,55.2 10.2,124.6 11.1,138.5 9.7,152.6 -2.3,23.9 -4.2,36.7 -7.3,49.2 -4.6,19.1 -4.7,21.9 -2.8,64 4.8,101.2 4.7,102 -22,268.3 -8,49.7 -8.9,47.7 23.5,52.1 28,3.8 27.2,3.8 157,8.1 190.7,6.4 187.2,6.4 255.5,-3.5 106.2,-15.5 100.3,-14.4 102.4,-20.3 2.7,-7.5 -15.1,-148 -29.4,-233.2 -5.4,-32.2 -7.7,-54 -12,-113.5 -1.2,-15.7 -2.7,-36.2 -3.5,-45.5 -1.7,-20 -1.9,-51.2 -0.5,-72.7 2,-29.3 7,-84.4 9.1,-99.3 2.3,-17.2 10.7,-70.6 11.1,-71.1 0.2,-0.1 3,1.8 6.3,4.3 24.7,18.7 31,20.2 42.3,10.1 7,-6.3 85.2,-80.8 94,-89.5 15.7,-15.7 14.8,-20.9 -9.9,-54 -33.9,-45.4 -36.1,-48.8 -50.9,-78.8 -27.8,-56.3 -57,-82.3 -114,-101.5 -12.3,-4.1 -20.4,-9 -31.5,-18.9 -4.9,-4.5 -12.3,-10.9 -16.3,-14.4 -6.5,-5.4 -9.4,-9.3 -23.9,-31.2 -9.1,-13.8 -18.8,-28 -21.5,-31.7 l -5,-6.6 -11.6,-3.7 c -6.4,-2.1 -13.5,-4.3 -15.8,-5 -12.6,-4.1 -153.7,-6.3 -170.9,-2.6 z m 151.5,6 c 23.3,1 23.6,1.1 34,4.7 l 10.5,3.7 20.9,31.2 c 20.5,30.9 20.8,31.4 20.1,35.4 -0.9,5.4 -0.2,5.3 -16.1,2.6 -42.8,-7.3 -83,-8.9 -171.4,-6.5 -53.8,1.4 -71.4,2.5 -95.4,6 -11.5,1.6 -21.2,2.8 -21.4,2.5 -0.6,-0.6 3.6,-9.9 16.1,-35.3 15.3,-31.3 24.9,-39.9 50.2,-44.8 8.1,-1.6 111.4,-1.2 152.5,0.5 z m -20.5,78.5 c 83.7,1.5 87.1,1.7 99.8,6 10.1,3.4 122.6,59.1 127.5,63.2 0.2,0.1 -4.8,7.6 -11.2,16.7 -54,76.9 -63.9,151.8 -30.5,230.7 5.2,12.3 5.1,16.8 -1.5,56.5 -13,79.5 -16.1,113.9 -13.7,154 1.1,17.3 1,21.5 -0.3,30.9 -2.8,19.2 -3.3,13.5 19.9,207.8 6.3,52.6 11.5,97.6 11.5,100.1 0,2.4 0.5,6.8 1,9.8 2.4,13 8.2,51.8 10.1,67.4 1.1,9.3 2.2,18.6 2.5,20.7 0.8,4.9 -1.8,7.5 -8.3,8.2 -2.6,0.3 -26.2,4 -52.3,8.1 -95.8,15.2 -102.7,15.8 -165,13.5 -14.6,-0.5 -48.8,-1.7 -76,-2.5 -171.8,-5.5 -201.9,-7.2 -220,-12.8 l -4.4,-1.4 0.2,-9.4 c 0.3,-7.9 5.8,-45.1 12.7,-84.9 9.8,-56.8 13.3,-112.3 12.2,-194.5 l -0.5,-42 3.3,-20.6 c 7.2,-43.8 7.2,-52 0,-173.4 -6.9,-116.8 -6.9,-112.5 -0.9,-126.3 32.3,-74.2 30,-141.1 -7.1,-207.2 -5.4,-9.6 -18.9,-30.3 -22.4,-34.5 -1,-1.1 -3.9,-5 -6.5,-8.7 l -4.7,-6.8 27.1,-13.5 c 93.4,-46.7 131.5,-58 192,-56.9 12.9,0.2 60.4,1 105.5,1.8 z M 1689,192.2 c 43.8,49 62.8,120.7 49.5,186.5 -5.2,25.5 -16,50.4 -26.5,61 l -6.2,6.3 -8.5,-7.8 c -4.7,-4.2 -13,-13.3 -18.3,-20.2 -14.4,-18.3 -82.4,-83.8 -88.1,-84.8 -1.5,-0.3 -0.6,-2.1 5.4,-11.5 39.1,-61.3 65.5,-104 73.3,-118.7 12.1,-22.8 9.8,-21.5 19.4,-10.8 z m 561.5,-3.4 c 3.2,5.1 18.7,28.8 38,58.2 6.7,10.2 17,25.9 23,35 5.9,9.1 14.6,22.2 19.2,29.1 9,13.8 9.2,14.2 6.3,17.9 -1.1,1.4 -2,3.2 -2,4.1 0,0.9 -10.2,11.7 -22.6,24 -12.4,12.3 -35.8,37.1 -52.1,55 l -29.6,32.7 -7.6,-6.3 c -12.3,-10.3 -14.5,-13 -19.5,-24.7 -30.9,-72.8 -17,-159.4 35.5,-221 8.7,-10.3 7.7,-9.9 11.4,-4 z m -634.9,171.4 c 35.3,32.1 48.8,46.1 66.3,68.7 8.3,10.7 15.1,20.1 15.1,20.9 0,2.5 -3.9,6.9 -7.6,8.7 -6.8,3.2 -9.5,1.5 -29.9,-18.4 -9.9,-9.7 -31.3,-30.1 -47.5,-45.4 -44.2,-41.5 -44.5,-42.1 -29.8,-53.8 6.9,-5.4 5.5,-6.2 33.4,19.3 z m 736,-19.6 c 7.8,10.1 4.5,17.4 -16.1,36.2 -19,17.3 -45.4,42.2 -66,62.3 -22.5,21.8 -24.4,22.7 -33.2,14.6 -3.6,-3.3 -3.8,-3.1 29,-39.9 l 31.2,-35.2 25,-20.8 c 27.7,-23 26.3,-22.2 30.1,-17.2 z"
       id="path3013"
       style="fill:#000000;stroke:none" />
  </g>
</svg>
