<?xml version="1.0" encoding="UTF-8" standalone="no"?>
<!-- Created with Inkscape (http://www.inkscape.org/) -->

<svg
   xmlns:dc="http://purl.org/dc/elements/1.1/"
   xmlns:cc="http://creativecommons.org/ns#"
   xmlns:rdf="http://www.w3.org/1999/02/22-rdf-syntax-ns#"
   xmlns:svg="http://www.w3.org/2000/svg"
   xmlns="http://www.w3.org/2000/svg"
   version="1.0"
   width="2386pt"
   height="1175pt"
   viewBox="0 0 2386 1175"
   id="svg3005">
  <defs
     id="defs3027" />
  <metadata
     id="metadata3007">
Created by potrace 1.10, written by Peter Selinger 2001-2011
<rdf:RDF>
  <cc:Work
     rdf:about="">
    <dc:format>image/svg+xml</dc:format>
    <dc:type
       rdf:resource="http://purl.org/dc/dcmitype/StillImage" />
    <dc:title></dc:title>
  </cc:Work>
</rdf:RDF>
</metadata>
  <g
     transform="matrix(0.1,0,0,-0.1,0,1175)"
     id="g3009"
     style="fill:#000000;stroke:none">
    <path
       d="m 3245,11556 c -260,-71 -348,-159 -486,-485 -140,-331 -229,-413 -639,-587 -594,-251 -826,-404 -970,-637 -28,-45 -68,-109 -90,-142 -21,-33 -53,-82 -70,-110 -17,-27 -44,-70 -60,-95 -16,-25 -39,-61 -50,-80 -11,-19 -34,-55 -50,-80 -16,-25 -39,-61 -50,-80 -11,-19 -33,-54 -48,-77 -15,-23 -56,-90 -92,-148 -36,-58 -77,-124 -92,-148 -15,-23 -37,-58 -48,-77 -11,-19 -34,-55 -50,-80 -29,-45 -47,-75 -108,-172 -18,-29 -51,-80 -72,-113 -141,-215 -140,-218 238,-544 261,-225 502,-458 638,-615 156,-182 216,-196 385,-90 54,34 97,54 116,54 l 29,0 18,-187 c 10,-104 24,-314 31,-468 8,-154 26,-383 39,-510 86,-773 78,-1070 -33,-1420 -41,-127 -40,-113 -30,-332 57,-1321 56,-1347 -50,-1983 -115,-682 -165,-964 -182,-1021 -38,-131 -19,-185 72,-209 24,-6 49,-13 55,-15 14,-4 24,-53 24,-121 0,-139 18,-146 405,-164 270,-13 452,-24 890,-55 1466,-105 2505,-72 3570,111 305,52 292,46 323,154 71,248 72,348 7,705 -37,201 -50,307 -226,1740 -87,712 -113,952 -119,1105 -6,142 -14,218 -29,280 -27,110 -31,711 -6,975 26,283 171,1494 180,1503 6,7 116,-48 172,-87 178,-121 183,-119 525,205 128,121 352,331 498,466 388,359 386,356 230,593 -22,33 -49,76 -60,95 -11,19 -33,54 -48,77 -15,24 -49,79 -77,124 -27,44 -62,99 -77,122 -15,23 -37,58 -48,77 -24,42 -122,199 -156,253 -13,20 -34,54 -47,75 -13,20 -35,55 -49,77 -14,22 -63,101 -108,175 -46,74 -104,167 -128,205 -25,39 -61,95 -80,125 -72,114 -88,135 -142,177 -78,62 -151,97 -440,212 -526,210 -691,310 -807,491 -31,47 -70,108 -88,135 -47,74 -66,107 -139,250 -76,150 -133,228 -208,283 -79,58 -117,76 -218,103 -20,5 -406,11 -895,14 l -860,4 z m 1311,-26 c 446,-18 512,-25 627,-65 125,-43 91,-4 374,-425 l 239,-355 47,-365 c 26,-201 47,-392 47,-424 0,-33 5,-88 11,-123 28,-158 -37,-243 -197,-258 -32,-3 -145,-18 -251,-32 l -192,-26 -20,24 c -64,76 -67,37 60,791 103,612 113,717 84,814 -43,145 -127,295 -152,271 -1,-2 23,-70 53,-152 45,-119 56,-163 57,-215 3,-112 114,-102 -1163,-97 l -1094,5 -24,28 c -13,16 -33,40 -45,53 l -20,25 22,100 c 27,118 52,180 89,219 44,46 308,189 380,206 52,13 758,13 1068,1 z m -1546,-253 c 0,-62 -5,-83 -31,-135 -89,-179 -75,-329 63,-645 102,-236 128,-384 128,-723 0,-301 4,-297 -287,-264 -158,17 -297,42 -387,67 -27,8 -19,441 13,616 67,378 191,691 420,1064 69,114 81,117 81,20 z m 2267,-477 c 76,-43 76,-38 1,-80 l -63,-35 -1017,-3 c -1126,-3 -1041,-7 -1137,65 l -52,38 43,18 c 81,34 115,36 1138,34 l 1025,-2 z m 53,-189 c 0,-10 -9,-50 -20,-87 -11,-38 -28,-94 -36,-124 -119,-422 -302,-746 -589,-1040 -198,-203 -233,-250 -327,-430 -46,-88 -85,-160 -88,-159 -7,0 -96,120 -156,212 -29,42 -71,98 -94,125 -24,26 -131,157 -238,292 -107,135 -206,254 -218,265 -71,61 -284,352 -308,420 -13,39 -41,115 -61,170 -20,55 -40,111 -45,125 -10,31 -75,208 -85,233 -7,16 51,17 1129,17 1108,0 1136,0 1136,-19 z m -2820,-46 c 0,-3 -20,-125 -44,-272 -40,-239 -45,-291 -50,-479 -7,-302 0,-312 216,-325 73,-4 174,-15 223,-23 50,-9 137,-21 193,-26 148,-15 207,-49 233,-138 8,-29 19,-44 33,-47 12,-2 49,-9 83,-15 220,-39 372,-192 469,-469 15,-42 30,-80 34,-86 52,-68 57,-95 69,-310 35,-653 41,-678 161,-710 282,-75 370,28 370,435 0,103 4,135 21,180 11,30 27,73 35,95 7,22 25,72 39,110 15,39 33,88 40,110 8,22 26,72 40,110 50,135 77,211 102,290 54,171 95,219 196,231 l 57,7 47,72 48,73 170,22 c 730,93 691,56 639,615 -8,88 -13,232 -12,321 l 3,161 474,-203 c 260,-112 476,-205 479,-208 2,-3 -33,-67 -79,-143 -46,-76 -115,-190 -153,-253 -426,-705 -470,-1316 -152,-2137 58,-150 58,-175 -13,-624 -116,-733 -128,-874 -141,-1554 -7,-378 -6,-485 5,-545 16,-90 26,-259 30,-510 3,-190 4,-198 70,-509 14,-67 39,-250 55,-405 56,-524 169,-1398 189,-1456 29,-85 107,-604 95,-637 -14,-40 -36,-49 -86,-35 -26,7 -116,11 -228,11 -255,0 -878,27 -1210,52 -685,52 -1372,37 -2587,-56 -1119,-87 -1065,-86 -1099,-8 -26,59 -26,84 2,178 17,56 147,838 194,1160 57,398 61,617 24,1510 l -17,400 37,115 c 101,315 119,630 66,1130 -11,107 -27,260 -36,340 -8,80 -19,251 -24,381 -5,130 -19,319 -30,420 -47,428 -48,411 36,599 373,828 238,1755 -353,2423 -80,90 -67,120 76,188 58,27 295,139 526,248 415,197 435,206 435,196 z m 4605,-762 c 66,-108 131,-214 145,-237 13,-23 158,-261 322,-530 l 298,-490 -42,-14 c -77,-25 -172,-64 -213,-86 -103,-58 -125,-72 -200,-131 -129,-102 -254,-247 -350,-406 -11,-18 -27,-45 -36,-59 -38,-59 -73,-125 -155,-285 -48,-93 -88,-172 -90,-174 -5,-6 -81,48 -136,98 -31,28 -62,70 -84,113 -334,664 -242,1556 225,2186 58,78 178,212 190,212 3,0 60,-89 126,-197 z m -5712,111 c 75,-76 266,-384 352,-569 143,-307 200,-561 199,-875 -2,-493 -106,-846 -318,-1085 l -44,-50 -22,20 c -12,11 -33,40 -47,65 -13,25 -34,60 -46,78 -26,38 -133,206 -162,253 -11,18 -34,55 -52,83 -17,28 -54,92 -81,141 -92,166 -296,326 -537,420 -48,19 -96,41 -104,49 -9,7 -26,17 -37,20 -73,22 -21,118 680,1274 30,51 65,111 77,135 45,90 82,100 142,41 z m 2097,-299 c 50,-69 100,-130 110,-135 16,-9 18,-18 13,-60 -7,-63 9,-84 79,-100 44,-11 56,-20 111,-87 78,-94 78,-94 20,-76 -26,8 -61,19 -78,23 -16,5 -86,25 -155,45 -69,20 -142,41 -162,47 -71,20 -148,106 -148,167 0,11 21,50 46,87 44,64 46,69 43,128 -3,59 3,86 21,86 5,0 50,-56 100,-125 z m 441,-561 c 54,-27 217,-285 375,-593 l 44,-85 -33,32 c -44,42 -115,53 -171,27 -98,-47 -118,-182 -38,-256 108,-101 279,-13 259,134 l -5,40 23,-39 c 30,-48 30,-61 5,-169 -58.2447,-182.1871 34.9453,-372.5076 -113,-381 -125,-8 -148,-3 -164,33 -19,47 -21,58 -63,383 -45,348 -57,424 -71,449 -17,30 -149,355 -149,367 0,6 7,28 15,48 17,40 26,41 86,10 z m 599,-302 c 44,2 69,-1 67,-7 -2,-5 -33,-97 -68,-202 -69,-210 -70,-211 -97,-155 -43,85 -57,111 -99,185 l -44,78 47,87 46,87 39,-38 c 38,-38 39,-39 109,-35 z m 3468,-343 c 18,-28 32,-58 30,-66 -3,-18 -164,-83 -278,-114 -216,-57 -364,-199 -435,-417 -9,-29 -15,-55 -12,-58 5,-5 60,76 108,161 50,88 169,203 252,244 99,48 358,99 356,70 0,-17 -731,-653 -755,-657 -14,-3 -15,2 -9,40 4,27 4,39 -2,33 -27,-28 -165,-229 -202,-292 -60,-104 -102,-124 -186,-89 -71,30 -27,158 150,436 51,80 109,179 130,220 139,280 321,421 665,515 133,37 149,34 188,-26 z M 568,8374 c 171,-56 340,-156 463,-274 75,-72 148,-198 358,-617 116,-233 116,-234 58,-262 -89,-43 -129,-21 -187,101 -17,37 -39,74 -49,80 -10,7 -58,92 -106,188 -156,312 -214,383 -407,499 -56,34 -46,20 17,-24 111,-76 220,-221 295,-391 86,-195 74,-196 -133,-6 -89,81 -255,230 -369,331 -115,101 -208,190 -208,198 0,25 177,-9 278,-53 28,-13 52,-21 52,-19 0,10 -215,116 -277,136 -86,27 -85,24 -31,101 l 42,60 49,-6 c 27,-4 96,-23 155,-42 z M 4945,1280 c 121,-5 310,-17 420,-25 110,-8 420,-31 690,-50 559,-40 524,-31 525,-131 0,-85 -26,-100 -242,-139 -547,-96 -994,-134 -1683,-142 -616,-7 -944,4 -1800,63 -203,13 -504,33 -667,43 -164,9 -301,21 -305,25 -10,9 -11,195 -1,217 5,14 43,17 295,24 168,4 321,13 368,21 44,8 132,19 195,24 63,6 160,15 215,20 477,47 1488,72 1990,50 z"
       id="path3011" />
    <path
       d="m 18815,11531 c -298,-64 -470,-218 -596,-534 -122,-309 -184,-365 -604,-547 -211,-92 -693,-328 -754,-369 -67,-46 -130,-113 -173,-186 -16,-27 -46,-76 -66,-107 -21,-32 -70,-111 -111,-175 -40,-65 -85,-136 -99,-158 -30,-48 -68,-107 -97,-155 -21,-33 -47,-76 -99,-157 -13,-21 -45,-73 -72,-116 -124,-198 -231,-364 -389,-607 -63,-97 -77,-128 -82,-190 -9,-98 5,-115 372,-451 99,-90 278,-258 398,-374 396,-381 379,-375 607,-230 53,34 100,46 100,25 0,-5 20,-254 44,-552 102,-1246 111,-1385 97,-1526 -23,-239 -42,-367 -73,-492 -46,-191 -47,-219 -28,-640 48,-1012 47,-1020 -220,-2683 -80,-497 -89,-477 235,-521 280,-38 272,-38 1570,-81 1907,-64 1872,-64 2555,35 1062,155 1003,144 1024,203 27,75 -151,1480 -294,2332 -54,322 -77,540 -120,1135 -12,157 -27,362 -35,455 -17,200 -19,512 -5,727 20,293 70,844 91,993 23,172 107,706 111,711 2,1 30,-18 63,-43 247,-187 310,-202 423,-101 70,63 852,808 940,895 157,157 148,209 -99,540 -339,454 -361,488 -509,788 -278,563 -570,823 -1140,1015 -123,41 -204,90 -315,189 -49,45 -123,109 -163,144 -65,54 -94,93 -239,312 -91,138 -188,280 -215,317 l -50,66 -116,37 c -64,21 -135,43 -158,50 -126,41 -1537,63 -1709,26 z m 1515,-60 c 233,-10 236,-11 340,-47 l 105,-37 209,-312 c 205,-309 208,-314 201,-354 -9,-54 -2,-53 -161,-26 -428,73 -830,89 -1714,65 -538,-14 -714,-25 -954,-60 -115,-16 -212,-28 -214,-25 -6,6 36,99 161,353 153,313 249,399 502,448 81,16 1114,12 1525,-5 z m -205,-785 c 837,-15 871,-17 998,-60 101,-34 1226,-591 1275,-632 2,-1 -48,-76 -112,-167 -540,-769 -639,-1518 -305,-2307 52,-123 51,-168 -15,-565 -130,-795 -161,-1139 -137,-1540 11,-173 10,-215 -3,-309 -28,-192 -33,-135 199,-2078 63,-526 115,-976 115,-1001 0,-24 5,-68 10,-98 24,-130 82,-518 101,-674 11,-93 22,-186 25,-207 8,-49 -18,-75 -83,-82 -26,-3 -262,-40 -523,-81 -958,-152 -1027,-158 -1650,-135 -146,5 -488,17 -760,25 -1718,55 -2019,72 -2200,128 l -44,14 2,94 c 3,79 58,451 127,849 98,568 133,1123 122,1945 l -5,420 33,206 c 72,438 72,520 0,1734 -69,1168 -69,1125 -9,1263 323,742 300,1411 -71,2072 -54,96 -189,303 -224,345 -10,11 -39,50 -65,87 l -47,68 271,135 c 934,467 1315,580 1920,569 129,-2 604,-10 1055,-18 z m -3235,-858 c 438,-490 628,-1207 495,-1865 -52,-255 -160,-504 -265,-610 l -62,-63 -85,78 c -47,42 -130,133 -183,202 -144,183 -824,838 -881,848 -15,3 -6,21 54,115 391,613 655,1040 733,1187 121,228 98,215 194,108 z m 5615,34 c 32,-51 187,-288 380,-582 67,-102 170,-259 230,-350 59,-91 146,-222 192,-291 90,-138 92,-142 63,-179 -11,-14 -20,-32 -20,-41 0,-9 -102,-117 -226,-240 -124,-123 -358,-371 -521,-550 l -296,-327 -76,63 c -123,103 -145,130 -195,247 -309,728 -170,1594 355,2210 87,103 77,99 114,40 z M 16156,8148 c 353,-321 488,-461 663,-687 83,-107 151,-201 151,-209 0,-25 -39,-69 -76,-87 -68,-32 -95,-15 -299,184 -99,97 -313,301 -475,454 -442,415 -445,421 -298,538 69,54 55,62 334,-193 z m 7360,196 c 78,-101 45,-174 -161,-362 -190,-173 -454,-422 -660,-623 -225,-218 -244,-227 -332,-146 -36,33 -38,31 290,399 l 312,352 250,208 c 277,230 263,222 301,172 z"
       id="path3013" />
  </g>
</svg>
