<?xml version="1.0" encoding="UTF-8" standalone="no"?>
<!-- Created with Inkscape (http://www.inkscape.org/) -->

<svg
   xmlns:dc="http://purl.org/dc/elements/1.1/"
   xmlns:cc="http://creativecommons.org/ns#"
   xmlns:rdf="http://www.w3.org/1999/02/22-rdf-syntax-ns#"
   xmlns:svg="http://www.w3.org/2000/svg"
   xmlns="http://www.w3.org/2000/svg"
   version="1.0"
   width="7500pt"
   height="3306pt"
   viewBox="0 0 7500 3306"
   id="svg3131">
  <defs
     id="defs3225" />
  <metadata
     id="metadata3133">
Created by potrace 1.10, written by Peter Selinger 2001-2011
<rdf:RDF>
  <cc:Work
     rdf:about="">
    <dc:format>image/svg+xml</dc:format>
    <dc:type
       rdf:resource="http://purl.org/dc/dcmitype/StillImage" />
    <dc:title></dc:title>
  </cc:Work>
</rdf:RDF>
</metadata>
  <path
     d="m 5722.616,64.561204 c -0.9269,0.34762 -2.8967,1.73807 -4.4031,3.01266 -2.5491,2.31742 -2.665,2.31742 -6.9523,0.34761 -15.5267,-7.53164 -29.7789,-1.50633 -54.1119,22.94253 -11.1236,11.239516 -48.5501,47.391376 -113.0904,109.150796 -93.7399,89.80029 -89.8003,85.74479 -98.6065,100.11284 -58.2833,94.31927 -101.0398,244.72027 -120.7379,424.66847 -5.6777,52.1421 -7.9952,83.65912 -7.7634,106.02232 0.6952,53.069 0.5793,56.7769 -2.0857,68.364 -3.592,15.8744 -3.3603,30.0107 0.5793,36.7313 3.9397,6.8364 5.0984,5.7935 -20.3933,18.4235 -26.6504,13.0935 -24.333,11.3554 -20.3934,15.4109 l 3.1286,3.2444 -14.8316,3.1285 c -54.923,11.703 -127.8061,31.74877 -187.4798,51.44687 -13.3252,4.519 -29.7789,9.2697 -36.4995,10.6602 -58.3991,11.9347 -113.9015,35.109 -150.8645,62.9181 -4.7507,3.592 -28.3884,18.4235 -52.6056,33.0233 -67.4371,40.6709 -157.3532,95.8256 -195.7067,119.811 -162.3357,101.8509 -240.433,155.7311 -257.8137,177.6308 -30.3583,38.5851 -44.3787,96.7525 -67.2054,278.6705 -23.9853,191.6512 -38.5851,254.3376 -77.402,331.9714 -46.2327,92.6971 -62.1071,175.4293 -42.5248,222.1254 1.7381,4.0555 8.6903,21.6679 15.5268,39.1645 15.7585,40.2074 14.5997,37.7741 30.8217,67.3213 83.3115,151.9073 162.6834,265.4612 208.8002,298.6004 6.6047,4.7507 2.7809,-2.0857 57.8198,102.1985 13.2093,25.1441 26.5345,50.1723 29.4313,55.6183 l 5.2142,9.849 11.0078,0.8111 c 6.0253,0.3477 21.7838,1.6222 34.9931,2.781 27.8092,2.4333 22.3632,3.2444 65.815,-10.6602 95.7097,-30.9377 134.9901,-54.8072 152.7184,-93.1606 13.2093,-28.3884 12.8617,-35.3407 -6.4888,-112.2793 l -15.295,-60.7166 3.0126,-9.3856 c 7.0682,-21.552 6.7206,-24.4488 -14.1363,-128.1537 -42.8724,-213.2032 -77.0544,-338.4602 -110.1936,-403.2322 -17.7283,-34.6456 -19.4664,-56.1976 -4.9825,-63.4975 9.7332,-4.8666 95.5939,-42.1772 107.181,-46.5803 27.1139,-10.0808 41.2502,-18.7712 58.7468,-36.036 9.5014,-9.3856 16.3378,-14.7157 30.9376,-24.2171 10.3126,-6.7205 28.7361,-18.7712 41.0185,-26.7663 12.1665,-8.111 22.479,-14.1363 22.9425,-13.6728 0.3476,0.5794 6.0253,-1.8539 12.63,-5.3301 13.9045,-7.2999 12.7458,-6.9523 12.7458,-4.4031 0,1.0428 1.6222,3.7079 3.7079,5.7936 l 3.592,3.7079 9.1539,93.624 c 37.5423,388.6325 35.4566,364.5312 36.1518,407.056 0.8111,42.1772 1.5064,55.0389 5.9095,95.5939 5.9094,54.3436 8.6903,91.3066 12.1665,161.6405 1.2745,25.8393 2.8967,49.2453 3.4761,52.1421 0.5793,2.8968 1.6222,27.5774 2.3174,55.0389 3.7079,160.0183 9.1539,226.2967 22.1314,271.7183 5.7936,20.0457 8.9221,25.3758 23.6378,40.2073 9.038,9.038 12.3982,13.0935 10.8919,13.0935 -2.8968,0 -3.0126,-1.6222 2.8968,33.7186 9.9649,58.6309 16.5696,115.4078 20.3933,171.953 0.6953,10.1967 1.5064,21.7839 1.854,25.7235 l 0.6952,7.2999 640.6527,0 640.6526,0 0,-4.4031 c 0,-42.0613 7.7634,-141.4789 15.6426,-200.6892 3.5921,-27.1139 3.2444,-25.6076 8.8063,-28.9678 34.7614,-21.3204 46.2326,-90.1479 50.8675,-304.7417 0.8111,-35.109 1.8539,-60.9483 2.8968,-68.9434 0.9269,-7.0682 2.4333,-30.4742 3.4761,-52.1421 2.8968,-62.4547 5.7936,-101.9668 12.1665,-162.2199 5.446,-50.7516 6.1412,-68.2482 6.3729,-159.9025 l 0.3476,-85.7447 12.3983,-126.2998 c 6.7205,-69.5228 15.0632,-155.3835 18.5394,-191.0719 3.4761,-35.5725 6.4888,-65.0038 6.8364,-65.2355 0.3476,-0.3476 2.4333,0.4635 4.6349,1.7381 2.4333,1.5063 4.1713,1.8539 4.4031,1.1587 1.0428,-2.8968 84.0067,53.069 94.551,63.7292 17.1489,17.3807 28.8519,24.9123 55.6182,35.4566 9.038,3.592 31.1694,12.9776 49.1295,20.8569 75.5481,33.1392 68.2482,29.1996 70.4497,37.3105 3.8238,13.557 0,28.1568 -15.0632,57.704 -34.7614,67.7847 -76.7069,228.9617 -122.9395,472.8709 -5.5618,29.0837 -5.2142,40.555 1.8539,58.7468 1.6222,4.1714 1.2746,6.1412 -13.5569,64.8879 l -15.295,60.6008 0,13.9045 c 0,62.5705 47.1596,97.7954 186.4369,139.7409 l 16.222,4.8666 15.6427,-1.5064 c 8.5744,-0.6952 24.3329,-2.0857 35.109,-2.8968 10.6601,-0.6952 19.5822,-1.6222 19.814,-1.8539 0.5793,-0.5794 14.5998,-27.2298 47.0437,-88.5257 14.8316,-28.0409 29.6631,-56.1976 33.0234,-62.5705 5.3301,-9.965 7.184,-12.2824 12.9776,-16.4538 46.0009,-33.3709 126.6473,-149.3581 211.2334,-304.0464 12.1665,-22.1314 30.5901,-65.8149 44.7264,-105.4429 17.1489,-48.2025 0.9269,-127.6902 -44.8422,-218.9968 -38.9328,-77.9814 -52.7215,-138.698 -79.256,-350.9743 -20.2775,-162.2199 -35.3408,-221.4301 -65.9308,-260.0153 -21.0886,-26.4187 -189.2179,-136.8441 -424.3209,-278.5547 -13.2093,-7.9951 -26.6504,-17.149 -31.2853,-21.2045 -22.3631,-19.814 -47.5072,-35.3407 -79.256,-48.6659 -9.2697,-3.9397 -18.887,-8.2269 -21.4362,-9.5015 -2.5491,-1.3904 -5.9094,-2.5491 -7.5316,-2.665 -1.6222,0 -11.2395,-2.5492 -21.4362,-5.5618 -10.1967,-3.0127 -28.7361,-7.5317 -41.1343,-9.965 -12.3982,-2.5492 -26.5346,-5.9094 -31.2853,-7.5316 -71.145,-24.4489 -186.0894,-52.95317 -273.3405,-67.78477 -17.1489,-2.8967 -15.7585,-2.2015 -17.96,-9.0379 l -1.854,-5.5618 6.0253,-13.2094 6.1412,-13.3252 0,-61.9911 c -0.1159,-68.2483 -0.8111,-77.86559 -8.8062,-125.72045 -21.0886,-126.06802 -79.7195,-293.27037 -159.439,-455.02676 l -9.5014,-19.46639 -30.4742,-30.93765 c -95.3621,-97.4478 -115.292,-116.4507 -144.8392,-138.697986 -18.4235,-13.78869 -28.9678,-20.97272 -31.8646,-21.66795 -4.7507,-1.04284 -20.7409,-1.27458 -23.5219,-0.23174 z m 20.9728,10.66017 c 2.665,0.57935 14.2521,8.57447 32.6757,22.71078 l 28.6202,21.667936 63.4975,64.54034 c 83.4274,84.70195 74.6211,74.73701 86.44,98.37477 59.7896,119.57922 115.4079,267.31518 142.0583,377.27709 18.887,77.74967 23.1742,114.36501 23.1742,197.56064 l 0,57.2404 -6.4888,14.5998 -6.3729,14.4839 3.592,9.1539 c 2.2016,5.9094 4.0555,13.2093 4.8666,20.5092 l 1.2746,11.3554 21.8997,10.4284 c 27.3456,13.20937 27.1139,12.51407 6.2571,22.01557 -252.9472,115.292 -551.7794,111.5841 -805.4217,-10.1967 l -17.3807,-8.34267 -14.1364,-14.0205 c -7.8792,-7.7634 -14.2521,-14.7156 -14.2521,-15.5267 0,-0.8111 9.6173,-6.373 21.4362,-12.1665 l 21.4362,-10.7761 -5.3301,-8.6903 -5.2142,-8.6904 0.4635,-13.3252 c 0.2317,-7.2999 1.3904,-18.0759 2.4333,-23.7536 2.4333,-12.5141 2.7809,-36.036 0.8111,-47.6231 -1.5064,-8.6904 0.9269,-55.6183 3.2444,-63.72925 0.5793,-1.96981 0.8111,-4.86659 0.4634,-6.48879 -1.1587,-5.79357 7.2999,-79.83536 14.1363,-124.90931 21.8997,-143.91221 58.2833,-259.89942 106.7176,-340.43 l 9.2697,-15.29502 93.2764,-89.45268 c 51.2151,-49.12945 98.6065,-94.89863 105.327,-101.73503 30.5901,-30.937646 38.3535,-32.443976 65.1197,-11.934746 l 6.7206,5.09834 -3.4762,-7.76338 c -5.9094,-13.20934 -3.1285,-15.87438 12.8618,-12.16649 z m 404.6227,895.801356 c 84.3543,14.8315 175.5451,37.42637 253.99,63.03397 10.8919,3.4761 26.7662,7.7634 35.3407,9.2697 31.7488,5.9094 67.2054,16.1061 67.2054,19.3505 0,1.2746 -3.4761,13.557 -7.6475,27.3456 -7.2999,24.1013 -7.6475,25.4917 -6.8364,33.4869 0.6952,7.7633 0.3476,9.5014 -6.2571,31.8646 -58.515,198.7193 -69.6386,367.5439 -31.517,482.8359 9.1539,27.4615 45.074,118.1887 53.0691,134.0631 1.0428,1.854 3.3603,4.7507 5.3301,6.3729 3.3602,2.8968 3.3602,3.0127 2.0857,9.2697 -0.6953,3.4762 -3.9397,33.7186 -7.0682,67.2054 -3.2444,33.4868 -7.4158,76.7068 -9.2697,96.1732 -1.8539,19.4664 -4.519,46.5803 -5.7936,60.2531 -1.3904,13.6729 -5.33,54.1119 -8.9221,89.8003 l -6.4888,64.888 -0.8111,96.7525 c -0.9269,98.2589 -1.2745,108.5715 -6.3729,155.847 -6.0253,56.6611 -8.8062,93.0447 -12.1665,161.0612 -1.2746,25.4917 -2.7809,49.2453 -3.4761,52.7214 -0.5794,3.4762 -1.8539,36.8471 -2.8968,74.1577 -5.3301,211.8128 -15.4109,272.5294 -47.9707,291.764 l -5.3301,3.1286 -643.8971,0.3476 c -554.7919,0.2317 -644.0129,0 -644.0129,-1.3905 0,-1.0428 -1.8539,-1.9698 -4.7507,-2.4333 -17.4966,-3.0126 -39.3963,-26.7663 -46.6961,-50.6358 -12.9776,-42.293 -19.0029,-118.5363 -22.1315,-275.542 -0.3476,-19.4664 -1.3904,-41.3661 -2.3174,-48.666 -0.927,-7.2999 -2.4333,-30.2424 -3.4761,-50.9834 -3.1286,-66.7419 -6.4888,-111.4682 -12.7459,-169.7515 -3.592,-33.8344 -4.9825,-56.0817 -5.7936,-99.6493 -0.8111,-36.6154 -1.3904,-43.5677 -39.1645,-432.7795 l -6.0253,-62.107 -3.592,-4.4032 c -2.665,-3.1285 -3.8237,-6.0253 -4.4031,-10.3125 -1.6222,-13.6728 -1.0428,-16.8013 6.3729,-34.4138 10.1967,-24.333 36.036,-92.3495 40.7867,-107.181 35.4567,-110.773 24.4489,-280.988 -30.2424,-466.9615 -8.4586,-28.7361 -8.9221,-30.7059 -9.038,-42.293 -0.1158,-11.5872 -0.4634,-13.3252 -7.7633,-37.0789 -4.2873,-13.6728 -7.7634,-25.6075 -7.7634,-26.3028 0,-4.8666 54.923,-23.406 92.1177,-31.1693 8.3427,-1.7381 20.1616,-4.8666 26.3028,-6.9523 57.9357,-19.9299 128.0378,-39.628 191.4195,-53.64847 33.4868,-7.4157 28.9678,-8.111 44.0311,6.7206 l 12.8617,12.51407 20.2775,9.9649 c 132.5568,64.3086 279.0182,96.6367 427.797,94.4352 31.8646,-0.4635 33.0233,-0.5794 43.22,-3.7079 8.8062,-2.7809 12.8617,-3.3603 26.3028,-3.7079 10.5443,-0.2317 17.8442,-0.927 22.0155,-2.2016 3.8238,-1.2745 11.9348,-2.2015 21.7838,-2.5491 10.5443,-0.3476 18.3077,-1.3905 23.7537,-2.8968 5.6777,-1.6222 14.2521,-2.5492 28.3884,-3.2444 20.9728,-1.0429 23.4061,-1.3905 61.4119,-11.0078 34.5296,-8.5745 75.8957,-21.8997 108.919,-34.7614 25.8393,-10.0808 75.3164,-32.2122 75.3164,-33.7186 0,-2.0856 -6.2571,-12.2823 -8.9221,-14.48387 -1.8539,-1.5063 -11.4713,-6.7205 -21.4362,-11.4712 -18.7712,-8.9221 -19.4664,-9.5015 -19.4664,-16.5696 0,-3.8238 -1.7381,-3.8238 22.3632,0.3476 z m 430.8096,132.32507 c 272.5294,163.7262 450.1602,278.5547 480.4026,310.5352 29.8948,31.7487 45.074,91.1907 66.3943,260.1311 26.071,206.251 40.555,271.7183 75.4322,341.357 52.1421,103.9366 66.8578,179.4847 45.074,231.3951 -3.1285,7.2999 -7.184,17.4965 -9.038,22.5949 -16.5696,44.4946 -23.0584,58.0515 -56.1976,115.8713 -87.7146,153.6454 -161.2929,250.8615 -201.5002,266.1565 -4.519,1.7381 -10.8919,2.4333 -29.1996,3.2444 -12.7459,0.5793 -29.8948,1.3904 -37.8899,1.8539 -16.4538,0.927 -12.5142,1.7381 -54.3437,-11.3554 -120.9697,-37.8899 -168.7087,-68.1323 -181.8021,-115.4078 -5.5619,-20.1616 -5.3301,-21.668 18.4235,-137.8869 41.7137,-204.3971 74.2735,-323.2811 104.8636,-382.0278 13.441,-25.7235 15.9902,-33.7186 16.1061,-49.4771 0.1159,-8.8062 0.4635,-12.5141 1.5063,-12.5141 0.6952,0 16.9172,6.8364 35.9201,15.1791 19.0029,8.3428 41.5978,18.1918 50.1723,21.8997 8.5745,3.8238 41.7137,18.3077 73.5783,32.3281 60.6007,26.6504 60.8325,26.7663 60.8325,20.3934 0,-0.6952 -39.9756,-18.887 -88.8733,-40.3232 -152.9502,-67.0895 -136.2647,-59.0944 -146.3456,-69.407 -11.5871,-11.5871 -26.071,-18.7711 -58.515,-28.7361 -73.5783,-22.7108 -83.0797,-27.1139 -106.4857,-49.8246 -11.2396,-10.7761 -17.9601,-15.9903 -34.298,-26.6505 -11.1236,-7.2998 -34.5296,-22.479 -52.0262,-33.8344 -21.7838,-14.2522 -31.9805,-20.2775 -32.6757,-19.3505 -3.0127,4.9825 -18.0759,-29.1996 -49.8247,-113.9015 -45.0739,-120.5062 -36.7312,-290.2577 24.6806,-498.0151 6.3729,-21.8996 6.9523,-24.5647 6.8364,-33.9503 -0.2317,-9.3855 0.2318,-11.9347 6.7206,-33.3709 3.9396,-12.7459 7.0681,-23.406 7.0681,-23.7536 0,-1.854 8.6904,3.0126 65.0038,36.8471 z m -1636.9144,-15.6427 c 0.3476,1.1587 3.4761,11.703 7.0681,23.5219 6.373,20.6251 6.6047,21.7838 5.9095,31.0535 -0.3476,5.5618 -0.1159,11.0078 0.5793,12.7459 13.2094,34.4138 39.8598,148.8946 49.0136,210.5382 19.3505,130.7029 13.2093,225.3698 -20.5092,315.4018 -30.3583,80.6464 -44.0311,111.9317 -47.0438,107.0651 -0.5793,-0.927 -9.1538,3.9396 -26.8821,15.5268 -80.4148,52.3738 -78.5608,51.2151 -92.0019,64.1927 -22.7108,22.1314 -34.4138,27.925 -91.5383,45.3057 -48.666,14.8315 -60.6008,20.2775 -74.5053,34.4138 l -8.3428,8.4586 -74.5052,32.5598 c -40.9026,17.9601 -89.8003,39.3963 -108.5715,47.739 -18.7711,8.2269 -36.3836,15.9903 -39.1645,17.149 -4.8666,2.0857 -5.3301,3.8237 -1.9698,7.7634 0.3476,0.3476 13.4411,-5.2142 53.8802,-22.9426 92.2336,-40.6708 163.842,-71.8402 164.5373,-71.8402 0.4635,0 1.1587,5.5618 1.3904,12.3982 0.5794,16.5696 3.2444,24.4489 17.2649,51.9104 33.1392,64.888 71.4926,210.77 116.2189,441.3539 11.3554,58.3992 11.4713,67.2054 1.2746,89.3369 -19.5823,42.5247 -68.9434,69.7545 -197.5606,109.0349 l -17.9601,5.4459 -17.96,-0.8111 c -9.8491,-0.4634 -27.3457,-1.2745 -38.9328,-1.738 -20.2775,-0.8111 -21.2045,-0.927 -28.9679,-4.6349 -40.3232,-18.887 -110.3095,-111.2365 -191.8829,-253.2947 -38.1217,-66.2784 -42.7565,-75.3164 -57.7039,-113.9016 -7.6475,-19.5822 -15.0633,-38.701 -16.6855,-42.5248 -18.4235,-45.0739 -2.2016,-125.0251 44.7263,-218.765 37.3106,-74.7371 51.7945,-138.0028 76.8227,-336.2587 25.7235,-203.1224 39.2804,-249.5869 83.4274,-284.9276 21.2045,-17.0331 93.8558,-67.0895 137.5393,-94.6669 4.6348,-3.0127 20.1616,-12.9776 34.5296,-22.1314 23.1743,-14.8316 73.1149,-46.1168 119.9269,-75.0847 88.5257,-54.8071 232.4379,-141.2471 235.4506,-141.2471 1.3904,-0.1159 2.7809,0.6952 3.1285,1.8539 z m 1740.1558,1475.0422 c 23.5219,35.2249 79.3719,63.3816 195.3591,98.3748 l 21.0886,6.3729 20.6251,-1.2746 c 11.2395,-0.6952 28.6202,-1.7381 38.4692,-2.3174 9.8491,-0.5794 19.1188,-1.3905 20.6251,-1.7381 5.6777,-1.7381 6.6047,-3.7079 -54.923,112.3952 l -16.5696,31.2853 -7.2999,0.8111 c -14.8315,1.6222 -47.9707,4.4031 -53.3008,4.4031 -14.368,0 -95.7097,-28.2726 -129.66,-45.074 -44.8422,-22.2473 -65.8149,-48.4342 -67.9006,-85.3971 l -0.6953,-11.703 13.7887,-55.1548 c 14.9474,-60.1372 14.7157,-59.5579 20.3934,-50.9834 z m -1889.0505,66.9736 c 12.9776,51.331 13.2093,52.3739 13.2093,65.4674 0.1159,45.1898 -27.8091,74.9687 -95.3621,101.9667 -25.3758,10.1967 -73.81,26.5346 -95.2462,32.2123 -3.2444,0.9269 -10.5443,0.5793 -26.6504,-1.0429 -12.2824,-1.1587 -25.3759,-2.2015 -28.9679,-2.2015 -11.703,0 -8.6903,4.5189 -48.7818,-71.7244 -20.1616,-38.2375 -36.7312,-70.3339 -36.7312,-71.3767 0,-1.6222 0.927,-1.854 6.1412,-1.2746 3.2444,0.4635 16.6854,1.2746 29.7789,1.8539 13.0935,0.6952 28.9678,1.5063 35.3408,1.854 13.0934,0.6952 24.6806,-2.3175 78.7925,-20.5093 84.3543,-28.3884 125.2569,-51.331 147.8518,-82.7321 6.4888,-9.038 6.0253,-9.8491 20.6251,47.5072 z m 1599.8356,387.2421 c -0.9269,4.4031 -6.0253,44.7263 -8.2268,64.6562 -2.6651,24.9123 -6.1412,68.0165 -7.5317,95.0145 -0.5793,13.3252 -1.5063,30.2424 -1.8539,37.3105 l -0.6952,13.0935 -629.4132,0 -629.529,0 -1.3904,-21.2044 c -3.7079,-54.3437 -10.6602,-113.6698 -19.9299,-169.0563 -1.8539,-11.2396 -3.3603,-20.9727 -3.3603,-21.668 0,-0.9269 179.6006,-1.2746 651.3128,-1.2746 l 651.3129,0 -0.6953,3.1286 z"
     id="path3173"
     style="fill:#000000;stroke:none" />
  <g
     transform="matrix(1.12877,0,0,1.12877,119.36167,-218.05097)"
     id="g3279">
    <path
       d="m 1625.6,290 c -1.6,0.5 -3.9,1.9 -5.2,3.1 -2.3,2.2 -2.3,2.2 -6.1,0.3 -13.6,-6.6 -31.7,-0.3 -51.1,18.1 -3.7,3.4 -38.6,33.6 -77.7,67 -39,33.4 -89.4,76.5 -112,95.8 l -41,35.1 -42.9,47.3 -43,47.3 -8.8,16.7 c -15.7,29.8 -26.2,54.8 -31,74 l -4.2,16.8 1.6,15.5 1.6,15.5 -5.3,8 c -39.3,59.7 -23.4,120 43.3,164.1 6.9,4.5 7.3,5 6.8,7.9 -1.7,9.4 -1.8,28.4 -0.2,38 2.9,17.1 1.9,41.6 -2.4,56.5 -1.7,6 -0.1,21.8 2.7,26.7 l 2.4,4.2 -2.3,1.2 c -1.2,0.7 -5.9,1.8 -10.3,2.6 -23.6,4 -30.6,6.8 -56.7,22.5 l -19.7,11.9 -22.8,6 c -36.9,9.7 -80.8,22.9 -108.1,32.4 -5.7,2 -14.5,4.4 -19.6,5.5 -51.7,10.6 -96.6,29 -130.9,53.6 -6.4,4.7 -24.7,16.3 -40.5,25.8 -53.6,32.3 -104.5,63.3 -134.7,82.1 -5.5,3.4 -15.8,9.8 -23,14.2 -116,71.4 -213.1,136.9 -234,157.8 -29,29 -43.7,83.4 -62,230.5 -22.7,181.9 -33.6,230 -68.5,302 -31.6,65.3 -43.4,105.9 -43.5,149.5 0,26.1 0.8,29.7 12.3,58 2.3,5.5 7.8,19.4 12.2,30.8 8.2,21.3 17.3,39.1 42.3,82.7 64.6,113 121.3,191.7 158.9,220.9 5.9,4.6 7.4,6.5 12.1,15.4 3,5.6 12.7,23.9 21.5,40.7 8.9,16.8 23,43.5 31.5,59.5 l 15.3,29 7.4,0.7 c 4.1,0.4 17.9,1.7 30.6,2.8 l 23.1,2 17.9,-5.5 c 117.3,-36.1 154.9,-64.1 157,-117.5 l 0.5,-11.5 -13.4,-53.3 -13.5,-53.3 2.4,-6.7 c 6.4,-18.6 6.4,-19.7 -6.8,-86.2 -37.4,-189.9 -70.3,-314.7 -96.4,-366.1 -7.4,-14.6 -16.8,-43.7 -16,-49.6 2.5,-18.5 15.7,-26.6 71.1,-43.4 47.3,-14.5 59.6,-20.7 79.5,-40.4 9.9,-9.8 81.6,-58.4 83.1,-56.3 0.5,0.8 16.5,-6.9 19.6,-9.4 0.8,-0.6 1.3,-0.2 1.8,1.4 0.4,1.3 2,3.6 3.5,5.3 l 2.8,3 7.1,74.5 c 4,41 8.5,88 10.2,104.5 5.5,57.1 16.9,175.1 18.8,195.5 1.1,11.6 2.2,33.9 2.6,51.5 0.7,36.8 1.7,54.3 5,84.5 5.3,48.8 8.2,88.5 11,147 0.9,17.9 2.2,37.7 3,44 0.7,6.3 1.6,26.1 2,44 2.4,132.2 8,199.6 19.6,237.5 4.9,15.8 7.8,20.6 20.1,33 9.1,9.1 10.6,11.1 8.9,11.3 -1.2,0.2 -2.1,0.5 -2.1,0.7 0,0.2 1.6,9.1 3.5,19.9 9.3,52.7 20.4,150.7 20.5,181.8 l 0,2.8 553.3,0 553.3,0 0.2,-12.3 c 0.9,-45.4 5.4,-103.3 12.3,-157.2 3.8,-29.8 3.5,-28.8 8.6,-32.2 29.5,-19.8 39.6,-77.8 43.3,-249.3 1.1,-52.5 1.6,-64.9 3,-73.5 0.5,-3.3 1.6,-20.4 2.5,-38 2.6,-54.8 5.5,-95.9 9.6,-134 6,-56.2 6.9,-78 6.9,-160.6 l 0,-60.6 6.5,-67.4 c 10.5,-108.1 13.2,-135.7 19.6,-202.4 6.8,-70.8 6.5,-69.4 12.9,-63.5 3.9,3.7 22.7,13.4 23.2,12 0.9,-2.5 70.2,44.5 80.8,54.8 22,21.3 33.3,27.1 83.2,42.3 52.5,16 65.4,23.8 68.7,41.5 1.3,7 -7.1,33.7 -16.8,53.1 -26.1,52.4 -61.7,189 -97.6,374.8 -3.1,15.9 -6.2,32.3 -7,36.4 -2.6,13.1 -1.8,25.1 2.6,39.2 l 2.1,6.6 -13.1,52.4 c -14.9,59.5 -15.6,64.8 -11.1,82.5 11.2,43.7 54.4,71 161.9,102.5 l 11.3,3.3 19.2,-1.7 c 10.5,-1 23.7,-2 29.4,-2.4 5.6,-0.3 10.9,-1.1 11.6,-1.7 1.4,-1 7.9,-13.2 54.7,-102 l 19.4,-36.8 9,-7.3 c 41.6,-33.6 103,-121.8 174.3,-250.1 14.7,-26.4 17,-31.4 27.2,-57.9 5.1,-13.2 11.1,-28.3 13.3,-33.5 20,-47.4 9.1,-108.2 -36.3,-202 -33.4,-69 -44.5,-118.7 -67,-299 -18.4,-147.7 -32.8,-201 -61.9,-230.1 -25.1,-25 -137.6,-99.2 -309.6,-204.2 -22.8,-13.9 -87.2,-53 -94.5,-57.3 -3,-1.7 -10.3,-6.8 -16.2,-11.2 -37.1,-27.8 -87.1,-48.2 -143,-58.2 -6.4,-1.1 -14.3,-3 -17.5,-4.1 -60.2,-20.9 -162,-46.4 -233.8,-58.4 -19,-3.2 -18.3,-2.9 -20.6,-8.6 l -1.7,-4.6 5.4,-12.3 5.4,-12.3 0,-22.8 0,-22.7 13.1,-12.9 c 51.7,-50.5 105.8,-127.3 114.9,-162.9 4.2,-16.3 1.5,-25.2 -17.9,-59.7 -3.9,-7.1 -7.3,-13.4 -7.4,-14 -0.1,-0.7 -1.6,-3.2 -3.3,-5.7 -1.7,-2.5 -6.2,-9.7 -9.9,-16 -29.5,-49.6 -84.4,-133.9 -107.4,-165 -15.1,-20.5 -91.7,-92.7 -205.9,-194.2 -23.6,-21.1 -65.2,-51.5 -79.3,-58.1 -4.5,-2 -20.8,-3.2 -25.3,-1.7 z m 17.1,10 c 3.5,0 49.2,29.7 60.8,39.5 38.1,32.2 160.1,144.1 195.6,179.5 29.3,29.2 44.9,50.7 99.1,136 30.9,48.7 30,45.6 10,35.6 -34.6,-17.3 -79.7,-37.3 -96.4,-42.7 -9.3,-2.9 -11.7,-3.1 -23.8,-1.5 -21.8,2.9 -52.6,4.8 -76.5,5 l -24,0.1 -21,-6.2 c -11.5,-3.4 -40.3,-11.4 -63.9,-17.8 l -42.9,-11.6 -13.9,-7.5 -13.9,-7.5 -10.7,1.2 c -14.5,1.5 -23.6,4 -36.1,9.8 -18,8.4 -41.3,14.5 -116.1,30.5 -24.5,5.3 -47.6,10.5 -51.5,11.6 -26.7,7.8 -71.9,20.2 -92.7,25.5 -33.8,8.7 -51.5,18.3 -92.1,50 -8.2,6.3 -15.2,11.5 -15.6,11.5 -1,0 -1.5,-3.4 -3.1,-18.7 l -1.1,-10.3 4.2,-16.1 c 4.7,-18.3 16.5,-46 30.5,-72.1 l 7.9,-14.7 41.5,-45.7 41.5,-45.8 101,-86.5 c 55.6,-47.5 105.5,-90.3 111,-95 5.5,-4.7 13.5,-11.8 17.8,-15.8 24.3,-22.7 33.8,-24.2 57.4,-9 7.9,5.1 8,5 3.3,-4.2 -3.5,-7 -2.4,-8.4 5.9,-7.5 2.4,0.2 5.9,0.4 7.8,0.4 z m -9.2,312 c 0.1,1.9 5.2,17.4 11.4,34.4 12,32.8 11.9,32.2 8.2,40.8 l -2,4.8 -12.3,-0.7 c -20.7,-1 -61.2,8.6 -87.8,20.8 -18.7,8.6 -66.2,20.2 -157.5,38.4 -29.1,5.8 -35.6,7.4 -54.5,13.9 -11.8,4 -34.8,11.5 -51,16.5 -16.2,5.1 -34.3,10.8 -40.2,12.6 -25.8,8.1 -34.6,21.4 -28.9,43.7 5.5,21.6 29.5,55 56.5,78.8 7.9,7 10.2,10 7.5,10 -2.1,0 -35.1,-20.5 -45.3,-28.1 -46.4,-34.9 -59.5,-80 -37.1,-127.4 5.7,-11.9 13.3,-22.7 15.9,-22.3 1.4,0.1 5.3,-2.3 11.6,-7.3 43.2,-34.4 64.3,-46.6 92,-53.4 19.4,-4.8 46.2,-12.1 82.5,-22.5 13.2,-3.7 32.8,-8.7 43.5,-11 66.9,-14.3 81.2,-17.5 96.5,-21.4 23.2,-6 35,-10 45.7,-15.1 11.6,-5.7 29.2,-9.6 41.3,-9.1 3.9,0.1 4,0.2 4,3.6 z m 17,6.1 c 6.2,3.4 15,6.1 54.8,16.9 26.1,7.1 54.6,15 63.3,17.6 10.5,3 19.3,4.9 25.8,5.5 15.3,1.5 73.2,-1.7 95.1,-5.1 15.2,-2.4 32.3,3.4 89,30.2 44.6,21.2 51.6,24.9 54.9,29.6 10.2,14.2 36.1,62.2 39.1,72.5 4.7,16.2 -6.9,41.2 -43,92.7 -42.6,60.8 -86.5,104.1 -131.5,129.6 -8.5,4.8 -39.1,22.3 -68,39 -80.1,46.1 -108.2,61.4 -125,68.3 -11.3,4.6 -33.5,37.4 -60.2,88.8 -6.6,12.7 -8.6,17.3 -7.4,17.3 0.9,0 1.6,0.5 1.6,1.1 0,0.6 -0.5,0.7 -1.2,0.2 -0.7,-0.4 -9.3,-1.3 -19.1,-1.9 -15.5,-0.9 -17.9,-1.3 -19.2,-3 -2.6,-3.4 -7.3,-16.8 -10.4,-29.5 -5.8,-24.2 -15,-41.6 -51.7,-97 -26.3,-39.8 -23.8,-37.9 -114.9,-86.9 -11.5,-6.2 -24.4,-13.1 -28.5,-15.3 -73,-39.3 -97.4,-53.7 -91,-53.7 3.4,0 49.2,22.8 93,46.3 11.3,6 29.8,15.8 41.1,21.8 55.7,29.2 96.1,56.5 118.7,80.4 7.2,7.7 9.2,10.3 9.2,12.6 0,2.3 0.4,2.9 2.3,2.9 6.5,0 52.8,79 60.9,104 0.3,0.9 2.2,-2.2 4.7,-7.3 27.2,-57 96.9,-117.6 176.2,-153.6 86,-38.9 153.1,-94.6 207.1,-171.8 4.7,-6.7 8.8,-12 9,-11.7 0.3,0.2 0.5,-0.2 0.5,-0.9 0,-0.6 3.3,-6.6 7.2,-13.2 20.9,-34.7 27.2,-56.6 20.3,-70.1 -7.1,-13.8 -23.4,-25 -44.8,-30.8 -4.9,-1.3 -10.7,-3.1 -12.9,-4.1 -47.1,-20.1 -64.1,-23.4 -130,-25.5 -42,-1.3 -39.4,-1.1 -122,-11.5 -37.4,-4.7 -71.8,-8.8 -76.3,-9.2 -9.5,-0.7 -9.5,-0.6 -5.7,-10.4 l 1.8,-4.6 -11.1,-30.6 c -14,-38.3 -13.8,-36.3 -1.7,-29.6 z m 3,81.4 c 17.1,1.2 53.6,5.5 152.5,17.9 12.9,1.7 29.5,2.9 48.9,3.5 l 29.4,1.1 4.6,3.6 c 20.6,16.4 29.4,31.3 27.1,45.8 -0.9,5.3 -1.1,12.1 -0.6,21.5 2.3,44.8 -15,76.7 -79.5,146.6 -58.3,63.3 -84.2,99.8 -88.4,124.8 -0.4,2.5 -1.4,4.3 -3.3,5.4 -1.5,1 -8.3,5.8 -15.2,10.7 -16.6,11.9 -20.3,12.6 -47.5,8.9 -19,-2.6 -40,-3.4 -50.1,-1.9 l -6,0.8 -2.7,-17.8 c -6.2,-40.3 -6.3,-43.6 -3.3,-118.9 1.4,-35.2 4.2,-104.3 6.1,-153.5 4,-100.9 4,-100 6.3,-100 0.9,0 10.7,0.7 21.7,1.5 z m -31.5,0.2 c 0,0.5 -1.1,27.8 -2.5,60.8 -3.4,82.1 -8.3,206 -9.3,234.3 -1.1,30.4 0.1,47.4 5.9,82 1.2,6.8 1.8,12.6 1.4,13 -0.4,0.4 -10.7,0.8 -23.1,1 l -22.4,0.3 -11.1,-11.6 c -6.2,-6.4 -14.7,-14.5 -19,-18.1 -4.7,-3.9 -10.3,-9.9 -13.8,-14.8 -4.3,-5.9 -11,-12.7 -23.8,-24.1 -9.8,-8.8 -31,-28.8 -47.1,-44.4 l -29.4,-28.5 -14.3,-21.6 c -35,-52.7 -54.7,-91 -61.1,-119 -2.4,-10.5 -5.1,-36.7 -4.1,-39.4 1,-2.5 12.3,-5.4 53.2,-13.6 91.4,-18.5 132.4,-28.7 152.5,-38 17.5,-8 68,-21.6 68,-18.3 z m 307.6,25.8 c 11.9,1.6 31.4,7.7 55.9,17.5 7.2,2.9 17,6.3 21.9,7.6 33.1,9 47.1,27.1 39.1,50.9 -13.5,40.5 -63.4,108 -112.3,151.8 -40,35.9 -71.6,56.5 -122.9,80.3 -14.5,6.7 -32.1,15.4 -39,19.3 -17.2,9.7 -18.5,9.2 -11.7,-4.9 11.9,-24.8 38.6,-59.3 81.4,-105 45.8,-48.9 67.7,-80.9 77.6,-113.5 2.6,-8.6 4.1,-31.1 4.5,-66.1 0.1,-8.1 -7.4,-20.5 -19.5,-32.4 -8,-7.8 -7.7,-8.4 4.1,-7.6 5.4,0.4 14.7,1.3 20.9,2.1 z m -588.3,57.7 c 2.1,38.8 19.6,78 66.2,148.3 12.3,18.5 16.8,24.5 23.1,30.4 4.4,4.1 15.6,15 24.9,24.1 9.4,9.1 21.8,21.1 27.6,26.6 5.9,5.4 11.9,11.5 13.5,13.3 l 2.9,3.5 -3,-1.5 c -1.6,-0.9 -4.3,-2.2 -6,-3.1 -1.6,-0.8 -9.1,-5 -16.5,-9.3 -7.4,-4.3 -22.3,-12.4 -33,-18 -10.7,-5.7 -31,-16.4 -45,-23.9 -35.6,-19.1 -76.6,-39.5 -89,-44.5 -32,-12.8 -80.1,-71.2 -81.8,-99.3 -1.2,-20.3 1.7,-22.6 44.8,-35.9 15.7,-4.8 37.3,-11.7 48,-15.2 25.2,-8.4 22.6,-8.9 23.3,4.5 z m -66.1,148.6 c 27,16.3 72.6,41.8 135.8,75.7 97,52.2 94.4,50.4 115.5,82.1 39.3,59.4 48.4,76.3 54,99.9 2.9,12.4 6.6,23.4 9.5,28.2 3.1,5.3 2.7,7.5 -1.2,6.9 -1.8,-0.3 -13,-1.5 -24.8,-2.6 -11.8,-1.2 -39.2,-4.8 -60.9,-8.1 l -39.3,-6 -18.2,-7.4 c -38,-15.4 -72.4,-28 -93.6,-34.1 -17.8,-5.2 -24.8,-8.7 -39.8,-19.8 -17.3,-12.8 -43.2,-35.2 -43.2,-37.3 0,-2.3 2.2,-1.4 17.4,7.6 38,22.3 48.6,26.3 96.6,37 46.7,10.4 68.4,14.1 79.2,13.4 l 9.6,-0.6 4.4,3.5 c 32.8,26.7 76.4,-9.7 55.1,-45.9 -9.7,-16.6 -32.8,-24 -48.8,-15.6 -5.7,2.9 -14.6,11.1 -15.7,14.3 -0.4,1.3 -4.2,1 -25.4,-1.9 -13.7,-1.8 -28.9,-3.7 -33.9,-4.2 -44.5,-4.2 -54,-7.5 -81.3,-27.7 -24.6,-18.3 -41.2,-28.4 -53.9,-32.8 -3.1,-1.1 -5.3,-2.5 -5.3,-3.3 0,-0.8 -2,-4.9 -4.5,-9.2 -5.4,-9.3 -6,-17.3 -2.5,-33.9 3.1,-14.9 3.6,-30.3 1.4,-44.5 -1.9,-11.9 -2.4,-32.3 -1.1,-37.8 1,-3.9 2.3,-3.5 14.9,4.1 z m 668.1,75.9 -0.6,18.7 -5.3,11.8 -5.3,11.8 3,7.3 c 1.9,4.6 3.5,10.9 4.4,17.7 0.7,5.7 1.7,10.6 2.2,10.7 1.2,0.4 34.6,16.8 36.1,17.7 1.7,1.1 5.2,8.1 5.2,10.6 0,4.6 -14.2,16.6 -40.5,34.3 -15.6,10.5 -16.3,10.8 -31.5,15.6 -25,7.9 -34.7,10.8 -49.1,14.5 -7.5,1.9 -20.6,6 -29.2,9 -8.6,3.1 -16.2,5.6 -17,5.6 -1.3,0 -3.4,-3 -20.3,-29.8 l -8.3,-13.2 0,-8.3 c 0.1,-18.4 -10.5,-32.9 -28.3,-38.6 -5.7,-1.9 -4.7,-3.4 6.5,-9.7 5.6,-3.2 34.1,-19.5 63.2,-36.3 29.2,-16.7 61.1,-35 71.1,-40.7 16.3,-9.2 29.6,-17.9 37.9,-24.8 6.4,-5.3 6.5,-4.8 5.8,16.1 z m -680,52.8 c 14.1,3 30.4,12.1 57.3,32.1 12.5,9.3 28,19.4 29.7,19.4 0.6,0 1.8,0.6 2.6,1.4 1.5,1.4 7,2.8 23.6,6.1 3.9,0.7 14.2,2.1 23,2.9 8.8,0.9 27.6,3.1 41.9,5.1 l 25.9,3.5 13.6,-2 c 7.6,-1.1 16,-2.4 18.7,-2.9 5.7,-1.1 6.9,-0.1 12.3,10.3 4.5,8.5 4.2,12.1 -1.5,19 l -4.5,5.6 -28.5,0 -28.4,0 -32.6,-6.5 c -74.9,-14.9 -87.4,-19.3 -132.6,-46.1 l -23.3,-13.9 -26.5,0 c -38.2,0 -33.3,-1.5 -76.3,23.8 -8.1,4.8 -18.8,10.7 -23.7,13.2 l -9,4.5 0,-2.7 c 0,-3.4 -2.7,-7.6 -6.8,-10.6 -1.7,-1.3 -2.8,-2.8 -2.4,-3.3 0.8,-1.2 11.7,-5.4 14,-5.4 1.7,0 25.3,-13.5 55.2,-31.6 26.4,-15.9 29.7,-17.4 47,-21.3 10.3,-2.3 22.1,-2.6 31.3,-0.6 z m 714.9,14.9 c 72.2,13.3 139.7,30.2 210.6,53 9.2,3 21.2,6.2 26.7,7.1 30,5.2 81.5,21.1 81.5,25.2 0,0.8 -3,11.2 -6.7,23.1 -6.3,20.6 -6.6,22.2 -6.4,30.7 0.2,8 -0.3,10.5 -3.9,22.5 -47.3,157 -60.2,302.1 -35.5,398.5 5.4,21.2 21.8,66.2 40.1,110.3 6.5,15.5 7.6,20.9 4.9,23.2 -0.9,0.7 -2.9,3 -4.5,5 l -2.9,3.6 -4.1,42.5 c -2.2,23.3 -6.3,65.1 -9,92.9 -2.7,27.8 -7.4,76.4 -10.5,108 -3,31.6 -6.2,64.2 -7.1,72.5 -1.3,12.2 -1.7,28.6 -1.9,88 -0.2,79.2 -1,97.4 -5.5,140 -5.5,51.7 -8.4,90.6 -11.1,150 -0.6,13.7 -1.5,27.9 -2,31.5 -1.3,9.2 -2.6,43 -3.9,95.5 -2.2,94.2 -7.6,154.7 -16.6,187.5 -7.9,28.3 -19.7,40.1 -41.1,40.8 l -10.3,0.4 0,-99.4 0,-99.3 -7.6,-6.5 c -90.7,-77.3 -190.5,-251.2 -225.2,-392.7 l -4.7,-19.3 -142.7,0 c -142.1,0 -142.8,0 -142.8,-2 0,-1.6 -0.7,-2 -3.7,-2.2 l -3.8,-0.1 3.8,-0.4 c 3.7,-0.4 3.7,-0.5 3.7,-4.9 0,-4.4 0,-4.4 -3.7,-4.6 l -3.8,-0.1 3.8,-0.4 c 3.7,-0.4 3.7,-0.5 3.7,-4.9 0,-4.4 0,-4.4 -3.7,-4.6 l -3.8,-0.1 3.8,-0.4 c 5.7,-0.6 5.4,-8.4 -0.3,-9.4 l -3.5,-0.6 3.8,-0.2 c 3.6,-0.1 3.7,-0.2 3.7,-4.1 0,-3.9 -0.1,-4 -3.7,-4.2 l -3.8,-0.1 3.8,-0.4 c 3.7,-0.4 3.7,-0.5 3.7,-4.9 0,-4.4 0,-4.4 -3.7,-4.6 l -3.8,-0.1 3.8,-0.4 c 3.7,-0.4 3.7,-0.5 3.7,-4.9 0,-4.4 0,-4.4 -3.7,-4.6 l -3.8,-0.1 3.8,-0.4 c 3.7,-0.4 3.7,-0.5 3.7,-4.9 0,-4.4 0,-4.4 -3.7,-4.6 l -3.8,-0.1 3.8,-0.4 c 3.7,-0.4 3.7,-0.5 3.7,-4.9 0,-4.4 0,-4.4 -3.7,-4.6 l -3.8,-0.1 3.8,-0.4 c 3.6,-0.4 3.7,-0.5 3.7,-4.4 0,-3.8 -0.1,-3.9 -3.7,-4.1 l -3.8,-0.1 3.8,-0.4 c 3.7,-0.4 3.7,-0.5 3.7,-4.9 0,-4.4 0,-4.4 -3.7,-4.6 l -3.8,-0.1 3.8,-0.4 c 3.7,-0.4 3.7,-0.5 3.7,-4.9 0,-4.4 0,-4.4 -3.7,-4.6 l -3.8,-0.1 3.8,-0.4 c 3.7,-0.4 3.7,-0.5 3.7,-4.9 0,-4.4 0,-4.4 -3.7,-4.6 l -3.8,-0.1 3.8,-0.4 c 3.6,-0.4 3.7,-0.5 3.7,-4.4 0,-3.8 -0.1,-3.9 -3.7,-4.1 l -3.8,-0.1 3.8,-0.4 c 3.7,-0.4 3.7,-0.5 3.7,-4.9 0,-4.4 0,-4.4 -3.7,-4.6 l -3.8,-0.1 3.8,-0.4 c 3.7,-0.4 3.7,-0.5 3.7,-4.9 0,-4.4 0,-4.4 -3.7,-4.6 l -3.8,-0.1 3.8,-0.4 c 3.7,-0.4 3.7,-0.5 3.7,-4.9 0,-4.4 0,-4.4 -3.7,-4.6 l -3.8,-0.1 3.8,-0.4 c 3.7,-0.4 3.7,-0.5 3.7,-4.9 0,-4.4 0,-4.4 -3.7,-4.6 l -3.8,-0.1 3.8,-0.4 c 5.7,-0.6 5.4,-8.4 -0.3,-9.4 l -3.5,-0.6 3.8,-0.2 c 3.6,-0.1 3.7,-0.2 3.7,-4.1 0,-3.9 -0.1,-4 -3.7,-4.2 l -3.8,-0.1 3.8,-0.4 c 3.7,-0.4 3.7,-0.5 3.7,-4.9 0,-4.4 0,-4.4 -3.7,-4.6 l -3.8,-0.1 3.8,-0.4 c 3.7,-0.4 3.7,-0.5 3.7,-4.9 0,-4.4 0,-4.4 -3.7,-4.6 l -3.8,-0.1 3.8,-0.4 c 3.7,-0.4 3.7,-0.5 3.7,-4.9 0,-4.4 0,-4.4 -3.7,-4.6 l -3.8,-0.1 3.8,-0.4 c 3.7,-0.4 3.7,-0.5 3.7,-4.9 0,-4.4 0,-4.4 -3.7,-4.6 l -3.8,-0.1 3.8,-0.4 c 3.6,-0.4 3.7,-0.5 3.7,-4.4 0,-3.8 -0.1,-3.9 -3.7,-4.1 l -3.8,-0.1 3.8,-0.4 c 3.7,-0.4 3.7,-0.5 3.7,-4.9 l 0,-4.4 -3.7,-0.1 -3.8,-0.2 3.5,-0.6 c 3.3,-0.6 3.5,-0.9 3.8,-4.9 l 0.3,-4.2 -3.8,-0.2 -3.8,-0.1 3.8,-0.4 c 3.7,-0.4 3.7,-0.5 3.7,-4.9 0,-4.4 0,-4.4 -3.7,-4.6 l -3.8,-0.1 3.8,-0.4 3.7,-0.4 0,-9 0,-8.9 -3.7,-0.2 -3.8,-0.1 3.8,-0.4 c 3.7,-0.4 3.7,-0.5 3.7,-4.9 0,-4.4 0,-4.4 -3.7,-4.6 l -3.8,-0.1 3.8,-0.4 c 3.7,-0.4 3.7,-0.5 3.7,-4.9 0,-4.4 0,-4.4 -3.7,-4.6 l -3.8,-0.1 3.8,-0.4 c 3.7,-0.4 3.7,-0.5 3.7,-4.9 0,-4.4 0,-4.4 -3.7,-4.6 l -3.8,-0.1 3.8,-0.4 c 5.7,-0.6 5.4,-8.4 -0.3,-9.4 l -3.5,-0.6 3.8,-0.2 c 3.6,-0.1 3.7,-0.2 3.7,-4.1 0,-3.9 -0.1,-4 -3.7,-4.2 l -3.8,-0.1 3.8,-0.4 c 3.7,-0.4 3.7,-0.5 3.7,-4.9 0,-4.4 0,-4.4 -3.7,-4.6 l -3.8,-0.1 3.8,-0.4 c 3.7,-0.4 3.7,-0.5 3.7,-4.9 0,-4.4 0,-4.4 -3.7,-4.6 l -3.8,-0.1 3.8,-0.4 c 3.7,-0.4 3.7,-0.5 3.7,-4.9 0,-4.4 0,-4.4 -3.7,-4.6 l -3.8,-0.1 3.8,-0.4 c 3.7,-0.4 3.7,-0.5 3.7,-4.9 0,-4.4 0,-4.4 -3.7,-4.6 l -3.8,-0.1 3.8,-0.4 c 3.6,-0.4 3.7,-0.5 3.7,-4.4 0,-3.8 -0.1,-3.9 -3.7,-4.1 l -3.8,-0.1 3.8,-0.4 c 3.7,-0.4 3.7,-0.5 3.7,-4.9 0,-4.4 0,-4.4 -3.7,-4.6 l -3.8,-0.1 3.8,-0.4 c 3.7,-0.4 3.7,-0.5 3.7,-4.9 0,-4.4 0,-4.4 -3.7,-4.6 l -3.8,-0.1 3.8,-0.4 c 3.7,-0.4 3.7,-0.5 3.7,-4.9 0,-4.4 0,-4.4 -3.7,-4.6 l -3.8,-0.1 3.8,-0.4 c 3.6,-0.4 3.7,-0.5 3.7,-4.4 0,-3.8 -0.1,-3.9 -3.7,-4.1 l -3.8,-0.1 3.8,-0.4 c 3.7,-0.4 3.7,-0.5 3.7,-4.9 0,-4.4 0,-4.4 -3.7,-4.6 l -3.8,-0.1 3.8,-0.4 c 3.7,-0.4 3.7,-0.5 3.7,-4.9 0,-4.4 0,-4.4 -3.7,-4.6 l -3.8,-0.1 3.8,-0.4 c 3.7,-0.4 3.7,-0.5 3.7,-4.9 0,-4.4 0,-4.4 -3.7,-4.6 l -3.8,-0.1 3.8,-0.4 c 3.7,-0.4 3.7,-0.5 3.7,-4.9 0,-4.4 0,-4.4 -3.7,-4.6 l -3.8,-0.1 3.8,-0.4 c 5.7,-0.6 5.4,-8.4 -0.3,-9.4 l -3.5,-0.6 3.8,-0.2 c 3.6,-0.1 3.7,-0.2 3.7,-4.1 0,-3.9 -0.1,-4 -3.7,-4.2 l -3.8,-0.1 3.8,-0.4 c 3.7,-0.4 3.7,-0.5 3.7,-4.9 0,-4.4 0,-4.4 -3.7,-4.6 l -3.8,-0.1 3.8,-0.4 c 3.7,-0.4 3.7,-0.5 3.7,-4.9 0,-4.4 0,-4.4 -3.7,-4.6 l -3.8,-0.1 3.8,-0.4 c 3.7,-0.4 3.7,-0.5 3.7,-4.9 0,-4.4 0,-4.4 -3.7,-4.6 l -3.8,-0.1 3.8,-0.4 c 3.7,-0.4 3.7,-0.5 3.7,-4.9 0,-4.4 0,-4.4 -3.7,-4.6 l -3.8,-0.1 3.8,-0.4 c 3.6,-0.4 3.7,-0.5 3.7,-4.4 0,-3.8 -0.1,-3.9 -3.7,-4.1 l -3.8,-0.1 3.8,-0.4 c 3.7,-0.4 3.7,-0.5 3.7,-4.9 l 0,-4.4 -3.7,-0.1 -3.8,-0.2 3.5,-0.6 c 3.3,-0.6 3.5,-0.9 3.8,-4.9 l 0.3,-4.2 -3.8,-0.2 -3.8,-0.1 3.8,-0.4 c 3.7,-0.4 3.7,-0.5 3.7,-4.9 0,-4.4 0,-4.4 -3.7,-4.6 l -3.8,-0.1 3.8,-0.4 c 3.7,-0.4 3.7,-0.5 3.7,-4.9 0,-4.4 0,-4.4 -3.7,-4.6 l -3.8,-0.1 3.8,-0.4 c 3.7,-0.4 3.7,-0.5 3.7,-4.9 0,-2.8 -0.4,-4.4 -1.2,-4.5 -1,0 -1,-0.2 0,-0.6 0.7,-0.2 1.2,-2.2 1.2,-4.4 0,-3.8 -0.1,-3.9 -3.7,-4.1 l -3.8,-0.1 3.8,-0.4 c 3.7,-0.4 3.7,-0.5 3.7,-4.9 0,-4.4 0,-4.4 -3.7,-4.6 l -3.8,-0.1 3.8,-0.4 c 3.7,-0.4 3.7,-0.5 3.7,-4.9 0,-4.4 0,-4.4 -3.7,-4.6 l -3.8,-0.1 3.8,-0.4 c 3.7,-0.4 3.7,-0.5 3.7,-4.9 0,-4.4 0,-4.4 -3.7,-4.6 l -3.8,-0.1 3.8,-0.4 c 3.7,-0.4 3.7,-0.5 3.7,-4.9 0,-4.4 0,-4.4 -3.7,-4.6 l -3.8,-0.1 3.8,-0.4 c 5.7,-0.6 5.4,-8.4 -0.3,-9.4 l -3.5,-0.6 3.8,-0.2 c 3.6,-0.1 3.7,-0.2 3.7,-4.1 0,-3.9 -0.1,-4 -3.7,-4.2 l -3.8,-0.1 3.8,-0.4 c 3.7,-0.4 3.7,-0.5 3.7,-4.9 0,-4.4 0,-4.4 -3.7,-4.6 l -3.8,-0.1 3.8,-0.4 c 3.7,-0.4 3.7,-0.5 3.7,-4.9 0,-4.4 0,-4.4 -3.7,-4.6 l -3.8,-0.1 3.8,-0.4 c 3.7,-0.4 3.7,-0.5 3.7,-4.9 0,-4.4 0,-4.4 -3.7,-4.6 l -3.8,-0.1 3.8,-0.4 c 3.7,-0.4 3.7,-0.5 3.7,-4.9 0,-4.4 0,-4.4 -3.7,-4.6 l -3.8,-0.1 3.8,-0.4 c 3.6,-0.4 3.7,-0.5 3.7,-4.4 0,-3.8 -0.1,-3.9 -3.7,-4.1 l -3.8,-0.1 3.8,-0.4 c 3.7,-0.4 3.7,-0.5 3.7,-4.9 0,-4.4 0,-4.4 -3.7,-4.6 l -3.8,-0.1 3.8,-0.4 c 3.7,-0.4 3.7,-0.5 3.7,-4.9 0,-4.4 0,-4.4 -3.7,-4.6 l -3.8,-0.1 3.8,-0.4 c 3.7,-0.4 3.7,-0.5 3.7,-4.9 0,-4.4 0,-4.4 -3.7,-4.6 l -3.8,-0.1 3.8,-0.4 c 3.6,-0.4 3.7,-0.5 3.7,-4.4 0,-3.8 -0.1,-3.9 -3.7,-4.1 l -3.8,-0.1 3.8,-0.4 c 3.7,-0.4 3.7,-0.5 3.7,-4.9 0,-4.4 0,-4.4 -3.7,-4.6 l -3.8,-0.1 3.8,-0.4 c 3.7,-0.4 3.7,-0.5 3.7,-4.9 0,-4.4 0,-4.4 -3.7,-4.6 l -3.8,-0.1 3.8,-0.4 c 3.7,-0.4 3.7,-0.5 3.7,-4.9 0,-4.4 0,-4.4 -3.7,-4.6 l -3.8,-0.1 3.8,-0.4 c 3.7,-0.4 3.7,-0.5 3.7,-4.9 0,-4.4 0,-4.4 -3.7,-4.6 l -3.8,-0.1 3.8,-0.4 c 5.7,-0.6 5.4,-8.4 -0.3,-9.4 l -3.5,-0.6 3.8,-0.2 c 3.6,-0.1 3.7,-0.2 3.7,-4.1 0,-3.9 -0.1,-4 -3.7,-4.2 l -3.8,-0.1 3.8,-0.4 c 3.7,-0.4 3.7,-0.5 3.7,-4.9 0,-4.4 0,-4.4 -3.7,-4.6 l -3.8,-0.1 3.8,-0.4 c 3.7,-0.4 3.7,-0.5 3.7,-4.9 0,-4.4 0,-4.4 -3.7,-4.6 l -3.8,-0.1 3.8,-0.4 c 3.7,-0.4 3.7,-0.5 3.7,-4.9 0,-4.4 0,-4.4 -3.7,-4.6 l -3.8,-0.1 3.8,-0.4 c 3.7,-0.4 3.7,-0.5 3.7,-4.9 0,-4.4 0,-4.4 -3.7,-4.6 l -3.8,-0.1 3.8,-0.4 c 3.6,-0.4 3.7,-0.5 3.7,-4.4 0,-3.8 -0.1,-3.9 -3.7,-4.1 l -3.8,-0.1 3.8,-0.4 c 3.7,-0.4 3.7,-0.5 3.7,-4.9 l 0,-4.4 -3.7,-0.1 -3.8,-0.2 3.5,-0.6 c 3.3,-0.6 3.5,-0.9 3.8,-4.9 l 0.3,-4.2 -3.8,-0.2 -3.8,-0.1 3.8,-0.4 c 3.7,-0.4 3.7,-0.5 3.7,-4.9 0,-4.4 0,-4.4 -3.7,-4.6 l -3.8,-0.1 3.8,-0.4 c 3.7,-0.4 3.7,-0.5 3.7,-4.9 0,-4.4 0,-4.4 -3.7,-4.6 l -3.8,-0.1 3.8,-0.4 c 3.7,-0.4 3.7,-0.5 3.7,-4.9 0,-4.4 0,-4.4 -3.7,-4.6 l -3.8,-0.1 3.8,-0.4 c 3.6,-0.4 3.7,-0.5 3.7,-4.8 0,-3.8 0.3,-4.4 2.7,-5 l 2.6,-0.6 -0.6,-26 -0.6,-26.1 3,-6.6 c 1.9,-4.2 2.9,-7.9 2.7,-9.8 l -0.4,-3.1 7.5,-0.7 c 4.1,-0.3 16.9,-0.6 28.5,-0.6 28.8,0 60.2,-3.9 89.5,-11 6.7,-1.7 12.8,-3 13.4,-3 0.7,0 4,4 7.5,8.9 15.8,22.5 32.2,31.2 61.8,33.1 38.2,2.3 71.9,-7.4 103.9,-30 68,-48 100.4,-60.3 134.7,-51.2 16.6,4.5 44.6,24.8 46.3,33.7 0.2,1.1 1.1,6 2,10.9 2,11 3.5,14 8.5,16.8 4.8,2.8 5,4.7 2,20.7 -1.8,9.7 -4.4,42.7 -3.4,44.3 0.2,0.3 2.2,0.9 4.5,1.3 3.5,0.6 4.3,1.3 6.1,5 l 2.1,4.2 8.1,0.7 c 4.4,0.3 10.1,0.8 12.6,1.2 4.5,0.6 4.7,0.5 15,-7.5 12.1,-9.4 12.4,-9.8 12.2,-16.9 -0.2,-8.6 -8.5,-39.2 -14,-51.5 l -2.5,-5.8 2.2,-8.9 c 2.8,-10.7 2.3,-13.9 -2.7,-18 -2,-1.7 -5.1,-5.6 -6.8,-8.8 -3.5,-6.3 -8.2,-10.2 -12.4,-10.2 -2.2,0 -3.7,-1.2 -7.1,-5.8 -33.8,-44.8 -81.3,-56.8 -137.6,-34.6 -72.969,29.5289 -136.7773,85.6458 -176.4,74.4 -10.7,-3.3 -27.9,-15.4 -27.9,-19.5 0,-2.2 19.8,-9.1 44.1,-15.4 26,-6.7 45.81,-10.2669 52.41,-14.2669 22.2,-13.4 64.19,-42.6331 69.39,-50.4331 3.6,-5.5 3.8,-8.2 1,-14.4 -4,-8.9 -5.9,-10.3 -23.9,-19.1 -13.9,-6.7 -17,-8.6 -17,-10.3 0,-1.2 -0.3,-3.1 -0.6,-4.4 -0.9,-3.1 1.2,-3 29.8,2.2 z m -300.1,21.2 c 10.2,1.3 19.8,2.4 21.3,2.4 4.3,0 3,1.8 -8.3,12.4 -23.5,21.9 -60.1,66.9 -60.1,73.8 0,4.2 -4.1,-1.6 -11.5,-16.3 -4.7,-9.5 -9.8,-19.2 -11.2,-21.8 -8.1,-14 -15.3,-25.8 -21.9,-35.4 -4.1,-5.9 -7.4,-11.2 -7.4,-11.7 0,-0.6 5.9,-1 14.8,-1 11.3,-0.1 18.6,-0.7 31.7,-2.9 19.7,-3.2 24.7,-3.2 52.6,0.5 z m -435.8,4 c 4,0.6 5.7,1.8 15.5,10.9 43.1,40 66,56.2 88.9,62.4 20.3,5.6 49.4,16.1 92.8,33.5 l 24,9.5 39.5,6 c 42.9,6.5 88.7,11.6 96.3,10.6 4.2,-0.5 4.7,-0.4 4.7,1.4 0,1 1.3,4.9 3,8.5 l 2.9,6.7 -0.6,25.9 -0.6,25.9 2.6,1 c 1.5,0.6 2.7,1.7 2.7,2.6 0,1 1.1,1.6 3.8,1.7 l 3.7,0.1 -3.7,0.4 c -3.8,0.4 -3.8,0.5 -3.8,4.9 0,4.4 0,4.4 3.8,4.6 l 3.7,0.1 -3.7,0.4 c -3.8,0.4 -3.8,0.5 -3.8,4.9 0,4.4 0,4.4 3.8,4.6 l 3.7,0.1 -3.7,0.4 c -3.8,0.4 -3.8,0.5 -3.8,4.9 0,4.4 0,4.4 3.8,4.6 l 3.7,0.1 -3.7,0.4 c -3.8,0.4 -3.8,0.5 -3.8,4.9 0,4.4 0,4.4 3.8,4.6 l 3.7,0.1 -3.7,0.4 c -5.7,0.6 -6,8.3 -0.3,8.3 1.9,0 3.5,0.4 3.5,1 0,0.5 -1.6,1 -3.5,1 -5.7,0 -5.4,7.9 0.3,8.2 l 3.7,0.1 -3.7,0.4 c -3.8,0.4 -3.8,0.5 -3.8,4.9 0,4.4 0,4.4 3.8,4.6 l 3.7,0.1 -3.7,0.4 c -3.8,0.4 -3.8,0.5 -3.8,4.9 0,4.4 0,4.4 3.8,4.6 l 3.7,0.1 -3.7,0.4 c -3.8,0.4 -3.8,0.5 -3.8,4.9 0,4.4 0,4.4 3.8,4.6 l 3.7,0.1 -3.7,0.4 c -3.8,0.4 -3.8,0.5 -3.8,4.9 0,4.4 0,4.4 3.8,4.6 l 3.7,0.1 -3.7,0.4 c -3.8,0.4 -3.8,0.5 -3.8,4.9 0,4.4 0,4.4 3.8,4.6 l 3.7,0.1 -3.7,0.4 c -3.7,0.4 -3.8,0.5 -3.8,4.4 0,3.8 0.1,3.9 3.8,4.1 l 3.7,0.1 -3.7,0.4 c -3.8,0.4 -3.8,0.5 -3.8,4.9 0,4.4 0,4.4 3.8,4.6 l 3.7,0.1 -3.7,0.4 c -3.8,0.4 -3.8,0.5 -3.8,4.9 0,4.4 0,4.4 3.8,4.6 l 3.7,0.1 -3.7,0.4 c -3.8,0.4 -3.8,0.5 -3.8,4.9 0,4.4 0,4.4 3.8,4.6 l 3.7,0.1 -3.7,0.4 c -3.8,0.4 -3.8,0.5 -3.8,4.9 0,4.4 0,4.4 3.8,4.6 l 3.7,0.1 -3.7,0.4 c -3.8,0.4 -3.8,0.5 -3.8,4.9 0,4.4 0,4.4 3.8,4.6 l 3.7,0.1 -3.7,0.4 c -3.7,0.4 -3.8,0.5 -3.8,4.4 0,3.8 0.1,3.9 3.8,4.1 l 3.7,0.1 -3.7,0.4 c -3.8,0.4 -3.8,0.5 -3.8,4.9 0,4.4 0,4.4 3.8,4.6 l 3.7,0.1 -3.7,0.4 c -5.7,0.6 -6,8.3 -0.3,8.3 1.9,0 3.5,0.4 3.5,1 0,0.5 -1.6,1 -3.5,1 -5.7,0 -5.4,7.9 0.3,8.2 l 3.7,0.1 -3.7,0.4 c -3.8,0.4 -3.8,0.5 -3.8,4.9 0,4.4 0,4.4 3.8,4.6 l 3.7,0.1 -3.7,0.4 c -3.8,0.4 -3.8,0.5 -3.8,4.9 0,4.4 0,4.4 3.8,4.6 l 3.7,0.1 -3.7,0.4 c -3.8,0.4 -3.8,0.5 -3.8,4.9 0,4.4 0,4.4 3.8,4.6 l 3.7,0.1 -3.7,0.4 c -3.8,0.4 -3.8,0.5 -3.8,4.9 0,4.4 0,4.4 3.8,4.6 l 3.7,0.1 -3.7,0.4 c -3.8,0.4 -3.8,0.5 -3.8,4.9 0,4.4 0,4.4 3.8,4.6 l 3.7,0.1 -3.7,0.4 c -3.7,0.4 -3.8,0.5 -3.8,4.4 0,3.8 0.1,3.9 3.8,4.1 l 3.7,0.1 -3.7,0.4 c -3.8,0.4 -3.8,0.5 -3.8,4.9 0,4.4 0,4.4 3.8,4.6 l 3.7,0.1 -3.7,0.4 c -3.8,0.4 -3.8,0.5 -3.8,4.9 0,4.4 0,4.4 3.8,4.6 l 3.7,0.1 -3.7,0.4 c -3.8,0.4 -3.8,0.5 -3.8,4.9 0,4.4 0,4.4 3.8,4.6 l 3.7,0.1 -3.7,0.4 c -3.8,0.4 -3.8,0.5 -3.8,4.9 0,4.4 0,4.4 3.8,4.6 l 3.7,0.1 -3.7,0.4 c -3.8,0.4 -3.8,0.5 -3.8,4.9 0,4.4 0,4.4 3.8,4.6 l 3.7,0.1 -3.7,0.4 c -3.7,0.4 -3.8,0.5 -3.8,4.4 0,3.8 0.1,3.9 3.8,4.1 l 3.7,0.1 -3.7,0.4 c -3.8,0.4 -3.8,0.5 -3.8,4.9 0,4.4 0,4.4 3.8,4.6 l 3.7,0.1 -3.7,0.4 c -3.8,0.4 -3.8,0.5 -3.8,4.9 0,4.4 0,4.4 3.8,4.6 l 3.7,0.1 -3.7,0.4 c -3.8,0.4 -3.8,0.5 -3.8,4.9 0,4.4 0,4.4 3.8,4.6 l 3.7,0.1 -3.7,0.4 c -5.7,0.6 -6,8.3 -0.3,8.3 1.9,0 3.5,0.4 3.5,1 0,0.5 -1.6,1 -3.5,1 -5.7,0 -5.4,7.9 0.3,8.2 l 3.7,0.1 -3.7,0.4 c -3.8,0.4 -3.8,0.5 -3.8,4.9 0,4.4 0,4.4 3.8,4.6 l 3.7,0.1 -3.7,0.4 c -3.8,0.4 -3.8,0.5 -3.8,4.9 0,4.4 0,4.4 3.8,4.6 l 3.7,0.1 -3.7,0.4 c -3.8,0.4 -3.8,0.5 -3.8,4.9 0,4.4 0,4.4 3.8,4.6 l 3.7,0.1 -3.7,0.4 c -3.8,0.4 -3.8,0.5 -3.8,4.9 0,4.4 0,4.4 3.8,4.6 l 3.7,0.1 -3.7,0.4 c -3.8,0.4 -3.8,0.5 -3.8,4.9 0,4.4 0,4.4 3.8,4.6 l 3.7,0.1 -3.7,0.4 c -3.7,0.4 -3.8,0.5 -3.8,4.4 0,3.8 0.1,3.9 3.8,4.1 l 3.7,0.1 -3.7,0.4 c -3.8,0.4 -3.8,0.5 -3.8,4.9 0,4.4 0,4.4 3.8,4.6 l 3.7,0.1 -3.7,0.4 c -3.8,0.4 -3.8,0.5 -3.8,4.9 0,4.4 0,4.4 3.8,4.6 l 3.7,0.1 -3.7,0.4 c -3.8,0.4 -3.8,0.5 -3.8,4.9 0,4.4 0,4.4 3.8,4.6 l 3.7,0.1 -3.7,0.4 c -3.8,0.4 -3.8,0.5 -3.8,4.9 0,4.4 0,4.4 3.8,4.6 l 3.7,0.1 -3.7,0.4 c -3.8,0.4 -3.8,0.5 -3.8,4.9 0,4.4 0,4.4 3.8,4.6 l 3.7,0.1 -3.7,0.4 c -3.7,0.4 -3.8,0.5 -3.8,4.4 0,3.8 0.1,3.9 3.8,4.1 l 3.7,0.1 -3.7,0.4 c -3.8,0.4 -3.8,0.5 -3.8,4.9 0,4.4 0,4.4 3.8,4.6 l 3.7,0.1 -3.7,0.4 c -5.7,0.6 -6,8.3 -0.3,8.3 1.9,0 3.5,0.4 3.5,1 0,0.5 -1.6,1 -3.5,1 -5.7,0 -5.4,7.9 0.3,8.2 l 3.7,0.1 -3.7,0.4 c -3.8,0.4 -3.8,0.5 -3.8,4.9 0,4.4 0,4.4 3.8,4.6 l 3.7,0.1 -3.7,0.4 c -3.8,0.4 -3.8,0.5 -3.8,4.9 0,4.4 0,4.4 3.8,4.6 l 3.7,0.1 -3.7,0.4 c -3.8,0.4 -3.8,0.5 -3.8,4.9 0,4.4 0,4.4 3.8,4.6 l 3.7,0.1 -3.7,0.4 c -3.8,0.4 -3.8,0.5 -3.8,4.9 0,4.4 0,4.4 3.8,4.6 l 3.7,0.1 -3.7,0.4 c -3.8,0.4 -3.8,0.5 -3.8,4.9 0,4.4 0,4.4 3.8,4.6 l 3.7,0.1 -3.7,0.4 c -3.7,0.4 -3.8,0.5 -3.8,4.4 0,3.8 0.1,3.9 3.8,4.1 l 3.7,0.1 -3.7,0.4 c -3.8,0.4 -3.8,0.5 -3.8,4.9 0,4.4 0,4.4 3.8,4.6 l 3.7,0.1 -3.7,0.4 c -3.8,0.4 -3.8,0.5 -3.8,4.9 0,4.4 0,4.4 3.8,4.6 l 3.7,0.1 -3.7,0.4 c -3.8,0.4 -3.8,0.5 -3.8,4.9 0,4.4 0,4.4 3.8,4.6 l 3.7,0.1 -3.7,0.4 c -3.8,0.4 -3.8,0.5 -3.8,4.9 0,4.4 0,4.4 3.8,4.6 l 3.7,0.1 -3.7,0.4 c -3.7,0.4 -3.8,0.5 -3.8,4.4 0,3.8 0.1,3.9 3.8,4.1 l 3.7,0.1 -3.7,0.4 c -3.8,0.4 -3.8,0.5 -3.8,4.9 0,4.4 0,4.4 3.8,4.6 l 3.7,0.1 -3.7,0.4 c -3.8,0.4 -3.8,0.5 -3.8,4.9 0,4.4 0,4.4 3.8,4.6 l 3.7,0.1 -3.7,0.4 c -5.7,0.6 -6,8.3 -0.3,8.3 1.9,0 3.5,0.4 3.5,1 0,0.5 -1.6,1 -3.5,1 -5.7,0 -5.4,7.9 0.3,8.2 l 3.7,0.1 -3.7,0.4 c -3.8,0.4 -3.8,0.5 -3.8,4.9 0,4.4 0,4.4 3.8,4.6 l 3.7,0.1 -3.7,0.4 c -3.8,0.4 -3.8,0.5 -3.8,4.9 0,4.4 0,4.4 3.8,4.6 l 3.7,0.1 -3.7,0.4 c -3.8,0.4 -3.8,0.5 -3.8,4.9 0,4.4 0,4.4 3.8,4.6 l 3.7,0.1 -3.7,0.4 c -3.8,0.4 -3.8,0.5 -3.8,4.9 0,4.4 0,4.4 3.8,4.6 l 3.7,0.1 -3.7,0.4 c -3.8,0.4 -3.8,0.5 -3.8,4.9 0,4.4 0,4.4 3.8,4.6 l 3.7,0.1 -3.7,0.4 c -3.7,0.4 -3.8,0.5 -3.8,4.4 0,3.8 0.1,3.9 3.8,4.1 l 3.7,0.1 -3.7,0.4 c -3.8,0.4 -3.8,0.5 -3.8,4.9 0,4.4 0,4.4 3.8,4.6 l 3.7,0.1 -3.7,0.4 c -3.8,0.4 -3.8,0.5 -3.8,4.9 0,4.4 0,4.4 3.8,4.6 l 3.7,0.1 -3.7,0.4 c -3.8,0.4 -3.8,0.5 -3.8,4.9 0,4.4 0,4.4 3.8,4.6 l 3.7,0.1 -3.7,0.4 c -3.8,0.4 -3.8,0.5 -3.8,4.9 0,4.4 0,4.4 3.8,4.6 l 3.7,0.1 -3.7,0.4 c -3.8,0.4 -3.8,0.5 -3.8,4.9 0,4.4 0,4.4 3.8,4.6 l 3.7,0.1 -3.7,0.4 c -3.7,0.4 -3.8,0.5 -3.8,4.4 0,3.8 0.1,3.9 3.8,4.1 l 3.7,0.1 -3.7,0.4 c -3.8,0.4 -3.8,0.5 -3.8,4.9 0,4.4 0,4.4 3.8,4.6 l 3.7,0.1 -3.7,0.4 c -5.7,0.6 -6,8.3 -0.3,8.3 1.9,0 3.5,0.4 3.5,1 0,0.5 -1.6,1 -3.5,1 -5.7,0 -5.4,7.9 0.3,8.2 l 3.7,0.1 -3.7,0.4 c -3.8,0.4 -3.8,0.5 -3.8,4.9 0,4.4 0,4.4 3.8,4.6 l 3.7,0.1 -3.7,0.4 c -3.8,0.4 -3.8,0.5 -3.8,4.9 0,4.4 0,4.4 3.8,4.6 l 3.7,0.1 -3.7,0.4 c -3.8,0.4 -3.8,0.5 -3.8,4.9 0,4.4 0,4.4 3.8,4.6 l 3.7,0.1 -3.7,0.4 c -3.8,0.4 -3.8,0.5 -3.8,4.9 0,4.4 0,4.4 3.8,4.6 l 3.7,0.1 -3.7,0.4 c -3.8,0.4 -3.8,0.5 -3.8,4.9 0,4.4 0,4.4 3.8,4.6 l 3.7,0.1 -3.7,0.4 c -3.7,0.4 -3.8,0.5 -3.8,4.4 0,3.8 0.1,3.9 3.8,4.1 l 3.7,0.1 -3.7,0.4 c -3.8,0.4 -3.8,0.5 -3.8,4.9 0,4.4 0,4.4 3.8,4.6 l 3.7,0.1 -3.7,0.4 c -3.8,0.4 -3.8,0.5 -3.8,4.9 0,4.4 0,4.4 3.8,4.6 l 3.7,0.1 -3.7,0.4 c -3.8,0.4 -3.8,0.5 -3.8,4.9 l 0,4.4 -144,0 -143.9,0 -1.1,4.2 c -40.2,155.8 -129.8,314.8 -225.2,399.5 l -10.8,9.6 0,101.8 0,101.9 -9,0 c -7.1,0 -9,-0.3 -9,-1.4 0,-1.5 -1,-2 -7,-3.1 -7.8,-1.6 -27.4,-18.8 -32.5,-28.6 -14.5,-27.8 -21.2,-94.6 -24.5,-243.1 -0.6,-25.2 -1.5,-48 -2,-50.8 -1,-5.2 -1.9,-20.3 -4.5,-71.5 -2.1,-41 -5,-77.2 -9.5,-118 -3.2,-29.1 -4,-41.8 -5,-83 -0.8,-31.3 -1.7,-46 -4.5,-74.5 -1.9,-19.5 -9.3,-96 -16.5,-170 -7.2,-74 -14.2,-146.4 -15.6,-161 l -2.6,-26.5 -3.1,-3.2 c -4.8,-5.1 -6.2,-20.7 -2.4,-29 10.5,-23.5 37.2,-94.1 42.1,-111.3 27.9,-97.9 17,-238.5 -31.4,-403.5 -5.4,-18.6 -5.8,-20.5 -5.3,-27.5 0.5,-7.2 0.2,-8.6 -6.6,-30.8 -3.9,-12.7 -7.1,-23.6 -7.1,-24.1 0,-3.6 53.2,-20.9 82,-26.6 4.7,-1 19.9,-5.5 33.8,-10.1 13.9,-4.6 26.2,-8.4 27.3,-8.4 2,0 2.6,2.4 0.9,3.5 -5.2,3.2 -9.9,17.2 -7.8,23.2 1.5,4.1 0,5.8 -11.7,14.5 -8.8,6.5 -33.5,29.3 -33.5,31 0,0.5 1,2.3 2.1,4 1.9,2.7 2,3.3 0.9,7.3 l -1.2,4.5 5.3,5.8 c 3,3.2 6.5,7.5 7.9,9.5 2.8,4.2 2.9,4.2 15.5,5.7 13.7,1.5 15,1.4 19,-2.1 5.8,-5.1 23.7,-37.5 28,-50.6 1.5,-4.6 2.3,-5.5 9.4,-10.1 9.3,-6.1 11.1,-9 10.4,-17.2 l -0.5,-5.5 12.9,-6.2 c 7,-3.4 23.6,-12.6 36.8,-20.4 13.2,-7.8 25.8,-14.6 28,-15.1 9.9,-2.4 33.8,-3.5 43.8,-2.2 z M 1509,1111 c 8.9,2.6 18.8,12.7 22,22.5 3.2,9.6 -0.4,27.3 -5.4,26.9 -1.3,-0.2 -1.4,0.1 -0.6,1.1 0.8,0.9 0.8,1.5 0,2 -0.5,0.3 -1,0.1 -1,-0.5 0,-0.7 -0.7,-1 -1.5,-0.6 -1.2,0.4 -1.3,0.2 -0.7,-1.2 1.1,-2 0.5,-4.5 -0.8,-3.7 -0.5,0.3 -0.7,1.3 -0.4,2.3 0.5,1.4 0.4,1.4 -0.4,0.3 -0.8,-1.1 -0.5,-2.5 0.9,-5.2 4.4,-8.8 0.5,-21.4 -10.8,-34.7 -2.8,-3.2 -2.8,-3.2 -8.3,-2.2 -7.6,1.4 -27.4,3.9 -27.8,3.6 -0.1,-0.2 0.9,-1.8 2.4,-3.5 6.5,-7.8 20,-10.7 32.4,-7.1 z m 206,11.4 c 0,0.8 -0.7,4.2 -1.6,7.6 -5.1,20.1 12.3,43.8 33.6,45.7 l 6.2,0.6 11.9,14.1 c 6.5,7.8 11.9,14.8 11.9,15.7 0,2.7 -32,9.1 -61.7,12.3 -17.6,2 -68.3,2.3 -68.3,0.4 0,-1.5 12,-24.4 22.8,-43.3 16.5,-29 30.6,-48.6 38,-52.5 4.4,-2.3 7.2,-2.5 7.2,-0.6 z m 43.7,4.7 c 4.6,1.6 19.1,21.4 37.6,51.4 21.2,34.5 43.8,52.5 65.7,52.5 34.7873,-0.6427 85.8956,-31.8457 117.5,-51 78.7,-47.7 127.3,-49.2 169.7,-5.2 11.6,12 12,12.8 6.5,13.7 -5.9,1 -11.6,4.1 -13.5,7.5 l -1.6,2.8 -7.6,-7.2 c -18.3,-17.5 -33.9,-24.5 -56.5,-25.3 -33.9,-1.3 -59.2,9.6 -119,51.7 -32.7,22.9 -57.6,31.3 -93.5,31.4 -33.2,0.2 -49.5,-6.8 -64.1,-27.1 -9.9,-13.8 -24.8,-32 -44.3,-54.2 -16.9,-19.3 -17.9,-20.7 -18.3,-25 -1,-11.1 10.6,-19.8 21.4,-16 z m -653.4,1.3 c 5,2.1 6.3,4.3 9.2,15.4 3.3,12.4 2.9,14.1 -3.3,18.1 -6.2,3.9 -5.8,4 -7.6,-2.2 -4.2,-14 -17.3,-21.2 -26.8,-14.5 -2.7,1.8 -2.7,1.8 -3.8,-0.2 -5.2,-9.8 19,-22.2 32.3,-16.6 z m -11.7,25.3 c 8.2,10 7.3,16.1 -6,42.8 -5.3,10.4 -10.6,20.3 -11.8,21.8 l -2.3,2.9 -5,-3.9 c -2.8,-2.1 -8,-5.8 -11.7,-8.2 l -6.8,-4.3 -6.6,4.1 c -8.1,5.1 -7.9,5.4 -5.4,-6 2.6,-12.1 2.6,-11.9 -1.8,-7.6 l -3.8,3.7 -1.7,-2.9 -1.7,-2.9 11.8,-10.9 c 6.4,-6 15.1,-13.4 19.2,-16.5 4.1,-3 8.9,-6.9 10.5,-8.6 10.2,-10.3 16.8,-11.3 23.1,-3.5 z m 1253.2,35.5 c 58.9,35.2 140.5,84.7 157.2,95.3 1.9,1.3 9.6,6 17,10.5 116.7,71.7 213.6,135.8 246,163 32.7,27.3 45.3,72.8 66.5,240 22.4,176.9 33.2,223.4 69,297 41.2,84.8 52,145.2 33.9,189 -2.4,5.8 -8.7,21.7 -14,35.5 -10.5,27.5 -19,43.9 -50.9,99 -73.6,126.8 -132.5,203 -166.5,215.4 -2,0.8 -11.6,1.7 -22,2.1 -10.2,0.5 -25.2,1.2 -33.5,1.5 l -15,0.7 -18.5,-5.7 c -129.5,-39.6 -174,-70.8 -174,-122.1 0,-24.1 46,-236.4 69.5,-320.9 14.8,-53 32.7,-103 38.8,-108 0.7,-0.6 2.3,-3.5 3.6,-6.5 7.3,-16.8 9.5,-23.1 10.8,-30.9 0.8,-4.7 5.2,-20.3 9.8,-34.6 4.6,-14.3 12.2,-37.9 16.8,-52.5 4.7,-14.6 17.2,-53.3 27.7,-86 10.5,-32.7 24.5,-76.2 31,-96.5 6.6,-20.4 17.5,-54.3 24.3,-75.5 8.5,-26.3 12,-38.7 11.3,-39.2 -0.7,-0.4 -2.5,-0.8 -4,-1 l -2.9,-0.3 -57.7,179.5 c -43.5,135.3 -58.1,179.6 -59.4,179.8 -0.9,0.2 -1.6,-0.1 -1.6,-0.6 0,-1.9 -6.7,-9.3 -12,-13.4 -8.6,-6.5 -24,-13.2 -45.6,-19.8 -63.5,-19.6 -74.9,-25.1 -94.9,-46 -7.1,-7.5 -6.4,-7 -89,-60.8 -5.7,-3.8 -10.1,-6 -10.3,-5.3 -1.7,5 -5.6,-2.9 -22.6,-45.6 -24.7,-62 -30.8,-80.4 -36.5,-108.8 -19.1,-95.8 -4.3,-238.1 39.4,-380 4.3,-14 4.6,-15.5 4,-22.4 -0.9,-9.7 10.2,-49.1 13.8,-49.1 1,0 19.3,10.4 40.5,23.2 z m -1417.7,-7 c 8.8,28.6 8.9,28.9 8.9,38.7 0,8.3 0.6,11.3 4.9,26 54.7,183.6 61.7,328.5 21,437 -26.4,70.4 -39.2,99.7 -41.1,94 -0.2,-0.6 -9.1,4.6 -19.8,11.7 -10.7,7 -31.2,20.4 -45.5,29.7 -22.4,14.5 -27.6,18.4 -37.1,27.6 -19.3,18.7 -31.3,24.9 -73.4,37.6 -47.2,14.3 -57.4,18.8 -69.8,31.2 -4.6,4.6 -8.7,8.3 -9.1,8.3 -0.4,0 -3,-7.1 -5.8,-15.8 -5.7,-17.4 -19.4,-60 -33.1,-102.7 -27.4,-85.1 -44.3,-137.7 -54.1,-168.3 -4.9,-15.2 -12.2,-37.9 -16.2,-50.3 l -7.2,-22.6 -3.6,0.9 c -2,0.6 -3.8,1.2 -3.9,1.3 -0.2,0.2 8.7,28.6 19.8,63.2 11.2,34.5 22.6,70.2 25.5,79.3 3,9.1 9.4,29.1 14.3,44.5 36.1,112.3 53.9,167.5 56.8,176.5 1.9,5.8 4.1,14.5 4.9,19.3 2.1,12 9.4,30.8 15.8,40.3 22.8,33.9 65.6,200.2 104.7,406 12.6,66.7 -26.8,99.4 -173.3,144 l -18,5.4 -27.6,-1.5 c -15.2,-0.8 -30.3,-1.6 -33.7,-1.8 -35,-1.7 -107.3,-95.6 -195.4,-253.7 -19.7,-35.4 -19.5,-35 -32.2,-67.8 -6,-15.8 -11.9,-30.3 -12.9,-32.4 -7.5,-14.7 -8.9,-49.9 -3.3,-79.6 6.5,-34.1 19.9,-70.2 43.7,-117.7 29.4,-58.9 42.7,-118.6 64.2,-289.5 19.2,-152.3 32.4,-203.4 59.7,-230.9 22,-22.1 128,-92.3 284.3,-188.3 83.4,-51.2 180.7,-109.6 182.7,-109.7 1.3,-0.1 2.4,2.3 4.9,10.1 z m 1245.8,18.5 c 16.5,9.6 18.2,11.9 15,21.4 -1.6,4.5 -1.4,4.4 -4.6,2.1 -4.1,-2.8 -8.9,-4.2 -16.5,-4.4 -7.8,-0.3 -12.9,3.3 -14.9,10.4 -1.1,4.2 -1.2,4.2 -3.9,2.8 -7.1,-3.8 -3.9,-19 6.2,-28.6 7.6,-7.3 11.3,-8.1 18.7,-3.7 z m 4.8,27 c 7.4,3.5 13,15.5 20.2,43.3 4.5,17.6 4.5,17.4 -0.9,17.8 -4.1,0.2 -18.1,2.7 -22.2,3.8 -1,0.3 -2.3,2.6 -3.3,6.2 -2.9,10.6 -2.6,10.6 -8.8,0.1 l -5.7,-9.4 0,5.4 0,5.3 -3.2,-0.6 c -1.7,-0.3 -3.3,-0.8 -3.6,-1 -0.8,-0.9 2,-34.2 3.4,-40.4 0.8,-3.5 1.7,-9.5 2,-13.5 1.6,-19.2 7.7,-23.9 22.1,-17 z m -561.7,24.5 c 0,11.7 1,13.8 6.8,13.8 6.2,0 7.2,-1.9 7.2,-13.7 l 0,-10.3 2.9,0 2.9,0 0.6,15.2 c 1.5,39.1 1.4,42.8 -0.7,44 -3.1,1.6 -16.9,2.2 -22.5,0.9 l -5,-1.3 0.4,-14.1 c 0.3,-7.8 0.7,-21.1 1,-29.5 l 0.6,-15.2 2.9,0 2.9,0 z m -4,966.8 c 0,0.5 1.7,1.1 3.8,1.2 l 3.7,0.1 -3.7,0.4 c -3.8,0.4 -3.8,0.5 -3.8,4.9 0,4.4 0,4.4 3.8,4.6 l 3.7,0.1 -3.7,0.4 c -3.7,0.4 -3.8,0.5 -3.8,4.4 0,3.8 0.1,3.9 3.8,4.1 l 3.7,0.1 -3.7,0.4 c -3.8,0.4 -3.8,0.5 -3.8,4.9 0,4.4 0,4.4 3.8,4.6 l 3.7,0.1 -3.7,0.4 c -3.8,0.4 -3.8,0.5 -3.8,4.9 0,4.4 0,4.4 3.8,4.6 l 3.7,0.1 -3.7,0.4 c -3.8,0.4 -3.8,0.5 -3.8,4.9 0,4.4 0,4.4 3.8,4.6 l 3.7,0.1 -3.7,0.4 c -5.7,0.6 -6,8.3 -0.3,8.3 1.9,0 3.5,0.4 3.5,1 0,0.5 -1.6,1 -3.5,1 -5.7,0 -5.4,7.9 0.3,8.2 l 3.7,0.1 -3.7,0.4 c -3.8,0.4 -3.8,0.5 -3.8,4.9 0,4.4 0,4.4 3.8,4.6 l 3.7,0.1 -3.7,0.4 c -3.8,0.4 -3.8,0.5 -3.8,4.9 0,4.4 0,4.4 3.8,4.6 l 3.7,0.1 -3.7,0.4 c -3.8,0.4 -3.8,0.5 -3.8,4.9 0,4.4 0,4.4 3.8,4.6 l 3.7,0.1 -3.7,0.4 c -3.8,0.4 -3.8,0.5 -3.8,4.9 0,4.4 0,4.4 3.8,4.6 l 3.7,0.1 -3.7,0.4 c -3.8,0.4 -3.8,0.5 -3.8,4.9 0,4.4 0,4.4 3.8,4.6 l 3.7,0.1 -3.7,0.4 c -3.7,0.4 -3.8,0.5 -3.8,4.4 0,3.8 0.1,3.9 3.8,4.1 l 3.7,0.1 -3.7,0.4 c -3.8,0.4 -3.8,0.5 -3.8,4.9 0,4.4 0,4.4 3.8,4.6 l 3.7,0.1 -3.7,0.4 c -3.8,0.4 -3.8,0.5 -3.8,4.9 0,4.4 0,4.4 3.8,4.6 l 3.7,0.1 -3.7,0.4 c -3.8,0.4 -3.8,0.5 -3.8,4.9 0,4.4 0,4.4 3.8,4.6 l 3.7,0.1 -3.7,0.4 c -3.8,0.4 -3.8,0.5 -3.8,4.9 0,4.4 0,4.4 3.8,4.6 l 3.7,0.1 -3.7,0.4 c -3.8,0.4 -3.8,0.5 -3.8,4.9 0,4.4 0,4.4 3.8,4.6 l 3.7,0.1 -3.7,0.4 c -3.7,0.4 -3.8,0.5 -3.8,4.4 0,3.8 0.1,3.9 3.8,4.1 l 3.7,0.1 -3.7,0.4 c -3.8,0.4 -3.8,0.5 -3.8,4.9 0,4.4 0,4.4 3.8,4.6 l 3.7,0.1 -3.7,0.4 c -5.7,0.6 -6,8.3 -0.3,8.3 1.9,0 3.5,0.4 3.5,1 0,0.5 -1.6,1 -3.5,1 -5.7,0 -5.4,7.9 0.3,8.2 l 3.7,0.1 -3.7,0.4 c -3.8,0.4 -3.8,0.5 -3.8,4.9 0,4.4 0,4.4 3.8,4.6 l 3.7,0.1 -3.7,0.4 c -3.8,0.4 -3.8,0.5 -3.8,4.9 0,4.4 0,4.4 3.8,4.6 l 3.7,0.1 -3.7,0.4 c -3.8,0.4 -3.8,0.5 -3.8,4.9 0,4.4 0,4.4 3.8,4.6 l 3.7,0.1 -3.7,0.4 -3.8,0.4 0,14 0,13.9 3.8,0.2 3.7,0.1 -3.7,0.4 c -3.8,0.4 -3.8,0.5 -3.8,4.9 0,4.4 0,4.4 3.8,4.6 l 3.7,0.1 -3.7,0.4 c -3.8,0.4 -3.8,0.5 -3.8,4.9 0,4.4 0,4.4 3.8,4.6 l 3.7,0.1 -3.7,0.4 c -3.8,0.4 -3.8,0.5 -3.8,4.9 0,4.4 0,4.4 3.8,4.6 l 3.7,0.1 -3.7,0.4 c -3.7,0.4 -3.8,0.5 -3.8,4.4 0,3.8 0.1,3.9 3.8,4.1 l 3.7,0.1 -3.7,0.4 c -3.8,0.4 -3.8,0.5 -3.8,4.9 0,4.4 0,4.4 3.8,4.6 l 3.7,0.1 -3.7,0.4 c -3.8,0.4 -3.8,0.5 -3.8,4.9 0,4.4 0,4.4 3.8,4.6 l 3.7,0.1 -3.7,0.4 c -3.8,0.4 -3.8,0.5 -3.8,4.9 0,4.4 0,4.4 3.8,4.6 l 3.7,0.1 -3.7,0.4 c -3.8,0.4 -3.8,0.5 -3.8,4.9 0,4.4 0,4.4 3.8,4.6 l 3.7,0.1 -3.7,0.4 c -3.8,0.4 -3.8,0.5 -3.8,4.9 0,4.4 0,4.4 3.8,4.6 l 3.7,0.1 -3.7,0.4 c -3.7,0.4 -3.8,0.5 -3.8,4.4 0,3.8 0.1,3.9 3.8,4.1 l 3.7,0.1 -3.7,0.4 c -3.8,0.4 -3.8,0.5 -3.8,4.9 0,4.4 0,4.4 3.8,4.6 l 3.7,0.1 -3.7,0.4 c -5.7,0.6 -6,8.3 -0.3,8.3 1.9,0 3.5,0.4 3.5,1 0,0.5 -1.6,1 -3.5,1 -5.7,0 -5.4,7.9 0.3,8.2 l 3.7,0.1 -3.7,0.4 c -3.8,0.4 -3.8,0.5 -3.8,4.9 0,4.4 0,4.4 3.8,4.6 l 3.7,0.1 -3.7,0.4 c -3.8,0.4 -3.8,0.5 -3.8,4.9 0,4.4 0,4.4 3.8,4.6 l 3.7,0.1 -3.7,0.4 c -3.8,0.4 -3.8,0.5 -3.8,4.9 0,4.4 0,4.4 3.8,4.6 l 3.7,0.1 -3.7,0.4 c -3.8,0.4 -3.8,0.5 -3.8,4.9 0,4.4 0,4.4 3.8,4.6 l 3.7,0.1 -3.7,0.4 c -3.8,0.4 -3.8,0.5 -3.8,4.9 0,4.4 0,4.4 3.8,4.6 l 3.7,0.1 -3.7,0.4 c -3.7,0.4 -3.8,0.5 -3.8,4.4 0,3.8 0.1,3.9 3.8,4.1 l 3.7,0.1 -3.7,0.4 c -3.8,0.4 -3.8,0.5 -3.8,4.9 0,4.4 0,4.4 3.8,4.6 l 3.7,0.1 -3.7,0.4 c -3.8,0.4 -3.8,0.5 -3.8,4.9 0,4.4 0,4.4 3.8,4.6 l 3.7,0.1 -3.7,0.4 c -3.8,0.4 -3.8,0.5 -3.8,4.9 0,4.4 0,4.4 3.8,4.6 l 3.7,0.1 -3.7,0.4 c -3.8,0.4 -3.8,0.5 -3.8,4.9 0,4.4 0,4.4 3.8,4.6 l 3.7,0.1 -3.7,0.4 c -3.8,0.4 -3.8,0.5 -3.8,4.9 0,4.4 0,4.4 3.8,4.6 l 3.7,0.1 -3.7,0.4 c -3.7,0.4 -3.8,0.5 -3.8,4.4 0,3.8 0.1,3.9 3.8,4.1 l 3.7,0.1 -3.7,0.4 c -3.8,0.4 -3.8,0.5 -3.8,4.9 0,4.4 0,4.4 3.8,4.6 l 3.7,0.1 -3.7,0.4 c -3.8,0.4 -3.8,0.5 -3.8,4.9 0,4.4 0,4.4 3.8,4.6 l 3.7,0.1 -3.7,0.4 c -3.8,0.4 -3.8,0.5 -3.8,4.9 0,4.4 0,4.4 3.8,4.6 l 3.7,0.1 -3.7,0.4 c -5.7,0.6 -6,8.3 -0.3,8.3 1.9,0 3.5,0.4 3.5,1 0,0.5 -1.6,1 -3.5,1 -5.7,0 -5.4,7.9 0.3,8.2 l 3.7,0.1 -3.7,0.4 c -3.8,0.4 -3.8,0.5 -3.8,4.9 0,4.4 0,4.4 3.8,4.6 l 3.7,0.1 -3.7,0.4 c -3.8,0.4 -3.8,0.5 -3.8,4.9 0,4.4 0,4.4 3.8,4.6 l 3.7,0.1 -3.7,0.4 c -3.8,0.4 -3.8,0.5 -3.8,4.9 0,4.4 0,4.4 3.8,4.6 l 3.7,0.1 -3.7,0.4 c -3.8,0.4 -3.8,0.5 -3.8,4.9 0,4.4 0,4.4 3.8,4.6 l 3.7,0.1 -3.7,0.4 c -2.1,0.2 -3.8,0.8 -3.8,1.4 0,0.5 -97.7,0.9 -258,0.9 l -258,0 0,-102.4 0,-102.5 4.8,-4.3 c 99.3,-89.9 191.5,-250.6 229.2,-399.6 l 1.1,-4.2 140.4,0 c 93,0 140.5,0.3 140.5,1 z m 303.5,12.7 c 35.1,137 117.3,285.4 208.7,376.6 l 23.8,23.8 0,99.5 0,99.4 -257,0 -257,0 0,-3.5 c 0,-3.3 -0.2,-3.5 -3.7,-3.7 l -3.8,-0.1 3.8,-0.4 c 3.7,-0.4 3.7,-0.5 3.7,-4.9 0,-4.4 0,-4.4 -3.7,-4.6 l -3.8,-0.1 3.8,-0.4 c 3.7,-0.4 3.7,-0.5 3.7,-4.9 0,-4.4 0,-4.4 -3.7,-4.6 l -3.8,-0.1 3.8,-0.4 c 3.7,-0.4 3.7,-0.5 3.7,-4.9 0,-4.4 0,-4.4 -3.7,-4.6 l -3.8,-0.1 3.8,-0.4 c 3.6,-0.4 3.7,-0.5 3.7,-4.4 0,-3.8 -0.1,-3.9 -3.7,-4.1 l -3.8,-0.1 3.8,-0.4 c 3.7,-0.4 3.7,-0.5 3.7,-4.9 l 0,-4.4 -3.7,-0.1 -3.8,-0.2 3.5,-0.6 c 3.3,-0.6 3.5,-0.9 3.8,-4.9 l 0.3,-4.2 -3.8,-0.2 -3.8,-0.1 3.8,-0.4 c 3.7,-0.4 3.7,-0.5 3.7,-4.9 0,-4.4 0,-4.4 -3.7,-4.6 l -3.8,-0.1 3.8,-0.4 c 3.7,-0.4 3.7,-0.5 3.7,-4.9 0,-4.4 0,-4.4 -3.7,-4.6 l -3.8,-0.1 3.8,-0.4 c 3.7,-0.4 3.7,-0.5 3.7,-4.9 0,-2.8 -0.4,-4.4 -1.2,-4.5 -1,0 -1,-0.2 0,-0.6 0.7,-0.2 1.2,-2.2 1.2,-4.4 0,-3.8 -0.1,-3.9 -3.7,-4.1 l -3.8,-0.1 3.8,-0.4 c 3.7,-0.4 3.7,-0.5 3.7,-4.9 0,-4.4 0,-4.4 -3.7,-4.6 l -3.8,-0.1 3.8,-0.4 c 3.7,-0.4 3.7,-0.5 3.7,-4.9 0,-4.4 0,-4.4 -3.7,-4.6 l -3.8,-0.1 3.8,-0.4 c 3.7,-0.4 3.7,-0.5 3.7,-4.9 0,-4.4 0,-4.4 -3.7,-4.6 l -3.8,-0.1 3.8,-0.4 c 3.7,-0.4 3.7,-0.5 3.7,-4.9 0,-4.4 0,-4.4 -3.7,-4.6 l -3.8,-0.1 3.8,-0.4 c 5.7,-0.6 5.4,-8.4 -0.3,-9.4 l -3.5,-0.6 3.8,-0.2 c 3.6,-0.1 3.7,-0.2 3.7,-4.1 0,-3.9 -0.1,-4 -3.7,-4.2 l -3.8,-0.1 3.8,-0.4 c 3.7,-0.4 3.7,-0.5 3.7,-4.9 0,-4.4 0,-4.4 -3.7,-4.6 l -3.8,-0.1 3.8,-0.4 c 3.7,-0.4 3.7,-0.5 3.7,-4.9 0,-4.4 0,-4.4 -3.7,-4.6 l -3.8,-0.1 3.8,-0.4 c 3.7,-0.4 3.7,-0.5 3.7,-4.9 0,-4.4 0,-4.4 -3.7,-4.6 l -3.8,-0.1 3.8,-0.4 c 3.7,-0.4 3.7,-0.5 3.7,-4.9 0,-4.4 0,-4.4 -3.7,-4.6 l -3.8,-0.1 3.8,-0.4 c 3.6,-0.4 3.7,-0.5 3.7,-4.4 0,-3.8 -0.1,-3.9 -3.7,-4.1 l -3.8,-0.1 3.8,-0.4 c 3.7,-0.4 3.7,-0.5 3.7,-4.9 0,-4.4 0,-4.4 -3.7,-4.6 l -3.8,-0.1 3.8,-0.4 c 3.7,-0.4 3.7,-0.5 3.7,-4.9 0,-4.4 0,-4.4 -3.7,-4.6 l -3.8,-0.1 3.8,-0.4 c 3.7,-0.4 3.7,-0.5 3.7,-4.9 0,-4.4 0,-4.4 -3.7,-4.6 l -3.8,-0.1 3.8,-0.4 c 3.6,-0.4 3.7,-0.5 3.7,-4.4 0,-3.8 -0.1,-3.9 -3.7,-4.1 l -3.8,-0.1 3.8,-0.4 c 3.7,-0.4 3.7,-0.5 3.7,-4.9 0,-4.4 0,-4.4 -3.7,-4.6 l -3.8,-0.1 3.8,-0.4 c 3.7,-0.4 3.7,-0.5 3.7,-4.9 0,-4.4 0,-4.4 -3.7,-4.6 l -3.8,-0.1 3.8,-0.4 c 3.7,-0.4 3.7,-0.5 3.7,-4.9 0,-4.4 0,-4.4 -3.7,-4.6 l -3.8,-0.1 3.8,-0.4 c 3.7,-0.4 3.7,-0.5 3.7,-4.9 0,-4.4 0,-4.4 -3.7,-4.6 l -3.8,-0.1 3.8,-0.4 c 5.7,-0.6 5.4,-8.4 -0.3,-9.4 l -3.5,-0.6 3.8,-0.2 c 3.6,-0.1 3.7,-0.2 3.7,-4.1 0,-3.9 -0.1,-4 -3.7,-4.2 l -3.8,-0.1 3.8,-0.4 c 3.7,-0.4 3.7,-0.5 3.7,-4.9 0,-4.4 0,-4.4 -3.7,-4.6 l -3.8,-0.1 3.8,-0.4 c 3.7,-0.4 3.7,-0.5 3.7,-4.9 0,-4.4 0,-4.4 -3.7,-4.6 l -3.8,-0.1 3.7,-0.4 3.7,-0.4 0,-14 0.1,-13.9 -3.8,-0.2 -3.7,-0.1 3.8,-0.4 c 3.7,-0.4 3.7,-0.5 3.7,-4.9 0,-4.4 0,-4.4 -3.7,-4.6 l -3.8,-0.1 3.8,-0.4 c 3.7,-0.4 3.7,-0.5 3.7,-4.9 0,-4.4 0,-4.4 -3.7,-4.6 l -3.8,-0.1 3.8,-0.4 c 3.7,-0.4 3.7,-0.5 3.7,-4.9 0,-4.4 0,-4.4 -3.7,-4.6 l -3.8,-0.1 3.8,-0.4 3.7,-0.4 0,-9 0,-8.9 -3.7,-0.2 -3.8,-0.1 3.8,-0.4 c 3.7,-0.4 3.7,-0.5 3.7,-4.9 0,-4.4 0,-4.4 -3.7,-4.6 l -3.8,-0.1 3.8,-0.4 c 3.7,-0.4 3.7,-0.5 3.7,-4.9 0,-4.4 0,-4.4 -3.7,-4.6 l -3.8,-0.1 3.8,-0.4 c 3.6,-0.4 3.7,-0.5 3.7,-4.4 0,-3.8 -0.1,-3.9 -3.7,-4.1 l -3.8,-0.1 3.8,-0.4 c 3.7,-0.4 3.7,-0.5 3.7,-4.9 0,-4.4 0,-4.4 -3.7,-4.6 l -3.8,-0.1 3.8,-0.4 c 3.7,-0.4 3.7,-0.5 3.7,-4.9 0,-4.4 0,-4.4 -3.7,-4.6 l -3.8,-0.1 3.8,-0.4 c 3.7,-0.4 3.7,-0.5 3.7,-4.9 0,-4.4 0,-4.4 -3.7,-4.6 l -3.8,-0.1 3.8,-0.4 c 3.7,-0.4 3.7,-0.5 3.7,-4.9 0,-4.4 0,-4.4 -3.7,-4.6 l -3.8,-0.1 3.8,-0.4 c 5.7,-0.6 5.4,-8.4 -0.3,-9.4 l -3.5,-0.6 3.8,-0.2 c 3.6,-0.1 3.7,-0.2 3.7,-4.1 0,-3.9 -0.1,-4 -3.7,-4.2 l -3.8,-0.1 3.8,-0.4 c 3.7,-0.4 3.7,-0.5 3.7,-4.9 0,-4.4 0,-4.4 -3.7,-4.6 l -3.8,-0.1 3.8,-0.4 c 3.7,-0.4 3.7,-0.5 3.7,-4.9 0,-4.4 0,-4.4 -3.7,-4.6 l -3.8,-0.1 3.8,-0.4 c 3.7,-0.4 3.7,-0.5 3.7,-4.9 0,-4.4 0,-4.4 -3.7,-4.6 l -3.8,-0.1 3.8,-0.4 c 3.7,-0.4 3.7,-0.5 3.7,-4.9 0,-4.4 0,-4.4 -3.7,-4.6 l -3.8,-0.1 3.8,-0.4 c 3.6,-0.4 3.7,-0.5 3.7,-4.4 0,-3.8 -0.1,-3.9 -3.7,-4.1 l -3.8,-0.1 3.8,-0.4 c 3.7,-0.4 3.7,-0.5 3.7,-4.9 l 0,-4.4 -3.7,-0.1 -3.8,-0.2 3.5,-0.6 c 3.3,-0.6 3.5,-0.9 3.8,-4.9 l 0.3,-4.2 -3.8,-0.2 -3.8,-0.1 3.8,-0.4 c 3.7,-0.4 3.7,-0.5 3.7,-4.9 0,-4.4 0,-4.4 -3.7,-4.6 l -3.8,-0.1 3.8,-0.4 c 3.7,-0.4 3.7,-0.5 3.7,-4.9 0,-4.4 0,-4.4 -3.7,-4.6 l -3.8,-0.1 3.8,-0.4 c 3.7,-0.4 3.7,-0.5 3.7,-4.9 0,-2.8 -0.4,-4.4 -1.2,-4.5 -1,0 -1,-0.2 0,-0.6 0.7,-0.2 1.2,-2.2 1.2,-4.4 0,-3.8 -0.1,-3.9 -3.7,-4.1 l -3.8,-0.1 3.8,-0.4 c 3.5,-0.4 3.7,-0.6 3.7,-3.9 l 0,-3.4 139.1,0.2 139.1,0.3 z m 532.5,225.6 c 20.4,30.4 70.4,55.2 172.4,85.7 l 13.9,4.2 19.1,-1.1 c 10.5,-0.6 24.3,-1.4 30.6,-1.6 6.3,-0.3 13.7,-0.8 16.4,-1.2 6.9,-0.8 7.9,-3.1 -27.5,64.1 l -31.4,59.5 -5,0.5 c -2.7,0.3 -15.1,1.4 -27.5,2.4 l -22.5,2 -11.5,-3.5 c -103.8,-30.9 -143.2,-55.1 -154.1,-94.9 -3.8,-13.8 -3.1,-23.9 3.5,-50.9 11.2,-45.7 17.9,-70.5 19,-70.5 0.6,0 2.7,2.4 4.6,5.3 z m -1651.6,49.2 11.9,47.6 -0.5,10.7 c -2.3,47.9 -39.5,74.5 -152.3,108.9 l -15,4.5 -18,-1.6 c -9.9,-0.9 -22.3,-1.9 -27.6,-2.2 l -9.6,-0.7 -14.8,-28.1 c -15.7,-29.7 -24.1,-45.6 -39.9,-75.3 -10.5,-19.8 -11.2,-21.9 -6.8,-20.9 1.5,0.4 11.5,1.1 22.2,1.6 10.8,0.6 25.6,1.4 33,1.8 l 13.5,0.8 19.5,-5.9 c 94.9,-28.5 140.8,-51.1 163.8,-80.3 3.6,-4.6 7.1,-8.4 7.7,-8.4 0.5,0 6.4,21.4 12.9,47.5 z m 290.6,331 c 0,1.3 29.8,1.5 262.5,1.5 l 262.5,0 0,4 c 0,3.9 0.1,4 3.8,4.2 l 3.7,0.1 -3.7,0.4 c -3.8,0.4 -3.8,0.5 -3.8,4.9 0,4.4 0,4.4 3.8,4.6 l 3.7,0.1 -3.7,0.4 c -3.8,0.4 -3.8,0.5 -3.8,4.9 0,4.4 0,4.4 3.8,4.6 l 3.7,0.1 -3.7,0.4 c -3.8,0.4 -3.8,0.5 -3.8,4.9 0,4.4 0,4.4 3.8,4.6 l 3.7,0.1 -3.7,0.4 c -3.8,0.4 -3.8,0.5 -3.8,4.9 0,4.4 0,4.4 3.8,4.6 l 3.7,0.1 -3.7,0.4 c -3.8,0.4 -3.8,0.5 -3.8,4.9 0,4.4 0,4.4 3.8,4.6 l 3.7,0.1 -3.7,0.4 c -3.7,0.4 -3.8,0.5 -3.8,4.4 0,3.8 0.1,3.9 3.8,4.1 l 3.7,0.1 -3.7,0.4 c -3.8,0.4 -3.8,0.5 -3.8,4.9 0,4.4 0,4.4 3.8,4.6 l 3.7,0.1 -3.7,0.4 c -5.7,0.6 -6,8.3 -0.3,8.3 1.9,0 3.5,0.4 3.5,1 0,0.5 -1.6,1 -3.5,1 -5.7,0 -5.4,7.9 0.3,8.2 l 3.7,0.1 -3.7,0.4 c -3.8,0.4 -3.8,0.5 -3.8,4.9 0,4.4 0,4.4 3.8,4.6 l 3.7,0.1 -3.7,0.4 c -3.8,0.4 -3.8,0.5 -3.8,4.9 0,4.4 0,4.4 3.8,4.6 l 3.7,0.1 -3.7,0.4 c -3.8,0.4 -3.8,0.5 -3.8,4.9 0,4.4 0,4.4 3.8,4.6 l 3.7,0.1 -3.7,0.4 c -3.8,0.4 -3.8,0.5 -3.8,4.9 0,4.4 0,4.4 3.8,4.6 l 3.7,0.1 -3.7,0.4 c -3.8,0.4 -3.8,0.5 -3.8,4.9 0,4.4 0,4.4 3.8,4.6 l 3.7,0.1 -3.7,0.4 c -3.7,0.4 -3.8,0.5 -3.8,4.4 0,3.8 0.1,3.9 3.8,4.1 l 3.7,0.1 -3.7,0.4 c -3.8,0.4 -3.8,0.5 -3.8,4.9 0,4.4 0,4.4 3.8,4.6 l 3.7,0.1 -3.7,0.4 c -3.8,0.4 -3.8,0.5 -3.8,4.9 0,4.4 0,4.4 3.8,4.6 l 3.7,0.1 -3.7,0.4 c -3.4,0.4 -3.8,0.7 -3.8,3.4 l 0,2.9 -268.4,0 -268.5,0 -0.5,-4.3 c -0.2,-2.3 -1.4,-16.6 -2.6,-31.7 -3.5,-44.9 -9.8,-96.3 -16.6,-134 -1.3,-7.4 -2.4,-13.8 -2.4,-14.3 0,-0.4 7.7,-0.7 17,-0.7 14.4,0 17,0.2 17,1.5 z m 1089.6,3.2 c -8,58.2 -13.3,119.4 -14.9,172.3 l -0.2,7.5 -19.2,0.3 -19.3,0.2 0,-91 0,-91 17,0 c 14.4,0 17,-0.2 17,-1.5 0,-1.2 1.8,-1.5 10.1,-1.5 l 10.2,0 z m -55.8,90 0.2,93.3 -104.5,0 -104.5,0 0,-93.5 0,-93.5 104.3,0.2 104.2,0.3 z m -211.8,-0.7 0,91 -136.7,-0.1 c -75.3,0 -138.8,-0.4 -141.3,-0.8 l -4.5,-0.8 3.8,-0.2 3.7,-0.1 0,-4.5 0,-4.5 -3.7,-0.2 -3.8,-0.1 3.8,-0.4 c 3.7,-0.4 3.7,-0.5 3.7,-4.9 0,-4.4 0,-4.4 -3.7,-4.6 l -3.8,-0.1 3.8,-0.4 c 5.7,-0.6 5.4,-8.4 -0.3,-9.4 l -3.5,-0.6 3.8,-0.2 c 3.6,-0.1 3.7,-0.2 3.7,-4.1 0,-3.9 -0.1,-4 -3.7,-4.2 l -3.8,-0.1 3.8,-0.4 c 3.7,-0.4 3.7,-0.5 3.7,-4.9 0,-4.4 0,-4.4 -3.7,-4.6 l -3.8,-0.1 3.8,-0.4 c 3.7,-0.4 3.7,-0.5 3.7,-4.9 0,-4.4 0,-4.4 -3.7,-4.6 l -3.8,-0.1 3.8,-0.4 c 3.7,-0.4 3.7,-0.5 3.7,-4.9 0,-4.4 0,-4.4 -3.7,-4.6 l -3.8,-0.1 3.8,-0.4 c 3.7,-0.4 3.7,-0.5 3.7,-4.9 0,-4.4 0,-4.4 -3.7,-4.6 l -3.8,-0.1 3.8,-0.4 c 3.6,-0.4 3.7,-0.5 3.7,-4.4 0,-3.8 -0.1,-3.9 -3.7,-4.1 l -3.8,-0.1 3.8,-0.4 c 3.7,-0.4 3.7,-0.5 3.7,-4.9 0,-4.4 0,-4.4 -3.7,-4.6 l -3.8,-0.1 3.8,-0.4 c 3.7,-0.4 3.7,-0.5 3.7,-4.9 0,-4.4 0,-4.4 -3.7,-4.6 l -3.8,-0.1 3.8,-0.4 c 3.7,-0.4 3.7,-0.5 3.7,-4.9 0,-4.4 0,-4.4 -3.7,-4.6 l -3.8,-0.1 3.8,-0.4 c 3.6,-0.4 3.7,-0.5 3.7,-4.4 0,-3.8 -0.1,-3.9 -3.7,-4.1 l -3.8,-0.1 3.8,-0.4 c 3.7,-0.4 3.7,-0.5 3.7,-4.9 0,-4.4 0,-4.4 -3.7,-4.6 l -3.8,-0.1 3.8,-0.4 c 3.7,-0.4 3.7,-0.5 3.7,-4.9 0,-4.4 0,-4.4 -3.7,-4.6 l -3.8,-0.1 3.8,-0.4 c 3.7,-0.4 3.7,-0.5 3.7,-4.9 0,-4.4 0,-4.4 -3.7,-4.6 l -3.8,-0.1 3.8,-0.4 c 3.7,-0.4 3.7,-0.5 3.7,-4.9 0,-4.4 0,-4.4 -3.7,-4.6 l -3.8,-0.1 3.8,-0.4 c 5.7,-0.6 5.4,-8.4 -0.3,-9.4 l -3.5,-0.6 3.8,-0.2 c 2.6,-0.1 3.7,-0.6 3.7,-1.6 0,-1.3 15.9,-1.5 137.5,-1.5 l 137.5,0 z"
       id="path3175"
       style="fill:#000000;stroke:none" />
    <path
       d="m 1615,1269.8 -2.5,0.8 -0.3,14.6 c -0.3,16.6 -0.9,15.5 9.4,16.5 3.5,0.3 8.3,0 11.3,-0.7 l 5.1,-1.2 0,-14.3 c 0,-10.4 -0.3,-14.6 -1.2,-15.2 -1.7,-1 -18.7,-1.4 -21.8,-0.5 z"
       id="path3177"
       style="fill:#000000;stroke:none" />
  </g>
</svg>
