<?xml version="1.0" encoding="UTF-8" standalone="no"?>
<!-- Created with Inkscape (http://www.inkscape.org/) -->

<svg
   xmlns:dc="http://purl.org/dc/elements/1.1/"
   xmlns:cc="http://creativecommons.org/ns#"
   xmlns:rdf="http://www.w3.org/1999/02/22-rdf-syntax-ns#"
   xmlns:svg="http://www.w3.org/2000/svg"
   xmlns="http://www.w3.org/2000/svg"
   version="1.0"
   width="300pt"
   height="200pt"
   viewBox="0 0 7500 3306"
   id="svg2">
  <defs
     id="defs10" />
  <metadata
     id="metadata4">
Created by potrace 1.10, written by Peter Selinger 2001-2011
<rdf:RDF>
  <cc:Work
     rdf:about="">
    <dc:format>image/svg+xml</dc:format>
    <dc:type
       rdf:resource="http://purl.org/dc/dcmitype/StillImage" />
    <dc:title></dc:title>
  </cc:Work>
</rdf:RDF>
</metadata>
  <path
     d="m 3066.3,145.7 c 0.9,0.9 1.9,1.4 2.3,1.1 1,-1 -0.6,-2.8 -2.4,-2.8 -1.5,0 -1.5,0.1 0.1,1.7 z"
     id="path10" />
  <path
     d="m 5632.8303,-311.10954 c -1.084,0.39389 -3.3872,1.96945 -5.1487,3.41371 -2.9808,2.62593 -3.1163,2.62593 -8.1295,0.39389 -2.7099,-1.31296 -8.6715,-2.75723 -13.1427,-3.01982 -7.0456,-0.65649 -9.349,-0.26259 -15.5816,2.88852 -12.4652,6.03965 -18.9688,11.02892 -34.5504,26.12803 -13.0072,12.73577 -56.7711,53.70032 -132.2401,123.68142 -109.6129,101.75487 -105.0061,97.15949 -115.3036,113.44027 -61.5133,96.24043 -107.987,243.55523 -133.7304,422.77512 -9.8909,69.06202 -16.9365,144.95145 -16.5301,178.56335 0.813,60.1339 0.6776,64.3354 -2.4388,77.4651 -1.7614,7.6152 -2.8453,16.8059 -2.8453,24.1585 0,10.2412 0.4065,12.4732 3.5227,17.4625 1.897,3.1511 3.2518,6.3022 2.9808,6.9587 -0.2709,0.6565 -12.3297,6.9587 -26.8273,13.9174 -14.4976,6.8275 -26.6919,12.8671 -26.9629,13.1297 -0.4065,0.2626 1.0839,2.232 3.1163,4.3328 l 3.6583,3.6763 -17.343,3.545 c -64.2231,13.261 -149.4475,35.9753 -219.2258,58.2957 -15.5816,5.1206 -34.8214,10.5037 -42.68,12.0793 -68.2878,13.5235 -133.1884,39.7829 -176.4104,71.2941 -5.5552,4.0701 -33.1955,20.8761 -61.5133,37.4195 -78.8563,46.0851 -183.998,108.58235 -228.8458,135.76075 -155.0027,94.271 -244.0208,152.0415 -284.3974,184.7344 -22.6271,18.3815 -38.3442,44.5095 -51.4869,85.8679 -16.259,50.6805 -25.608,103.1992 -44.1704,246.4438 -16.3945,126.4386 -26.6918,187.8854 -41.4605,246.8376 -12.6007,49.7614 -25.3369,83.242 -49.0481,129.3272 -24.253,47.1355 -38.6151,83.3734 -49.048,124.0753 -12.7362,48.9736 -12.8717,99.2602 -0.6774,127.6203 2.0324,4.5954 10.1619,24.5524 18.1559,44.3783 18.4268,45.5599 17.072,42.8026 36.0408,76.2832 97.4186,172.13 190.2306,300.8007 244.1563,338.3514 7.7231,5.3832 3.2518,-2.3633 67.6105,115.8037 15.446,28.4914 31.0277,56.8514 34.415,63.0224 l 6.097,11.1602 12.8718,0.919 c 7.0456,0.394 25.4725,1.8382 40.9185,3.1512 32.5181,2.7572 26.15,3.6762 76.9594,-12.0793 76.8239,-24.0273 124.5171,-45.6912 149.854,-68.0117 17.2075,-15.0991 31.1632,-37.1569 36.4473,-57.9018 1.626,-5.9083 2.439,-14.3113 2.439,-23.6333 0,-14.1801 -0.271,-15.4931 -17.7495,-83.2421 l -17.885,-68.7994 3.5228,-10.6351 c 5.9617,-17.8563 5.9617,-33.8745 0,-64.4666 -39.4281,-199.177 -80.3467,-367.3679 -111.9162,-459.1443 -11.9233,-34.7936 -18.5625,-50.1553 -33.4665,-78.5153 -13.9557,-26.2594 -17.2075,-36.7631 -16.3945,-51.5996 0.6774,-12.2106 2.9808,-16.5434 10.5683,-20.351 11.3813,-5.5145 111.7808,-47.792 125.33,-52.7812 31.7051,-11.4228 48.2351,-21.2701 68.6943,-40.8333 11.1104,-10.635 19.1044,-16.6747 36.1764,-27.441 12.0588,-7.6152 33.602,-21.2701 47.9641,-30.3295 14.2267,-9.1908 26.2855,-16.0182 26.8274,-15.493 0.4065,0.6564 7.0456,-2.1007 14.7686,-6.0397 7.8586,-3.9389 14.3621,-7.2213 14.4977,-7.2213 0.271,0 0.4064,1.0504 0.4064,2.2321 0,1.1816 1.8969,4.2015 4.3358,6.5648 l 4.2003,4.2015 10.7038,106.0876 c 43.8993,440.369 41.4605,413.0593 42.2734,461.2451 0.9485,47.792 1.7615,62.3658 6.9101,108.3197 6.9101,61.5781 10.1619,103.4617 14.2267,183.1588 1.4904,29.2791 3.3873,55.8011 4.0647,59.0835 0.6775,3.2823 1.897,31.2486 2.7098,62.3658 4.3358,181.3207 10.7039,256.4223 25.879,307.8906 6.7746,22.7143 10.4329,28.754 27.6404,45.5599 10.5683,10.2412 14.4976,14.8365 12.7362,14.8365 -1.3549,0 -2.5743,0.7878 -2.5743,1.7069 0,1.0504 2.7098,17.4625 5.9616,36.5005 11.6523,66.4361 19.3753,130.7714 23.8465,194.8441 0.813,11.5541 1.7614,24.6838 2.168,29.1479 l 0.8129,8.2717 749.1346,0 749.1345,0 0,-4.9892 c 0,-30.7235 6.3681,-124.8632 11.6523,-172.2612 3.3873,-30.5922 9.349,-76.9398 10.7039,-82.0604 0.4065,-1.4443 3.1163,-4.0702 6.2326,-5.9084 8.1296,-4.8579 21.4077,-20.351 26.4209,-30.986 19.9174,-41.4897 28.9953,-128.0142 33.0601,-314.3241 0.9484,-39.7829 2.1678,-69.062 3.3872,-78.1215 1.084,-8.0091 2.8453,-34.531 4.0648,-59.0834 3.3873,-70.7689 6.7746,-115.541 14.2266,-183.8153 6.3681,-57.5079 7.1811,-77.3337 7.4521,-181.1894 l 0.4064,-97.1595 14.4977,-143.1133 c 7.8585,-78.778 17.614,-176.0687 21.6787,-216.5081 4.0647,-40.308 7.5876,-73.6574 7.994,-73.92 0.4065,-0.3938 2.8454,0.5253 5.4197,1.9695 2.8453,1.7068 4.8777,2.1008 5.1487,1.3129 0.271,-0.7878 22.6271,12.6045 49.7255,29.6731 43.2219,27.3097 50.5385,32.4302 60.8359,42.5401 20.0528,19.6944 33.7375,28.2288 65.036,40.1767 16.8011,6.5649 42.8155,17.3312 114.6262,47.9233 10.4329,4.4641 20.0528,8.9282 21.2722,10.1098 6.2326,5.3832 6.7746,26.5219 1.084,42.4088 -1.626,4.4641 -8.2651,18.3816 -14.7687,30.8547 -6.6391,12.3419 -14.4976,28.6227 -17.614,36.2379 -33.1955,80.7475 -81.7015,272.7031 -126.1429,499.5837 -4.4712,22.7143 -5.2841,29.1478 -4.6067,36.763 0.9485,9.9786 3.6583,22.0578 6.7746,29.8043 1.8969,4.7267 1.4904,6.9587 -15.8526,73.5262 l -17.8848,68.6681 0,15.7555 c 0,19.0381 2.9808,30.8547 12.0587,47.792 10.9749,20.4823 28.4533,37.8134 51.8934,51.5996 30.3502,17.7251 86.1728,39.1265 154.0542,58.9522 l 18.969,5.5145 18.2913,-1.7069 c 10.0264,-0.7877 28.4533,-2.3634 41.054,-3.2825 12.4653,-0.7877 22.8982,-1.838 23.1692,-2.1006 0.6774,-0.6565 17.072,-30.8547 55.0097,-100.3107 17.3429,-31.7738 34.6859,-63.6788 38.6151,-70.9001 6.2327,-11.2915 8.4005,-13.9174 15.1752,-18.6442 11.2458,-7.8777 33.8729,-29.8043 50.674,-48.9736 53.6547,-61.4468 123.433,-166.4841 196.3277,-295.5487 12.6007,-22.1891 18.0204,-33.8746 32.1115,-68.7994 21.9497,-54.2256 22.8982,-56.9828 25.608,-71.688 2.7098,-15.0991 2.0324,-52.7812 -1.355,-72.0818 -8.4005,-47.5294 -26.2854,-96.6343 -56.5001,-155.0614 -21.8142,-42.4088 -34.2794,-74.839 -46.3382,-121.318 -16.53,-63.0224 -26.4209,-122.1059 -46.3382,-276.3794 -19.9173,-154.0109 -33.8729,-217.821 -57.8551,-264.4314 -14.0911,-27.441 -22.356,-36.2379 -58.6679,-62.6285 -69.7783,-50.8117 -248.2212,-161.3635 -456.7432,-283.20685 -15.446,-9.0594 -31.1631,-19.4319 -36.5827,-24.0273 -26.15,-22.4516 -55.5517,-40.0454 -92.6764,-55.1445 -10.8394,-4.4641 -22.0852,-9.3221 -25.066,-10.7663 -2.9809,-1.5756 -6.9101,-2.8886 -8.8071,-3.0199 -1.8968,0 -13.1427,-2.8884 -25.0659,-6.3022 -11.9233,-3.4137 -33.602,-8.5343 -48.0996,-11.2915 -14.4977,-2.8886 -31.0276,-6.6961 -36.5829,-8.5343 -83.1919,-27.7036 -217.5999,-60.0025 -319.6253,-76.8085 -9.3489,-1.5756 -17.343,-3.0198 -17.8849,-3.4137 -0.5419,-0.2626 -2.0324,-3.4137 -3.1163,-6.8274 l -2.1679,-6.3023 7.0456,-14.9678 7.181,-15.0991 0,-70.2437 c -0.1354,-77.3337 -0.9484,-88.2313 -10.2973,-142.45683 C 6075.4822,300.7327 6006.9234,111.27169 5913.705,-72.0184 l -11.1104,-22.05783 -35.6343,-35.0562 c -19.5109,-19.4319 -58.397,-57.37662 -86.3083,-84.42373 -50.132,-48.44844 -51.487,-49.76141 -83.0565,-72.73832 -21.5432,-15.62429 -33.8731,-23.76469 -37.2603,-24.55247 -5.5552,-1.18167 -24.2531,-1.44426 -27.5049,-0.26259 z m 24.524,12.07929 c 3.1163,0.65649 16.6656,9.71595 38.2088,25.73414 l 33.4664,24.55247 74.2495,73.1322 c 40.7831,40.17677 77.6369,76.54594 81.8371,80.87872 7.8586,8.27169 18.5624,27.57229 40.5122,73.26352 85.0889,177.11914 144.5698,350.69327 164.3516,479.49525 6.6391,43.0653 7.5875,59.6087 7.5875,129.1959 l 0,64.8605 -7.5875,16.5434 -7.4521,16.4121 4.2003,10.3724 c 2.5744,6.6961 4.7422,14.9678 5.6906,23.2395 l 1.4904,12.8671 25.608,11.8167 c 20.0528,9.4533 25.4725,12.4731 25.4725,14.4426 0,1.9694 -3.9293,4.3328 -18.156,10.5037 -196.7341,86.9183 -422.3281,115.0159 -643.0444,80.2222 -104.8707,-16.5433 -199.8505,-45.6912 -298.7596,-91.7763 l -20.3237,-9.4533 -16.53,-15.8869 c -9.2135,-8.7969 -16.6655,-16.6747 -16.6655,-17.5938 0,-0.9191 11.2458,-7.2213 25.066,-13.7861 l 25.066,-12.2106 -6.2327,-9.8473 -6.0971,-9.8472 0.5419,-15.0991 c 0.271,-8.2717 1.626,-20.4823 2.8454,-26.9158 2.8453,-14.1801 3.2518,-40.8333 0.9484,-53.9629 -1.3548,-7.7465 -1.3548,-14.7053 0.4065,-38.7325 1.2195,-16.1495 2.7099,-31.2486 3.3873,-33.4807 0.6775,-2.232 0.9485,-5.5144 0.542,-7.3526 -1.3549,-6.56482 8.536,-90.46336 16.53,-141.53774 25.608,-163.0704 68.1524,-294.49831 124.7881,-385.74947 l 10.8393,-17.33116 109.0709,-101.36098 c 59.8874,-55.66977 115.3036,-107.53193 123.1621,-115.27843 23.3046,-22.84562 32.5181,-28.88526 44.0349,-28.88526 8.1295,0 17.343,4.46409 32.1116,15.36171 l 7.8585,5.77704 -4.0647,-8.79687 c -2.3034,-4.72668 -4.0648,-10.10984 -4.0648,-11.81669 0,-2.88853 0.542,-3.15112 7.181,-3.15112 3.7938,0 9.2135,0.52518 11.9233,1.18167 z m 473.1377,1015.0542 c 98.6381,16.8059 205.2702,42.4088 296.9982,71.4253 12.7362,3.9389 31.2985,8.7969 41.325,10.5037 21.0012,3.8077 38.3441,7.8778 62.0553,14.7053 13.4136,3.9389 16.53,5.2519 16.53,7.2212 0,1.4444 -4.0648,15.3618 -8.9425,30.9861 -8.536,27.3096 -8.9425,28.8853 -7.9941,37.9447 0.813,8.7968 0.4066,10.7663 -7.3165,36.1065 -11.1103,36.7631 -17.8849,61.3156 -25.7434,93.74585 -45.5253,188.1481 -49.3191,341.3713 -11.1104,453.3673 10.7039,31.1172 52.7064,133.9225 62.0553,151.9102 1.2194,2.1007 3.9292,5.3832 6.2326,7.2212 3.9293,3.2825 3.9293,3.4138 2.4389,10.5038 -0.813,3.9389 -4.6067,38.2073 -8.2651,76.152 -3.7937,37.9447 -8.6714,86.9184 -10.8393,108.9762 -2.1678,22.0579 -5.2842,52.7813 -6.7746,68.2743 -1.6259,15.493 -6.2326,61.3155 -10.4328,101.7548 l -7.5876,73.5262 -0.9484,109.6326 c -1.084,111.3396 -1.4904,123.025 -7.4521,176.594 -7.0456,64.204 -10.2973,105.4312 -14.2267,182.5023 -1.4904,28.8853 -3.2517,55.801 -4.0647,59.74 -0.6774,3.9388 -2.1678,41.7522 -3.3873,84.0297 -1.0839,42.2776 -2.5743,90.3321 -3.3873,107.0068 -4.6067,97.0282 -13.4137,161.2323 -26.4209,192.7435 -4.3358,10.3724 -17.4785,25.8654 -26.2854,30.8547 l -6.2326,3.545 -752.9284,0.3939 c -648.735,0.2625 -753.0638,0 -753.0638,-1.5756 0,-1.1816 -2.1679,-2.232 -5.5552,-2.7572 -10.4329,-1.7069 -15.0395,-4.7267 -29.6727,-18.7754 -15.9881,-15.3618 -19.2399,-20.4823 -24.9305,-38.6013 -15.1751,-47.9232 -22.2207,-134.3163 -25.8789,-312.2233 -0.4066,-22.0578 -1.626,-46.8729 -2.7099,-55.1445 -1.0839,-8.2718 -2.8453,-34.2685 -4.0647,-57.7706 -3.6583,-75.6268 -7.5876,-126.3073 -14.9042,-192.3495 -4.2002,-38.3387 -5.8261,-63.5476 -6.7746,-112.9151 -0.9484,-41.4897 -1.6258,-49.3675 -45.7962,-490.3929 l -7.0456,-70.375 -4.2003,-4.9893 c -3.1162,-3.545 -4.4712,-6.8274 -5.1486,-11.6853 -1.8969,-15.4931 -1.2195,-19.0381 7.452,-38.9951 11.9233,-27.5723 42.138,-104.6435 47.6932,-121.4494 9.3489,-28.2288 15.446,-56.5889 20.0528,-93.2206 3.5228,-29.0165 5.0132,-96.1091 2.7098,-130.7714 -6.3681,-95.3214 -26.4209,-200.7526 -58.126,-305.13345 -9.8909,-32.5616 -10.4329,-34.7936 -10.5684,-47.9232 -0.1354,-13.1297 -0.542,-15.0992 -9.0779,-42.015 -5.0132,-15.493 -9.078,-29.0166 -9.078,-29.8043 0,-5.5145 64.2231,-26.5219 107.7161,-35.3188 9.7553,-1.9695 23.5756,-5.5145 30.7566,-7.8778 47.1512,-15.7556 109.342,-33.6119 160.9643,-46.3477 35.3635,-8.6656 92.27,-21.1387 96.6058,-21.1387 1.7614,0 8.5359,5.3831 17.7494,14.3113 l 15.0396,14.18 23.7111,11.2915 c 45.3898,21.27 81.9725,35.7127 130.7496,51.5996 119.7748,38.7325 243.0724,57.2453 369.4864,55.4071 37.2603,-0.5251 38.6151,-0.6564 50.5384,-4.2014 10.2974,-3.1511 15.0397,-3.8077 30.7567,-4.2015 12.3297,-0.2626 20.8657,-1.0504 25.7434,-2.4946 4.4712,-1.4443 13.9557,-2.4947 25.4726,-2.8886 12.3297,-0.3939 21.4076,-1.5755 27.7758,-3.2824 6.6391,-1.8381 16.6654,-2.8885 33.1955,-3.6763 24.524,-1.1817 27.3693,-1.5755 71.8107,-12.4732 40.3765,-9.7159 88.7471,-24.815 127.3623,-39.3889 30.2147,-11.4229 88.0697,-36.5005 88.0697,-38.2074 0,-2.3633 -7.3165,-13.9174 -10.4329,-16.412 -2.1678,-1.7069 -13.4137,-7.6153 -25.066,-12.9984 -15.1751,-6.9587 -21.4076,-10.5037 -21.9496,-12.4732 -1.2194,-4.3328 -0.9484,-9.8472 0.542,-9.8472 0.8129,0 11.9232,1.8381 24.795,3.9389 z m 503.7588,149.9407 c 318.6768,185.52215 526.3858,315.63715 561.7493,351.87505 28.3177,29.2791 47.6931,89.2817 64.765,201.0151 2.5744,17.0685 8.4006,59.346 12.8718,93.7458 20.1883,154.6674 29.4017,209.1555 45.2543,270.3397 12.6007,48.4484 24.524,80.6161 42.9509,116.4601 43.2219,83.5046 61.5134,140.4874 63.1392,196.8136 0.9484,31.1173 -1.084,43.5904 -10.4329,65.3857 -3.6582,8.2717 -8.4005,19.8258 -10.5683,25.6029 -19.3754,50.4179 -26.9629,65.7795 -65.7136,131.2966 -57.313,97.2908 -110.1549,175.6748 -154.5963,229.7691 -19.7817,24.0273 -50.6739,54.2254 -64.2231,62.8911 -16.1235,10.2411 -19.7818,11.1601 -50.9449,12.6044 -14.9041,0.6565 -34.9569,1.5756 -44.3058,2.1008 -19.2399,1.0503 -14.6331,1.9694 -63.5457,-12.8671 -72.6237,-22.0578 -128.7173,-44.6409 -158.2546,-63.6788 -26.6918,-17.1999 -47.2866,-42.6715 -54.3322,-67.0926 -5.4197,-18.9068 -5.1487,-24.8151 2.4389,-63.6789 36.4473,-185.1283 77.7723,-355.2887 108.1225,-445.3581 10.9748,-32.8242 21.0012,-56.4576 33.602,-80.091 15.7171,-29.1478 18.6979,-38.2073 18.8333,-56.0637 0.1355,-9.9784 0.542,-14.18 1.7614,-14.18 0.813,0 19.7818,7.7466 42.0025,17.1999 22.2207,9.4533 48.6416,20.6136 58.668,24.8151 10.0264,4.3328 48.7771,20.7448 86.0374,36.6317 60.7003,25.8654 67.8814,28.6227 69.5072,26.7845 0.813,-1.1817 1.626,-2.8885 1.626,-3.6763 0,-0.7878 -46.7448,-21.4014 -103.9223,-45.6912 -178.8493,-76.0207 -159.3384,-66.9613 -171.1263,-78.6467 -8.8069,-8.5342 -12.3297,-10.8976 -25.7434,-17.1999 -9.6199,-4.4641 -25.8789,-10.3724 -42.68,-15.3616 -86.0373,-25.7342 -97.1476,-30.7234 -124.5169,-56.4576 -13.1427,-12.2105 -21.0013,-18.1189 -40.1057,-30.1982 -13.0072,-8.2717 -40.3766,-25.4715 -60.8358,-38.3387 -25.4725,-16.1494 -37.3957,-22.9769 -38.2087,-21.9265 -0.542,0.9191 -1.8969,1.1817 -2.9808,0.7878 -4.6068,-1.7069 -57.1776,-130.5088 -68.017,-166.6154 -37.9377,-126.4386 -23.0336,-315.3745 41.596,-527.54985 7.4521,-24.815 8.1296,-27.8349 7.994,-38.4699 -0.2709,-10.635 0.271,-13.5236 7.8586,-37.8134 4.6067,-14.4427 8.265,-26.5219 8.265,-26.9159 0,-2.1007 10.1619,3.4138 76.011,41.7524 z M 4720.157,848.23955 c 0.4066,1.313 4.0648,13.261 8.2651,26.6533 7.452,23.3708 7.723,24.6837 6.91,35.1874 -0.4064,6.3023 -0.1354,12.4732 0.6775,14.4427 3.2518,8.1404 19.6463,64.8605 26.9629,93.48325 29.2663,112.9151 42.409,206.0044 42.409,298.0433 0,65.2545 -6.5037,115.2784 -21.1368,162.8078 -11.2458,36.5005 -62.7327,162.1513 -67.0685,163.7269 -1.0839,0.3939 -2.3033,0.1312 -2.8453,-0.7878 -0.6774,-1.0503 -10.7039,4.4641 -31.4341,17.5937 -94.0314,59.3461 -91.8635,58.0332 -107.5805,72.7384 -8.1296,7.7464 -17.614,15.8869 -21.0013,18.1189 -15.988,10.5038 -38.3442,19.1693 -86.0374,33.2181 -56.9065,16.8059 -70.8622,22.9769 -87.1212,38.9951 l -9.7554,9.5846 -87.1213,36.8943 c -47.8287,20.351 -105.0062,44.6409 -126.9559,54.0943 -21.9497,9.322 -42.5445,18.1189 -45.7963,19.4319 -5.4196,2.232 -5.6906,2.6259 -4.2002,5.3831 0.813,1.7069 1.7614,3.1511 1.8969,3.4137 0.4065,0.3939 15.717,-5.9083 63.0037,-25.9967 107.8515,-46.0851 191.5856,-81.4039 192.3984,-81.4039 0.542,0 1.355,6.3022 1.626,14.0488 0.6774,18.7753 3.7938,27.7035 20.1882,58.8208 13.5493,25.8655 21.9498,45.8225 33.6021,80.7475 28.8597,86.1305 66.7974,241.8483 102.2963,419.3614 11.2459,55.9323 12.3298,66.9612 8.1295,83.3733 -4.8777,19.1693 -18.8334,40.8332 -35.9053,55.6697 -31.4341,27.5723 -91.8635,53.1752 -201.7474,85.7367 l -21.0012,6.171 -21.0013,-0.9191 c -11.5168,-0.5252 -31.9761,-1.4442 -45.5253,-1.9695 -23.711,-0.9191 -24.795,-1.0503 -33.8729,-5.2518 -5.1487,-2.3633 -13.5493,-7.3526 -18.8334,-11.2915 -11.2458,-8.2717 -38.0733,-34.531 -52.4354,-51.337 -50.6739,-59.346 -119.9103,-164.1208 -189.2821,-286.4892 -12.7363,-22.4517 -17.7495,-33.2181 -31.2986,-66.9612 -8.9425,-22.1892 -17.614,-43.8532 -19.5108,-48.186 -5.8262,-13.6548 -7.8586,-26.7845 -7.8586,-50.5492 0.1355,-56.1949 18.4269,-116.4601 60.1584,-197.3387 20.5948,-40.0455 32.9245,-72.3445 45.1188,-118.4296 15.717,-59.4774 26.1499,-120.7929 44.7123,-262.5933 10.0264,-76.8085 13.9557,-103.7243 19.7819,-137.8613 15.446,-89.807 34.0083,-142.8508 59.2099,-168.9788 14.0911,-14.574 54.8741,-43.5905 124.517,-88.3627 24.6595,-15.8869 49.3191,-31.6424 54.8742,-34.9248 5.4197,-3.4138 23.5756,-14.7053 40.3766,-25.0777 27.0984,-16.806 85.4953,-52.2561 140.2341,-85.0803 103.5158,-62.10325 271.7967,-160.05055 275.3195,-160.05055 1.6259,-0.1313 3.2518,0.7878 3.6582,2.1007 z M 6754.974,2519.6456 c 9.2134,13.2609 31.4341,32.8241 49.3191,43.3279 35.3633,20.7449 96.4702,43.9843 179.1202,68.1429 l 24.6596,7.2213 24.1174,-1.4443 c 13.1427,-0.7877 33.4665,-1.9694 44.9834,-2.6259 11.5168,-0.6565 22.3562,-1.5755 24.1176,-1.9694 6.639,-1.9695 7.723,-4.2015 -64.2232,127.3577 l -19.3753,35.4501 -8.5361,0.919 c -17.3429,1.8382 -56.0935,4.9894 -62.3262,4.9894 -10.2974,0 -72.6236,-19.1694 -113.9487,-34.925 -23.8465,-9.0595 -52.8418,-22.9769 -65.578,-31.2485 -17.072,-11.029 -33.7375,-28.754 -42.0025,-44.7722 -5.2842,-9.8473 -8.6715,-23.3708 -9.4844,-36.8944 l -0.813,-13.2609 16.1236,-62.4972 c 17.4784,-68.1429 17.2074,-67.4865 23.8465,-57.7705 z M 4546.05,2595.535 c 15.175,58.1644 15.446,59.3461 15.446,74.1826 0.1356,28.3601 -9.2134,49.105 -31.2985,70.6376 -20.0529,19.3006 -52.2999,35.5814 -112.7293,56.8514 -16.53,5.9084 -66.391,21.4014 -78.8563,24.5525 -3.7937,1.0504 -12.3297,0.6565 -31.1631,-1.1817 -14.3621,-1.3129 -29.6727,-2.4946 -33.8729,-2.4946 -4.2003,0 -9.0781,-0.5252 -10.9749,-1.1816 -2.4388,-0.9191 -12.6007,-18.3816 -46.0672,-80.091 -23.5756,-43.3279 -42.951,-79.697 -42.951,-80.8787 0,-1.8382 1.084,-2.1008 7.1811,-1.4442 3.7938,0.5251 19.5108,1.4442 34.8215,2.1006 15.3105,0.7878 33.8729,1.7069 41.3249,2.1008 13.5492,0.7878 13.6847,0.6565 38.6152,-6.5648 76.8239,-22.583 143.4859,-47.792 175.462,-66.5674 20.1883,-11.8167 39.5636,-28.4914 50.9449,-43.8531 2.5744,-3.545 5.2843,-5.777 6.5037,-5.6457 1.6258,0.3938 6.0971,15.2303 17.6139,59.4773 z m 1870.7363,438.7933 c -1.084,4.9893 -7.0456,50.6805 -9.6199,73.2635 -3.1164,28.2288 -7.1811,77.0711 -8.807,107.6633 -0.6774,15.099 -1.7614,34.2684 -2.1679,42.2775 l -0.8129,14.8365 -735.9919,0 -736.1273,0 -1.6259,-24.0273 c -4.3358,-61.5781 -12.4653,-128.802 -23.3046,-191.5617 -2.1679,-12.7359 -3.9293,-23.7647 -3.9293,-24.5525 0,-1.0504 210.0124,-1.4443 761.5998,-1.4443 l 761.5998,0 -0.8129,3.545 z"
     id="path194" />
  <path
     d="m 1972.4042,-310.99137 c -2.1508,0.65654 -5.2424,2.49482 -6.9899,4.0705 -3.0917,2.88875 -3.0917,2.88875 -8.1996,0.39393 -3.2261,-1.57568 -9.0061,-2.62615 -15.996,-2.88875 -10.0816,-0.52523 -11.4258,-0.26261 -19.491,3.67658 -12.2322,6.04011 -22.8514,13.39329 -33.2017,22.97867 -4.9735,4.46443 -51.8862,44.11904 -104.4446,87.97547 -52.4239,43.85644 -120.1717,100.44963 -150.5506,125.7918 l -55.1123,46.08864 -57.6664,62.10807 -57.8006,62.10805 -11.829,21.92822 c -6.5866,12.21153 -17.3402,34.00844 -23.9268,48.58347 -9.9471,21.79692 -13.0388,30.46315 -17.7434,48.58348 l -5.6457,22.05951 2.1508,20.35254 2.1507,20.35255 -7.1244,10.50452 c -25.943,38.34155 -34.2771,78.78401 -24.1956,116.73165 9.5439,35.45281 38.7131,70.38037 82.3996,98.74261 9.2751,5.9088 9.8127,6.56532 9.1406,10.37316 -0.4033,2.10096 -1.0754,11.29248 -1.613,20.3526 -0.6721,12.73668 -0.4034,19.4334 1.3443,29.544 3.898,22.45345 2.5539,54.62355 -3.2263,74.18835 -0.8064,2.6261 -0.9407,9.8479 -0.5375,17.0697 0.6719,9.7168 1.6129,13.6559 4.167,17.9891 l 3.226,5.5149 -3.0917,1.5757 c -1.613,0.9191 -7.9308,2.3635 -13.8453,3.414 -16.1303,2.6261 -32.5296,6.8278 -41.5357,10.6358 -4.5704,1.8383 -20.1631,10.3732 -34.6805,18.9082 l -26.4808,15.6254 -30.6477,7.8784 c -49.6012,12.7368 -108.6117,30.0692 -145.3084,42.5433 -7.6619,2.6262 -19.4909,5.7776 -26.3464,7.222 -69.4952,13.9184 -129.8499,38.0789 -175.956,70.3802 -8.60292,6.1715 -33.20181,21.4031 -54.44028,33.8772 -72.04916,42.4121 -140.46905,83.1171 -181.064,107.80265 -7.39314,4.4646 -21.23838,12.8681 -30.91671,18.6457 -118.02088,71.0368 -235.23532,146.4069 -286.315,184.092 -30.91666,22.8472 -41.40144,34.4022 -54.44019,60.4011 -22.98586,45.5634 -37.9065,114.6306 -57.12861,265.3707 -18.81883,146.6696 -29.16918,210.0907 -44.35867,269.1787 -13.03876,51.341 -22.71701,76.9457 -47.71918,127.3676 -31.85759,64.2088 -46.50939,104.914 -55.24671,152.9722 -2.55399,14.0498 -3.09166,21.797 -3.22608,43.3312 0,34.2711 1.07536,38.9981 16.53368,76.1579 3.09167,7.2219 10.48479,25.4735 16.39927,40.4424 8.19964,20.8778 14.78623,34.4024 27.15289,56.4619 46.5094,83.2484 100.14307,169.5169 140.06588,224.7971 39.38511,54.8862 76.75394,97.4294 103.23472,117.3882 7.93079,6.04 9.9471,8.5348 16.26485,20.2212 4.0326,7.3531 17.07137,31.3822 28.90035,53.4418 11.96339,22.0595 30.91665,57.1183 42.34237,78.1274 l 20.5663,38.079 9.94709,0.919 c 5.51123,0.5253 24.06121,2.2323 41.13259,3.6767 l 31.05108,2.6261 24.06122,-7.2218 c 94.36301,-28.3623 148.26545,-52.26 174.61187,-77.6022 24.33006,-23.3726 35.21808,-46.0886 36.42777,-76.6831 l 0.6723,-15.1003 -18.01242,-69.9865 -18.1467,-69.9865 3.22605,-8.7974 c 1.74744,-4.8585 3.89817,-14.3125 4.70475,-21.0092 2.01627,-14.7064 2.55402,-11.0297 -13.84533,-92.1773 -36.56232,-181.7284 -72.85572,-328.9232 -101.75607,-413.6159 -9.54387,-27.9684 -18.01233,-48.1896 -27.82494,-67.0979 -9.94716,-19.1707 -22.58267,-57.3809 -21.50725,-65.1281 1.88179,-13.7871 11.82892,-25.0795 30.11008,-34.271 12.63555,-6.4339 25.27092,-10.7672 65.46267,-22.716 47.18151,-14.0498 71.64603,-24.1604 87.77637,-35.9781 3.49497,-2.6261 12.09789,-10.2419 19.08765,-17.0698 11.29131,-10.8986 18.68456,-16.1507 61.83344,-43.7252 27.01845,-17.2011 49.4666,-30.857 49.8698,-30.2005 0.6721,1.0505 22.1793,-9.0601 26.3465,-12.3428 1.0753,-0.7878 1.7473,-0.2627 2.4196,1.8382 0.5376,1.7071 2.6883,4.7272 4.7046,6.9594 l 3.7638,3.9392 9.5438,97.8234 c 5.3768,53.8357 11.4257,115.5499 13.7108,137.2155 7.3931,74.9762 22.717,229.918 25.2709,256.7045 1.4788,15.2316 2.9574,44.513 3.4951,67.6231 0.9408,48.3207 2.2851,71.2994 6.7209,110.9539 7.1243,64.0778 11.0225,116.2066 14.7863,193.0209 1.2099,23.5039 2.9571,49.5027 4.0326,57.7749 0.9409,8.2724 2.1508,34.2711 2.6883,57.775 3.2263,173.5875 10.7538,262.0882 26.3464,311.8534 6.5866,20.7465 10.4848,27.0492 27.0185,43.3312 12.2323,11.9488 14.2487,14.575 11.9635,14.8377 -1.6131,0.2625 -2.8228,0.6566 -2.8228,0.9191 0,0.2625 2.1506,11.9488 4.7046,26.1301 8.334,45.826 15.8616,100.7122 20.8352,151.1339 2.5539,26.6554 6.7209,80.2284 6.7209,87.5816 l 0,3.6766 743.7472,0 743.747,0 0.2688,-16.1508 c 0.8066,-40.1798 4.8392,-102.4192 9.8127,-149.2958 2.9572,-29.4127 10.3504,-86.9249 11.6945,-92.1772 0.5379,-2.1008 3.2263,-4.9896 6.5867,-7.2218 7.5275,-4.9898 19.8942,-19.0395 24.599,-27.9684 19.894,-38.8667 29.7068,-126.0544 33.605,-299.3792 1.4785,-68.936 2.1507,-85.218 4.0326,-96.5105 0.6721,-4.333 2.1507,-26.7865 3.3604,-49.8964 3.4951,-71.9561 7.3933,-125.9231 12.9044,-175.951 8.0653,-73.7944 9.275,-102.4191 9.275,-210.8785 l 0,-79.5719 8.7373,-88.5006 c 14.1142,-141.9426 17.7434,-178.1832 26.3464,-265.7648 9.1405,-92.9651 8.7373,-91.1268 17.3403,-83.3796 5.2423,4.8582 30.5133,17.595 31.1854,15.7567 0.2688,-0.6565 21.6417,12.3428 47.4504,28.7562 41.6701,26.3927 48.6602,31.3823 61.1612,43.1999 17.609,16.6759 26.7496,23.3726 41.5358,30.463 16.2648,7.8785 34.2771,14.3125 70.3019,25.0797 83.7841,18.5354 104.9194,54.0737 69.764,124.2162 -14.3831,28.2308 -25.6744,58.8253 -42.4769,115.2872 -27.0183,91.2581 -59.4136,228.6049 -88.7173,376.8501 -4.167,20.8778 -8.334,42.412 -9.4093,47.7956 -3.4951,17.2012 -2.4197,32.958 3.4949,51.4723 l 2.8227,8.6662 -17.609,68.8047 c -17.3403,67.4917 -17.609,69.0674 -17.609,83.3798 0,39.1293 20.5662,72.4811 60.4891,97.6921 27.4216,17.3326 93.1532,42.806 159.8256,61.8455 25.2971,8.2309 57.2094,0.5787 80.5178,-1.0505 7.5274,-0.394 14.6517,-1.4443 15.5927,-2.2322 1.8819,-1.313 10.6191,-17.3325 73.5278,-133.9327 l 26.0775,-48.3209 12.0978,-9.5854 c 55.9188,-44.1191 138.453,-159.9315 234.2944,-328.398 19.76,-34.665 22.8515,-41.2303 36.5624,-76.0266 6.8554,-17.3324 14.9208,-37.1598 17.8779,-43.9878 7.2587,-16.8072 10.0815,-27.8369 11.829,-46.4825 3.2261,-34.5337 -3.7638,-77.7336 -20.9695,-127.4988 -9.4095,-27.7057 -18.8189,-49.1086 -39.654,-91.2582 -18.9533,-38.2102 -27.5562,-59.4819 -36.9655,-91.2581 -20.2975,-68.2795 -31.4545,-132.2258 -53.096,-301.3488 -12.098,-94.9348 -20.432,-146.013 -30.379,-186.3242 -14.5174,-59.6131 -30.1102,-93.6216 -52.8271,-115.8125 -33.7396,-32.8267 -184.9623,-130.2561 -416.1651,-268.12815 -30.6478,-18.2518 -117.2144,-69.5925 -127.0272,-75.2388 -4.0325,-2.2322 -13.8453,-8.9289 -21.7761,-14.7063 -27.0183,-19.8274 -54.4401,-34.5338 -89.1205,-47.927 -31.32,-12.0802 -69.2265,-22.5847 -103.1004,-28.4935 -8.6029,-1.4443 -19.222,-3.9392 -23.5235,-5.3835 -31.8575,-10.7672 -107.9395,-32.3015 -154.4488,-43.7252 -48.6601,-11.949 -115.1982,-25.6048 -159.8256,-32.958 -11.829,-1.9696 -22.3138,-3.9392 -23.3891,-4.4644 -0.941,-0.5252 -2.9574,-3.5453 -4.3015,-6.8279 l -2.2851,-6.0401 7.2586,-16.1508 7.2587,-16.1507 0,-29.938 0,-29.8065 17.6092,-16.93861 c 42.3422,-40.4424 77.5604,-82.98576 116.5421,-140.49816 33.2019,-49.23997 45.4341,-81.80402 38.4443,-102.41918 -3.0916,-9.32277 -13.5764,-30.33183 -24.5989,-49.3713 -5.2425,-9.32279 -9.8127,-17.5951 -9.9471,-18.38295 -0.1345,-0.91913 -2.1507,-4.20181 -4.4358,-7.48448 -2.2852,-3.28266 -8.3341,-12.73673 -13.3077,-21.00906 C 2494.4922,174.0555 2420.6956,63.36397 2389.7789,22.52758 2369.4815,-4.39028 2266.5156,-99.1937 2113.0077,-232.46997 c -28.9004,-25.07958 -36.4278,-30.98839 -67.0757,-51.0783 -18.9532,-12.60545 -36.6967,-23.89782 -39.5196,-25.21089 -6.0488,-2.62612 -27.9594,-4.20181 -34.0082,-2.23221 z m 22.9859,13.13066 c 3.6293,0 11.2912,4.46443 39.7882,23.10998 40.1917,26.52395 35.6214,22.84736 89.6583,70.11777 104.5789,91.38945 170.8481,151.13398 215.2069,194.33388 25.4054,24.68566 34.2771,34.27104 44.2242,47.92694 31.7232,43.06859 122.3225,179.49622 122.3225,184.35457 0,2.49483 -2.1509,1.707 -19.8944,-6.95925 -46.5093,-22.71606 -107.1329,-48.97738 -129.5811,-56.06794 -12.501,-3.8079 -15.727,-4.07052 -31.9919,-1.9696 -29.3036,3.80789 -70.7051,6.30271 -102.8315,6.56532 l -32.2608,0.13132 -28.2282,-8.14102 c -15.4584,-4.46444 -54.1715,-14.96897 -85.8945,-23.37259 l -57.6663,-15.23158 -18.6844,-9.84799 -18.6846,-9.84801 -14.3829,1.57568 c -19.4909,1.9696 -31.7231,5.25226 -48.5256,12.86805 -24.1957,11.02976 -55.5156,19.03948 -156.0619,40.04854 -32.9331,6.95926 -63.984,13.7872 -69.2265,15.23158 -35.8902,10.24191 -96.6481,26.52394 -124.6075,33.4832 -28.4971,7.22186 -35.2181,9.32278 -47.047,15.36288 -17.7435,8.79755 -51.3486,30.85706 -76.7541,50.29045 -11.0223,8.27233 -20.4318,15.10029 -20.9694,15.10029 -1.3442,0 -2.0163,-4.46445 -4.1671,-24.55437 l -1.4787,-13.52459 5.6458,-21.14037 c 4.4358,-16.80725 8.1995,-26.78656 18.0123,-48.32086 6.7209,-14.83765 17.0712,-35.71542 22.9859,-46.35124 l 10.6191,-19.30209 55.7844,-60.00716 55.7844,-60.13845 135.7644,-113.58028 c 74.7377,-62.37067 141.8133,-118.56993 149.2064,-124.74134 7.3931,-6.17143 18.1468,-15.49419 23.9269,-20.74646 5.6456,-5.25226 13.9797,-11.9489 18.55,-14.83765 21.9104,-14.57504 31.1854,-14.18112 58.6071,3.02006 10.6192,6.69663 10.7536,6.56533 4.4359,-5.5149 -4.7046,-9.19145 -3.226,-11.02975 7.9308,-9.84799 3.2262,0.26261 7.9309,0.52522 10.4849,0.52522 z m -12.3667,409.67683 c 0.1343,2.49483 6.9898,22.84737 15.3238,45.16952 16.1305,43.06857 15.9962,42.28074 11.0225,53.57311 l -2.6884,6.30273 -16.5337,-0.91915 c -14.1142,-0.65653 -18.8188,-0.26261 -31.3198,2.1009 -37.9066,7.48448 -64.6562,15.23157 -86.7012,25.21089 -25.1364,11.29238 -88.986,26.52395 -211.7118,50.42176 -39.1164,7.6158 -47.8536,9.71669 -73.259,18.25164 -15.8616,5.25226 -46.7783,15.10026 -68.5543,21.66559 -21.7761,6.69664 -46.1062,14.18112 -54.037,16.54464 -23.5235,7.22188 -34.8147,16.28203 -39.3851,31.25102 -2.6885,8.79756 -2.554,14.3124 0.5378,26.13001 7.3929,28.36224 39.6539,72.21864 75.9473,103.46964 10.6193,9.19152 13.7109,13.13076 10.0815,13.13076 -2.8227,0 -47.1815,-26.91792 -60.8923,-36.89724 -30.6479,-22.58472 -51.8862,-50.02789 -60.086,-77.6022 -3.6292,-12.34285 -4.8391,-36.76593 -2.5539,-50.55314 3.2262,-19.56469 11.9634,-40.70506 24.3302,-58.82538 5.3767,-7.87841 7.5274,-9.9793 9.8126,-9.58539 1.8818,0.1313 7.1243,-3.02006 15.5927,-9.58539 34.1427,-26.52394 66.0003,-47.79564 88.0452,-58.56277 9.0063,-4.46444 17.878,-7.35318 35.6215,-11.555 26.0774,-6.30272 62.102,-15.8881 110.8967,-29.54401 17.7434,-4.85834 44.0898,-11.42366 58.4727,-14.44372 89.9272,-18.77686 109.1493,-22.97868 129.7155,-28.09962 31.1856,-7.87841 47.0472,-13.13068 61.4301,-19.82732 15.5927,-7.48448 39.2507,-12.60543 55.5156,-11.9489 5.2423,0.1313 5.3768,0.26261 5.3768,4.72702 z m 22.8514,8.00972 c 8.334,4.46443 20.163,8.00971 73.6622,22.19083 35.0837,9.32277 73.3936,19.69599 85.0881,23.10997 14.1141,3.9392 25.943,6.43403 34.6803,7.22186 20.5664,1.9696 98.3957,-2.23221 127.8338,-6.69663 4.4357,-0.78785 10.6191,-1.31306 13.7107,-1.31306 13.4421,0 73.9313,24.94826 154.18,63.81504 24.8678,11.94891 22.5827,9.71669 42.8801,43.59381 16.8025,27.96833 32.2608,57.90625 35.2181,67.62295 1.882,6.43402 2.0163,8.92885 0.6721,16.28203 -4.0326,23.10993 -19.8942,51.60358 -58.4727,105.43918 -38.4444,53.57316 -84.0126,103.0758 -124.7419,135.63983 -19.2222,15.3629 -28.2285,21.2717 -52.0208,34.5337 -11.4256,6.3027 -52.5583,29.2813 -91.4057,51.2096 -107.6707,60.5323 -145.4428,80.6223 -168.0253,89.6824 -15.1895,6.0401 -45.0309,49.1087 -80.921,116.6003 l -12.0978,22.7161 -8.1996,-0.1312 c -4.5703,0 -15.1895,-0.5253 -23.5236,-1.0505 -12.501,-0.9193 -15.4583,-1.5756 -17.0713,-3.5453 -3.495,-4.4645 -9.8127,-22.1909 -13.9797,-38.7355 -7.7964,-31.7761 -20.1631,-54.6235 -69.4953,-127.3674 -26.2118,-38.7355 -27.4217,-40.3111 -37.3689,-47.6644 -16.9369,-12.4741 -49.4666,-30.9883 -117.0799,-66.4411 -15.4584,-8.141 -32.7986,-17.2013 -38.3097,-20.0899 -73.9312,-38.86683 -123.6668,-66.44127 -123.6668,-68.67351 0,-1.05036 0.6721,-1.83828 1.3443,-1.83828 4.5703,0 66.1348,29.93796 125.0109,60.79499 15.1894,7.8784 40.0572,20.7464 55.2466,28.6248 54.9779,28.0997 99.0677,55.0175 130.6565,79.8346 21.776,17.201 41.267,37.0284 41.267,42.2807 0,3.02 0.5376,3.8079 3.0917,3.8079 7.5275,0 49.1979,66.7038 71.9148,115.0245 5.108,10.7672 9.5438,20.4839 9.947,21.5344 0.4033,1.1818 2.9574,-2.8887 6.3178,-9.5853 6.3178,-12.8682 25.0022,-40.5738 38.5787,-57.381 12.0977,-14.8378 54.4401,-56.068 70.4361,-68.4108 39.5195,-30.7258 79.7112,-54.6237 127.8336,-75.8952 43.4178,-19.171 64.1184,-30.0694 95.976,-50.6845 67.8823,-43.72517 133.7482,-106.75229 182.4083,-174.90041 6.3177,-8.79769 11.829,-15.75685 12.0978,-15.36301 0.4033,0.26269 0.6721,-0.26255 0.6721,-1.18163 0,-0.78793 4.4358,-8.66628 9.6783,-17.33256 11.9635,-19.43341 22.8514,-41.09897 27.6905,-55.5427 8.0653,-23.76652 1.6131,-42.54337 -20.0286,-58.56279 -9.275,-6.95924 -26.0775,-14.57504 -40.5948,-18.38293 -6.5868,-1.70698 -14.383,-4.07051 -17.3403,-5.38357 -24.7333,-10.24193 -67.6133,-24.55435 -80.6521,-26.91787 -16.6682,-2.88874 -49.87,-5.25227 -94.0942,-6.56534 -56.4565,-1.70698 -52.9615,-1.44437 -163.9927,-15.10027 -50.2731,-6.17141 -96.5137,-11.55497 -102.5625,-12.08021 -11.1569,-0.78785 -11.2913,-0.78785 -10.6193,-4.20181 0.2689,-1.8383 1.6131,-6.17142 2.9574,-9.45408 l 2.4194,-6.04011 -14.9205,-40.17984 c -8.3342,-22.19083 -15.0551,-41.2303 -15.0551,-42.28075 0,-3.02006 1.8818,-2.49483 12.7699,3.41397 z m 4.0326,106.88364 c 22.9858,1.57568 72.0492,7.22187 204.9907,23.50388 17.3404,2.23222 39.6541,3.8079 65.7316,4.59574 l 39.5195,1.44438 6.1834,4.72704 c 9.9471,7.7471 24.33,22.71606 29.9757,31.25099 7.393,11.16106 8.4683,16.28202 6.4522,28.88746 -1.2098,6.95926 -1.4786,15.88812 -0.8066,28.23094 1.613,30.33187 -2.6883,50.42178 -16.3993,77.07703 -16.2648,31.51356 -40.7293,62.89584 -90.4648,115.41852 -41.4014,43.8564 -56.7253,61.58289 -77.8293,89.28849 -25.8087,34.1398 -37.7721,55.674 -40.9982,74.5822 -0.5377,3.2827 -1.8818,5.6462 -4.4357,7.0907 -2.0164,1.313 -11.1571,7.6158 -20.432,14.0498 -16.6681,11.6862 -16.8025,11.8175 -28.2282,13.3932 -10.2159,1.3132 -13.9797,1.1818 -35.6214,-1.707 -25.5399,-3.4139 -53.7681,-4.4644 -67.3444,-2.4948 l -8.0654,1.0504 -3.6292,-23.3726 c -8.3342,-52.9165 -8.4686,-57.2497 -4.4359,-156.12355 1.8819,-46.21992 5.6457,-136.95288 8.1997,-201.55574 2.6883,-64.60289 5.1079,-120.67085 5.5112,-124.47874 0.5376,-5.25226 1.2097,-6.82794 2.9572,-6.82794 1.2098,0 14.383,0.91914 29.1692,1.9696 z m -42.3424,0.26261 c 0,0.65653 -1.4786,36.50325 -3.3606,79.83446 -4.5702,107.80279 -11.1568,270.49171 -12.501,307.6515 -1.4786,39.9173 0.1344,62.2395 7.9308,107.6715 1.6131,8.9289 2.4196,16.5446 1.8819,17.0698 -0.5376,0.5253 -14.3829,1.0505 -31.0509,1.3131 l -30.1103,0.3939 -14.9206,-15.2316 c -8.334,-8.4036 -19.7598,-19.0394 -25.5399,-23.7664 -6.3177,-5.121 -13.8453,-12.9994 -18.5499,-19.4334 -5.7802,-7.7471 -14.7863,-16.676 -31.9922,-31.645 -13.1731,-11.5549 -41.6701,-37.8162 -63.3118,-58.3001 l -39.5196,-37.42247 -19.2221,-28.36212 c -25.5398,-37.55376 -41.4013,-63.68376 -57.1286,-93.88428 -14.5173,-28.09956 -20.2975,-42.28081 -25.002,-62.37069 -3.2263,-13.7872 -6.8556,-48.18955 -5.5114,-51.73483 1.3443,-3.28267 16.5338,-7.09056 71.5116,-17.8577 122.8601,-24.29174 177.9725,-37.68502 204.9908,-49.89654 16.3994,-7.35318 38.041,-13.9185 66.538,-20.22124 21.3729,-4.85834 24.8678,-5.25227 24.8678,-3.80789 z m 413.4766,33.87711 c 15.9961,2.10092 42.2079,10.11063 75.1408,22.97869 9.6784,3.80788 22.8516,8.27231 29.4381,9.97931 28.0938,7.48448 48.7946,21.92821 53.7682,37.81631 4.4357,13.78721 2.1506,24.29173 -11.4257,51.99739 -27.825,56.72459 -82.8029,125.66064 -140.738,176.34492 -53.7681,47.13903 -96.245,74.18823 -165.2025,105.43923 -19.4909,8.7975 -43.1489,20.2213 -52.4239,25.3422 -9.4094,5.121 -17.7434,9.3228 -18.8189,9.3228 -2.9572,0 -1.8818,-5.5149 3.0916,-15.7569 15.9961,-32.564 51.8863,-77.8647 109.4181,-137.87193 61.5646,-64.20888 91.0026,-106.227 104.3102,-149.03304 3.3604,-11.0298 3.7638,-14.18112 4.8391,-46.6139 0.6721,-19.17077 1.2098,-37.15978 1.2098,-40.17984 0.1344,-10.63584 -9.9472,-26.91786 -26.212,-42.54336 -10.7536,-10.24192 -10.3504,-11.02977 5.5112,-9.9793 7.2587,0.52522 19.7599,1.70698 28.0939,2.75742 z m -790.7941,75.76398 c 2.8228,50.94695 26.3464,102.41916 88.9861,194.72784 16.5337,24.29172 22.5827,32.17008 31.0511,39.91716 5.9144,5.38356 20.9696,19.69607 33.4706,31.64487 12.6355,11.949 29.3036,27.7058 37.1001,34.9276 7.9307,7.0905 15.9959,15.1002 18.1466,17.4638 l 3.8982,4.5957 -4.0326,-1.9695 c -2.1507,-1.1818 -5.7801,-2.8888 -8.0652,-4.0705 -2.1508,-1.0505 -12.2322,-6.5654 -22.1794,-12.2116 -9.947,-5.6462 -29.9756,-16.2821 -44.3586,-23.6352 -14.3829,-7.4845 -41.6702,-21.5344 -60.489,-31.38229 -47.8537,-25.07952 -102.966,-51.86604 -119.6341,-58.43136 -17.609,-6.9594 -24.1956,-11.68644 -48.5257,-35.4528 -38.4442,-37.68504 -59.9515,-70.77432 -61.4301,-94.93488 -0.2687,-5.51473 -0.1343,-12.21145 0.2689,-14.83765 1.2097,-5.77743 8.7373,-14.31237 16.1304,-17.98897 3.0918,-1.57567 22.7171,-7.87839 43.8211,-14.31242 21.1039,-6.30271 50.1386,-15.36289 64.5216,-19.95862 14.3831,-4.72704 27.153,-8.53492 28.3627,-8.66623 1.7475,-0.13131 2.2852,2.23221 2.9573,14.57505 z m -88.8518,195.12168 c 36.2934,21.40308 97.5891,54.8862 182.5426,99.39909 79.3079,41.6243 107.9395,57.775 125.9518,70.6431 6.9898,5.121 10.6192,9.5853 29.3036,37.1598 52.8271,77.9961 65.0593,100.1869 72.5869,131.1753 3.8983,16.2821 8.8718,30.7257 12.7699,37.0285 1.4786,2.4948 2.6884,5.6462 2.6884,7.0905 0,2.2322 -0.672,2.4948 -4.3013,1.9697 -2.4196,-0.394 -17.4747,-1.9697 -33.3363,-3.414 -15.8616,-1.5756 -52.6928,-6.3028 -81.8619,-10.6359 l -52.8272,-7.8784 -24.4645,-9.7167 c -51.0797,-20.2212 -97.3201,-36.7658 -125.8174,-44.7755 -23.9266,-6.828 -33.3361,-11.4237 -53.4992,-25.9988 -23.2547,-16.8072 -58.0694,-46.2199 -58.0694,-48.9773 0,-3.0202 2.9573,-1.8383 23.3891,9.9793 51.0796,29.2814 65.3282,34.5336 129.8499,48.5835 16.6681,3.6765 44.4931,9.1914 61.8333,12.4741 28.4971,5.2523 32.933,5.7774 44.6276,5.1209 l 12.9043,-0.7878 5.9144,4.5957 c 11.6946,9.3227 26.3464,13.9186 38.8474,12.2116 9.5439,-1.3132 24.3301,-8.9288 30.1103,-15.4943 22.4481,-25.6047 13.4419,-62.3706 -19.2221,-77.9961 -6.7211,-3.2826 -9.1406,-3.6766 -20.4319,-3.6766 -11.6946,0 -13.4421,0.394 -20.8353,4.2018 -7.6619,3.808 -19.6252,14.5751 -21.1039,18.7769 -0.5377,1.707 -5.6456,1.313 -34.1428,-2.4948 -18.4155,-2.3635 -38.8474,-4.8583 -45.5684,-5.5149 -42.7457,-3.9392 -61.5644,-7.8785 -78.0981,-16.1508 -6.1833,-3.2827 -20.2975,-12.3428 -31.1855,-20.2212 -33.0673,-24.029 -55.3811,-37.2911 -72.4525,-43.0686 -4.167,-1.4443 -7.1243,-3.2826 -7.1243,-4.3332 0,-1.0503 -2.6884,-6.434 -6.0488,-12.08 -5.9147,-9.848 -6.049,-10.6359 -6.049,-21.1404 0,-6.0402 1.2098,-16.5446 2.6885,-23.3726 4.167,-19.5647 4.8391,-39.7861 1.8818,-58.43153 -2.554,-15.62544 -3.2261,-42.41208 -1.4786,-49.63392 0.5377,-1.96956 1.8819,-3.54528 2.9573,-3.54528 1.0753,0 8.7373,4.07052 17.0713,8.92884 z m 898.0615,99.66179 -0.8066,24.5544 -7.1243,15.4941 -7.1241,15.4942 4.0325,9.5854 c 2.5541,6.0401 4.7048,14.3124 5.9145,23.2412 0.9409,7.4846 2.2851,13.9186 2.9573,14.0499 1.6129,0.5252 46.5094,22.0595 48.5256,23.2412 2.2852,1.4445 6.99,10.6359 6.99,13.9186 0,6.0402 -19.0877,21.7969 -54.4403,45.0381 -20.9696,13.7873 -21.9106,14.1812 -42.3425,20.4839 -33.6049,10.3733 -46.6436,14.1811 -66.0002,19.0395 -10.0814,2.4948 -27.6905,7.8784 -39.2507,11.8175 -11.5601,4.0705 -21.7761,7.3532 -22.8514,7.3532 -1.7475,0 -4.5704,-3.9391 -27.2873,-39.1293 l -11.1569,-17.3325 0,-10.8984 c 0.1344,-24.1605 -14.1142,-43.2 -38.041,-50.6844 -2.8229,-0.9192 -5.1079,-2.3636 -5.1079,-3.414 0,-0.9191 6.1832,-5.1209 13.8453,-9.3228 7.5274,-4.2018 45.8371,-25.6048 84.9536,-47.6643 39.2507,-21.9283 82.1307,-45.9573 95.5727,-53.4419 21.9105,-12.0801 39.7884,-23.5039 50.9452,-32.564 2.2852,-1.8383 5.108,-3.2827 6.3178,-3.414 2.1508,0 2.2851,1.8383 1.4787,24.5544 z m -914.0575,69.3299 c 18.9533,3.9392 40.8638,15.8881 77.0228,42.1494 16.8024,12.2116 37.6376,25.4735 39.9228,25.4735 0.8065,0 2.4194,0.7879 3.4949,1.8383 2.0164,1.8383 9.4094,3.6766 31.7232,8.0097 5.2423,0.9192 19.0877,2.7575 30.9166,3.808 11.8291,1.1817 37.1001,4.0705 56.322,6.6966 l 34.8149,4.5957 18.2812,-2.6262 c 10.2159,-1.4443 21.5073,-3.1513 25.1365,-3.8078 6.1834,-1.1818 6.7211,-1.0505 9.5439,2.2321 5.3768,6.5653 11.1569,18.9082 11.1569,23.8979 0,3.9392 -1.2098,6.5653 -6.1833,12.3428 l -6.0489,7.3532 -38.3098,0 -38.1754,0 -43.821,-8.5349 c -100.6807,-19.5647 -117.4832,-25.3422 -178.2411,-60.5325 l -31.3199,-18.2516 -35.6214,0 c -24.7333,0 -38.4443,0.5254 -44.762,1.8384 -9.275,1.8383 -13.7108,4.0705 -57.8007,29.4126 -10.8881,6.3028 -25.271,14.0498 -31.8576,17.3326 l -12.0978,5.9087 0,-3.5452 c 0,-4.4644 -3.6294,-9.9793 -9.1405,-13.9186 -2.2853,-1.707 -3.7638,-3.6765 -3.2261,-4.3331 1.0753,-1.5757 15.7271,-7.0905 18.8188,-7.0905 2.2851,0 34.0083,-17.7264 74.1999,-41.4929 35.487,-20.8777 39.9228,-22.8474 63.1775,-27.9684 13.8453,-3.0201 29.707,-3.4139 42.0736,-0.7878 z m 960.9701,19.5647 c 97.0514,17.4638 187.785,39.6546 283.089,69.5925 12.3667,3.9393 28.4971,8.1411 35.8902,9.3228 40.326,6.8279 109.5526,27.7056 109.5526,33.0893 0,1.0505 -4.0327,14.7064 -9.0062,30.3319 -8.4685,27.0491 -8.8718,29.1499 -8.6029,40.3111 0.2689,10.5044 -0.4033,13.7871 -5.2424,29.5439 -31.5888,102.41935 -52.2895,203.91935 -61.4302,300.69235 -3.3603,35.5841 -3.3603,116.6003 0,145.4878 4.8393,41.8867 12.3667,77.3396 23.1205,108.5905 6.0488,17.7265 32.9329,86.0059 44.4931,113.3177 8.7372,20.3526 10.2159,27.4432 6.5865,30.4632 -1.2097,0.9191 -3.8982,3.9393 -6.0489,6.5653 l -3.8982,4.7271 -5.5112,55.8054 c -2.9574,30.5944 -8.4685,85.4806 -12.0979,121.9838 -3.6293,36.5033 -9.947,100.3183 -14.114,141.8113 -4.0327,41.4928 -8.3341,84.2989 -9.544,95.1974 -1.7474,16.0193 -2.285,37.5536 -2.5539,115.5497 -0.2688,103.995 -1.3443,127.8927 -7.3932,183.8293 -7.393,67.8856 -11.2912,118.9639 -14.9205,196.9601 -0.8066,17.989 -2.0164,36.6346 -2.6885,41.3616 -1.7475,12.0803 -3.4949,56.4618 -5.2423,125.3979 -3.3606,138.5286 -11.6947,219.1508 -27.0186,260.3811 -4.0326,10.7673 -6.3178,14.7063 -14.5173,23.6352 -10.6192,11.8176 -18.2811,15.2316 -36.0245,15.7567 l -13.8454,0.5254 0,-130.5189 0,-130.3875 -10.2159,-8.5349 c -28.6315,-23.7666 -72.4524,-71.4309 -105.3855,-114.3681 -87.2388,-113.8429 -164.7992,-271.6736 -197.329,-401.2733 l -6.3176,-25.342 -400.169,0 -400.1691,0 -1.4786,5.5147 c -11.8289,44.9069 -22.3138,77.7336 -36.2935,114.6308 -62.6398,164.1334 -165.4713,322.4892 -266.4207,409.9395 l -14.5175,12.6053 0,133.6702 0,133.8016 -12.0977,0 c -9.544,0 -12.0979,-0.394 -12.0979,-1.8383 0,-1.9696 -1.3442,-2.6263 -9.4095,-4.0705 -8.0652,-1.5756 -12.3665,-4.5958 -26.6152,-18.2517 -14.7862,-14.1811 -18.2811,-19.4332 -23.6579,-35.7153 -15.3239,-46.2199 -22.4482,-127.6301 -26.3464,-302.7932 -0.8065,-33.0893 -2.0162,-63.0272 -2.6885,-66.7039 -1.3441,-6.8278 -2.5539,-26.6552 -6.0487,-93.8842 -2.823,-53.8357 -6.7212,-101.3687 -12.7699,-154.9418 -4.3015,-38.2103 -5.377,-54.8863 -6.7211,-108.9846 -1.0755,-41.099 -2.2851,-60.4011 -6.0489,-97.8235 -2.554,-25.6049 -12.501,-126.0544 -22.1794,-223.2213 -9.6782,-97.167 -19.0877,-192.2331 -20.9695,-211.4038 l -3.4949,-34.7962 -4.167,-4.2019 c -3.6294,-3.8078 -4.1671,-5.3835 -5.377,-17.3325 -1.3441,-12.7367 -1.3441,-13.262 2.1508,-20.7465 14.1141,-30.857 50.0043,-123.5595 56.5911,-146.1442 20.5661,-70.3804 25.5398,-157.3055 14.7861,-259.9872 -8.1996,-78.784 -28.3626,-174.6379 -56.9942,-269.83535 -7.2586,-24.4231 -7.7963,-26.9179 -7.1242,-36.1093 0.672,-9.4541 0.2688,-11.2925 -8.8717,-40.4424 -5.2424,-16.6759 -9.544,-30.9884 -9.544,-31.6449 0,-1.5756 24.3302,-11.2924 47.0471,-18.6456 20.1631,-6.4341 43.2833,-12.474 63.1776,-16.282 6.3178,-1.3131 26.7496,-7.222 45.434,-13.262 18.6844,-6.0401 35.218,-11.0297 36.6968,-11.0297 2.6883,0 3.4949,3.1513 1.2097,4.5956 -2.6885,1.707 -12.0978,19.0395 -12.0978,22.4535 0,1.9697 0.6721,5.5149 1.613,8.0097 1.4786,3.808 1.3441,4.5958 -1.7474,7.7471 -1.7474,1.9697 -8.0653,6.9593 -13.9798,11.2924 -11.8289,8.535 -45.0307,38.4728 -45.0307,40.705 0,0.6566 1.3443,3.02 2.8229,5.2523 2.5539,3.5453 2.6884,4.3331 1.2097,9.5855 l -1.613,5.9086 7.1242,7.6158 c 4.0326,4.2019 8.7374,9.8481 10.6192,12.4742 1.882,2.7574 4.5703,5.121 6.049,5.515 4.4359,0.919 26.4807,3.2825 31.1854,3.2825 6.0488,0 12.3667,-5.9087 20.4319,-18.7769 8.6029,-14.0498 23.5235,-43.3311 26.3463,-51.7348 2.0163,-6.0399 3.0916,-7.2217 12.6355,-13.2619 12.5011,-8.0096 14.9207,-11.8176 13.9796,-22.5847 l -0.6719,-7.2219 17.3402,-8.141 c 9.4094,-4.4644 31.7231,-16.5446 49.4665,-26.7865 24.5991,-14.1813 34.1428,-19.0396 40.3261,-20.3526 10.3504,-2.2323 41.8048,-3.8079 53.2304,-2.6261 l 8.8718,0.9192 14.9206,13.5245 c 40.9982,37.2912 75.2753,63.5525 96.6482,74.1883 4.5702,2.2322 14.9207,5.7774 22.8515,7.8784 27.2873,7.3532 66.4035,21.1404 124.7419,43.9876 l 32.2608,12.4742 53.096,7.8784 c 29.3036,4.3331 69.2265,9.4541 88.7175,11.2924 l 35.6213,3.5453 19.8941,-2.8888 c 11.0225,-1.5756 24.8677,-2.6261 30.9167,-2.4948 6.049,0.1314 32.7985,-0.394 59.4137,-1.1818 39.9227,-1.1818 52.4239,-1.9695 71.3772,-4.727 24.5989,-3.6765 42.4768,-6.9593 59.5481,-11.2923 5.9145,-1.4444 11.4257,-2.6262 12.501,-2.6262 0.941,0 5.5113,5.2524 10.216,11.6864 21.2383,29.5438 43.2833,40.9675 83.0717,43.4623 51.3485,3.0202 96.6482,-9.7166 139.6628,-39.3919 42.0733,-29.0188 60.0858,-40.1799 81.1897,-50.4218 29.438,-14.3123 49.0633,-19.5646 73.3934,-19.4333 24.0612,0 39.1163,4.5956 58.8761,17.5951 9.5438,6.3028 29.0347,25.4735 29.8412,29.2814 0.2688,1.4443 1.4787,7.8782 2.6885,14.3124 2.6884,14.4437 4.7047,18.3828 11.4256,22.0595 4.8392,2.7574 5.3768,3.5452 5.3768,8.141 0,2.8886 -1.2098,11.4237 -2.6884,19.0395 -2.4195,12.7366 -5.9144,56.06795 -4.5702,58.16885 0.2689,0.3939 2.9572,1.1817 6.0488,1.7071 4.7048,0.7878 5.7801,1.707 8.1998,6.5654 l 2.8227,5.5146 10.8881,0.9193 c 5.9145,0.3939 13.5764,1.0505 16.937,1.5757 6.0489,0.7878 6.3177,0.6565 20.1629,-9.8481 7.6621,-5.9087 14.6518,-11.6863 15.3241,-12.8679 0.672,-1.3132 1.2096,-5.3837 1.0753,-9.3229 -0.2689,-11.29235 -11.4257,-51.47215 -18.8189,-67.62305 l -3.3605,-7.6158 2.9573,-11.6861 c 3.7638,-14.0499 3.0916,-18.2517 -3.6294,-23.6354 -2.6884,-2.2322 -6.8555,-7.3531 -9.1406,-11.5549 -4.7046,-8.2723 -11.0224,-13.3932 -16.6681,-13.3932 -2.9573,0 -4.9734,-1.5757 -9.5438,-7.6158 -7.7964,-9.9794 -25.6742,-27.4431 -35.0838,-34.1397 -42.3422,-30.2007 -91.2713,-33.8772 -149.8785,-11.2925 -26.2119,10.1107 -31.8575,13.1306 -96.7825,51.341 -29.6858,18.1886 -58.1258,33.1241 -103.6379,45.9573 -15.7273,5.6461 -35.487,3.2827 -52.1552,-6.0401 -8.0652,-4.5957 -22.045,-16.6759 -22.045,-19.1707 0,-2.889 26.6154,-11.9491 59.2794,-20.2213 34.9494,-8.7975 80.3833,-23.3726 89.2551,-28.6248 29.8412,-17.5952 67.4789,-46.0887 74.4688,-56.3307 4.8392,-7.2218 5.108,-10.7671 1.3442,-18.9082 -5.3768,-11.6861 -7.9308,-13.5244 -32.1264,-25.0795 -18.6845,-8.7975 -22.8515,-11.2923 -22.8515,-13.5246 0,-1.5757 -0.4033,-4.0705 -0.8065,-5.7775 -0.8067,-2.4948 -0.4032,-2.8886 3.2261,-2.8886 2.2851,0 18.9532,2.6261 36.8311,5.7774 z m -403.3951,27.8371 c 13.711,1.707 26.6152,3.1513 28.6316,3.1513 2.4196,0 3.4948,0.6565 3.226,1.707 -0.2688,1.0505 -6.721,7.6158 -14.3829,14.575 -28.2283,25.6047 -51.7518,52.5226 -70.3018,80.0971 -5.78,8.6663 -10.4848,16.1506 -10.4848,16.8072 0,0.5253 -0.9409,1.0505 -1.8818,1.0505 -1.2098,0 -6.5865,-8.9289 -13.5766,-22.4535 -6.3177,-12.4741 -13.1731,-25.2109 -15.0551,-28.6249 -10.8879,-18.3828 -20.5661,-33.8771 -29.4379,-46.4825 -5.5112,-7.747 -9.9471,-14.7063 -9.9471,-15.3628 0,-0.7879 7.9309,-1.3131 19.8942,-1.3131 15.1895,-0.1314 25.0023,-0.9192 42.6113,-3.8079 26.4806,-4.2018 33.2018,-4.2018 70.7049,0.6566 z m 114.1228,16.4132 c 14.1141,6.5654 24.7332,20.7466 26.4809,35.4529 l 0.8064,7.0905 -10.3504,-13.2619 c -11.5601,-15.1003 -16.8025,-18.2517 -31.5887,-19.8274 -8.7373,-0.7878 -17.2057,1.4445 -24.5989,6.4341 -2.6623,2.0299 -9.8278,-0.3165 -11.4257,-2.7575 -1.4786,-2.2321 -0.941,-3.2826 4.4359,-7.8784 8.4684,-7.2218 15.0549,-9.3227 28.0938,-8.9288 8.334,0.2625 12.3666,1.0503 18.1467,3.6765 z m -868.3546,1.5758 c 0,1.707 -12.0979,6.1713 -16.5337,6.1713 -5.1079,0 -1.882,-3.6765 4.8391,-5.5148 9.0062,-2.6262 11.6946,-2.7575 11.6946,-0.6565 z m 526.9273,0.9191 c 11.9635,3.4139 25.271,16.676 29.5725,29.5439 3.0915,8.7976 2.285,21.797 -1.7476,29.1502 -7.8246,16.0945 -15.7424,6.9268 -11.5601,-1.0505 5.9145,-11.5549 0.6722,-28.0997 -14.5173,-45.5634 -3.7638,-4.2018 -3.7638,-4.2018 -11.1569,-2.8887 -10.216,1.8382 -36.8312,5.121 -37.3689,4.727 -0.1344,-0.2627 1.2098,-2.3635 3.2262,-4.5958 8.7373,-10.2418 26.8839,-14.0497 43.5521,-9.3227 z m -546.4183,11.161 5.3769,3.2827 -6.049,-0.7879 c -3.3604,-0.3938 -9.947,0 -14.6517,0.7879 -4.7048,0.7878 -8.7373,1.3131 -9.0063,1.0504 -0.2688,-0.2626 2.0164,-2.1008 5.1081,-4.0704 6.9898,-4.4645 12.3665,-4.4645 19.222,-0.2627 z m 823.3239,3.808 c 0,1.0503 -0.941,5.5148 -2.1507,9.9793 -6.8555,26.3926 16.5336,57.5123 45.1651,60.0071 l 8.3342,0.7879 15.9959,18.5142 c 8.7373,10.242 15.996,19.4333 15.996,20.6151 0,1.5757 -3.3604,2.7575 -13.0388,4.9896 -18.5499,4.2019 -47.5847,8.7976 -69.8984,11.1611 -23.6581,2.6262 -91.809,3.0201 -91.809,0.5253 0,-1.9696 16.1304,-32.0389 30.6477,-56.8558 22.1794,-38.079 41.1327,-63.815 51.0798,-68.936 5.9145,-3.0201 9.6782,-3.2826 9.6782,-0.7878 z m 58.7416,6.1713 c 6.1834,2.101 25.6744,28.0996 50.5419,67.4916 14.383,22.8474 26.7498,38.079 39.1165,48.0584 14.9206,12.0801 35.6213,20.8776 49.1978,20.8776 20.1131,1.2923 55.6295,-14.2193 73.9311,-21.2717 16.8024,-6.434 26.4809,-11.6863 84.0126,-45.6946 45.1652,-26.7866 74.7377,-39.6546 104.9822,-45.5635 17.3403,-3.2826 45.9718,-3.0199 60.3547,0.7879 13.8452,3.5453 31.051,11.6863 42.3423,19.8273 9.1406,6.6967 30.7822,27.5743 33.4707,32.5641 1.3443,2.4948 0.941,2.7574 -4.3015,3.5451 -7.9308,1.3132 -15.5927,5.3837 -18.1466,9.8481 l -2.1508,3.6767 -10.216,-9.4543 c -16.2649,-15.1002 -29.1692,-22.9786 -47.9881,-29.1499 -14.114,-4.5958 -39.7882,-5.7774 -57.1285,-2.6261 -28.3627,5.2523 -61.2956,20.0899 -97.7235,43.9876 -6.3177,4.2018 -21.2384,14.3124 -33.0672,22.4535 -31.32,21.403 -53.7684,31.3823 -86.7013,38.2103 -11.56,2.4948 -18.55,3.02 -38.9818,3.02 -27.9594,0.1312 -37.6377,-1.4443 -54.4402,-9.0603 -13.3076,-5.9087 -21.9104,-13.1306 -31.7231,-26.5238 -13.3076,-18.1203 -33.3362,-42.0181 -59.5482,-71.1681 -22.7171,-25.3422 -24.0612,-27.1805 -24.5989,-32.8267 -0.6721,-7.4846 2.1507,-12.9994 9.6783,-18.3831 5.7801,-4.3331 11.9633,-5.1209 19.0876,-2.6261 z m -878.3017,1.707 c 2.4196,0.9191 5.2425,2.8888 6.5867,4.2018 2.8228,3.2827 9.6781,28.6248 8.6028,32.5641 -0.6721,2.6262 -11.9634,11.2925 -14.6517,11.2925 -0.4033,0 -1.7476,-3.1515 -2.8229,-6.9594 -2.4196,-8.1411 -11.4257,-18.7768 -17.8779,-21.5343 -5.3769,-2.1008 -12.9044,-1.1816 -18.1468,2.4948 -3.6293,2.3635 -3.6293,2.3635 -5.108,-0.2625 -0.8064,-1.4445 -1.0753,-4.0706 -0.5376,-5.6463 1.0754,-3.6766 8.1997,-11.0297 12.9043,-13.5245 8.6029,-4.3332 23.7924,-5.6462 31.0511,-2.6262 z m 18.1468,6.6966 c -0.2689,1.5758 -0.941,0.9192 -2.0164,-2.1008 -1.613,-3.9392 -1.4786,-4.2018 0.4032,-2.2323 1.2099,1.0505 1.882,3.0201 1.6132,4.3331 z m -33.8739,26.5241 c 11.0224,13.1307 9.8127,21.1403 -8.0653,56.1991 -7.1242,13.656 -14.2485,26.6553 -15.8616,28.6249 l -3.0917,3.8079 -6.7209,-5.1209 c -3.7638,-2.7575 -10.7537,-7.6158 -15.7272,-10.7672 l -9.1405,-5.6462 -8.8718,5.3836 c -4.9736,3.0201 -9.1406,5.2522 -9.5439,4.9897 -0.2688,-0.3941 0.6721,-6.0402 2.2852,-12.8681 1.4786,-6.6967 2.6883,-12.868 2.6883,-13.5246 0,-0.7877 -2.2851,0.9191 -5.1079,3.5453 l -5.108,4.8583 -2.2851,-3.8079 -2.2851,-3.8079 15.8616,-14.3123 c 8.6029,-7.8784 20.2974,-17.5952 25.8087,-21.6657 5.5113,-3.9392 11.9634,-9.0601 14.1142,-11.2924 2.285,-2.1008 7.1241,-5.7775 10.7535,-8.0096 9.4094,-5.9089 13.1732,-5.2524 20.2975,3.414 z m 1684.5542,46.6138 c 79.1735,46.2198 188.8604,111.2167 211.3085,125.1353 2.5541,1.7069 12.9045,7.87835 22.8515,13.78705 156.8685,94.1469 287.1216,178.3146 330.6738,214.0301 17.4745,14.1809 27.5561,29.0187 38.8474,56.4618 19.7597,48.5835 29.9757,100.8435 50.5421,258.6741 19.3565,149.427 29.9756,211.6665 46.5093,271.6735 12.501,45.1696 21.9106,69.5926 46.2405,118.3075 18.2812,36.8971 28.9005,61.5826 37.5033,87.3189 15.3239,46.3512 21.9106,89.6824 18.2812,121.4586 -2.0164,18.2516 -3.2261,23.11 -10.216,39.3921 -3.2261,7.6156 -11.6944,28.4934 -18.8187,46.6138 -14.1142,36.1093 -25.5399,57.6436 -68.4199,129.9936 -98.9334,166.4969 -178.107,266.5526 -223.8098,282.8345 -2.6884,1.0504 -15.5927,2.2322 -29.5725,2.7575 -13.7107,0.6565 -33.8739,1.5757 -45.0307,1.9696 l -20.1631,0.9191 -24.8677,-7.4845 c -66.4035,-19.8273 -113.9883,-37.2909 -150.0129,-54.8862 -44.8963,-21.9281 -72.3182,-50.553 -81.3243,-84.5615 -4.5703,-17.4638 -3.7638,-25.8674 8.3341,-86.0058 40.9982,-205.7576 82.265,-370.2848 113.0474,-451.301 25.8546,-48.8675 38.6865,-94.0283 54.1713,-141.2861 6.1834,-18.7769 16.3993,-49.7652 22.5827,-68.936 6.3178,-19.1708 23.1202,-69.9865 37.2343,-112.9238 14.1142,-42.9372 32.9329,-100.0556 41.6703,-126.7109 8.8718,-26.7865 23.5235,-71.2994 32.6642,-99.1365 11.4257,-34.5336 16.1303,-50.8157 15.1895,-51.4722 -0.941,-0.5252 -3.3606,-1.0505 -5.377,-1.3131 l -3.8982,-0.3939 -77.5604,235.6956 c -58.4728,177.6578 -78.098,235.8266 -79.8457,236.0894 -23.7087,-25.8977 -51.082,-35.7777 -79.5766,-44.3817 -85.3568,-25.7362 -100.6808,-32.9581 -127.5649,-60.4012 -9.5437,-9.8479 -8.6029,-9.1914 -119.6341,-79.8344 -7.6618,-4.9896 -13.5763,-7.8784 -13.8452,-6.9592 -2.285,6.5653 -7.5274,-3.808 -30.3788,-59.8759 -33.202,-81.4101 -41.4016,-105.5705 -49.0635,-142.8617 -8.1997,-40.1797 -10.7536,-70.5117 -10.888,-124.7413 0,-65.2594 5.9144,-123.9535 20.163,-199.98 9.4094,-50.1591 28.3627,-125.52935 43.6866,-174.24415 5.78,-18.3829 6.1834,-20.3524 5.3768,-29.4125 -0.9409,-9.4542 -0.6721,-10.8986 7.5275,-37.1599 7.1243,-23.11 8.8718,-27.3118 11.0225,-27.3118 1.3442,0 25.9431,13.656 54.4402,30.4632 z m -1905.6755,-9.1914 c 11.8289,37.5536 11.9634,37.9476 11.9634,50.8157 0,10.8983 0.8065,14.8375 6.5866,34.1396 64.925,212.97935 80.2488,398.51575 43.6865,528.77205 -9.6782,34.9276 -64.1183,169.9108 -68.4199,169.9108 -0.9409,0 -2.0162,-0.6565 -2.2852,-1.4444 -0.2687,-0.7878 -12.2321,6.0401 -26.6151,15.363 -14.38292,9.1914 -41.93912,26.7865 -61.16123,38.998 -30.11006,19.0394 -37.10009,24.1604 -49.86983,36.2406 -16.66818,15.8882 -22.17942,19.9587 -37.50327,27.312 -15.05511,7.353 -32.26086,13.5244 -61.16121,22.0594 -38.44422,11.4236 -56.05335,17.3325 -69.89859,24.0292 -10.48473,4.9896 -14.78619,7.8783 -23.92674,16.9384 -6.18334,6.0401 -11.69461,10.8984 -12.23227,10.8984 -0.53766,0 -4.03261,-9.3226 -7.79641,-20.7464 -7.66189,-22.8472 -26.07747,-78.784 -44.49305,-134.8519 -36.83114,-111.742 -59.54816,-180.8093 -72.72134,-220.9891 -6.58659,-19.9585 -16.39926,-49.7654 -21.77609,-66.0472 l -9.67825,-29.6754 -4.83912,1.1818 c -2.68841,0.7878 -5.10797,1.5757 -5.24239,1.7069 -0.26884,0.2626 11.69456,37.5537 26.6152,82.986 15.05508,45.3007 30.37896,92.1772 34.27717,104.126 4.03259,11.9489 12.6355,38.2104 19.22207,58.4314 48.52572,147.4575 72.45247,219.9388 76.35067,231.7564 2.55397,7.6158 5.51127,19.0394 6.58658,25.3422 2.82289,15.7569 12.63551,40.4425 21.23844,52.9167 9.94707,14.3122 30.51342,69.7238 46.64385,125.2664 26.21187,90.0764 54.84348,211.9291 84.68478,360.437 14.7861,73.7943 14.65173,72.8751 11.56005,90.0763 -6.45219,35.1902 -32.79852,65.2594 -77.69484,88.5007 -33.06744,17.0698 -88.17966,37.291 -157.40612,57.9062 l -24.19564,7.0906 -37.09998,-1.9696 c -20.43188,-1.0504 -40.72932,-2.1009 -45.29962,-2.3635 -32.26084,-1.4444 -84.14705,-55.0175 -155.79304,-160.4567 -37.36882,-55.0176 -68.01663,-104.6515 -106.86408,-172.6684 -26.48078,-46.4825 -26.21193,-45.9573 -43.28331,-89.0259 -8.06522,-20.7464 -15.996,-39.7859 -17.34021,-42.5433 -10.08151,-19.3021 -11.9634,-65.5221 -4.43586,-104.5202 8.73731,-44.7754 26.74962,-92.1773 58.74165,-154.548 23.92679,-46.6138 39.92279,-97.1669 55.2467,-173.3248 9.81268,-49.6339 16.39926,-93.0964 31.05108,-206.8079 14.92065,-115.8126 22.98584,-163.6082 35.48693,-210.7472 11.82898,-44.2505 26.48077,-74.451 44.76193,-92.4401 7.12428,-6.9591 47.04709,-36.7657 70.97388,-52.9165 66.40359,-44.7755 177.70353,-114.2369 311.18283,-194.33385 112.10643,-67.2291 242.89738,-143.9122 245.58578,-144.0435 1.7475,-0.1312 3.226,3.0202 6.5866,13.2621 z m 1676.7578,14.3124 c 1.4787,2.2321 0.2688,2.3635 -3.3605,0.5252 -3.2261,-1.8383 -3.2261,-1.8383 -0.4033,-1.9695 1.6131,0 3.3606,0.6564 3.7638,1.4443 z m -28.2282,5.121 c -2.6884,2.1008 -7.1243,6.5653 -9.8128,9.9793 -5.5111,6.8278 -6.9897,5.7773 -3.7637,-2.7575 2.823,-7.0906 7.7964,-10.5046 16.1305,-11.0298 1.8818,-0.1313 1.0754,0.9191 -2.554,3.808 z m 26.0775,4.8583 c 3.3605,1.8382 9.6783,5.7775 13.9797,8.5349 7.1242,4.727 7.662,5.5149 7.662,10.1106 0,4.2018 -2.0164,12.7368 -3.4949,14.4438 -0.2689,0.2625 -2.0163,-0.7879 -4.1671,-2.2323 -5.5112,-3.6766 -11.9634,-5.5149 -22.1794,-5.7775 -8.6029,-0.3939 -9.1405,-0.2626 -13.8452,4.2018 -2.554,2.4948 -5.3768,6.6966 -6.1834,9.4542 -1.4786,5.5147 -1.613,5.5147 -5.2424,3.6764 -6.1833,-3.2825 -6.1833,-18.3827 0,-28.0995 2.8228,-4.5958 12.7699,-14.1811 16.8025,-16.2821 4.436,-2.4948 10.2159,-1.707 16.6682,1.9697 z m -1530.1054,-0.1313 c -0.4033,1.1818 -1.2097,4.3331 -1.613,7.2218 -1.0753,6.0401 -2.2852,7.2219 -4.5703,4.4645 -1.8819,-2.2322 -0.8066,-8.1411 2.2851,-11.555 2.6885,-2.7575 4.9737,-2.8888 3.8982,-0.1313 z m 25.8086,13.2619 c 4.167,2.7575 7.9308,4.9897 8.0653,5.121 0.2689,0.2625 -1.2098,3.2826 -3.3604,6.9592 -3.6294,6.3028 -4.0326,6.6966 -9.1406,6.5653 -8.7374,-0.2625 -11.4257,-1.5756 -15.8616,-7.4844 -3.6294,-4.7272 -3.8983,-5.9088 -2.2852,-6.828 1.0753,-0.6565 4.7047,-2.8888 8.0653,-5.1209 3.3604,-2.1009 6.1832,-3.9393 6.4521,-3.9393 0.1345,-0.1312 3.7638,2.1009 8.0651,4.7271 z m 17.7436,12.0802 c 3.8981,3.2827 4.3014,4.0705 2.8228,5.9087 -2.0163,2.3636 -16.2648,3.0201 -16.2648,0.9193 0,-2.3636 5.6456,-10.6358 7.1243,-10.6358 0.9408,0 3.7636,1.7069 6.3177,3.8078 z m 1493.0054,10.242 c 7.1241,3.2827 13.1731,12.4741 18.4155,27.9683 5.108,14.969 12.3668,41.4929 13.1732,47.9269 0.4033,3.808 0.2689,3.93915 -5.6456,4.33295 -5.5112,0.2627 -24.33,3.5453 -29.8413,4.9898 -1.3442,0.3939 -3.0916,3.4139 -4.4359,8.1411 -3.8982,13.9185 -3.4949,13.9185 -11.8289,0.1312 l -7.662,-12.3428 0,7.0906 0,6.9592 -4.3015,-0.7879 c -2.2851,-0.3939 -4.4358,-1.0503 -4.8391,-1.313 -1.0753,-1.1818 2.6885,-44.90685 4.5703,-53.04795 1.0753,-4.5956 2.2852,-12.4741 2.6884,-17.7263 1.0754,-12.7368 2.9572,-19.3021 6.3177,-23.1099 2.6884,-2.7576 3.7638,-3.0202 10.7537,-2.2323 4.3014,0.3939 10.0816,1.7069 12.6355,3.0201 z m 32.664,86.13705 c 0,1.9696 -1.8817,4.4644 -5.6455,7.222 -6.3178,4.7269 -6.4521,4.7269 -8.3341,-5.3837 l -0.941,-4.8583 7.5275,0 c 6.8555,0 7.3931,0.2626 7.3931,3.02 z m -17.0713,0.1314 c 0.4033,0.9192 1.0754,4.4644 1.6131,7.747 0.941,5.7776 0.8065,5.9089 -5.2424,10.3733 -5.9146,4.4645 -6.3178,4.5958 -13.1731,3.4141 -3.8982,-0.6567 -7.2588,-1.4445 -7.5276,-1.707 -0.2689,-0.2628 0.672,-4.4646 2.1507,-9.4543 l 2.5539,-8.9288 7.2588,-1.4443 c 9.947,-2.101 11.5601,-2.101 12.3666,0 z m -36.159,11.8175 c 4.167,7.0906 4.3015,7.3534 0.6721,7.3534 -2.8228,0 -6.5866,-6.6968 -6.5866,-11.8178 0,-3.8078 1.7475,-2.3635 5.9145,4.4644 z m -331.8837,1220.2331 c 35.6215,135.6397 111.7033,288.8746 201.6305,406.0001 28.2283,36.7659 44.6275,55.1488 78.9047,88.5008 l 31.9919,31.2509 0,130.6502 0,130.5188 -707.0503,0 -707.0503,0 0,-134.458 0,-134.5895 6.4522,-5.646 c 3.4949,-3.1514 14.6517,-13.6559 25.0021,-23.3727 120.1717,-114.4993 236.0419,-319.7317 283.0889,-501.3288 l 1.4786,-5.515 390.4909,0.2628 390.6251,0.3937 z m 715.7878,296.2278 c 6.8555,9.9793 24.5989,26.6552 38.1753,35.978 32.7986,22.5847 100.0087,49.24 193.5652,76.5519 l 18.6844,5.5148 25.6744,-1.4444 c 14.114,-0.7878 32.6639,-1.8384 41.1325,-2.1008 8.4685,-0.3939 18.4155,-1.0505 22.0448,-1.5759 6.4521,-0.6565 6.5867,-0.6565 5.9146,2.6263 -0.4032,1.8383 -19.6253,38.4729 -42.8801,81.5414 l -42.208,78.1274 -6.7209,0.6565 c -32.8627,1.0292 -53.803,9.7635 -82.6684,1.1819 -69.361,-20.09 -128.6402,-43.3312 -157.4062,-61.4517 -33.4706,-21.1403 -52.5583,-52.5225 -52.5583,-86.531 0,-11.6862 0.941,-16.8073 7.5275,-43.4625 15.0551,-60.0073 24.0612,-92.5711 25.54,-92.5711 0.8064,0 3.6292,3.1511 6.1832,6.9591 z m -2220.08433,64.6028 15.99597,62.5021 -0.67212,14.0498 c -0.80658,16.5447 -4.97349,30.4632 -12.76992,43.4626 -6.72102,11.0297 -24.86781,29.6752 -36.29349,37.1596 -29.16918,19.1707 -83.07171,40.7051 -155.65862,62.3708 l -20.16301,5.9087 -24.19563,-2.1009 c -13.30761,-1.1817 -29.97572,-2.4948 -37.09998,-2.8888 l -12.90434,-0.9191 -19.8942,-36.8973 c -21.10397,-38.9979 -32.39528,-59.8757 -53.63367,-98.8739 -7.12427,-12.9993 -12.90434,-24.8169 -12.90434,-25.9985 0,-1.8385 0.80653,-2.101 3.76377,-1.4445 2.0163,0.5252 15.45832,1.4445 29.84129,2.1008 14.51738,0.7878 34.41158,1.8385 44.35867,2.3635 l 18.14673,1.0507 26.21194,-7.7472 c 84.28145,-24.817 149.0721,-50.1592 181.46733,-71.1682 14.24844,-9.1916 29.30364,-22.5848 38.71305,-34.271 4.83903,-6.0401 9.54378,-11.0298 10.35036,-11.0298 0.67203,0 8.60292,28.0996 17.34021,62.3705 z m 390.62513,434.6251 c 0,1.7071 80.7866,1.9698 719.1482,1.9698 638.3616,0 719.1482,-0.2627 719.1482,-1.9698 0,-1.5755 2.4195,-1.9695 13.5763,-1.9695 l 13.711,0 -0.9411,6.1715 c -10.7535,76.4204 -17.8778,156.7801 -20.0284,226.2412 l -0.2689,9.8481 -730.1706,0.3939 -730.1706,0.2627 -0.6723,-5.5149 c -0.2687,-3.1513 -1.8817,-21.9282 -3.4949,-41.7555 -4.7045,-58.9568 -13.1731,-126.4484 -22.3137,-175.9511 -1.7474,-9.7165 -3.2261,-18.1202 -3.2261,-18.7767 0,-0.5252 10.3504,-0.9192 22.8515,-0.9192 19.3565,0 22.8514,0.2626 22.8514,1.9695 z"
     id="path196" />
</svg>
