<?xml version="1.0" encoding="UTF-8" standalone="no"?>
<!-- Created with Inkscape (http://www.inkscape.org/) -->

<svg
   xmlns:dc="http://purl.org/dc/elements/1.1/"
   xmlns:cc="http://creativecommons.org/ns#"
   xmlns:rdf="http://www.w3.org/1999/02/22-rdf-syntax-ns#"
   xmlns:svg="http://www.w3.org/2000/svg"
   xmlns="http://www.w3.org/2000/svg"
   version="1.0"
   width="300pt"
   height="200pt"
   viewBox="0 0 7500 3306"
   id="svg2">
  <defs
     id="defs10" />
  <metadata
     id="metadata4">
Created by potrace 1.10, written by Peter Selinger 2001-2011
<rdf:RDF>
  <cc:Work
     rdf:about="">
    <dc:format>image/svg+xml</dc:format>
    <dc:type
       rdf:resource="http://purl.org/dc/dcmitype/StillImage" />
    <dc:title></dc:title>
  </cc:Work>
</rdf:RDF>
</metadata>
  <g
     transform="matrix(0.1,0,0,-0.1,0,3306)"
     id="g6">
    <path
       d="m 30663,31603 c 9,-9 19,-14 23,-11 10,10 -6,28 -24,28 -15,0 -15,-1 1,-17 z"
       id="path10" />
    <path
       d="m 60460,30263 c -8,-3 -25,-15 -38,-26 -22,-20 -23,-20 -60,-3 -20,10 -64,21 -97,23 -52,5 -69,2 -115,-22 -92,-46 -140,-84 -255,-199 -96,-97 -419,-409 -976,-942 -809,-775 -775,-740 -851,-864 -454,-733 -797,-1855 -987,-3220 -73,-526 -125,-1104 -122,-1360 6,-458 5,-490 -18,-590 -13,-58 -21,-128 -21,-184 0,-78 3,-95 26,-133 14,-24 24,-48 22,-53 -2,-5 -91,-53 -198,-106 -107,-52 -197,-98 -199,-100 -3,-2 8,-17 23,-33 l 27,-28 -128,-27 c -474,-101 -1103,-274 -1618,-444 -115,-39 -257,-80 -315,-92 -504,-103 -983,-303 -1302,-543 -41,-31 -245,-159 -454,-285 -582,-351 -1358,-827 -1689,-1034 -1144,-718 -1801,-1158 -2099,-1407 -167,-140 -283,-339 -380,-654 -120,-386 -189,-786 -326,-1877 -121,-963 -197,-1431 -306,-1880 -93,-379 -187,-634 -362,-985 -179,-359 -285,-635 -362,-945 -94,-373 -95,-756 -5,-972 15,-35 75,-187 134,-338 136,-347 126,-326 266,-581 719,-1311 1404,-2291 1802,-2577 57,-41 24,18 499,-882 114,-217 229,-433 254,-480 l 45,-85 95,-7 c 52,-3 188,-14 302,-24 240,-21 193,-28 568,92 567,183 919,348 1106,518 127,115 230,283 269,441 12,45 18,109 18,180 0,108 -2,118 -131,634 l -132,524 26,81 c 44,136 44,258 0,491 -291,1517 -593,2798 -826,3497 -88,265 -137,382 -247,598 -103,200 -127,280 -121,393 5,93 22,126 78,155 84,42 825,364 925,402 234,87 356,162 507,311 82,81 141,127 267,209 89,58 248,162 354,231 105,70 194,122 198,118 3,-5 52,16 109,46 58,30 106,55 107,55 2,0 3,-8 3,-17 0,-9 14,-32 32,-50 l 31,-32 79,-808 c 324,-3354 306,-3146 312,-3513 7,-364 13,-475 51,-825 51,-469 75,-788 105,-1395 11,-223 25,-425 30,-450 5,-25 14,-238 20,-475 32,-1381 79,-1953 191,-2345 50,-173 77,-219 204,-347 78,-78 107,-113 94,-113 -10,0 -19,-6 -19,-13 0,-8 20,-133 44,-278 86,-506 143,-996 176,-1484 6,-88 13,-188 16,-222 l 6,-63 5529,0 5529,0 0,38 c 0,234 47,951 86,1312 25,233 69,586 79,625 3,11 23,31 46,45 60,37 158,155 195,236 147,316 214,975 244,2394 7,303 16,526 25,595 8,61 21,263 30,450 25,539 50,880 105,1400 47,438 53,589 55,1380 l 3,740 107,1090 c 58,600 130,1341 160,1649 30,307 56,561 59,563 3,3 21,-4 40,-15 21,-13 36,-16 38,-10 2,6 167,-96 367,-226 319,-208 373,-247 449,-324 148,-150 249,-215 480,-306 124,-50 316,-132 846,-365 77,-34 148,-68 157,-77 46,-41 50,-202 8,-323 -12,-34 -61,-140 -109,-235 -49,-94 -107,-218 -130,-276 -245,-615 -603,-2077 -931,-3805 -33,-173 -39,-222 -34,-280 7,-76 27,-168 50,-227 14,-36 11,-53 -117,-560 l -132,-523 0,-120 c 0,-145 22,-235 89,-364 81,-156 210,-288 383,-393 224,-135 636,-298 1137,-449 l 140,-42 135,13 c 74,6 210,18 303,25 92,6 169,14 171,16 5,5 126,235 406,764 128,242 256,485 285,540 46,86 62,106 112,142 83,60 250,227 374,373 396,468 911,1268 1449,2251 93,169 133,258 237,524 162,413 169,434 189,546 20,115 15,402 -10,549 -62,362 -194,736 -417,1181 -161,323 -253,570 -342,924 -122,480 -195,930 -342,2105 -147,1173 -250,1659 -427,2014 -104,209 -165,276 -433,477 -515,387 -1832,1229 -3371,2157 -114,69 -230,148 -270,183 -193,171 -410,305 -684,420 -80,34 -163,71 -185,82 -22,12 -51,22 -65,23 -14,0 -97,22 -185,48 -88,26 -248,65 -355,86 -107,22 -229,51 -270,65 -614,211 -1606,457 -2359,585 -69,12 -128,23 -132,26 -4,2 -15,26 -23,52 l -16,48 52,114 53,115 0,535 c -1,589 -7,672 -76,1085 -182,1088 -688,2531 -1376,3927 l -82,168 -263,267 c -144,148 -431,437 -637,643 -370,369 -380,379 -613,554 -159,119 -250,181 -275,187 -41,9 -179,11 -203,2 z m 181,-92 c 23,-5 123,-74 282,-196 l 247,-187 548,-557 c 301,-306 573,-583 604,-616 58,-63 137,-210 299,-558 628,-1349 1067,-2671 1213,-3652 49,-328 56,-454 56,-984 l 0,-494 -56,-126 -55,-125 31,-79 c 19,-51 35,-114 42,-177 l 11,-98 189,-90 c 148,-72 188,-95 188,-110 0,-15 -29,-33 -134,-80 -1452,-662 -3117,-876 -4746,-611 -774,126 -1475,348 -2205,699 l -150,72 -122,121 c -68,67 -123,127 -123,134 0,7 83,55 185,105 l 185,93 -46,75 -45,75 4,115 c 2,63 12,156 21,205 21,108 24,311 7,411 -10,59 -10,112 3,295 9,123 20,238 25,255 5,17 7,42 4,56 -10,50 63,689 122,1078 189,1242 503,2243 921,2938 l 80,132 805,772 c 442,424 851,819 909,878 172,174 240,220 325,220 60,0 128,-34 237,-117 l 58,-44 -30,67 c -17,36 -30,77 -30,90 0,22 4,24 53,24 28,0 68,-4 88,-9 z m 3492,-7731 c 728,-128 1515,-323 2192,-544 94,-30 231,-67 305,-80 155,-29 283,-60 458,-112 99,-30 122,-40 122,-55 0,-11 -30,-117 -66,-236 -63,-208 -66,-220 -59,-289 6,-67 3,-82 -54,-275 -82,-280 -132,-467 -190,-714 -336,-1433 -364,-2600 -82,-3453 79,-237 389,-1020 458,-1157 9,-16 29,-41 46,-55 29,-25 29,-26 18,-80 -6,-30 -34,-291 -61,-580 -28,-289 -64,-662 -80,-830 -16,-168 -39,-402 -50,-520 -12,-118 -46,-467 -77,-775 l -56,-560 -7,-835 c -8,-848 -11,-937 -55,-1345 -52,-489 -76,-803 -105,-1390 -11,-220 -24,-425 -30,-455 -5,-30 -16,-318 -25,-640 -8,-322 -19,-688 -25,-815 -34,-739 -99,-1228 -195,-1468 -32,-79 -129,-197 -194,-235 l -46,-27 -5557,-3 c -4788,-2 -5558,0 -5558,12 0,9 -16,17 -41,21 -77,13 -111,36 -219,143 -118,117 -142,156 -184,294 -112,365 -164,1023 -191,2378 -3,168 -12,357 -20,420 -8,63 -21,261 -30,440 -27,576 -56,962 -110,1465 -31,292 -43,484 -50,860 -7,316 -12,376 -338,3735 l -52,536 -31,38 c -23,27 -33,52 -38,89 -14,118 -9,145 55,297 88,210 311,797 352,925 69,215 114,431 148,710 26,221 37,732 20,996 -47,726 -195,1529 -429,2324 -73,248 -77,265 -78,365 -1,100 -4,115 -67,320 -37,118 -67,221 -67,227 0,42 474,202 795,269 72,15 174,42 227,60 348,120 807,256 1188,353 261,66 681,161 713,161 13,0 63,-41 131,-109 l 111,-108 175,-86 c 335,-162 605,-272 965,-393 884,-295 1794,-436 2727,-422 275,4 285,5 373,32 76,24 111,29 227,32 91,2 154,8 190,19 33,11 103,19 188,22 91,3 158,12 205,25 49,14 123,22 245,28 181,9 202,12 530,95 298,74 655,189 940,300 223,87 650,278 650,291 0,18 -54,106 -77,125 -16,13 -99,58 -185,99 -112,53 -158,80 -162,95 -9,33 -7,75 4,75 6,0 88,-14 183,-30 z m 3718,-1142 c 2352,-1413 3885,-2404 4146,-2680 209,-223 352,-680 478,-1531 19,-130 62,-452 95,-714 149,-1178 217,-1593 334,-2059 93,-369 181,-614 317,-887 319,-636 454,-1070 466,-1499 7,-237 -8,-332 -77,-498 -27,-63 -62,-151 -78,-195 -143,-384 -199,-501 -485,-1000 -423,-741 -813,-1338 -1141,-1750 -146,-183 -374,-413 -474,-479 -119,-78 -146,-85 -376,-96 -110,-5 -258,-12 -327,-16 -142,-8 -108,-15 -469,98 -536,168 -950,340 -1168,485 -197,131 -349,325 -401,511 -40,144 -38,189 18,485 269,1410 574,2706 798,3392 81,250 155,430 248,610 116,222 138,291 139,427 1,76 4,108 13,108 6,0 146,-59 310,-131 164,-72 359,-157 433,-189 74,-33 360,-158 635,-279 448,-197 501,-218 513,-204 6,9 12,22 12,28 0,6 -345,163 -767,348 -1320,579 -1176,510 -1263,599 -65,65 -91,83 -190,131 -71,34 -191,79 -315,117 -635,196 -717,234 -919,430 -97,93 -155,138 -296,230 -96,63 -298,194 -449,292 -188,123 -276,175 -282,167 -4,-7 -14,-9 -22,-6 -34,13 -422,994 -502,1269 -280,963 -170,2402 307,4018 55,189 60,212 59,293 -2,81 2,103 58,288 34,110 61,202 61,205 0,16 75,-26 561,-318 z m -14127,135 c 3,-10 30,-101 61,-203 55,-178 57,-188 51,-268 -3,-48 -1,-95 5,-110 24,-62 145,-494 199,-712 216,-860 313,-1569 313,-2270 0,-497 -48,-878 -156,-1240 -83,-278 -463,-1235 -495,-1247 -8,-3 -17,-1 -21,6 -5,8 -79,-34 -232,-134 -694,-452 -678,-442 -794,-554 -60,-59 -130,-121 -155,-138 -118,-80 -283,-146 -635,-253 -420,-128 -523,-175 -643,-297 l -72,-73 -643,-281 c -353,-155 -775,-340 -937,-412 -162,-71 -314,-138 -338,-148 -40,-17 -42,-20 -31,-41 6,-13 13,-24 14,-26 3,-3 116,45 465,198 796,351 1414,620 1420,620 4,0 10,-48 12,-107 5,-143 28,-211 149,-448 100,-197 162,-349 248,-615 213,-656 493,-1842 755,-3194 83,-426 91,-510 60,-635 -36,-146 -139,-311 -265,-424 -232,-210 -678,-405 -1489,-653 l -155,-47 -155,7 c -85,4 -236,11 -336,15 -175,7 -183,8 -250,40 -38,18 -100,56 -139,86 -83,63 -281,263 -387,391 -374,452 -885,1250 -1397,2182 -94,171 -131,253 -231,510 -66,169 -130,334 -144,367 -43,104 -58,204 -58,385 1,428 136,887 444,1503 152,305 243,551 333,902 116,453 193,920 330,2000 74,585 103,790 146,1050 114,684 251,1088 437,1287 104,111 405,332 919,673 182,121 364,241 405,266 40,26 174,112 298,191 200,128 631,398 1035,648 764,473 2006,1219 2032,1219 12,1 24,-6 27,-16 z M 68742,8703 c 68,-101 232,-250 364,-330 261,-158 712,-335 1322,-519 l 182,-55 178,11 c 97,6 247,15 332,20 85,5 165,12 178,15 49,15 57,32 -474,-970 l -143,-270 -63,-7 c -128,-14 -414,-38 -460,-38 -76,0 -536,146 -841,266 -176,69 -390,175 -484,238 -126,84 -249,219 -310,341 -39,75 -64,178 -70,281 l -6,101 119,476 c 129,519 127,514 176,440 z M 52439,8125 c 112,-443 114,-452 114,-565 1,-216 -68,-374 -231,-538 -148,-147 -386,-271 -832,-433 -122,-45 -490,-163 -582,-187 -28,-8 -91,-5 -230,9 -106,10 -219,19 -250,19 -31,0 -67,4 -81,9 -18,7 -93,140 -340,610 -174,330 -317,607 -317,616 0,14 8,16 53,11 28,-4 144,-11 257,-16 113,-6 250,-13 305,-16 100,-6 101,-5 285,50 567,172 1059,364 1295,507 149,90 292,217 376,334 19,27 39,44 48,43 12,-3 45,-116 130,-453 z M 66246,4783 c -8,-38 -52,-386 -71,-558 -23,-215 -53,-587 -65,-820 -5,-115 -13,-261 -16,-322 l -6,-113 -5432,0 -5433,0 -12,183 c -32,469 -92,981 -172,1459 -16,97 -29,181 -29,187 0,8 1550,11 5621,11 l 5621,0 -6,-27 z"
       id="path194" />
    <path
       d="m 16256,30160 c -16,-5 -39,-19 -52,-31 -23,-22 -23,-22 -61,-3 -24,12 -67,20 -119,22 -75,4 -85,2 -145,-28 -91,-46 -170,-102 -247,-175 -37,-34 -386,-336 -777,-670 -390,-334 -894,-765 -1120,-958 l -410,-351 -429,-473 -430,-473 -88,-167 c -49,-93 -129,-259 -178,-370 -74,-166 -97,-232 -132,-370 l -42,-168 16,-155 16,-155 -53,-80 c -193,-292 -255,-600 -180,-889 71,-270 288,-536 613,-752 69,-45 73,-50 68,-79 -3,-16 -8,-86 -12,-155 -5,-97 -3,-148 10,-225 29,-171 19,-416 -24,-565 -6,-20 -7,-75 -4,-130 5,-74 12,-104 31,-137 l 24,-42 -23,-12 c -12,-7 -59,-18 -103,-26 -120,-20 -242,-52 -309,-81 -34,-14 -150,-79 -258,-144 l -197,-119 -228,-60 c -369,-97 -808,-229 -1081,-324 -57,-20 -145,-44 -196,-55 -517,-106 -966,-290 -1309,-536 -64,-47 -247,-163 -405,-258 -536,-323 -1045,-633 -1347,-821 -55,-34 -158,-98 -230,-142 -878,-541 -1750,-1115 -2130,-1402 -230,-174 -308,-262 -405,-460 -171,-347 -282,-873 -425,-2021 -140,-1117 -217,-1600 -330,-2050 -97,-391 -169,-586 -355,-970 -237,-489 -346,-799 -411,-1165 -19,-107 -23,-166 -24,-330 0,-261 8,-297 123,-580 23,-55 78,-194 122,-308 61,-159 110,-262 202,-430 346,-634 745,-1291 1042,-1712 293,-418 571,-742 768,-894 59,-46 74,-65 121,-154 30,-56 127,-239 215,-407 89,-168 230,-435 315,-595 l 153,-290 74,-7 c 41,-4 179,-17 306,-28 l 231,-20 179,55 c 702,216 1103,398 1299,591 181,178 262,351 271,584 l 5,115 -134,533 -135,533 24,67 c 13,37 29,109 35,160 15,112 19,84 -103,702 -272,1384 -542,2505 -757,3150 -71,213 -134,367 -207,511 -74,146 -168,437 -160,496 14,105 88,191 224,261 94,49 188,82 487,173 351,107 533,184 653,274 26,20 90,78 142,130 84,83 139,123 460,333 201,131 368,235 371,230 5,-8 165,69 196,94 8,6 13,2 18,-14 4,-13 20,-36 35,-53 l 28,-30 71,-745 c 40,-410 85,-880 102,-1045 55,-571 169,-1751 188,-1955 11,-116 22,-339 26,-515 7,-368 17,-543 50,-845 53,-488 82,-885 110,-1470 9,-179 22,-377 30,-440 7,-63 16,-261 20,-440 24,-1322 80,-1996 196,-2375 49,-158 78,-206 201,-330 91,-91 106,-111 89,-113 -12,-2 -21,-5 -21,-7 0,-2 16,-91 35,-199 62,-349 118,-767 155,-1151 19,-203 50,-611 50,-667 l 0,-28 5533,0 5533,0 2,123 c 6,306 36,780 73,1137 22,224 77,662 87,702 4,16 24,38 49,55 56,38 148,145 183,213 148,296 221,960 250,2280 11,525 16,649 30,735 5,33 16,204 25,380 26,548 55,959 96,1340 60,562 69,780 69,1606 l 0,606 65,674 c 105,1081 132,1357 196,2024 68,708 65,694 129,635 39,-37 227,-134 232,-120 2,5 161,-94 353,-219 310,-201 362,-239 455,-329 131,-127 199,-178 309,-232 121,-60 255,-109 523,-191 623.301,-141.161 780.534,-411.812 519,-946 -107,-215 -191,-448 -316,-878 -201,-695 -442,-1741 -660,-2870 -31,-159 -62,-323 -70,-364 -26,-131 -18,-251 26,-392 l 21,-66 -131,-524 c -129,-514 -131,-526 -131,-635 0,-298 153,-552 450,-744 204,-132 693,-326 1189,-471 188.194,-62.6841 425.602,-4.4077 599,8 56,3 109,11 116,17 14,10 79,132 547,1020 l 194,368 90,73 c 416,336 1030,1218 1743,2501 147,264 170,314 272,579 51,132 111,283 133,335 54,128 75,212 88,354 24,263 -28,592 -156,971 -70,211 -140,374 -295,695 -141,291 -205,453 -275,695 -151,520 -234,1007 -395,2295 -90,723 -152,1112 -226,1419 -108,454 -224,713 -393,882 -251,250 -1376,992 -3096,2042 -228,139 -872,530 -945,573 -30,17 -103,68 -162,112 -201,151 -405,263 -663,365 -233,92 -515,172 -767,217 -64,11 -143,30 -175,41 -237,82 -803,246 -1149,333 -362,91 -857,195 -1189,251 -88,15 -166,30 -174,34 -7,4 -22,27 -32,52 l -17,46 54,123 54,123 0,228 0,227 131,129 c 315,308 577,632 867,1070 247,375 338,623 286,780 -23,71 -101,231 -183,376 -39,71 -73,134 -74,140 -1,7 -16,32 -33,57 -17,25 -62,97 -99,160 -295,496 -844,1339 -1074,1650 -151,205 -917,927 -2059,1942 -215,191 -271,236 -499,389 -141,96 -273,182 -294,192 -45,20 -208,32 -253,17 z m 171,-100 c 27,0 84,-34 296,-176 299,-202 265,-174 667,-534 778,-696 1271,-1151 1601,-1480 189,-188 255,-261 329,-365 236,-328 910,-1367 910,-1404 0,-19 -16,-13 -148,53 -346,173 -797,373 -964,427 -93,29 -117,31 -238,15 -218,-29 -526,-48 -765,-50 l -240,-1 -210,62 c -115,34 -403,114 -639,178 l -429,116 -139,75 -139,75 -107,-12 c -145,-15 -236,-40 -361,-98 -180,-84 -413,-145 -1161,-305 -245,-53 -476,-105 -515,-116 -267,-78 -719,-202 -927,-255 -212,-55 -262,-71 -350,-117 -132,-67 -382,-235 -571,-383 -82,-63 -152,-115 -156,-115 -10,0 -15,34 -31,187 l -11,103 42,161 c 33,128 61,204 134,368 50,113 127,272 171,353 l 79,147 415,457 415,458 1010,865 c 556,475 1055,903 1110,950 55,47 135,118 178,158 42,40 104,91 138,113 163,111 232,108 436,-23 79,-51 80,-50 33,42 -35,70 -24,84 59,75 24,-2 59,-4 78,-4 z m -92,-3120 c 1,-19 52,-174 114,-344 120,-328 119,-322 82,-408 l -20,-48 -123,7 c -105,5 -140,2 -233,-16 -282,-57 -481,-116 -645,-192 -187,-86 -662,-202 -1575,-384 -291,-58 -356,-74 -545,-139 -118,-40 -348,-115 -510,-165 -162,-51 -343,-108 -402,-126 -175,-55 -259,-124 -293,-238 -20,-67 -19,-109 4,-199 55,-216 295,-550 565,-788 79,-70 102,-100 75,-100 -21,0 -351,205 -453,281 -228,172 -386,381 -447,591 -27,94 -36,280 -19,385 24,149 89,310 181,448 40,60 56,76 73,73 14,-1 53,23 116,73 254,202 491,364 655,446 67,34 133,56 265,88 194,48 462,121 825,225 132,37 328,87 435,110 669,143 812,175 965,214 232,60 350,100 457,151 116,57 292,96 413,91 39,-1 40,-2 40,-36 z m 170,-61 c 62,-34 150,-61 548,-169 261,-71 546,-150 633,-176 105,-30 193,-49 258,-55 153,-15 732,17 951,51 33,6 79,10 102,10 100,0 550,-190 1147,-486 185,-91 168,-74 319,-332 125,-213 240,-441 262,-515 14,-49 15,-68 5,-124 -30,-176 -148,-393 -435,-803 -286,-408 -625,-785 -928,-1033 -143,-117 -210,-162 -387,-263 -85,-48 -391,-223 -680,-390 -801,-461 -1082,-614 -1250,-683 -113,-46 -335,-374 -602,-888 l -90,-173 -61,1 c -34,0 -113,4 -175,8 -93,7 -115,12 -127,27 -26,34 -73,169 -104,295 -58,242 -150,416 -517,970 -195,295 -204,307 -278,363 -126,95 -368,236 -871,506 -115,62 -244,131 -285,153 -550,296 -920,506 -920,523 0,8 5,14 10,14 34,0 492,-228 930,-463 113,-60 298,-158 411,-218 409,-214 737,-419 972,-608 162,-131 307,-282 307,-322 0,-23 4,-29 23,-29 56,0 366,-508 535,-876 38,-82 71,-156 74,-164 3,-9 22,22 47,73 47,98 186,309 287,437 90,113 405,427 524,521 294,234 593,416 951,578 323,146 477,229 714,386 505,333 995,813 1357,1332 47,67 88,120 90,117 3,-2 5,2 5,9 0,6 33,66 72,132 89,148 170,313 206,423 60,181 12,324 -149,446 -69,53 -194,111 -302,140 -49,13 -107,31 -129,41 -184,78 -503,187 -600,205 -124,22 -371,40 -700,50 -420,13 -394,11 -1220,115 -374,47 -718,88 -763,92 -83,6 -84,6 -79,32 2,14 12,47 22,72 l 18,46 -111,306 c -62,169 -112,314 -112,322 0,23 14,19 95,-26 z m 30,-814 c 171,-12 536,-55 1525,-179 129,-17 295,-29 489,-35 l 294,-11 46,-36 c 74,-59 181,-173 223,-238 55,-85 63,-124 48,-220 -9,-53 -11,-121 -6,-215 12,-231 -20,-384 -122,-587 -121,-240 -303,-479 -673,-879 -308,-334 -422,-469 -579,-680 -192,-260 -281,-424 -305,-568 -4,-25 -14,-43 -33,-54 -15,-10 -83,-58 -152,-107 -124,-89 -125,-90 -210,-102 -76,-10 -104,-9 -265,13 -190,26 -400,34 -501,19 l -60,-8 -27,178 c -62,403 -63,436 -33,1189 14,352 42,1043 61,1535 20,492 38,919 41,948 4,40 9,52 22,52 9,0 107,-7 217,-15 z m -315,-2 c 0,-5 -11,-278 -25,-608 -34,-821 -83,-2060 -93,-2343 -11,-304 1,-474 59,-820 12,-68 18,-126 14,-130 -4,-4 -107,-8 -231,-10 l -224,-3 -111,116 c -62,64 -147,145 -190,181 -47,39 -103,99 -138,148 -43,59 -110,127 -238,241 -98,88 -310,288 -471,444 l -294,285 -143,216 c -190,286 -308,485 -425,715 -108,214 -151,322 -186,475 -24,105 -51,367 -41,394 10,25 123,54 532,136 914,185 1324,287 1525,380 122,56 283,106 495,154 159,37 185,40 185,29 z m 3076,-258 c 119,-16 314,-77 559,-175 72,-29 170,-63 219,-76 209,-57 363,-167 400,-288 33,-105 16,-185 -85,-396 -207,-432 -616,-957 -1047,-1343 -400,-359 -716,-565 -1229,-803 -145,-67 -321,-154 -390,-193 -70,-39 -132,-71 -140,-71 -22,0 -14,42 23,120 119,248 386,593 814,1050 458,489 677,809 776,1135 25,84 28,108 36,355 5,146 9,283 9,306 1,81 -74,205 -195,324 -80,78 -77,84 41,76 54,-4 147,-13 209,-21 z m -5883,-577 c 21,-388 196,-780 662,-1483 123,-185 168,-245 231,-304 44,-41 156,-150 249,-241 94,-91 218,-211 276,-266 59,-54 119,-115 135,-133 l 29,-35 -30,15 c -16,9 -43,22 -60,31 -16,8 -91,50 -165,93 -74,43 -223,124 -330,180 -107,57 -310,164 -450,239 -356,191 -766,395 -890,445 -131,53 -180,89 -361,270 -286,287 -446,539 -457,723 -2,42 -1,93 2,113 9,44 65,109 120,137 23,12 169,60 326,109 157,48 373,117 480,152 107,36 202,65 211,66 13,1 17,-17 22,-111 z m -661,-1486 c 270,-163 726,-418 1358,-757 590,-317 803,-440 937,-538 52,-39 79,-73 218,-283 393,-594 484,-763 540,-999 29,-124 66,-234 95,-282 11,-19 20,-43 20,-54 0,-17 -5,-19 -32,-15 -18,3 -130,15 -248,26 -118,12 -392,48 -609,81 l -393,60 -182,74 c -380,154 -724,280 -936,341 -178,52 -248,87 -398,198 -173,128 -432,352 -432,373 0,23 22,14 174,-76 380,-223 486,-263 966,-370 124,-28 331,-70 460,-95 212,-40 245,-44 332,-39 l 96,6 44,-35 c 87,-71 196,-106 289,-93 71,10 181,68 224,118 167,195 100,475 -143,594 -50,25 -68,28 -152,28 -87,0 -100,-3 -155,-32 -57,-29 -146,-111 -157,-143 -4,-13 -42,-10 -254,19 -137,18 -289,37 -339,42 -318,30 -458,60 -581,123 -46,25 -151,94 -232,154 -246,183 -412,284 -539,328 -31,11 -53,25 -53,33 0,8 -20,49 -45,92 -44,75 -45,81 -45,161 0,46 9,126 20,178 31,149 36,303 14,445 -19,119 -24,323 -11,378 4,15 14,27 22,27 8,0 65,-31 127,-68 z m 6681,-759 -6,-187 -53,-118 -53,-118 30,-73 c 19,-46 35,-109 44,-177 7,-57 17,-106 22,-107 12,-4 346,-168 361,-177 17,-11 52,-81 52,-106 0,-46 -142,-166 -405,-343 -156,-105 -163,-108 -315,-156 -250,-79 -347,-108 -491,-145 -75,-19 -206,-60 -292,-90 -86,-31 -162,-56 -170,-56 -13,0 -34,30 -203,298 l -83,132 0,83 c 1,184 -105,329 -283,386 -21,7 -38,18 -38,26 0,7 46,39 103,71 56,32 341,195 632,363 292,167 611,350 711,407 163,92 296,179 379,248 17,14 38,25 47,26 16,0 17,-14 11,-187 z m -6800,-528 c 141,-30 304,-121 573,-321 125,-93 280,-194 297,-194 6,0 18,-6 26,-14 15,-14 70,-28 236,-61 39,-7 142,-21 230,-29 88,-9 276,-31 419,-51 l 259,-35 136,20 c 76,11 160,24 187,29 46,9 50,8 71,-17 40,-50 83,-144 83,-182 0,-30 -9,-50 -46,-94 l -45,-56 -285,0 -284,0 -326,65 c -749,149 -874,193 -1326,461 l -233,139 -265,0 c -184,0 -286,-4 -333,-14 -69,-14 -102,-31 -430,-224 -81,-48 -188,-107 -237,-132 l -90,-45 0,27 c 0,34 -27,76 -68,106 -17,13 -28,28 -24,33 8,12 117,54 140,54 17,0 253,135 552,316 264,159 297,174 470,213 103,23 221,26 313,6 z m 7149,-149 c 722,-133 1397,-302 2106,-530 92,-30 212,-62 267,-71 300,-52 815,-211 815,-252 0,-8 -30,-112 -67,-231 -63,-206 -66,-222 -64,-307 2,-80 -3,-105 -39,-225 -235,-780 -389,-1553 -457,-2290 -25,-271 -25,-888 0,-1108 36,-319 92,-589 172,-827 45,-135 245,-655 331,-863 65,-155 76,-209 49,-232 -9,-7 -29,-30 -45,-50 l -29,-36 -41,-425 c -22,-233 -63,-651 -90,-929 -27,-278 -74,-764 -105,-1080 -30,-316 -62,-642 -71,-725 -13,-122 -17,-286 -19,-880 -2,-792 -10,-974 -55,-1400 -55,-517 -84,-906 -111,-1500 -6,-137 -15,-279 -20,-315 -13,-92 -26,-430 -39,-955 -25,-1055 -87,-1669 -201,-1983 -30,-82 -47,-112 -108,-180 -79,-90 -136,-116 -268,-120 l -103,-4 0,994 0,993 -76,65 c -213,181 -539,544 -784,871 -649,867 -1226,2069 -1468,3056 l -47,193 -2977,0 -2977,0 -11,-42 c -88,-342 -166,-592 -270,-873 -466,-1250 -1231,-2456 -1982,-3122 l -108,-96 0,-1018 0,-1019 -90,0 c -71,0 -90,3 -90,14 0,15 -10,20 -70,31 -60,12 -92,35 -198,139 -110,108 -136,148 -176,272 -114,352 -167,972 -196,2306 -6,252 -15,480 -20,508 -10,52 -19,203 -45,715 -21,410 -50,772 -95,1180 -32,291 -40,418 -50,830 -8,313 -17,460 -45,745 -19,195 -93,960 -165,1700 -72,740 -142,1464 -156,1610 l -26,265 -31,32 c -27,29 -31,41 -40,132 -10,97 -10,101 16,158 105,235 372,941 421,1113 153,536 190,1198 110,1980 -61,600 -211,1330 -424,2055 -54,186 -58,205 -53,275 5,72 2,86 -66,308 -39,127 -71,236 -71,241 0,12 181,86 350,142 150,49 322,95 470,124 47,10 199,55 338,101 139,46 262,84 273,84 20,0 26,-24 9,-35 -20,-13 -90,-145 -90,-171 0,-15 5,-42 12,-61 11,-29 10,-35 -13,-59 -13,-15 -60,-53 -104,-86 -88,-65 -335,-293 -335,-310 0,-5 10,-23 21,-40 19,-27 20,-33 9,-73 l -12,-45 53,-58 c 30,-32 65,-75 79,-95 14,-21 34,-39 45,-42 33,-7 197,-25 232,-25 45,0 92,45 152,143 64,107 175,330 196,394 15,46 23,55 94,101 93,61 111,90 104,172 l -5,55 129,62 c 70,34 236,126 368,204 183,108 254,145 300,155 77,17 311,29 396,20 l 66,-7 111,-103 c 305,-284 560,-484 719,-565 34,-17 111,-44 170,-60 203,-56 494,-161 928,-335 l 240,-95 395,-60 c 218,-33 515,-72 660,-86 l 265,-27 148,22 c 82,12 185,20 230,19 45,-1 244,3 442,9 297,9 390,15 531,36 183,28 316,53 443,86 44,11 85,20 93,20 7,0 41,-40 76,-89 158,-225 322,-312 618,-331 382,-23 719,74 1039,300 313,221 447,306 604,384 219,109 365,149 546,148 179,0 291,-35 438,-134 71,-48 216,-194 222,-223 2,-11 11,-60 20,-109 20,-110 35,-140 85,-168 36,-21 40,-27 40,-62 0,-22 -9,-87 -20,-145 -18,-97 -44,-427 -34,-443 2,-3 22,-9 45,-13 35,-6 43,-13 61,-50 l 21,-42 81,-7 c 44,-3 101,-8 126,-12 45,-6 47,-5 150,75 57,45 109,89 114,98 5,10 9,41 8,71 -2,86 -85,392 -140,515 l -25,58 22,89 c 28,107 23,139 -27,180 -20,17 -51,56 -68,88 -35,63 -82,102 -124,102 -22,0 -37,12 -71,58 -58,76 -191,209 -261,260 -315,230 -679,258 -1115,86 -195,-77 -237,-100 -720,-391 -220.843,-138.52 -432.419,-252.266 -771,-350 -117,-43 -264,-25 -388,46 -60,35 -164,127 -164,146 0,22 198,91 441,154 260,67 598,178 664,218 222,134 502,351 554,429 36,55 38,82 10,144 -40,89 -59,103 -239,191 -139,67 -170,86 -170,103 0,12 -3,31 -6,44 -6,19 -3,22 24,22 17,0 141,-20 274,-44 z m -3001,-212 c 102,-13 198,-24 213,-24 18,0 26,-5 24,-13 -2,-8 -50,-58 -107,-111 -210,-195 -385,-400 -523,-610 -43,-66 -78,-123 -78,-128 0,-4 -7,-8 -14,-8 -9,0 -49,68 -101,171 -47,95 -98,192 -112,218 -81,140 -153,258 -219,354 -41,59 -74,112 -74,117 0,6 59,10 148,10 113,1 186,7 317,29 197,32 247,32 526,-5 z m 849,-125 c 105,-50 184,-158 197,-270 l 6,-54 -77,101 c -86,115 -125,139 -235,151 -65,6 -128,-11 -183,-49 -19.806,-15.459 -73.112,2.41 -85,21 -11,17 -7,25 33,60 63,55 112,71 209,68 62,-2 92,-8 135,-28 z m -6460,-12 c 0,-13 -90,-47 -123,-47 -38,0 -14,28 36,42 67,20 87,21 87,5 z m 3920,-7 c 89,-26 188,-127 220,-225 23,-67 17,-166 -13,-222 -58.21,-122.572 -117.114,-52.753 -86,8 44,88 5,214 -108,347 -28,32 -28,32 -83,22 -76,-14 -274,-39 -278,-36 -1,2 9,18 24,35 65,78 200,107 324,71 z m -4065,-85 40,-25 -45,6 c -25,3 -74,0 -109,-6 -35,-6 -65,-10 -67,-8 -2,2 15,16 38,31 52,34 92,34 143,2 z m 6125,-29 c 0,-8 -7,-42 -16,-76 -51,-201 123,-438 336,-457 l 62,-6 119,-141 c 65,-78 119,-148 119,-157 0,-12 -25,-21 -97,-38 -138,-32 -354,-67 -520,-85 -176,-20 -683,-23 -683,-4 0,15 120,244 228,433 165,290 306,486 380,525 44,23 72,25 72,6 z m 437,-47 c 46,-16 191,-214 376,-514 107,-174 199,-290 291,-366 111,-92 265,-159 366,-159 149.629,-9.842 413.848,108.291 550,162 125,49 197,89 625,348 336,204 556,302 781,347 129,25 342,23 449,-6 103,-27 231,-89 315,-151 68,-51 229,-210 249,-248 10,-19 7,-21 -32,-27 -59,-10 -116,-41 -135,-75 l -16,-28 -76,72 c -121,115 -217,175 -357,222 -105,35 -296,44 -425,20 -211,-40 -456,-153 -727,-335 -47,-32 -158,-109 -246,-171 -233,-163 -400,-239 -645,-291 -86,-19 -138,-23 -290,-23 -208,-1 -280,11 -405,69 -99,45 -163,100 -236,202 -99,138 -248,320 -443,542 -169,193 -179,207 -183,250 -5,57 16,99 72,140 43,33 89,39 142,20 z m -6534,-13 c 18,-7 39,-22 49,-32 21,-25 72,-218 64,-248 -5,-20 -89,-86 -109,-86 -3,0 -13,24 -21,53 -18,62 -85,143 -133,164 -40,16 -96,9 -135,-19 -27,-18 -27,-18 -38,2 -6,11 -8,31 -4,43 8,28 61,84 96,103 64,33 177,43 231,20 z m 135,-51 c -2,-12 -7,-7 -15,16 -12,30 -11,32 3,17 9,-8 14,-23 12,-33 z m -252,-202 c 82,-100 73,-161 -60,-428 -53,-104 -106,-203 -118,-218 l -23,-29 -50,39 c -28,21 -80,58 -117,82 l -68,43 -66,-41 c -37,-23 -68,-40 -71,-38 -2,3 5,46 17,98 11,51 20,98 20,103 0,6 -17,-7 -38,-27 l -38,-37 -17,29 -17,29 118,109 c 64,60 151,134 192,165 41,30 89,69 105,86 17,16 53,44 80,61 70,45 98,40 151,-26 z m 12532,-355 c 589,-352 1405,-847 1572,-953 19,-13 96,-60 170,-105 1167,-717 2136,-1358 2460,-1630 130,-108 205,-221 289,-430 147,-370 223,-768 376,-1970 144,-1138 223,-1612 346,-2069 93,-344 163,-530 344,-901 136,-281 215,-469 279,-665 114,-353 163,-683 136,-925 -15,-139 -24,-176 -76,-300 -24,-58 -87,-217 -140,-355 -105,-275 -190,-439 -509,-990 -736,-1268 -1325,-2030 -1665,-2154 -20,-8 -116,-17 -220,-21 -102,-5 -252,-12 -335,-15 l -150,-7 -185,57 c -494,151 -848,284 -1116,418 -334,167 -538,385 -605,644 -34,133 -28,197 62,655 305,1567 612,2820 841,3437 192.342,372.162 287.803,716.097 403,1076 46,143 122,379 168,525 47,146 172,533 277,860 105,327 245,762 310,965 66,204 175,543 243,755 85,263 120,387 113,392 -7,4 -25,8 -40,10 l -29,3 -577,-1795 c -435,-1353 -581,-1796 -594,-1798 -176.378,197.23 -380.018,272.474 -592,338 -635,196 -749,251 -949,460 -71,75 -64,70 -890,608 -57,38 -101,60 -103,53 -17,-50 -56,29 -226,456 -247,620 -308,804 -365,1088 -61,306 -80,537 -81,950 0,497 44,944 150,1523 70,382 211,956 325,1327 43,140 46,155 40,224 -7,72 -5,83 56,283 53,176 66,208 82,208 10,0 193,-104 405,-232 z m -14177,70 c 88,-286 89,-289 89,-387 0,-83 6,-113 49,-260 483,-1622 597,-3035 325,-4027 -72,-266 -477,-1294 -509,-1294 -7,0 -15,5 -17,11 -2,6 -91,-46 -198,-117 -107,-70 -312,-204 -455,-297 -224,-145 -276,-184 -371,-276 -124,-121 -165,-152 -279,-208 -112,-56 -240,-103 -455,-168 -286,-87 -417,-132 -520,-183 -78,-38 -110,-60 -178,-129 -46,-46 -87,-83 -91,-83 -4,0 -30,71 -58,158 -57,174 -194,600 -331,1027 -274,851 -443,1377 -541,1683 -49,152 -122,379 -162,503 l -72,226 -36,-9 c -20,-6 -38,-12 -39,-13 -2,-2 87,-286 198,-632 112,-345 226,-702 255,-793 30,-91 94,-291 143,-445 361,-1123 539,-1675 568,-1765 19,-58 41,-145 49,-193 21,-120 94,-308 158,-403 74,-109 227,-531 347,-954 195,-686 408,-1614 630,-2745 110,-562 109,-555 86,-686 -48,-268 -244,-497 -578,-674 -246,-130 -656,-284 -1171,-441 l -180,-54 -276,15 c -152,8 -303,16 -337,18 -240,11 -626,419 -1159,1222 -278,419 -506,797 -795,1315 -197,354 -195,350 -322,678 -60,158 -119,303 -129,324 -75,147 -89,499 -33,796 65,341 199,702 437,1177 178,355 297,740 411,1320 73,378 122,709 231,1575 111,882 171,1246 264,1605 88,337 197,567 333,704 53,53 350,280 528,403 494,341 1322,870 2315,1480 834,512 1807,1096 1827,1097 13,1 24,-23 49,-101 z m 12474,-109 c 11,-17 2,-18 -25,-4 -24,14 -24,14 -3,15 12,0 25,-5 28,-11 z m -210,-39 c -20,-16 -53,-50 -73,-76 -41,-52 -52,-44 -28,21 21,54 58,80 120,84 14,1 8,-7 -19,-29 z m 194,-37 c 25,-14 72,-44 104,-65 53,-36 57,-42 57,-77 0,-32 -15,-97 -26,-110 -2,-2 -15,6 -31,17 -41,28 -89,42 -165,44 -64,3 -68,2 -103,-32 -19,-19 -40,-51 -46,-72 -11,-42 -12,-42 -39,-28 -46,25 -46,140 0,214 21,35 95,108 125,124 33,19 76,13 124,-15 z m -11383,1 c -3,-9 -9,-33 -12,-55 -8,-46 -17,-55 -34,-34 -14,17 -6,62 17,88 20,21 37,22 29,1 z m 192,-101 c 31,-21 59,-38 60,-39 2,-2 -9,-25 -25,-53 -27,-48 -30,-51 -68,-50 -65,2 -85,12 -118,57 -27,36 -29,45 -17,52 8,5 35,22 60,39 25,16 46,30 48,30 1,1 28,-16 60,-36 z m 132,-92 c 29,-25 32,-31 21,-45 -15,-18 -121,-23 -121,-7 0,18 42,81 53,81 7,0 28,-13 47,-29 z m 11107,-78 c 53,-25 98,-95 137,-213 38,-114 92,-316 98,-365 3,-29 2,-30 -42,-33 -41,-2 -181,-27 -222,-38 -10,-3 -23,-26 -33,-62 -29,-106 -26,-106 -88,-1 l -57,94 0,-54 0,-53 -32,6 c -17,3 -33,8 -36,10 -8,9 20,342 34,404 8,35 17,95 20,135 8,97 22,147 47,176 20,21 28,23 80,17 32,-3 75,-13 94,-23 z m 243,-656 c 0,-15 -14,-34 -42,-55 -47,-36 -48,-36 -62,41 l -7,37 56,0 c 51,0 55,-2 55,-23 z m -127,-1 c 3,-7 8,-34 12,-59 7,-44 6,-45 -39,-79 -44,-34 -47,-35 -98,-26 -29,5 -54,11 -56,13 -2,2 5,34 16,72 l 19,68 54,11 c 74,16 86,16 92,0 z m -269,-90 c 31,-54 32,-56 5,-56 -21,0 -49,51 -49,90 0,29 13,18 44,-34 z m -2469,-9293 c 265,-1033 831,-2200 1500,-3092 210,-280 332,-420 587,-674 l 238,-238 0,-995 0,-994 -5260,0 -5260,0 0,1024 0,1025 48,43 c 26,24 109,104 186,178 894,872 1756,2435 2106,3818 l 11,42 2905,-2 2906,-3 z m 5325,-2256 c 51,-76 183,-203 284,-274 244,-172 744,-375 1440,-583 l 139,-42 191,11 c 105,6 243,14 306,16 63,3 137,8 164,12 48,5 49,5 44,-20 -3,-14 -146,-293 -319,-621 l -314,-595 -50,-5 c -244.477,-7.8371 -400.26,-74.3558 -615,-9 -516,153 -957,330 -1171,468 -249,161 -391,400 -391,659 0,89 7,128 56,331 112,457 179,705 190,705 6,0 27,-24 46,-53 z m -16516,-492 119,-476 -5,-107 c -6,-126 -37,-232 -95,-331 -50,-84 -185,-226 -270,-283 -217,-146 -618,-310 -1158,-475 l -150,-45 -180,16 c -99,9 -223,19 -276,22 l -96,7 -148,281 c -157,297 -241,456 -399,753 -53,99 -96,189 -96,198 0,14 6,16 28,11 15,-4 115,-11 222,-16 108,-6 256,-14 330,-18 l 135,-8 195,59 c 627,189 1109,382 1350,542 106,70 218,172 288,261 36,46 71,84 77,84 5,0 64,-214 129,-475 z m 2906,-3310 c 0,-13 601,-15 5350,-15 4749,0 5350,2 5350,15 0,12 18,15 101,15 l 102,0 -7,-47 c -80,-582 -133,-1194 -149,-1723 l -2,-75 -5432,-3 -5432,-2 -5,42 c -2,24 -14,167 -26,318 -35,449 -98,963 -166,1340 -13,74 -24,138 -24,143 0,4 77,7 170,7 144,0 170,-2 170,-15 z"
       id="path196" />
  </g>
</svg>
