<?xml version="1.0" encoding="UTF-8" standalone="no"?>
<!-- Created with Inkscape (http://www.inkscape.org/) -->

<svg
   xmlns:dc="http://purl.org/dc/elements/1.1/"
   xmlns:cc="http://creativecommons.org/ns#"
   xmlns:rdf="http://www.w3.org/1999/02/22-rdf-syntax-ns#"
   xmlns:svg="http://www.w3.org/2000/svg"
   xmlns="http://www.w3.org/2000/svg"
   version="1.0"
   width="300pt"
   height="200pt"
   viewBox="0 0 7500 3306"
   id="svg3227">
  <defs
     id="defs3321" />
  <metadata
     id="metadata3229">
Created by potrace 1.10, written by Peter Selinger 2001-2011
<rdf:RDF>
  <cc:Work
     rdf:about="">
    <dc:format>image/svg+xml</dc:format>
    <dc:type
       rdf:resource="http://purl.org/dc/dcmitype/StillImage" />
    <dc:title></dc:title>
  </cc:Work>
</rdf:RDF>
</metadata>
  <path
     d="m 5709.2967,-141.99101 c -1.0228,0.38357 -3.1964,1.91784 -4.8585,3.32425 -2.8128,2.55712 -2.9407,2.55712 -7.6713,0.38357 -17.1327,-8.31063 -32.859,-1.66212 -59.7087,25.31546 -12.2742,12.40201 -53.5716,52.293032 -124.7873,120.4401823 -103.4354,99.0882677 -99.0883,94.6133077 -108.8053,110.4674377 -64.3115,104.07464 -111.4903,270.0315 -133.2258,468.59163 -6.2649,57.5351 -8.822,92.3119 -8.5663,116.988 0.7671,58.558 0.6393,62.6494 -2.3014,75.435 -3.9635,17.5162 -3.7078,33.1146 0.6393,40.5303 4.3471,7.5435 5.6256,6.3928 -22.5027,20.3291 -29.4068,14.4477 -26.8497,12.5298 -22.5026,17.0048 l 3.4521,3.5799 -16.3655,3.4521 c -60.6037,12.9135 -141.025,35.0325 -206.8707,56.768 -14.7035,4.9864 -32.859,10.2285 -40.2746,11.7628 -64.4394,13.1691 -125.6823,38.7403 -166.4683,69.42568 -5.2421,3.9635 -31.3247,20.3291 -58.0466,36.4389 -74.412,44.8774 -173.6282,105.7368 -215.9484,132.2029 -179.1261,112.3853 -265.3009,171.8382 -284.4793,196.003 -33.4982,42.576 -48.9687,106.7596 -74.1563,307.4933 -26.4662,211.4735 -42.576,280.6435 -85.4077,366.3069 -51.0145,102.2847 -68.5307,193.5737 -46.9231,245.0996 1.9178,4.475 9.5892,23.909 17.1327,43.2153 17.3884,44.3659 16.1098,41.681 34.0096,74.2842 91.9284,167.619 179.5096,292.9177 230.3962,329.4845 7.2878,5.2421 3.0686,-2.3014 63.8001,112.7688 14.5755,27.7447 29.279,55.3616 32.4753,61.3708 l 5.7536,10.8678 12.1463,0.8949 c 6.6485,0.3836 24.0369,1.79 38.6124,3.0686 30.6854,2.685 24.6762,3.5799 72.6221,-11.7628 105.6089,-34.1375 148.9521,-60.4758 168.514,-102.796 14.5756,-31.3247 14.192,-38.9961 -7.1599,-123.8923 l -16.877,-66.9965 3.3243,-10.3563 c 7.7992,-23.7812 7.4156,-26.9776 -15.5984,-141.4085 -47.3067,-235.2548 -85.0242,-373.4669 -121.5909,-444.9383 -19.562,-38.2289 -21.4798,-62.0101 -5.4978,-70.065 10.7399,-5.37 105.481,-46.5395 118.2666,-51.3981 29.9183,-11.1234 45.5167,-20.7126 64.8229,-39.7631 10.4842,-10.3563 18.0277,-16.2377 34.1375,-26.7219 11.3792,-7.4156 31.7083,-20.7126 45.261,-29.5347 13.4248,-8.9499 24.804,-15.5984 25.3154,-15.087 0.3836,0.6393 6.6485,-2.0457 13.9363,-5.8813 15.3427,-8.0549 14.0642,-7.6714 14.0642,-4.8586 0,1.1507 1.7899,4.0914 4.0913,6.3928 l 3.9636,4.0914 10.1006,103.3075 c 41.4253,428.8285 39.1239,402.2345 39.891,449.1575 0.895,46.5396 1.6621,60.7316 6.5206,105.4811 6.5207,59.9644 9.5892,100.7504 13.4249,178.3589 1.4064,28.5118 3.1964,54.3387 3.8357,57.5351 0.6393,3.1964 1.79,30.4297 2.5571,60.7315 4.0914,176.5689 10.1006,249.7024 24.4205,299.8219 6.3927,22.1191 9.8449,28.0004 26.0825,44.366 9.9728,9.9727 13.6806,14.4477 12.0185,14.4477 -3.1964,0 -3.3243,-1.79 3.1964,37.206 10.9956,64.6951 18.2834,127.3444 22.5026,189.7381 0.7672,11.2513 1.6621,24.0369 2.0457,28.384 l 0.7671,8.0549 706.9149,0 706.9149,0 0,-4.8585 c 0,-46.4117 8.5663,-156.112 17.2605,-221.4463 3.9635,-29.9183 3.58,-28.2561 9.717,-31.964 38.3568,-23.5254 51.0145,-99.4718 56.1287,-336.2608 0.895,-38.7403 2.0457,-67.2521 3.1964,-76.0742 1.0229,-7.7992 2.685,-33.6261 3.8357,-57.5351 3.1964,-68.9143 6.3928,-112.5131 13.4249,-178.9982 6.0092,-56.0008 6.7763,-75.3071 7.032,-176.441 l 0.3836,-94.6133 13.6806,-139.3629 c 7.4156,-76.7135 16.6212,-171.4546 20.4569,-210.8342 3.8357,-39.2518 7.1599,-71.7271 7.5435,-71.9829 0.3836,-0.3835 2.685,0.5115 5.1142,1.9179 2.685,1.6621 4.6029,2.0457 4.8586,1.2785 1.1507,-3.1964 92.6954,58.558 104.3303,70.3207 18.9227,19.1784 31.8361,27.489 61.3708,39.1239 9.9728,3.9636 34.3932,14.3199 54.2109,23.0141 83.362,36.5667 75.3071,32.2196 77.7363,41.1695 4.2193,14.9592 0,31.069 -16.6212,63.6722 -38.3568,74.7957 -84.6406,252.6432 -135.6551,521.7797 -6.137,32.0918 -5.7535,44.7495 2.0457,64.8229 1.79,4.6028 1.4064,6.7763 -14.9591,71.5992 l -16.877,66.8686 0,15.3427 c 0,69.0422 52.0373,107.9103 205.7201,154.1942 l 17.8998,5.3699 17.2605,-1.6621 c 9.4613,-0.7672 26.8497,-2.3014 38.7403,-3.1964 11.7628,-0.7672 21.6077,-1.79 21.8634,-2.0457 0.6392,-0.6393 16.1098,-30.0461 51.9094,-97.6819 16.3656,-30.9411 32.7311,-62.01 36.4389,-69.0421 5.8814,-10.9956 7.9271,-13.5527 14.3199,-18.1555 50.7588,-36.8225 139.7464,-164.8062 233.0812,-335.4937 13.4248,-24.4205 33.7539,-72.6221 49.3523,-116.3488 18.9227,-53.188 1.0229,-140.8971 -49.4802,-241.6475 -42.9596,-86.047 -58.1744,-153.0435 -87.4534,-387.2753 -22.3747,-178.9982 -38.996,-244.3325 -72.7499,-286.9085 -23.2698,-29.1511 -208.7886,-150.9977 -468.2081,-307.3654 -14.5755,-8.8221 -29.4068,-18.9227 -34.521,-23.3976 -24.6762,-21.86338 -52.4209,-38.99598 -87.4534,-53.69948 -10.2285,-4.3471 -20.8405,-9.0777 -23.6534,-10.4841 -2.8128,-1.5343 -6.5206,-2.8129 -8.3106,-2.9407 -1.79,0 -12.402,-2.8129 -23.6533,-6.1371 -11.2513,-3.3243 -31.7083,-8.3106 -45.3888,-10.9956 -13.6806,-2.8128 -29.279,-6.5207 -34.5211,-8.3106 -78.5035,-26.9776 -205.3365,-58.4301 -301.6119,-74.7957 -18.9227,-3.1964 -17.3884,-2.4293 -19.8176,-9.9727 l -2.0457,-6.1371 6.6485,-14.5756 6.7763,-14.7034 0,-68.4029 c -0.1278,-75.3071 -0.895,-85.9191 -9.717,-138.7235 -23.2698,-139.10718 -87.9648,-323.60314 -175.9296,-502.089868 l -10.4842,-21.47978 -33.6261,-34.1375 c -105.2253,-107.52675 -127.2165,-128.49511 -159.8198,-153.043432 -20.3291,-15.21484 -31.9639,-23.1419 -35.1603,-23.90903 -5.2421,-1.15071 -22.8862,-1.40642 -25.9548,-0.25572 z m 23.1419,11.76274 c 2.9407,0.63928 15.7263,9.46133 36.0554,25.05974 l 31.5804,23.909042 70.065,71.21569 c 92.0562,93.46261 82.3391,82.46701 95.3804,108.5496 65.9736,131.947208 127.3444,294.963388 156.7513,416.298568 20.8404,85.79125 25.5711,126.19365 25.5711,217.99415 l 0,63.1608 -7.1599,16.1098 -7.0321,15.982 3.9635,10.1006 c 2.4293,6.5207 4.475,14.5756 5.37,22.6305 l 1.4064,12.5299 24.1648,11.507 c 30.1739,14.5756 29.9182,13.8084 6.9042,24.2926 -279.1093,127.21658 -608.8495,123.12518 -888.7259,-11.2513 l -19.1783,-9.2056 -15.5984,-15.4706 c -8.6942,-8.5663 -15.7263,-16.2377 -15.7263,-17.1327 0,-0.8949 10.612,-7.032 23.6533,-13.4248 l 23.6533,-11.8906 -5.8813,-9.5892 -5.7535,-9.5892 0.5114,-14.7034 c 0.2557,-8.0549 1.5343,-19.9455 2.685,-26.2104 2.6849,-13.8085 3.0685,-39.7632 0.8949,-52.5488 -1.6621,-9.5892 1.0229,-61.3708 3.58,-70.3207 0.6393,-2.1735 0.895,-5.3699 0.5114,-7.1599 -1.2785,-6.3928 8.0549,-88.09269 15.5984,-137.8286 24.1648,-158.79694 64.3115,-286.78062 117.7553,-375.64042 l 10.2284,-16.87696 102.924,-98.704698 c 56.5122,-54.21087 108.8053,-104.71392 116.2209,-112.257422 33.7539,-34.1375 42.3203,-35.79963 71.855,-13.16914 l 7.4156,5.62565 -3.8357,-8.56634 c -6.5206,-14.57556 -3.4521,-17.51625 14.192,-13.42486 z m 446.4726,988.45339 c 93.079,16.3655 193.7016,41.2974 280.2599,69.5536 12.0185,3.8356 29.5347,8.5663 38.9961,10.2284 35.0325,6.5207 74.1564,17.772 74.1564,21.3519 0,1.4065 -3.8357,14.9592 -8.4385,30.174 -8.0549,26.59398 -8.4385,28.12828 -7.5435,36.95038 0.7671,8.5663 0.3835,10.4841 -6.9042,35.1603 -64.5672,219.2727 -76.8414,405.5587 -34.7768,532.7752 10.1006,30.3019 49.7359,130.413 58.5579,147.9292 1.1507,2.0457 3.7079,5.2421 5.8814,7.0321 3.7078,3.1964 3.7078,3.3242 2.3014,10.2285 -0.7671,3.8356 -4.3471,37.206 -7.7992,74.1563 -3.58,36.9504 -8.1828,84.6406 -10.2285,106.1204 -2.0456,21.4797 -4.9863,51.398 -6.3927,66.485 -1.5343,15.087 -5.8814,59.7087 -9.8449,99.0883 l -7.16,71.5992 -0.895,106.7596 c -1.0228,108.4218 -1.4064,119.8009 -7.032,171.9661 -6.6485,62.5215 -9.7171,102.6682 -13.4249,177.7196 -1.4064,28.1283 -3.0685,54.3387 -3.8357,58.1744 -0.6392,3.8357 -2.0457,40.6582 -3.1964,81.8277 -5.8813,233.7205 -17.0048,300.7169 -52.9323,321.941 l -5.8813,3.4521 -710.4949,0.3836 c -612.1737,0.2557 -710.6226,0 -710.6226,-1.5343 0,-1.1507 -2.0457,-2.1735 -5.2421,-2.685 -19.3063,-3.3242 -43.471,-29.5346 -51.5259,-55.8729 -14.3199,-46.6674 -20.9684,-130.7966 -24.4205,-304.0412 -0.3836,-21.4798 -1.5343,-45.6445 -2.5571,-53.6994 -1.0228,-8.055 -2.685,-33.3704 -3.8357,-56.2566 -3.4521,-73.645 -7.1599,-122.9973 -14.0641,-187.3088 -3.9635,-37.3339 -5.4978,-61.8822 -6.3928,-109.956 -0.895,-40.4024 -1.5343,-48.0738 -43.2153,-477.5415 l -6.6485,-68.5307 -3.9635,-4.8586 c -2.9407,-3.4521 -4.2193,-6.6485 -4.8585,-11.3791 -1.79,-15.087 -1.1507,-18.5391 7.032,-37.9732 11.2514,-26.8497 39.7632,-101.9011 45.0053,-118.2666 39.1239,-122.2302 26.9776,-310.0504 -33.3704,-515.259 -9.3335,-31.7083 -9.8449,-33.8818 -9.9727,-46.6674 -0.1279,-12.7856 -0.5115,-14.7034 -8.5664,-40.9139 -4.7306,-15.08688 -8.5663,-28.25608 -8.5663,-29.02318 0,-5.37 60.6036,-25.8269 101.6454,-34.3932 9.2056,-1.9179 22.2469,-5.37 29.0232,-7.6714 63.928,-21.9912 141.2807,-43.7267 211.2179,-59.1972 36.9503,-8.1828 31.9639,-8.9499 48.5852,7.4156 l 14.192,13.8084 22.3747,10.9956 c 146.2671,70.96 307.8769,106.63178 472.0437,104.20248 35.1604,-0.5114 36.439,-0.6393 47.6903,-4.0914 9.717,-3.0685 14.192,-3.7078 29.0232,-4.0913 11.6349,-0.2558 19.6898,-1.0229 24.2926,-2.4293 4.2193,-1.4064 13.1692,-2.42928 24.0369,-2.81278 11.6349,-0.3836 20.2013,-1.5343 26.2105,-3.1964 6.2649,-1.79 15.7263,-2.8129 31.3247,-3.58 23.1419,-1.1507 25.8268,-1.5343 67.7635,-12.1463 38.1011,-9.4613 83.7456,-24.1647 120.1845,-38.3567 28.5119,-11.1235 83.1063,-35.544 83.1063,-37.2061 0,-2.3014 -6.9042,-13.5527 -9.8449,-15.982 -2.0457,-1.6621 -12.6577,-7.4156 -23.6533,-12.6577 -20.7127,-9.8449 -21.4798,-10.4842 -21.4798,-18.2834 0,-4.2192 -1.9178,-4.2192 24.6762,0.3836 z m 475.3679,146.01128 c 300.7169,180.6603 496.7199,307.3654 530.0903,342.6537 32.9868,35.0324 49.7359,100.6225 73.2614,287.0363 28.7675,227.5833 44.7495,299.8219 83.2341,376.6632 57.5351,114.6867 73.7728,198.0487 49.7359,255.3281 -3.4521,8.0549 -7.927,19.3063 -9.9727,24.9319 -18.2834,49.0966 -25.4433,64.0558 -62.0101,127.8558 -96.7869,169.5369 -177.9753,276.8079 -222.3413,293.6849 -4.9864,1.9178 -12.0184,2.6849 -32.2196,3.5799 -14.0642,0.6393 -32.9868,1.5343 -41.8089,2.0457 -18.1555,1.0229 -13.8084,1.9179 -59.9644,-12.5299 -133.4815,-41.8088 -186.1581,-75.1792 -200.6058,-127.3444 -6.137,-22.2469 -5.8813,-23.909 20.3291,-152.1484 46.0281,-225.5377 81.9556,-356.7177 115.7095,-421.5406 14.8313,-28.384 17.6441,-37.2061 17.772,-54.5945 0.1278,-9.717 0.5114,-13.8084 1.6621,-13.8084 0.7671,0 18.667,7.5435 39.6353,16.7491 20.9684,9.2056 45.9003,20.0734 55.3616,24.1648 9.4613,4.2192 46.0281,20.2012 81.1884,35.6717 66.8686,29.4069 67.1243,29.5347 67.1243,22.5027 0,-0.7672 -44.1102,-20.8405 -98.0654,-44.4939 -168.7697,-74.0285 -150.3584,-65.2064 -161.4819,-76.5856 -12.7856,-12.7856 -28.7675,-20.7127 -64.5672,-31.7083 -81.1884,-25.0597 -91.6726,-29.9182 -117.4995,-54.978 -12.402,-11.8905 -19.8176,-17.6441 -37.8453,-29.4068 -12.2742,-8.0549 -38.101,-24.804 -57.4073,-37.3339 -24.0369,-15.7263 -35.2882,-22.3748 -36.0553,-21.3519 -3.3243,5.4978 -19.9455,-32.2197 -54.978,-125.6823 -49.7359,-132.9701 -40.5303,-320.2788 27.2333,-549.5243 7.0321,-24.1648 7.6713,-27.1055 7.5435,-37.4618 -0.2557,-10.3563 0.2557,-13.1691 7.4156,-36.82248 4.3471,-14.0641 7.7992,-25.8268 7.7992,-26.2104 0,-2.0457 9.5892,3.3242 71.7271,40.65808 z M 4848.0599,986.97592 c 0.3836,1.2786 3.8357,12.9134 7.7992,25.95468 7.0321,22.7584 7.2878,24.0369 6.5207,34.2654 -0.3836,6.1371 -0.1279,12.1463 0.6392,14.0641 14.5756,37.9732 43.9824,164.2948 54.083,232.3141 21.352,144.2213 14.5756,248.6796 -22.6304,348.0235 -33.4983,88.9877 -48.5852,123.5088 -51.9095,118.1388 -0.6393,-1.0228 -10.1006,4.3471 -29.6626,17.1327 -88.7319,57.7908 -86.6862,56.5123 -101.5175,70.8321 -25.0597,24.4205 -37.9732,30.8133 -101.0061,49.9916 -53.6994,16.3656 -66.8686,22.3748 -82.2113,37.9732 l -9.2056,9.3335 -82.2113,35.9275 c -45.1331,19.8176 -99.0883,43.471 -119.8009,52.6766 -20.7126,9.0778 -40.1467,17.6441 -43.2153,18.9227 -5.3699,2.3014 -5.8813,4.2192 -2.1735,8.5663 0.3836,0.3836 14.8313,-5.7535 59.4529,-25.3155 101.7733,-44.8774 180.7882,-79.2706 181.5553,-79.2706 0.5114,0 1.2786,6.1371 1.5343,13.6806 0.6393,18.2834 3.5799,26.9776 19.0505,57.2794 36.5668,71.5993 78.887,232.5698 128.2394,487.0028 12.5299,64.4394 12.6577,74.1564 1.4064,98.5769 -21.6076,46.9231 -76.0742,76.9692 -217.9942,120.3123 l -19.8176,6.0092 -19.8177,-0.8949 c -10.8677,-0.5115 -30.174,-1.4065 -42.9595,-1.9179 -22.3748,-0.895 -23.3977,-1.0228 -31.964,-5.1142 -44.4938,-20.8405 -121.7187,-122.7416 -211.7292,-279.4929 -42.0646,-73.1335 -47.1788,-83.1062 -63.6722,-125.6822 -8.4385,-21.6077 -16.6213,-42.7039 -18.4113,-46.9231 -20.3291,-49.7359 -2.4292,-137.9565 49.3524,-241.3918 41.1695,-82.467 57.1515,-152.2763 84.7684,-371.0376 28.384,-224.1313 43.3431,-275.4015 92.0562,-314.3975 23.3976,-18.7948 103.5632,-74.0285 151.7648,-104.4582 5.1143,-3.3243 22.247,-14.3199 38.1011,-24.4205 25.5711,-16.3655 80.677,-50.8866 132.3308,-82.8505 97.6818,-60.4758 256.4787,-155.85628 259.803,-155.85628 1.5343,-0.1278 3.0685,0.7671 3.4521,2.0457 z M 6768.1987,2614.5806 c 25.9547,38.8681 87.5812,69.9371 215.5649,108.5496 l 23.2698,7.032 22.7583,-1.4064 c 12.402,-0.7671 31.5804,-1.9178 42.4481,-2.5571 10.8678,-0.6393 21.0962,-1.5343 22.7584,-1.9178 6.2649,-1.9179 7.2877,-4.0914 -60.6037,124.0201 l -18.2834,34.5211 -8.0549,0.895 c -16.3655,1.7899 -52.9323,4.8585 -58.8137,4.8585 -15.8541,0 -105.6089,-31.1968 -143.0706,-49.7359 -49.4802,-24.5483 -72.6222,-53.4438 -74.9236,-94.2298 l -0.7671,-12.9134 15.2149,-60.8594 c 16.4934,-66.3572 16.2376,-65.7179 22.5026,-56.2565 z m -2084.4335,73.9006 c 14.3198,56.6402 14.5755,57.7909 14.5755,72.2386 0.1279,49.8637 -30.6854,82.7227 -105.2253,112.5131 -28.0004,11.2513 -81.4442,29.279 -105.0975,35.5439 -3.58,1.0229 -11.6349,0.6393 -29.4068,-1.1507 -13.5528,-1.2786 -28.0005,-2.4293 -31.964,-2.4293 -12.9134,0 -9.5892,4.9864 -53.8273,-79.1427 -22.2469,-42.1924 -40.5303,-77.6085 -40.5303,-78.7592 0,-1.79 1.0228,-2.0457 6.7764,-1.4064 3.5799,0.5114 18.4112,1.4064 32.8589,2.0457 14.4477,0.7671 31.964,1.6621 38.996,2.0457 14.4477,0.7671 27.2333,-2.5571 86.942,-22.6305 93.079,-31.3247 138.2121,-56.6401 163.144,-91.2891 7.16,-9.9727 6.6485,-10.8677 22.7584,52.4209 z m 1765.3053,427.2942 c -1.0228,4.8585 -6.6485,49.3523 -9.0777,71.3435 -2.9407,27.489 -6.7764,75.0514 -8.3107,104.8418 -0.6392,14.7034 -1.6621,33.3704 -2.0456,41.1696 l -0.7672,14.4477 -694.5128,0 -694.6407,0 -1.5343,-23.3976 c -4.0914,-59.9644 -11.7627,-125.4266 -21.9912,-186.5417 -2.0457,-12.402 -3.7078,-23.1419 -3.7078,-23.909 0,-1.0228 198.1765,-1.4064 718.6776,-1.4064 l 718.6776,0 -0.7672,3.4521 z"
     id="path3269"
     style="fill:#000000;stroke:none" />
  <g
     transform="matrix(1.3768175,0,0,1.3768175,-173.06409,-685.84347)"
     id="g3305">
    <path
       d="m 1625.6,290 c -1.6,0.5 -3.9,1.9 -5.2,3.1 -2.3,2.2 -2.3,2.2 -6.1,0.3 -13.6,-6.6 -31.7,-0.3 -51.1,18.1 -3.7,3.4 -38.6,33.6 -77.7,67 -39,33.4 -89.4,76.5 -112,95.8 l -41,35.1 -42.9,47.3 -43,47.3 -8.8,16.7 c -15.7,29.8 -26.2,54.8 -31,74 l -4.2,16.8 1.6,15.5 1.6,15.5 -5.3,8 c -39.3,59.7 -23.4,120 43.3,164.1 6.9,4.5 7.3,5 6.8,7.9 -1.7,9.4 -1.8,28.4 -0.2,38 2.9,17.1 1.9,41.6 -2.4,56.5 -1.7,6 -0.1,21.8 2.7,26.7 l 2.4,4.2 -2.3,1.2 c -1.2,0.7 -5.9,1.8 -10.3,2.6 -23.6,4 -30.6,6.8 -56.7,22.5 l -19.7,11.9 -22.8,6 c -36.9,9.7 -80.8,22.9 -108.1,32.4 -5.7,2 -14.5,4.4 -19.6,5.5 -51.7,10.6 -96.6,29 -130.9,53.6 -6.4,4.7 -24.7,16.3 -40.5,25.8 -53.6,32.3 -104.5,63.3 -134.7,82.1 -5.5,3.4 -15.8,9.8 -23,14.2 -116,71.4 -213.1,136.9 -234,157.8 -29,29 -43.7,83.4 -62,230.5 -22.7,181.9 -33.6,230 -68.5,302 -31.6,65.3 -43.4,105.9 -43.5,149.5 0,26.1 0.8,29.7 12.3,58 2.3,5.5 7.8,19.4 12.2,30.8 8.2,21.3 17.3,39.1 42.3,82.7 64.6,113 121.3,191.7 158.9,220.9 5.9,4.6 7.4,6.5 12.1,15.4 3,5.6 12.7,23.9 21.5,40.7 8.9,16.8 23,43.5 31.5,59.5 l 15.3,29 7.4,0.7 c 4.1,0.4 17.9,1.7 30.6,2.8 l 23.1,2 17.9,-5.5 c 117.3,-36.1 154.9,-64.1 157,-117.5 l 0.5,-11.5 -13.4,-53.3 -13.5,-53.3 2.4,-6.7 c 6.4,-18.6 6.4,-19.7 -6.8,-86.2 -37.4,-189.9 -70.3,-314.7 -96.4,-366.1 -7.4,-14.6 -16.8,-43.7 -16,-49.6 2.5,-18.5 15.7,-26.6 71.1,-43.4 47.3,-14.5 59.6,-20.7 79.5,-40.4 9.9,-9.8 81.6,-58.4 83.1,-56.3 0.5,0.8 16.5,-6.9 19.6,-9.4 0.8,-0.6 1.3,-0.2 1.8,1.4 0.4,1.3 2,3.6 3.5,5.3 l 2.8,3 7.1,74.5 c 4,41 8.5,88 10.2,104.5 5.5,57.1 16.9,175.1 18.8,195.5 1.1,11.6 2.2,33.9 2.6,51.5 0.7,36.8 1.7,54.3 5,84.5 5.3,48.8 8.2,88.5 11,147 0.9,17.9 2.2,37.7 3,44 0.7,6.3 1.6,26.1 2,44 2.4,132.2 8,199.6 19.6,237.5 4.9,15.8 7.8,20.6 20.1,33 9.1,9.1 10.6,11.1 8.9,11.3 -1.2,0.2 -2.1,0.5 -2.1,0.7 0,0.2 1.6,9.1 3.5,19.9 9.3,52.7 20.4,150.7 20.5,181.8 l 0,2.8 553.3,0 553.3,0 0.2,-12.3 c 0.9,-45.4 5.4,-103.3 12.3,-157.2 3.8,-29.8 3.5,-28.8 8.6,-32.2 29.5,-19.8 39.6,-77.8 43.3,-249.3 1.1,-52.5 1.6,-64.9 3,-73.5 0.5,-3.3 1.6,-20.4 2.5,-38 2.6,-54.8 5.5,-95.9 9.6,-134 6,-56.2 6.9,-78 6.9,-160.6 l 0,-60.6 6.5,-67.4 c 10.5,-108.1 13.2,-135.7 19.6,-202.4 6.8,-70.8 6.5,-69.4 12.9,-63.5 3.9,3.7 22.7,13.4 23.2,12 0.9,-2.5 70.2,44.5 80.8,54.8 22,21.3 33.3,27.1 83.2,42.3 52.5,16 65.4,23.8 68.7,41.5 1.3,7 -7.1,33.7 -16.8,53.1 -26.1,52.4 -61.7,189 -97.6,374.8 -3.1,15.9 -6.2,32.3 -7,36.4 -2.6,13.1 -1.8,25.1 2.6,39.2 l 2.1,6.6 -13.1,52.4 c -14.9,59.5 -15.6,64.8 -11.1,82.5 11.2,43.7 54.4,71 161.9,102.5 l 11.3,3.3 19.2,-1.7 c 10.5,-1 23.7,-2 29.4,-2.4 5.6,-0.3 10.9,-1.1 11.6,-1.7 1.4,-1 7.9,-13.2 54.7,-102 l 19.4,-36.8 9,-7.3 c 41.6,-33.6 103,-121.8 174.3,-250.1 14.7,-26.4 17,-31.4 27.2,-57.9 5.1,-13.2 11.1,-28.3 13.3,-33.5 20,-47.4 9.1,-108.2 -36.3,-202 -33.4,-69 -44.5,-118.7 -67,-299 -18.4,-147.7 -32.8,-201 -61.9,-230.1 -25.1,-25 -137.6,-99.2 -309.6,-204.2 -22.8,-13.9 -87.2,-53 -94.5,-57.3 -3,-1.7 -10.3,-6.8 -16.2,-11.2 -37.1,-27.8 -87.1,-48.2 -143,-58.2 -6.4,-1.1 -14.3,-3 -17.5,-4.1 -60.2,-20.9 -162,-46.4 -233.8,-58.4 -19,-3.2 -18.3,-2.9 -20.6,-8.6 l -1.7,-4.6 5.4,-12.3 5.4,-12.3 0,-22.8 0,-22.7 13.1,-12.9 c 51.7,-50.5 105.8,-127.3 114.9,-162.9 4.2,-16.3 1.5,-25.2 -17.9,-59.7 -3.9,-7.1 -7.3,-13.4 -7.4,-14 -0.1,-0.7 -1.6,-3.2 -3.3,-5.7 -1.7,-2.5 -6.2,-9.7 -9.9,-16 -29.5,-49.6 -84.4,-133.9 -107.4,-165 -15.1,-20.5 -91.7,-92.7 -205.9,-194.2 -23.6,-21.1 -65.2,-51.5 -79.3,-58.1 -4.5,-2 -20.8,-3.2 -25.3,-1.7 z m 17.1,10 c 3.5,0 49.2,29.7 60.8,39.5 38.1,32.2 160.1,144.1 195.6,179.5 29.3,29.2 44.9,50.7 99.1,136 30.9,48.7 30,45.6 10,35.6 -34.6,-17.3 -79.7,-37.3 -96.4,-42.7 -9.3,-2.9 -11.7,-3.1 -23.8,-1.5 -21.8,2.9 -52.6,4.8 -76.5,5 l -24,0.1 -21,-6.2 c -11.5,-3.4 -40.3,-11.4 -63.9,-17.8 l -42.9,-11.6 -13.9,-7.5 -13.9,-7.5 -10.7,1.2 c -14.5,1.5 -23.6,4 -36.1,9.8 -18,8.4 -41.3,14.5 -116.1,30.5 -24.5,5.3 -47.6,10.5 -51.5,11.6 -26.7,7.8 -71.9,20.2 -92.7,25.5 -33.8,8.7 -51.5,18.3 -92.1,50 -8.2,6.3 -15.2,11.5 -15.6,11.5 -1,0 -1.5,-3.4 -3.1,-18.7 l -1.1,-10.3 4.2,-16.1 c 4.7,-18.3 16.5,-46 30.5,-72.1 l 7.9,-14.7 41.5,-45.7 41.5,-45.8 101,-86.5 c 55.6,-47.5 105.5,-90.3 111,-95 5.5,-4.7 13.5,-11.8 17.8,-15.8 24.3,-22.7 33.8,-24.2 57.4,-9 7.9,5.1 8,5 3.3,-4.2 -3.5,-7 -2.4,-8.4 5.9,-7.5 2.4,0.2 5.9,0.4 7.8,0.4 z m -9.2,312 c 0.1,1.9 5.2,17.4 11.4,34.4 12,32.8 11.9,32.2 8.2,40.8 l -2,4.8 -12.3,-0.7 c -20.7,-1 -61.2,8.6 -87.8,20.8 -18.7,8.6 -66.2,20.2 -157.5,38.4 -29.1,5.8 -35.6,7.4 -54.5,13.9 -11.8,4 -34.8,11.5 -51,16.5 -16.2,5.1 -34.3,10.8 -40.2,12.6 -25.8,8.1 -34.6,21.4 -28.9,43.7 5.5,21.6 29.5,55 56.5,78.8 7.9,7 10.2,10 7.5,10 -2.1,0 -35.1,-20.5 -45.3,-28.1 -46.4,-34.9 -59.5,-80 -37.1,-127.4 5.7,-11.9 13.3,-22.7 15.9,-22.3 1.4,0.1 5.3,-2.3 11.6,-7.3 43.2,-34.4 64.3,-46.6 92,-53.4 19.4,-4.8 46.2,-12.1 82.5,-22.5 13.2,-3.7 32.8,-8.7 43.5,-11 66.9,-14.3 81.2,-17.5 96.5,-21.4 23.2,-6 35,-10 45.7,-15.1 11.6,-5.7 29.2,-9.6 41.3,-9.1 3.9,0.1 4,0.2 4,3.6 z m 17,6.1 c 6.2,3.4 15,6.1 54.8,16.9 26.1,7.1 54.6,15 63.3,17.6 10.5,3 19.3,4.9 25.8,5.5 15.3,1.5 73.2,-1.7 95.1,-5.1 15.2,-2.4 32.3,3.4 89,30.2 44.6,21.2 51.6,24.9 54.9,29.6 10.2,14.2 36.1,62.2 39.1,72.5 4.7,16.2 -6.9,41.2 -43,92.7 -42.6,60.8 -86.5,104.1 -131.5,129.6 -8.5,4.8 -39.1,22.3 -68,39 -80.1,46.1 -108.2,61.4 -125,68.3 -11.3,4.6 -33.5,37.4 -60.2,88.8 -6.6,12.7 -8.6,17.3 -7.4,17.3 0.9,0 1.6,0.5 1.6,1.1 0,0.6 -0.5,0.7 -1.2,0.2 -0.7,-0.4 -9.3,-1.3 -19.1,-1.9 -15.5,-0.9 -17.9,-1.3 -19.2,-3 -2.6,-3.4 -7.3,-16.8 -10.4,-29.5 -5.8,-24.2 -15,-41.6 -51.7,-97 -26.3,-39.8 -23.8,-37.9 -114.9,-86.9 -11.5,-6.2 -24.4,-13.1 -28.5,-15.3 -73,-39.3 -97.4,-53.7 -91,-53.7 3.4,0 49.2,22.8 93,46.3 11.3,6 29.8,15.8 41.1,21.8 55.7,29.2 96.1,56.5 118.7,80.4 7.2,7.7 9.2,10.3 9.2,12.6 0,2.3 0.4,2.9 2.3,2.9 6.5,0 52.8,79 60.9,104 0.3,0.9 2.2,-2.2 4.7,-7.3 27.2,-57 96.9,-117.6 176.2,-153.6 86,-38.9 153.1,-94.6 207.1,-171.8 4.7,-6.7 8.8,-12 9,-11.7 0.3,0.2 0.5,-0.2 0.5,-0.9 0,-0.6 3.3,-6.6 7.2,-13.2 20.9,-34.7 27.2,-56.6 20.3,-70.1 -7.1,-13.8 -23.4,-25 -44.8,-30.8 -4.9,-1.3 -10.7,-3.1 -12.9,-4.1 -47.1,-20.1 -64.1,-23.4 -130,-25.5 -42,-1.3 -39.4,-1.1 -122,-11.5 -37.4,-4.7 -71.8,-8.8 -76.3,-9.2 -9.5,-0.7 -9.5,-0.6 -5.7,-10.4 l 1.8,-4.6 -11.1,-30.6 c -14,-38.3 -13.8,-36.3 -1.7,-29.6 z m 3,81.4 c 17.1,1.2 53.6,5.5 152.5,17.9 12.9,1.7 29.5,2.9 48.9,3.5 l 29.4,1.1 4.6,3.6 c 20.6,16.4 29.4,31.3 27.1,45.8 -0.9,5.3 -1.1,12.1 -0.6,21.5 2.3,44.8 -15,76.7 -79.5,146.6 -58.3,63.3 -84.2,99.8 -88.4,124.8 -0.4,2.5 -1.4,4.3 -3.3,5.4 -1.5,1 -8.3,5.8 -15.2,10.7 -16.6,11.9 -20.3,12.6 -47.5,8.9 -19,-2.6 -40,-3.4 -50.1,-1.9 l -6,0.8 -2.7,-17.8 c -6.2,-40.3 -6.3,-43.6 -3.3,-118.9 1.4,-35.2 4.2,-104.3 6.1,-153.5 4,-100.9 4,-100 6.3,-100 0.9,0 10.7,0.7 21.7,1.5 z m -31.5,0.2 c 0,0.5 -1.1,27.8 -2.5,60.8 -3.4,82.1 -8.3,206 -9.3,234.3 -1.1,30.4 0.1,47.4 5.9,82 1.2,6.8 1.8,12.6 1.4,13 -0.4,0.4 -10.7,0.8 -23.1,1 l -22.4,0.3 -11.1,-11.6 c -6.2,-6.4 -14.7,-14.5 -19,-18.1 -4.7,-3.9 -10.3,-9.9 -13.8,-14.8 -4.3,-5.9 -11,-12.7 -23.8,-24.1 -9.8,-8.8 -31,-28.8 -47.1,-44.4 l -29.4,-28.5 -14.3,-21.6 c -35,-52.7 -54.7,-91 -61.1,-119 -2.4,-10.5 -5.1,-36.7 -4.1,-39.4 1,-2.5 12.3,-5.4 53.2,-13.6 91.4,-18.5 132.4,-28.7 152.5,-38 17.5,-8 68,-21.6 68,-18.3 z m 307.6,25.8 c 11.9,1.6 31.4,7.7 55.9,17.5 7.2,2.9 17,6.3 21.9,7.6 33.1,9 47.1,27.1 39.1,50.9 -13.5,40.5 -63.4,108 -112.3,151.8 -40,35.9 -71.6,56.5 -122.9,80.3 -14.5,6.7 -32.1,15.4 -39,19.3 -17.2,9.7 -18.5,9.2 -11.7,-4.9 11.9,-24.8 38.6,-59.3 81.4,-105 45.8,-48.9 67.7,-80.9 77.6,-113.5 2.6,-8.6 4.1,-31.1 4.5,-66.1 0.1,-8.1 -7.4,-20.5 -19.5,-32.4 -8,-7.8 -7.7,-8.4 4.1,-7.6 5.4,0.4 14.7,1.3 20.9,2.1 z m -588.3,57.7 c 2.1,38.8 19.6,78 66.2,148.3 12.3,18.5 16.8,24.5 23.1,30.4 4.4,4.1 15.6,15 24.9,24.1 9.4,9.1 21.8,21.1 27.6,26.6 5.9,5.4 11.9,11.5 13.5,13.3 l 2.9,3.5 -3,-1.5 c -1.6,-0.9 -4.3,-2.2 -6,-3.1 -1.6,-0.8 -9.1,-5 -16.5,-9.3 -7.4,-4.3 -22.3,-12.4 -33,-18 -10.7,-5.7 -31,-16.4 -45,-23.9 -35.6,-19.1 -76.6,-39.5 -89,-44.5 -32,-12.8 -80.1,-71.2 -81.8,-99.3 -1.2,-20.3 1.7,-22.6 44.8,-35.9 15.7,-4.8 37.3,-11.7 48,-15.2 25.2,-8.4 22.6,-8.9 23.3,4.5 z m -66.1,148.6 c 27,16.3 72.6,41.8 135.8,75.7 97,52.2 94.4,50.4 115.5,82.1 39.3,59.4 48.4,76.3 54,99.9 2.9,12.4 6.6,23.4 9.5,28.2 3.1,5.3 2.7,7.5 -1.2,6.9 -1.8,-0.3 -13,-1.5 -24.8,-2.6 -11.8,-1.2 -39.2,-4.8 -60.9,-8.1 l -39.3,-6 -18.2,-7.4 c -38,-15.4 -72.4,-28 -93.6,-34.1 -17.8,-5.2 -24.8,-8.7 -39.8,-19.8 -17.3,-12.8 -43.2,-35.2 -43.2,-37.3 0,-2.3 2.2,-1.4 17.4,7.6 38,22.3 48.6,26.3 96.6,37 46.7,10.4 68.4,14.1 79.2,13.4 l 9.6,-0.6 4.4,3.5 c 32.8,26.7 76.4,-9.7 55.1,-45.9 -9.7,-16.6 -32.8,-24 -48.8,-15.6 -5.7,2.9 -14.6,11.1 -15.7,14.3 -0.4,1.3 -4.2,1 -25.4,-1.9 -13.7,-1.8 -28.9,-3.7 -33.9,-4.2 -44.5,-4.2 -54,-7.5 -81.3,-27.7 -24.6,-18.3 -41.2,-28.4 -53.9,-32.8 -3.1,-1.1 -5.3,-2.5 -5.3,-3.3 0,-0.8 -2,-4.9 -4.5,-9.2 -5.4,-9.3 -6,-17.3 -2.5,-33.9 3.1,-14.9 3.6,-30.3 1.4,-44.5 -1.9,-11.9 -2.4,-32.3 -1.1,-37.8 1,-3.9 2.3,-3.5 14.9,4.1 z m 668.1,75.9 -0.6,18.7 -5.3,11.8 -5.3,11.8 3,7.3 c 1.9,4.6 3.5,10.9 4.4,17.7 0.7,5.7 1.7,10.6 2.2,10.7 1.2,0.4 34.6,16.8 36.1,17.7 1.7,1.1 5.2,8.1 5.2,10.6 0,4.6 -14.2,16.6 -40.5,34.3 -15.6,10.5 -16.3,10.8 -31.5,15.6 -25,7.9 -34.7,10.8 -49.1,14.5 -7.5,1.9 -20.6,6 -29.2,9 -8.6,3.1 -16.2,5.6 -17,5.6 -1.3,0 -3.4,-3 -20.3,-29.8 l -8.3,-13.2 0,-8.3 c 0.1,-18.4 -10.5,-32.9 -28.3,-38.6 -5.7,-1.9 -4.7,-3.4 6.5,-9.7 5.6,-3.2 34.1,-19.5 63.2,-36.3 29.2,-16.7 61.1,-35 71.1,-40.7 16.3,-9.2 29.6,-17.9 37.9,-24.8 6.4,-5.3 6.5,-4.8 5.8,16.1 z m -680,52.8 c 14.1,3 30.4,12.1 57.3,32.1 12.5,9.3 28,19.4 29.7,19.4 0.6,0 1.8,0.6 2.6,1.4 1.5,1.4 7,2.8 23.6,6.1 3.9,0.7 14.2,2.1 23,2.9 8.8,0.9 27.6,3.1 41.9,5.1 l 25.9,3.5 13.6,-2 c 7.6,-1.1 16,-2.4 18.7,-2.9 5.7,-1.1 6.9,-0.1 12.3,10.3 4.5,8.5 4.2,12.1 -1.5,19 l -4.5,5.6 -28.5,0 -28.4,0 -32.6,-6.5 c -74.9,-14.9 -87.4,-19.3 -132.6,-46.1 l -23.3,-13.9 -26.5,0 c -38.2,0 -33.3,-1.5 -76.3,23.8 -8.1,4.8 -18.8,10.7 -23.7,13.2 l -9,4.5 0,-2.7 c 0,-3.4 -2.7,-7.6 -6.8,-10.6 -1.7,-1.3 -2.8,-2.8 -2.4,-3.3 0.8,-1.2 11.7,-5.4 14,-5.4 1.7,0 25.3,-13.5 55.2,-31.6 26.4,-15.9 29.7,-17.4 47,-21.3 10.3,-2.3 22.1,-2.6 31.3,-0.6 z m 714.9,14.9 c 72.2,13.3 139.7,30.2 210.6,53 9.2,3 21.2,6.2 26.7,7.1 30,5.2 81.5,21.1 81.5,25.2 0,0.8 -3,11.2 -6.7,23.1 -6.3,20.6 -6.6,22.2 -6.4,30.7 0.2,8 -0.3,10.5 -3.9,22.5 -47.3,157 -60.2,302.1 -35.5,398.5 5.4,21.2 21.8,66.2 40.1,110.3 6.5,15.5 7.6,20.9 4.9,23.2 -0.9,0.7 -2.9,3 -4.5,5 l -2.9,3.6 -4.1,42.5 c -2.2,23.3 -6.3,65.1 -9,92.9 -2.7,27.8 -7.4,76.4 -10.5,108 -3,31.6 -6.2,64.2 -7.1,72.5 -1.3,12.2 -1.7,28.6 -1.9,88 -0.2,79.2 -1,97.4 -5.5,140 -5.5,51.7 -8.4,90.6 -11.1,150 -0.6,13.7 -1.5,27.9 -2,31.5 -1.3,9.2 -2.6,43 -3.9,95.5 -2.2,94.2 -7.6,154.7 -16.6,187.5 -7.9,28.3 -19.7,40.1 -41.1,40.8 l -10.3,0.4 0,-99.4 0,-99.3 -7.6,-6.5 c -90.7,-77.3 -190.5,-251.2 -225.2,-392.7 l -4.7,-19.3 -142.7,0 c -142.1,0 -142.8,0 -142.8,-2 0,-1.6 -0.7,-2 -3.7,-2.2 l -3.8,-0.1 3.8,-0.4 c 3.7,-0.4 3.7,-0.5 3.7,-4.9 0,-4.4 0,-4.4 -3.7,-4.6 l -3.8,-0.1 3.8,-0.4 c 3.7,-0.4 3.7,-0.5 3.7,-4.9 0,-4.4 0,-4.4 -3.7,-4.6 l -3.8,-0.1 3.8,-0.4 c 5.7,-0.6 5.4,-8.4 -0.3,-9.4 l -3.5,-0.6 3.8,-0.2 c 3.6,-0.1 3.7,-0.2 3.7,-4.1 0,-3.9 -0.1,-4 -3.7,-4.2 l -3.8,-0.1 3.8,-0.4 c 3.7,-0.4 3.7,-0.5 3.7,-4.9 0,-4.4 0,-4.4 -3.7,-4.6 l -3.8,-0.1 3.8,-0.4 c 3.7,-0.4 3.7,-0.5 3.7,-4.9 0,-4.4 0,-4.4 -3.7,-4.6 l -3.8,-0.1 3.8,-0.4 c 3.7,-0.4 3.7,-0.5 3.7,-4.9 0,-4.4 0,-4.4 -3.7,-4.6 l -3.8,-0.1 3.8,-0.4 c 3.7,-0.4 3.7,-0.5 3.7,-4.9 0,-4.4 0,-4.4 -3.7,-4.6 l -3.8,-0.1 3.8,-0.4 c 3.6,-0.4 3.7,-0.5 3.7,-4.4 0,-3.8 -0.1,-3.9 -3.7,-4.1 l -3.8,-0.1 3.8,-0.4 c 3.7,-0.4 3.7,-0.5 3.7,-4.9 0,-4.4 0,-4.4 -3.7,-4.6 l -3.8,-0.1 3.8,-0.4 c 3.7,-0.4 3.7,-0.5 3.7,-4.9 0,-4.4 0,-4.4 -3.7,-4.6 l -3.8,-0.1 3.8,-0.4 c 3.7,-0.4 3.7,-0.5 3.7,-4.9 0,-4.4 0,-4.4 -3.7,-4.6 l -3.8,-0.1 3.8,-0.4 c 3.6,-0.4 3.7,-0.5 3.7,-4.4 0,-3.8 -0.1,-3.9 -3.7,-4.1 l -3.8,-0.1 3.8,-0.4 c 3.7,-0.4 3.7,-0.5 3.7,-4.9 0,-4.4 0,-4.4 -3.7,-4.6 l -3.8,-0.1 3.8,-0.4 c 3.7,-0.4 3.7,-0.5 3.7,-4.9 0,-4.4 0,-4.4 -3.7,-4.6 l -3.8,-0.1 3.8,-0.4 c 3.7,-0.4 3.7,-0.5 3.7,-4.9 0,-4.4 0,-4.4 -3.7,-4.6 l -3.8,-0.1 3.8,-0.4 c 3.7,-0.4 3.7,-0.5 3.7,-4.9 0,-4.4 0,-4.4 -3.7,-4.6 l -3.8,-0.1 3.8,-0.4 c 5.7,-0.6 5.4,-8.4 -0.3,-9.4 l -3.5,-0.6 3.8,-0.2 c 3.6,-0.1 3.7,-0.2 3.7,-4.1 0,-3.9 -0.1,-4 -3.7,-4.2 l -3.8,-0.1 3.8,-0.4 c 3.7,-0.4 3.7,-0.5 3.7,-4.9 0,-4.4 0,-4.4 -3.7,-4.6 l -3.8,-0.1 3.8,-0.4 c 3.7,-0.4 3.7,-0.5 3.7,-4.9 0,-4.4 0,-4.4 -3.7,-4.6 l -3.8,-0.1 3.8,-0.4 c 3.7,-0.4 3.7,-0.5 3.7,-4.9 0,-4.4 0,-4.4 -3.7,-4.6 l -3.8,-0.1 3.8,-0.4 c 3.7,-0.4 3.7,-0.5 3.7,-4.9 0,-4.4 0,-4.4 -3.7,-4.6 l -3.8,-0.1 3.8,-0.4 c 3.6,-0.4 3.7,-0.5 3.7,-4.4 0,-3.8 -0.1,-3.9 -3.7,-4.1 l -3.8,-0.1 3.8,-0.4 c 3.7,-0.4 3.7,-0.5 3.7,-4.9 l 0,-4.4 -3.7,-0.1 -3.8,-0.2 3.5,-0.6 c 3.3,-0.6 3.5,-0.9 3.8,-4.9 l 0.3,-4.2 -3.8,-0.2 -3.8,-0.1 3.8,-0.4 c 3.7,-0.4 3.7,-0.5 3.7,-4.9 0,-4.4 0,-4.4 -3.7,-4.6 l -3.8,-0.1 3.8,-0.4 3.7,-0.4 0,-9 0,-8.9 -3.7,-0.2 -3.8,-0.1 3.8,-0.4 c 3.7,-0.4 3.7,-0.5 3.7,-4.9 0,-4.4 0,-4.4 -3.7,-4.6 l -3.8,-0.1 3.8,-0.4 c 3.7,-0.4 3.7,-0.5 3.7,-4.9 0,-4.4 0,-4.4 -3.7,-4.6 l -3.8,-0.1 3.8,-0.4 c 3.7,-0.4 3.7,-0.5 3.7,-4.9 0,-4.4 0,-4.4 -3.7,-4.6 l -3.8,-0.1 3.8,-0.4 c 5.7,-0.6 5.4,-8.4 -0.3,-9.4 l -3.5,-0.6 3.8,-0.2 c 3.6,-0.1 3.7,-0.2 3.7,-4.1 0,-3.9 -0.1,-4 -3.7,-4.2 l -3.8,-0.1 3.8,-0.4 c 3.7,-0.4 3.7,-0.5 3.7,-4.9 0,-4.4 0,-4.4 -3.7,-4.6 l -3.8,-0.1 3.8,-0.4 c 3.7,-0.4 3.7,-0.5 3.7,-4.9 0,-4.4 0,-4.4 -3.7,-4.6 l -3.8,-0.1 3.8,-0.4 c 3.7,-0.4 3.7,-0.5 3.7,-4.9 0,-4.4 0,-4.4 -3.7,-4.6 l -3.8,-0.1 3.8,-0.4 c 3.7,-0.4 3.7,-0.5 3.7,-4.9 0,-4.4 0,-4.4 -3.7,-4.6 l -3.8,-0.1 3.8,-0.4 c 3.6,-0.4 3.7,-0.5 3.7,-4.4 0,-3.8 -0.1,-3.9 -3.7,-4.1 l -3.8,-0.1 3.8,-0.4 c 3.7,-0.4 3.7,-0.5 3.7,-4.9 0,-4.4 0,-4.4 -3.7,-4.6 l -3.8,-0.1 3.8,-0.4 c 3.7,-0.4 3.7,-0.5 3.7,-4.9 0,-4.4 0,-4.4 -3.7,-4.6 l -3.8,-0.1 3.8,-0.4 c 3.7,-0.4 3.7,-0.5 3.7,-4.9 0,-4.4 0,-4.4 -3.7,-4.6 l -3.8,-0.1 3.8,-0.4 c 3.6,-0.4 3.7,-0.5 3.7,-4.4 0,-3.8 -0.1,-3.9 -3.7,-4.1 l -3.8,-0.1 3.8,-0.4 c 3.7,-0.4 3.7,-0.5 3.7,-4.9 0,-4.4 0,-4.4 -3.7,-4.6 l -3.8,-0.1 3.8,-0.4 c 3.7,-0.4 3.7,-0.5 3.7,-4.9 0,-4.4 0,-4.4 -3.7,-4.6 l -3.8,-0.1 3.8,-0.4 c 3.7,-0.4 3.7,-0.5 3.7,-4.9 0,-4.4 0,-4.4 -3.7,-4.6 l -3.8,-0.1 3.8,-0.4 c 3.7,-0.4 3.7,-0.5 3.7,-4.9 0,-4.4 0,-4.4 -3.7,-4.6 l -3.8,-0.1 3.8,-0.4 c 5.7,-0.6 5.4,-8.4 -0.3,-9.4 l -3.5,-0.6 3.8,-0.2 c 3.6,-0.1 3.7,-0.2 3.7,-4.1 0,-3.9 -0.1,-4 -3.7,-4.2 l -3.8,-0.1 3.8,-0.4 c 3.7,-0.4 3.7,-0.5 3.7,-4.9 0,-4.4 0,-4.4 -3.7,-4.6 l -3.8,-0.1 3.8,-0.4 c 3.7,-0.4 3.7,-0.5 3.7,-4.9 0,-4.4 0,-4.4 -3.7,-4.6 l -3.8,-0.1 3.8,-0.4 c 3.7,-0.4 3.7,-0.5 3.7,-4.9 0,-4.4 0,-4.4 -3.7,-4.6 l -3.8,-0.1 3.8,-0.4 c 3.7,-0.4 3.7,-0.5 3.7,-4.9 0,-4.4 0,-4.4 -3.7,-4.6 l -3.8,-0.1 3.8,-0.4 c 3.6,-0.4 3.7,-0.5 3.7,-4.4 0,-3.8 -0.1,-3.9 -3.7,-4.1 l -3.8,-0.1 3.8,-0.4 c 3.7,-0.4 3.7,-0.5 3.7,-4.9 l 0,-4.4 -3.7,-0.1 -3.8,-0.2 3.5,-0.6 c 3.3,-0.6 3.5,-0.9 3.8,-4.9 l 0.3,-4.2 -3.8,-0.2 -3.8,-0.1 3.8,-0.4 c 3.7,-0.4 3.7,-0.5 3.7,-4.9 0,-4.4 0,-4.4 -3.7,-4.6 l -3.8,-0.1 3.8,-0.4 c 3.7,-0.4 3.7,-0.5 3.7,-4.9 0,-4.4 0,-4.4 -3.7,-4.6 l -3.8,-0.1 3.8,-0.4 c 3.7,-0.4 3.7,-0.5 3.7,-4.9 0,-2.8 -0.4,-4.4 -1.2,-4.5 -1,0 -1,-0.2 0,-0.6 0.7,-0.2 1.2,-2.2 1.2,-4.4 0,-3.8 -0.1,-3.9 -3.7,-4.1 l -3.8,-0.1 3.8,-0.4 c 3.7,-0.4 3.7,-0.5 3.7,-4.9 0,-4.4 0,-4.4 -3.7,-4.6 l -3.8,-0.1 3.8,-0.4 c 3.7,-0.4 3.7,-0.5 3.7,-4.9 0,-4.4 0,-4.4 -3.7,-4.6 l -3.8,-0.1 3.8,-0.4 c 3.7,-0.4 3.7,-0.5 3.7,-4.9 0,-4.4 0,-4.4 -3.7,-4.6 l -3.8,-0.1 3.8,-0.4 c 3.7,-0.4 3.7,-0.5 3.7,-4.9 0,-4.4 0,-4.4 -3.7,-4.6 l -3.8,-0.1 3.8,-0.4 c 5.7,-0.6 5.4,-8.4 -0.3,-9.4 l -3.5,-0.6 3.8,-0.2 c 3.6,-0.1 3.7,-0.2 3.7,-4.1 0,-3.9 -0.1,-4 -3.7,-4.2 l -3.8,-0.1 3.8,-0.4 c 3.7,-0.4 3.7,-0.5 3.7,-4.9 0,-4.4 0,-4.4 -3.7,-4.6 l -3.8,-0.1 3.8,-0.4 c 3.7,-0.4 3.7,-0.5 3.7,-4.9 0,-4.4 0,-4.4 -3.7,-4.6 l -3.8,-0.1 3.8,-0.4 c 3.7,-0.4 3.7,-0.5 3.7,-4.9 0,-4.4 0,-4.4 -3.7,-4.6 l -3.8,-0.1 3.8,-0.4 c 3.7,-0.4 3.7,-0.5 3.7,-4.9 0,-4.4 0,-4.4 -3.7,-4.6 l -3.8,-0.1 3.8,-0.4 c 3.6,-0.4 3.7,-0.5 3.7,-4.4 0,-3.8 -0.1,-3.9 -3.7,-4.1 l -3.8,-0.1 3.8,-0.4 c 3.7,-0.4 3.7,-0.5 3.7,-4.9 0,-4.4 0,-4.4 -3.7,-4.6 l -3.8,-0.1 3.8,-0.4 c 3.7,-0.4 3.7,-0.5 3.7,-4.9 0,-4.4 0,-4.4 -3.7,-4.6 l -3.8,-0.1 3.8,-0.4 c 3.7,-0.4 3.7,-0.5 3.7,-4.9 0,-4.4 0,-4.4 -3.7,-4.6 l -3.8,-0.1 3.8,-0.4 c 3.6,-0.4 3.7,-0.5 3.7,-4.4 0,-3.8 -0.1,-3.9 -3.7,-4.1 l -3.8,-0.1 3.8,-0.4 c 3.7,-0.4 3.7,-0.5 3.7,-4.9 0,-4.4 0,-4.4 -3.7,-4.6 l -3.8,-0.1 3.8,-0.4 c 3.7,-0.4 3.7,-0.5 3.7,-4.9 0,-4.4 0,-4.4 -3.7,-4.6 l -3.8,-0.1 3.8,-0.4 c 3.7,-0.4 3.7,-0.5 3.7,-4.9 0,-4.4 0,-4.4 -3.7,-4.6 l -3.8,-0.1 3.8,-0.4 c 3.7,-0.4 3.7,-0.5 3.7,-4.9 0,-4.4 0,-4.4 -3.7,-4.6 l -3.8,-0.1 3.8,-0.4 c 5.7,-0.6 5.4,-8.4 -0.3,-9.4 l -3.5,-0.6 3.8,-0.2 c 3.6,-0.1 3.7,-0.2 3.7,-4.1 0,-3.9 -0.1,-4 -3.7,-4.2 l -3.8,-0.1 3.8,-0.4 c 3.7,-0.4 3.7,-0.5 3.7,-4.9 0,-4.4 0,-4.4 -3.7,-4.6 l -3.8,-0.1 3.8,-0.4 c 3.7,-0.4 3.7,-0.5 3.7,-4.9 0,-4.4 0,-4.4 -3.7,-4.6 l -3.8,-0.1 3.8,-0.4 c 3.7,-0.4 3.7,-0.5 3.7,-4.9 0,-4.4 0,-4.4 -3.7,-4.6 l -3.8,-0.1 3.8,-0.4 c 3.7,-0.4 3.7,-0.5 3.7,-4.9 0,-4.4 0,-4.4 -3.7,-4.6 l -3.8,-0.1 3.8,-0.4 c 3.6,-0.4 3.7,-0.5 3.7,-4.4 0,-3.8 -0.1,-3.9 -3.7,-4.1 l -3.8,-0.1 3.8,-0.4 c 3.7,-0.4 3.7,-0.5 3.7,-4.9 l 0,-4.4 -3.7,-0.1 -3.8,-0.2 3.5,-0.6 c 3.3,-0.6 3.5,-0.9 3.8,-4.9 l 0.3,-4.2 -3.8,-0.2 -3.8,-0.1 3.8,-0.4 c 3.7,-0.4 3.7,-0.5 3.7,-4.9 0,-4.4 0,-4.4 -3.7,-4.6 l -3.8,-0.1 3.8,-0.4 c 3.7,-0.4 3.7,-0.5 3.7,-4.9 0,-4.4 0,-4.4 -3.7,-4.6 l -3.8,-0.1 3.8,-0.4 c 3.7,-0.4 3.7,-0.5 3.7,-4.9 0,-4.4 0,-4.4 -3.7,-4.6 l -3.8,-0.1 3.8,-0.4 c 3.6,-0.4 3.7,-0.5 3.7,-4.8 0,-3.8 0.3,-4.4 2.7,-5 l 2.6,-0.6 -0.6,-26 -0.6,-26.1 3,-6.6 c 1.9,-4.2 2.9,-7.9 2.7,-9.8 l -0.4,-3.1 7.5,-0.7 c 4.1,-0.3 16.9,-0.6 28.5,-0.6 28.8,0 60.2,-3.9 89.5,-11 6.7,-1.7 12.8,-3 13.4,-3 0.7,0 4,4 7.5,8.9 15.8,22.5 32.2,31.2 61.8,33.1 38.2,2.3 71.9,-7.4 103.9,-30 68,-48 100.4,-60.3 134.7,-51.2 16.6,4.5 44.6,24.8 46.3,33.7 0.2,1.1 1.1,6 2,10.9 2,11 3.5,14 8.5,16.8 4.8,2.8 5,4.7 2,20.7 -1.8,9.7 -4.4,42.7 -3.4,44.3 0.2,0.3 2.2,0.9 4.5,1.3 3.5,0.6 4.3,1.3 6.1,5 l 2.1,4.2 8.1,0.7 c 4.4,0.3 10.1,0.8 12.6,1.2 4.5,0.6 4.7,0.5 15,-7.5 12.1,-9.4 12.4,-9.8 12.2,-16.9 -0.2,-8.6 -8.5,-39.2 -14,-51.5 l -2.5,-5.8 2.2,-8.9 c 2.8,-10.7 2.3,-13.9 -2.7,-18 -2,-1.7 -5.1,-5.6 -6.8,-8.8 -3.5,-6.3 -8.2,-10.2 -12.4,-10.2 -2.2,0 -3.7,-1.2 -7.1,-5.8 -33.8,-44.8 -81.3,-56.8 -137.6,-34.6 -19.5,7.7 -23.7,10 -72,39.1 -41.9,25.3 -60.8,32.1 -39.6,14.2 4.8,-4.1 9.7,-8.2 10.8,-9.2 1.1,-1 -7.9,4.8 -20,12.9 -29.9,20.1 -38.5,22.8 -55.6,17.4 -10.7,-3.3 -27.9,-15.4 -27.9,-19.5 0,-2.2 19.8,-9.1 44.1,-15.4 26,-6.7 59.8,-17.8 66.4,-21.8 22.2,-13.4 50.2,-35.1 55.4,-42.9 3.6,-5.5 3.8,-8.2 1,-14.4 -4,-8.9 -5.9,-10.3 -23.9,-19.1 -13.9,-6.7 -17,-8.6 -17,-10.3 0,-1.2 -0.3,-3.1 -0.6,-4.4 -0.9,-3.1 1.2,-3 29.8,2.2 z m -300.1,21.2 c 10.2,1.3 19.8,2.4 21.3,2.4 4.3,0 3,1.8 -8.3,12.4 -23.5,21.9 -60.1,66.9 -60.1,73.8 0,4.2 -4.1,-1.6 -11.5,-16.3 -4.7,-9.5 -9.8,-19.2 -11.2,-21.8 -8.1,-14 -15.3,-25.8 -21.9,-35.4 -4.1,-5.9 -7.4,-11.2 -7.4,-11.7 0,-0.6 5.9,-1 14.8,-1 11.3,-0.1 18.6,-0.7 31.7,-2.9 19.7,-3.2 24.7,-3.2 52.6,0.5 z m -435.8,4 c 4,0.6 5.7,1.8 15.5,10.9 43.1,40 66,56.2 88.9,62.4 20.3,5.6 49.4,16.1 92.8,33.5 l 24,9.5 39.5,6 c 42.9,6.5 88.7,11.6 96.3,10.6 4.2,-0.5 4.7,-0.4 4.7,1.4 0,1 1.3,4.9 3,8.5 l 2.9,6.7 -0.6,25.9 -0.6,25.9 2.6,1 c 1.5,0.6 2.7,1.7 2.7,2.6 0,1 1.1,1.6 3.8,1.7 l 3.7,0.1 -3.7,0.4 c -3.8,0.4 -3.8,0.5 -3.8,4.9 0,4.4 0,4.4 3.8,4.6 l 3.7,0.1 -3.7,0.4 c -3.8,0.4 -3.8,0.5 -3.8,4.9 0,4.4 0,4.4 3.8,4.6 l 3.7,0.1 -3.7,0.4 c -3.8,0.4 -3.8,0.5 -3.8,4.9 0,4.4 0,4.4 3.8,4.6 l 3.7,0.1 -3.7,0.4 c -3.8,0.4 -3.8,0.5 -3.8,4.9 0,4.4 0,4.4 3.8,4.6 l 3.7,0.1 -3.7,0.4 c -5.7,0.6 -6,8.3 -0.3,8.3 1.9,0 3.5,0.4 3.5,1 0,0.5 -1.6,1 -3.5,1 -5.7,0 -5.4,7.9 0.3,8.2 l 3.7,0.1 -3.7,0.4 c -3.8,0.4 -3.8,0.5 -3.8,4.9 0,4.4 0,4.4 3.8,4.6 l 3.7,0.1 -3.7,0.4 c -3.8,0.4 -3.8,0.5 -3.8,4.9 0,4.4 0,4.4 3.8,4.6 l 3.7,0.1 -3.7,0.4 c -3.8,0.4 -3.8,0.5 -3.8,4.9 0,4.4 0,4.4 3.8,4.6 l 3.7,0.1 -3.7,0.4 c -3.8,0.4 -3.8,0.5 -3.8,4.9 0,4.4 0,4.4 3.8,4.6 l 3.7,0.1 -3.7,0.4 c -3.8,0.4 -3.8,0.5 -3.8,4.9 0,4.4 0,4.4 3.8,4.6 l 3.7,0.1 -3.7,0.4 c -3.7,0.4 -3.8,0.5 -3.8,4.4 0,3.8 0.1,3.9 3.8,4.1 l 3.7,0.1 -3.7,0.4 c -3.8,0.4 -3.8,0.5 -3.8,4.9 0,4.4 0,4.4 3.8,4.6 l 3.7,0.1 -3.7,0.4 c -3.8,0.4 -3.8,0.5 -3.8,4.9 0,4.4 0,4.4 3.8,4.6 l 3.7,0.1 -3.7,0.4 c -3.8,0.4 -3.8,0.5 -3.8,4.9 0,4.4 0,4.4 3.8,4.6 l 3.7,0.1 -3.7,0.4 c -3.8,0.4 -3.8,0.5 -3.8,4.9 0,4.4 0,4.4 3.8,4.6 l 3.7,0.1 -3.7,0.4 c -3.8,0.4 -3.8,0.5 -3.8,4.9 0,4.4 0,4.4 3.8,4.6 l 3.7,0.1 -3.7,0.4 c -3.7,0.4 -3.8,0.5 -3.8,4.4 0,3.8 0.1,3.9 3.8,4.1 l 3.7,0.1 -3.7,0.4 c -3.8,0.4 -3.8,0.5 -3.8,4.9 0,4.4 0,4.4 3.8,4.6 l 3.7,0.1 -3.7,0.4 c -5.7,0.6 -6,8.3 -0.3,8.3 1.9,0 3.5,0.4 3.5,1 0,0.5 -1.6,1 -3.5,1 -5.7,0 -5.4,7.9 0.3,8.2 l 3.7,0.1 -3.7,0.4 c -3.8,0.4 -3.8,0.5 -3.8,4.9 0,4.4 0,4.4 3.8,4.6 l 3.7,0.1 -3.7,0.4 c -3.8,0.4 -3.8,0.5 -3.8,4.9 0,4.4 0,4.4 3.8,4.6 l 3.7,0.1 -3.7,0.4 c -3.8,0.4 -3.8,0.5 -3.8,4.9 0,4.4 0,4.4 3.8,4.6 l 3.7,0.1 -3.7,0.4 c -3.8,0.4 -3.8,0.5 -3.8,4.9 0,4.4 0,4.4 3.8,4.6 l 3.7,0.1 -3.7,0.4 c -3.8,0.4 -3.8,0.5 -3.8,4.9 0,4.4 0,4.4 3.8,4.6 l 3.7,0.1 -3.7,0.4 c -3.7,0.4 -3.8,0.5 -3.8,4.4 0,3.8 0.1,3.9 3.8,4.1 l 3.7,0.1 -3.7,0.4 c -3.8,0.4 -3.8,0.5 -3.8,4.9 0,4.4 0,4.4 3.8,4.6 l 3.7,0.1 -3.7,0.4 c -3.8,0.4 -3.8,0.5 -3.8,4.9 0,4.4 0,4.4 3.8,4.6 l 3.7,0.1 -3.7,0.4 c -3.8,0.4 -3.8,0.5 -3.8,4.9 0,4.4 0,4.4 3.8,4.6 l 3.7,0.1 -3.7,0.4 c -3.8,0.4 -3.8,0.5 -3.8,4.9 0,4.4 0,4.4 3.8,4.6 l 3.7,0.1 -3.7,0.4 c -3.8,0.4 -3.8,0.5 -3.8,4.9 0,4.4 0,4.4 3.8,4.6 l 3.7,0.1 -3.7,0.4 c -3.7,0.4 -3.8,0.5 -3.8,4.4 0,3.8 0.1,3.9 3.8,4.1 l 3.7,0.1 -3.7,0.4 c -3.8,0.4 -3.8,0.5 -3.8,4.9 0,4.4 0,4.4 3.8,4.6 l 3.7,0.1 -3.7,0.4 c -3.8,0.4 -3.8,0.5 -3.8,4.9 0,4.4 0,4.4 3.8,4.6 l 3.7,0.1 -3.7,0.4 c -3.8,0.4 -3.8,0.5 -3.8,4.9 0,4.4 0,4.4 3.8,4.6 l 3.7,0.1 -3.7,0.4 c -5.7,0.6 -6,8.3 -0.3,8.3 1.9,0 3.5,0.4 3.5,1 0,0.5 -1.6,1 -3.5,1 -5.7,0 -5.4,7.9 0.3,8.2 l 3.7,0.1 -3.7,0.4 c -3.8,0.4 -3.8,0.5 -3.8,4.9 0,4.4 0,4.4 3.8,4.6 l 3.7,0.1 -3.7,0.4 c -3.8,0.4 -3.8,0.5 -3.8,4.9 0,4.4 0,4.4 3.8,4.6 l 3.7,0.1 -3.7,0.4 c -3.8,0.4 -3.8,0.5 -3.8,4.9 0,4.4 0,4.4 3.8,4.6 l 3.7,0.1 -3.7,0.4 c -3.8,0.4 -3.8,0.5 -3.8,4.9 0,4.4 0,4.4 3.8,4.6 l 3.7,0.1 -3.7,0.4 c -3.8,0.4 -3.8,0.5 -3.8,4.9 0,4.4 0,4.4 3.8,4.6 l 3.7,0.1 -3.7,0.4 c -3.7,0.4 -3.8,0.5 -3.8,4.4 0,3.8 0.1,3.9 3.8,4.1 l 3.7,0.1 -3.7,0.4 c -3.8,0.4 -3.8,0.5 -3.8,4.9 0,4.4 0,4.4 3.8,4.6 l 3.7,0.1 -3.7,0.4 c -3.8,0.4 -3.8,0.5 -3.8,4.9 0,4.4 0,4.4 3.8,4.6 l 3.7,0.1 -3.7,0.4 c -3.8,0.4 -3.8,0.5 -3.8,4.9 0,4.4 0,4.4 3.8,4.6 l 3.7,0.1 -3.7,0.4 c -3.8,0.4 -3.8,0.5 -3.8,4.9 0,4.4 0,4.4 3.8,4.6 l 3.7,0.1 -3.7,0.4 c -3.8,0.4 -3.8,0.5 -3.8,4.9 0,4.4 0,4.4 3.8,4.6 l 3.7,0.1 -3.7,0.4 c -3.7,0.4 -3.8,0.5 -3.8,4.4 0,3.8 0.1,3.9 3.8,4.1 l 3.7,0.1 -3.7,0.4 c -3.8,0.4 -3.8,0.5 -3.8,4.9 0,4.4 0,4.4 3.8,4.6 l 3.7,0.1 -3.7,0.4 c -5.7,0.6 -6,8.3 -0.3,8.3 1.9,0 3.5,0.4 3.5,1 0,0.5 -1.6,1 -3.5,1 -5.7,0 -5.4,7.9 0.3,8.2 l 3.7,0.1 -3.7,0.4 c -3.8,0.4 -3.8,0.5 -3.8,4.9 0,4.4 0,4.4 3.8,4.6 l 3.7,0.1 -3.7,0.4 c -3.8,0.4 -3.8,0.5 -3.8,4.9 0,4.4 0,4.4 3.8,4.6 l 3.7,0.1 -3.7,0.4 c -3.8,0.4 -3.8,0.5 -3.8,4.9 0,4.4 0,4.4 3.8,4.6 l 3.7,0.1 -3.7,0.4 c -3.8,0.4 -3.8,0.5 -3.8,4.9 0,4.4 0,4.4 3.8,4.6 l 3.7,0.1 -3.7,0.4 c -3.8,0.4 -3.8,0.5 -3.8,4.9 0,4.4 0,4.4 3.8,4.6 l 3.7,0.1 -3.7,0.4 c -3.7,0.4 -3.8,0.5 -3.8,4.4 0,3.8 0.1,3.9 3.8,4.1 l 3.7,0.1 -3.7,0.4 c -3.8,0.4 -3.8,0.5 -3.8,4.9 0,4.4 0,4.4 3.8,4.6 l 3.7,0.1 -3.7,0.4 c -3.8,0.4 -3.8,0.5 -3.8,4.9 0,4.4 0,4.4 3.8,4.6 l 3.7,0.1 -3.7,0.4 c -3.8,0.4 -3.8,0.5 -3.8,4.9 0,4.4 0,4.4 3.8,4.6 l 3.7,0.1 -3.7,0.4 c -3.8,0.4 -3.8,0.5 -3.8,4.9 0,4.4 0,4.4 3.8,4.6 l 3.7,0.1 -3.7,0.4 c -3.7,0.4 -3.8,0.5 -3.8,4.4 0,3.8 0.1,3.9 3.8,4.1 l 3.7,0.1 -3.7,0.4 c -3.8,0.4 -3.8,0.5 -3.8,4.9 0,4.4 0,4.4 3.8,4.6 l 3.7,0.1 -3.7,0.4 c -3.8,0.4 -3.8,0.5 -3.8,4.9 0,4.4 0,4.4 3.8,4.6 l 3.7,0.1 -3.7,0.4 c -5.7,0.6 -6,8.3 -0.3,8.3 1.9,0 3.5,0.4 3.5,1 0,0.5 -1.6,1 -3.5,1 -5.7,0 -5.4,7.9 0.3,8.2 l 3.7,0.1 -3.7,0.4 c -3.8,0.4 -3.8,0.5 -3.8,4.9 0,4.4 0,4.4 3.8,4.6 l 3.7,0.1 -3.7,0.4 c -3.8,0.4 -3.8,0.5 -3.8,4.9 0,4.4 0,4.4 3.8,4.6 l 3.7,0.1 -3.7,0.4 c -3.8,0.4 -3.8,0.5 -3.8,4.9 0,4.4 0,4.4 3.8,4.6 l 3.7,0.1 -3.7,0.4 c -3.8,0.4 -3.8,0.5 -3.8,4.9 0,4.4 0,4.4 3.8,4.6 l 3.7,0.1 -3.7,0.4 c -3.8,0.4 -3.8,0.5 -3.8,4.9 0,4.4 0,4.4 3.8,4.6 l 3.7,0.1 -3.7,0.4 c -3.7,0.4 -3.8,0.5 -3.8,4.4 0,3.8 0.1,3.9 3.8,4.1 l 3.7,0.1 -3.7,0.4 c -3.8,0.4 -3.8,0.5 -3.8,4.9 0,4.4 0,4.4 3.8,4.6 l 3.7,0.1 -3.7,0.4 c -3.8,0.4 -3.8,0.5 -3.8,4.9 0,4.4 0,4.4 3.8,4.6 l 3.7,0.1 -3.7,0.4 c -3.8,0.4 -3.8,0.5 -3.8,4.9 0,4.4 0,4.4 3.8,4.6 l 3.7,0.1 -3.7,0.4 c -3.8,0.4 -3.8,0.5 -3.8,4.9 0,4.4 0,4.4 3.8,4.6 l 3.7,0.1 -3.7,0.4 c -3.8,0.4 -3.8,0.5 -3.8,4.9 0,4.4 0,4.4 3.8,4.6 l 3.7,0.1 -3.7,0.4 c -3.7,0.4 -3.8,0.5 -3.8,4.4 0,3.8 0.1,3.9 3.8,4.1 l 3.7,0.1 -3.7,0.4 c -3.8,0.4 -3.8,0.5 -3.8,4.9 0,4.4 0,4.4 3.8,4.6 l 3.7,0.1 -3.7,0.4 c -5.7,0.6 -6,8.3 -0.3,8.3 1.9,0 3.5,0.4 3.5,1 0,0.5 -1.6,1 -3.5,1 -5.7,0 -5.4,7.9 0.3,8.2 l 3.7,0.1 -3.7,0.4 c -3.8,0.4 -3.8,0.5 -3.8,4.9 0,4.4 0,4.4 3.8,4.6 l 3.7,0.1 -3.7,0.4 c -3.8,0.4 -3.8,0.5 -3.8,4.9 0,4.4 0,4.4 3.8,4.6 l 3.7,0.1 -3.7,0.4 c -3.8,0.4 -3.8,0.5 -3.8,4.9 0,4.4 0,4.4 3.8,4.6 l 3.7,0.1 -3.7,0.4 c -3.8,0.4 -3.8,0.5 -3.8,4.9 0,4.4 0,4.4 3.8,4.6 l 3.7,0.1 -3.7,0.4 c -3.8,0.4 -3.8,0.5 -3.8,4.9 0,4.4 0,4.4 3.8,4.6 l 3.7,0.1 -3.7,0.4 c -3.7,0.4 -3.8,0.5 -3.8,4.4 0,3.8 0.1,3.9 3.8,4.1 l 3.7,0.1 -3.7,0.4 c -3.8,0.4 -3.8,0.5 -3.8,4.9 0,4.4 0,4.4 3.8,4.6 l 3.7,0.1 -3.7,0.4 c -3.8,0.4 -3.8,0.5 -3.8,4.9 0,4.4 0,4.4 3.8,4.6 l 3.7,0.1 -3.7,0.4 c -3.8,0.4 -3.8,0.5 -3.8,4.9 l 0,4.4 -144,0 -143.9,0 -1.1,4.2 c -40.2,155.8 -129.8,314.8 -225.2,399.5 l -10.8,9.6 0,101.8 0,101.9 -9,0 c -7.1,0 -9,-0.3 -9,-1.4 0,-1.5 -1,-2 -7,-3.1 -7.8,-1.6 -27.4,-18.8 -32.5,-28.6 -14.5,-27.8 -21.2,-94.6 -24.5,-243.1 -0.6,-25.2 -1.5,-48 -2,-50.8 -1,-5.2 -1.9,-20.3 -4.5,-71.5 -2.1,-41 -5,-77.2 -9.5,-118 -3.2,-29.1 -4,-41.8 -5,-83 -0.8,-31.3 -1.7,-46 -4.5,-74.5 -1.9,-19.5 -9.3,-96 -16.5,-170 -7.2,-74 -14.2,-146.4 -15.6,-161 l -2.6,-26.5 -3.1,-3.2 c -4.8,-5.1 -6.2,-20.7 -2.4,-29 10.5,-23.5 37.2,-94.1 42.1,-111.3 27.9,-97.9 17,-238.5 -31.4,-403.5 -5.4,-18.6 -5.8,-20.5 -5.3,-27.5 0.5,-7.2 0.2,-8.6 -6.6,-30.8 -3.9,-12.7 -7.1,-23.6 -7.1,-24.1 0,-3.6 53.2,-20.9 82,-26.6 4.7,-1 19.9,-5.5 33.8,-10.1 13.9,-4.6 26.2,-8.4 27.3,-8.4 2,0 2.6,2.4 0.9,3.5 -5.2,3.2 -9.9,17.2 -7.8,23.2 1.5,4.1 0,5.8 -11.7,14.5 -8.8,6.5 -33.5,29.3 -33.5,31 0,0.5 1,2.3 2.1,4 1.9,2.7 2,3.3 0.9,7.3 l -1.2,4.5 5.3,5.8 c 3,3.2 6.5,7.5 7.9,9.5 2.8,4.2 2.9,4.2 15.5,5.7 13.7,1.5 15,1.4 19,-2.1 5.8,-5.1 23.7,-37.5 28,-50.6 1.5,-4.6 2.3,-5.5 9.4,-10.1 9.3,-6.1 11.1,-9 10.4,-17.2 l -0.5,-5.5 12.9,-6.2 c 7,-3.4 23.6,-12.6 36.8,-20.4 13.2,-7.8 25.8,-14.6 28,-15.1 9.9,-2.4 33.8,-3.5 43.8,-2.2 z M 1509,1111 c 8.9,2.6 18.8,12.7 22,22.5 3.2,9.6 -0.4,27.3 -5.4,26.9 -1.3,-0.2 -1.4,0.1 -0.6,1.1 0.8,0.9 0.8,1.5 0,2 -0.5,0.3 -1,0.1 -1,-0.5 0,-0.7 -0.7,-1 -1.5,-0.6 -1.2,0.4 -1.3,0.2 -0.7,-1.2 1.1,-2 0.5,-4.5 -0.8,-3.7 -0.5,0.3 -0.7,1.3 -0.4,2.3 0.5,1.4 0.4,1.4 -0.4,0.3 -0.8,-1.1 -0.5,-2.5 0.9,-5.2 4.4,-8.8 0.5,-21.4 -10.8,-34.7 -2.8,-3.2 -2.8,-3.2 -8.3,-2.2 -7.6,1.4 -27.4,3.9 -27.8,3.6 -0.1,-0.2 0.9,-1.8 2.4,-3.5 6.5,-7.8 20,-10.7 32.4,-7.1 z m 206,11.4 c 0,0.8 -0.7,4.2 -1.6,7.6 -5.1,20.1 12.3,43.8 33.6,45.7 l 6.2,0.6 11.9,14.1 c 6.5,7.8 11.9,14.8 11.9,15.7 0,2.7 -32,9.1 -61.7,12.3 -17.6,2 -68.3,2.3 -68.3,0.4 0,-1.5 12,-24.4 22.8,-43.3 16.5,-29 30.6,-48.6 38,-52.5 4.4,-2.3 7.2,-2.5 7.2,-0.6 z m 43.7,4.7 c 4.6,1.6 19.1,21.4 37.6,51.4 21.2,34.5 43.8,52.5 65.7,52.5 1.5,0 3,0.5 3.2,1.1 0.4,1.1 31.2,-9.1 51.8,-17.3 12.5,-4.9 19.7,-8.9 62.5,-34.8 78.7,-47.7 127.3,-49.2 169.7,-5.2 11.6,12 12,12.8 6.5,13.7 -5.9,1 -11.6,4.1 -13.5,7.5 l -1.6,2.8 -7.6,-7.2 c -18.3,-17.5 -33.9,-24.5 -56.5,-25.3 -33.9,-1.3 -59.2,9.6 -119,51.7 -32.7,22.9 -57.6,31.3 -93.5,31.4 -33.2,0.2 -49.5,-6.8 -64.1,-27.1 -9.9,-13.8 -24.8,-32 -44.3,-54.2 -16.9,-19.3 -17.9,-20.7 -18.3,-25 -1,-11.1 10.6,-19.8 21.4,-16 z m -653.4,1.3 c 5,2.1 6.3,4.3 9.2,15.4 3.3,12.4 2.9,14.1 -3.3,18.1 -6.2,3.9 -5.8,4 -7.6,-2.2 -4.2,-14 -17.3,-21.2 -26.8,-14.5 -2.7,1.8 -2.7,1.8 -3.8,-0.2 -5.2,-9.8 19,-22.2 32.3,-16.6 z m -11.7,25.3 c 8.2,10 7.3,16.1 -6,42.8 -5.3,10.4 -10.6,20.3 -11.8,21.8 l -2.3,2.9 -5,-3.9 c -2.8,-2.1 -8,-5.8 -11.7,-8.2 l -6.8,-4.3 -6.6,4.1 c -8.1,5.1 -7.9,5.4 -5.4,-6 2.6,-12.1 2.6,-11.9 -1.8,-7.6 l -3.8,3.7 -1.7,-2.9 -1.7,-2.9 11.8,-10.9 c 6.4,-6 15.1,-13.4 19.2,-16.5 4.1,-3 8.9,-6.9 10.5,-8.6 10.2,-10.3 16.8,-11.3 23.1,-3.5 z m 1253.2,35.5 c 58.9,35.2 140.5,84.7 157.2,95.3 1.9,1.3 9.6,6 17,10.5 116.7,71.7 213.6,135.8 246,163 32.7,27.3 45.3,72.8 66.5,240 22.4,176.9 33.2,223.4 69,297 41.2,84.8 52,145.2 33.9,189 -2.4,5.8 -8.7,21.7 -14,35.5 -10.5,27.5 -19,43.9 -50.9,99 -73.6,126.8 -132.5,203 -166.5,215.4 -2,0.8 -11.6,1.7 -22,2.1 -10.2,0.5 -25.2,1.2 -33.5,1.5 l -15,0.7 -18.5,-5.7 c -129.5,-39.6 -174,-70.8 -174,-122.1 0,-24.1 46,-236.4 69.5,-320.9 14.8,-53 32.7,-103 38.8,-108 0.7,-0.6 2.3,-3.5 3.6,-6.5 7.3,-16.8 9.5,-23.1 10.8,-30.9 0.8,-4.7 5.2,-20.3 9.8,-34.6 4.6,-14.3 12.2,-37.9 16.8,-52.5 4.7,-14.6 17.2,-53.3 27.7,-86 10.5,-32.7 24.5,-76.2 31,-96.5 6.6,-20.4 17.5,-54.3 24.3,-75.5 8.5,-26.3 12,-38.7 11.3,-39.2 -0.7,-0.4 -2.5,-0.8 -4,-1 l -2.9,-0.3 -57.7,179.5 c -43.5,135.3 -58.1,179.6 -59.4,179.8 -0.9,0.2 -1.6,-0.1 -1.6,-0.6 0,-1.9 -6.7,-9.3 -12,-13.4 -8.6,-6.5 -24,-13.2 -45.6,-19.8 -63.5,-19.6 -74.9,-25.1 -94.9,-46 -7.1,-7.5 -6.4,-7 -89,-60.8 -5.7,-3.8 -10.1,-6 -10.3,-5.3 -1.7,5 -5.6,-2.9 -22.6,-45.6 -24.7,-62 -30.8,-80.4 -36.5,-108.8 -19.1,-95.8 -4.3,-238.1 39.4,-380 4.3,-14 4.6,-15.5 4,-22.4 -0.9,-9.7 10.2,-49.1 13.8,-49.1 1,0 19.3,10.4 40.5,23.2 z m -1417.7,-7 c 8.8,28.6 8.9,28.9 8.9,38.7 0,8.3 0.6,11.3 4.9,26 54.7,183.6 61.7,328.5 21,437 -26.4,70.4 -39.2,99.7 -41.1,94 -0.2,-0.6 -9.1,4.6 -19.8,11.7 -10.7,7 -31.2,20.4 -45.5,29.7 -22.4,14.5 -27.6,18.4 -37.1,27.6 -19.3,18.7 -31.3,24.9 -73.4,37.6 -47.2,14.3 -57.4,18.8 -69.8,31.2 -4.6,4.6 -8.7,8.3 -9.1,8.3 -0.4,0 -3,-7.1 -5.8,-15.8 -5.7,-17.4 -19.4,-60 -33.1,-102.7 -27.4,-85.1 -44.3,-137.7 -54.1,-168.3 -4.9,-15.2 -12.2,-37.9 -16.2,-50.3 l -7.2,-22.6 -3.6,0.9 c -2,0.6 -3.8,1.2 -3.9,1.3 -0.2,0.2 8.7,28.6 19.8,63.2 11.2,34.5 22.6,70.2 25.5,79.3 3,9.1 9.4,29.1 14.3,44.5 36.1,112.3 53.9,167.5 56.8,176.5 1.9,5.8 4.1,14.5 4.9,19.3 2.1,12 9.4,30.8 15.8,40.3 22.8,33.9 65.6,200.2 104.7,406 12.6,66.7 -26.8,99.4 -173.3,144 l -18,5.4 -27.6,-1.5 c -15.2,-0.8 -30.3,-1.6 -33.7,-1.8 -35,-1.7 -107.3,-95.6 -195.4,-253.7 -19.7,-35.4 -19.5,-35 -32.2,-67.8 -6,-15.8 -11.9,-30.3 -12.9,-32.4 -7.5,-14.7 -8.9,-49.9 -3.3,-79.6 6.5,-34.1 19.9,-70.2 43.7,-117.7 29.4,-58.9 42.7,-118.6 64.2,-289.5 19.2,-152.3 32.4,-203.4 59.7,-230.9 22,-22.1 128,-92.3 284.3,-188.3 83.4,-51.2 180.7,-109.6 182.7,-109.7 1.3,-0.1 2.4,2.3 4.9,10.1 z m 1245.8,18.5 c 16.5,9.6 18.2,11.9 15,21.4 -1.6,4.5 -1.4,4.4 -4.6,2.1 -4.1,-2.8 -8.9,-4.2 -16.5,-4.4 -7.8,-0.3 -12.9,3.3 -14.9,10.4 -1.1,4.2 -1.2,4.2 -3.9,2.8 -7.1,-3.8 -3.9,-19 6.2,-28.6 7.6,-7.3 11.3,-8.1 18.7,-3.7 z m 4.8,27 c 7.4,3.5 13,15.5 20.2,43.3 4.5,17.6 4.5,17.4 -0.9,17.8 -4.1,0.2 -18.1,2.7 -22.2,3.8 -1,0.3 -2.3,2.6 -3.3,6.2 -2.9,10.6 -2.6,10.6 -8.8,0.1 l -5.7,-9.4 0,5.4 0,5.3 -3.2,-0.6 c -1.7,-0.3 -3.3,-0.8 -3.6,-1 -0.8,-0.9 2,-34.2 3.4,-40.4 0.8,-3.5 1.7,-9.5 2,-13.5 1.6,-19.2 7.7,-23.9 22.1,-17 z m -561.7,24.5 c 0,11.7 1,13.8 6.8,13.8 6.2,0 7.2,-1.9 7.2,-13.7 l 0,-10.3 2.9,0 2.9,0 0.6,15.2 c 1.5,39.1 1.4,42.8 -0.7,44 -3.1,1.6 -16.9,2.2 -22.5,0.9 l -5,-1.3 0.4,-14.1 c 0.3,-7.8 0.7,-21.1 1,-29.5 l 0.6,-15.2 2.9,0 2.9,0 0,10.2 z m -4,966.8 c 0,0.5 1.7,1.1 3.8,1.2 l 3.7,0.1 -3.7,0.4 c -3.8,0.4 -3.8,0.5 -3.8,4.9 0,4.4 0,4.4 3.8,4.6 l 3.7,0.1 -3.7,0.4 c -3.7,0.4 -3.8,0.5 -3.8,4.4 0,3.8 0.1,3.9 3.8,4.1 l 3.7,0.1 -3.7,0.4 c -3.8,0.4 -3.8,0.5 -3.8,4.9 0,4.4 0,4.4 3.8,4.6 l 3.7,0.1 -3.7,0.4 c -3.8,0.4 -3.8,0.5 -3.8,4.9 0,4.4 0,4.4 3.8,4.6 l 3.7,0.1 -3.7,0.4 c -3.8,0.4 -3.8,0.5 -3.8,4.9 0,4.4 0,4.4 3.8,4.6 l 3.7,0.1 -3.7,0.4 c -5.7,0.6 -6,8.3 -0.3,8.3 1.9,0 3.5,0.4 3.5,1 0,0.5 -1.6,1 -3.5,1 -5.7,0 -5.4,7.9 0.3,8.2 l 3.7,0.1 -3.7,0.4 c -3.8,0.4 -3.8,0.5 -3.8,4.9 0,4.4 0,4.4 3.8,4.6 l 3.7,0.1 -3.7,0.4 c -3.8,0.4 -3.8,0.5 -3.8,4.9 0,4.4 0,4.4 3.8,4.6 l 3.7,0.1 -3.7,0.4 c -3.8,0.4 -3.8,0.5 -3.8,4.9 0,4.4 0,4.4 3.8,4.6 l 3.7,0.1 -3.7,0.4 c -3.8,0.4 -3.8,0.5 -3.8,4.9 0,4.4 0,4.4 3.8,4.6 l 3.7,0.1 -3.7,0.4 c -3.8,0.4 -3.8,0.5 -3.8,4.9 0,4.4 0,4.4 3.8,4.6 l 3.7,0.1 -3.7,0.4 c -3.7,0.4 -3.8,0.5 -3.8,4.4 0,3.8 0.1,3.9 3.8,4.1 l 3.7,0.1 -3.7,0.4 c -3.8,0.4 -3.8,0.5 -3.8,4.9 0,4.4 0,4.4 3.8,4.6 l 3.7,0.1 -3.7,0.4 c -3.8,0.4 -3.8,0.5 -3.8,4.9 0,4.4 0,4.4 3.8,4.6 l 3.7,0.1 -3.7,0.4 c -3.8,0.4 -3.8,0.5 -3.8,4.9 0,4.4 0,4.4 3.8,4.6 l 3.7,0.1 -3.7,0.4 c -3.8,0.4 -3.8,0.5 -3.8,4.9 0,4.4 0,4.4 3.8,4.6 l 3.7,0.1 -3.7,0.4 c -3.8,0.4 -3.8,0.5 -3.8,4.9 0,4.4 0,4.4 3.8,4.6 l 3.7,0.1 -3.7,0.4 c -3.7,0.4 -3.8,0.5 -3.8,4.4 0,3.8 0.1,3.9 3.8,4.1 l 3.7,0.1 -3.7,0.4 c -3.8,0.4 -3.8,0.5 -3.8,4.9 0,4.4 0,4.4 3.8,4.6 l 3.7,0.1 -3.7,0.4 c -5.7,0.6 -6,8.3 -0.3,8.3 1.9,0 3.5,0.4 3.5,1 0,0.5 -1.6,1 -3.5,1 -5.7,0 -5.4,7.9 0.3,8.2 l 3.7,0.1 -3.7,0.4 c -3.8,0.4 -3.8,0.5 -3.8,4.9 0,4.4 0,4.4 3.8,4.6 l 3.7,0.1 -3.7,0.4 c -3.8,0.4 -3.8,0.5 -3.8,4.9 0,4.4 0,4.4 3.8,4.6 l 3.7,0.1 -3.7,0.4 c -3.8,0.4 -3.8,0.5 -3.8,4.9 0,4.4 0,4.4 3.8,4.6 l 3.7,0.1 -3.7,0.4 -3.8,0.4 0,14 0,13.9 3.8,0.2 3.7,0.1 -3.7,0.4 c -3.8,0.4 -3.8,0.5 -3.8,4.9 0,4.4 0,4.4 3.8,4.6 l 3.7,0.1 -3.7,0.4 c -3.8,0.4 -3.8,0.5 -3.8,4.9 0,4.4 0,4.4 3.8,4.6 l 3.7,0.1 -3.7,0.4 c -3.8,0.4 -3.8,0.5 -3.8,4.9 0,4.4 0,4.4 3.8,4.6 l 3.7,0.1 -3.7,0.4 c -3.7,0.4 -3.8,0.5 -3.8,4.4 0,3.8 0.1,3.9 3.8,4.1 l 3.7,0.1 -3.7,0.4 c -3.8,0.4 -3.8,0.5 -3.8,4.9 0,4.4 0,4.4 3.8,4.6 l 3.7,0.1 -3.7,0.4 c -3.8,0.4 -3.8,0.5 -3.8,4.9 0,4.4 0,4.4 3.8,4.6 l 3.7,0.1 -3.7,0.4 c -3.8,0.4 -3.8,0.5 -3.8,4.9 0,4.4 0,4.4 3.8,4.6 l 3.7,0.1 -3.7,0.4 c -3.8,0.4 -3.8,0.5 -3.8,4.9 0,4.4 0,4.4 3.8,4.6 l 3.7,0.1 -3.7,0.4 c -3.8,0.4 -3.8,0.5 -3.8,4.9 0,4.4 0,4.4 3.8,4.6 l 3.7,0.1 -3.7,0.4 c -3.7,0.4 -3.8,0.5 -3.8,4.4 0,3.8 0.1,3.9 3.8,4.1 l 3.7,0.1 -3.7,0.4 c -3.8,0.4 -3.8,0.5 -3.8,4.9 0,4.4 0,4.4 3.8,4.6 l 3.7,0.1 -3.7,0.4 c -5.7,0.6 -6,8.3 -0.3,8.3 1.9,0 3.5,0.4 3.5,1 0,0.5 -1.6,1 -3.5,1 -5.7,0 -5.4,7.9 0.3,8.2 l 3.7,0.1 -3.7,0.4 c -3.8,0.4 -3.8,0.5 -3.8,4.9 0,4.4 0,4.4 3.8,4.6 l 3.7,0.1 -3.7,0.4 c -3.8,0.4 -3.8,0.5 -3.8,4.9 0,4.4 0,4.4 3.8,4.6 l 3.7,0.1 -3.7,0.4 c -3.8,0.4 -3.8,0.5 -3.8,4.9 0,4.4 0,4.4 3.8,4.6 l 3.7,0.1 -3.7,0.4 c -3.8,0.4 -3.8,0.5 -3.8,4.9 0,4.4 0,4.4 3.8,4.6 l 3.7,0.1 -3.7,0.4 c -3.8,0.4 -3.8,0.5 -3.8,4.9 0,4.4 0,4.4 3.8,4.6 l 3.7,0.1 -3.7,0.4 c -3.7,0.4 -3.8,0.5 -3.8,4.4 0,3.8 0.1,3.9 3.8,4.1 l 3.7,0.1 -3.7,0.4 c -3.8,0.4 -3.8,0.5 -3.8,4.9 0,4.4 0,4.4 3.8,4.6 l 3.7,0.1 -3.7,0.4 c -3.8,0.4 -3.8,0.5 -3.8,4.9 0,4.4 0,4.4 3.8,4.6 l 3.7,0.1 -3.7,0.4 c -3.8,0.4 -3.8,0.5 -3.8,4.9 0,4.4 0,4.4 3.8,4.6 l 3.7,0.1 -3.7,0.4 c -3.8,0.4 -3.8,0.5 -3.8,4.9 0,4.4 0,4.4 3.8,4.6 l 3.7,0.1 -3.7,0.4 c -3.8,0.4 -3.8,0.5 -3.8,4.9 0,4.4 0,4.4 3.8,4.6 l 3.7,0.1 -3.7,0.4 c -3.7,0.4 -3.8,0.5 -3.8,4.4 0,3.8 0.1,3.9 3.8,4.1 l 3.7,0.1 -3.7,0.4 c -3.8,0.4 -3.8,0.5 -3.8,4.9 0,4.4 0,4.4 3.8,4.6 l 3.7,0.1 -3.7,0.4 c -3.8,0.4 -3.8,0.5 -3.8,4.9 0,4.4 0,4.4 3.8,4.6 l 3.7,0.1 -3.7,0.4 c -3.8,0.4 -3.8,0.5 -3.8,4.9 0,4.4 0,4.4 3.8,4.6 l 3.7,0.1 -3.7,0.4 c -5.7,0.6 -6,8.3 -0.3,8.3 1.9,0 3.5,0.4 3.5,1 0,0.5 -1.6,1 -3.5,1 -5.7,0 -5.4,7.9 0.3,8.2 l 3.7,0.1 -3.7,0.4 c -3.8,0.4 -3.8,0.5 -3.8,4.9 0,4.4 0,4.4 3.8,4.6 l 3.7,0.1 -3.7,0.4 c -3.8,0.4 -3.8,0.5 -3.8,4.9 0,4.4 0,4.4 3.8,4.6 l 3.7,0.1 -3.7,0.4 c -3.8,0.4 -3.8,0.5 -3.8,4.9 0,4.4 0,4.4 3.8,4.6 l 3.7,0.1 -3.7,0.4 c -3.8,0.4 -3.8,0.5 -3.8,4.9 0,4.4 0,4.4 3.8,4.6 l 3.7,0.1 -3.7,0.4 c -2.1,0.2 -3.8,0.8 -3.8,1.4 0,0.5 -97.7,0.9 -258,0.9 l -258,0 0,-102.4 0,-102.5 4.8,-4.3 c 99.3,-89.9 191.5,-250.6 229.2,-399.6 l 1.1,-4.2 140.4,0 c 93,0 140.5,0.3 140.5,1 z m 303.5,12.7 c 35.1,137 117.3,285.4 208.7,376.6 l 23.8,23.8 0,99.5 0,99.4 -257,0 -257,0 0,-3.5 c 0,-3.3 -0.2,-3.5 -3.7,-3.7 l -3.8,-0.1 3.8,-0.4 c 3.7,-0.4 3.7,-0.5 3.7,-4.9 0,-4.4 0,-4.4 -3.7,-4.6 l -3.8,-0.1 3.8,-0.4 c 3.7,-0.4 3.7,-0.5 3.7,-4.9 0,-4.4 0,-4.4 -3.7,-4.6 l -3.8,-0.1 3.8,-0.4 c 3.7,-0.4 3.7,-0.5 3.7,-4.9 0,-4.4 0,-4.4 -3.7,-4.6 l -3.8,-0.1 3.8,-0.4 c 3.6,-0.4 3.7,-0.5 3.7,-4.4 0,-3.8 -0.1,-3.9 -3.7,-4.1 l -3.8,-0.1 3.8,-0.4 c 3.7,-0.4 3.7,-0.5 3.7,-4.9 l 0,-4.4 -3.7,-0.1 -3.8,-0.2 3.5,-0.6 c 3.3,-0.6 3.5,-0.9 3.8,-4.9 l 0.3,-4.2 -3.8,-0.2 -3.8,-0.1 3.8,-0.4 c 3.7,-0.4 3.7,-0.5 3.7,-4.9 0,-4.4 0,-4.4 -3.7,-4.6 l -3.8,-0.1 3.8,-0.4 c 3.7,-0.4 3.7,-0.5 3.7,-4.9 0,-4.4 0,-4.4 -3.7,-4.6 l -3.8,-0.1 3.8,-0.4 c 3.7,-0.4 3.7,-0.5 3.7,-4.9 0,-2.8 -0.4,-4.4 -1.2,-4.5 -1,0 -1,-0.2 0,-0.6 0.7,-0.2 1.2,-2.2 1.2,-4.4 0,-3.8 -0.1,-3.9 -3.7,-4.1 l -3.8,-0.1 3.8,-0.4 c 3.7,-0.4 3.7,-0.5 3.7,-4.9 0,-4.4 0,-4.4 -3.7,-4.6 l -3.8,-0.1 3.8,-0.4 c 3.7,-0.4 3.7,-0.5 3.7,-4.9 0,-4.4 0,-4.4 -3.7,-4.6 l -3.8,-0.1 3.8,-0.4 c 3.7,-0.4 3.7,-0.5 3.7,-4.9 0,-4.4 0,-4.4 -3.7,-4.6 l -3.8,-0.1 3.8,-0.4 c 3.7,-0.4 3.7,-0.5 3.7,-4.9 0,-4.4 0,-4.4 -3.7,-4.6 l -3.8,-0.1 3.8,-0.4 c 5.7,-0.6 5.4,-8.4 -0.3,-9.4 l -3.5,-0.6 3.8,-0.2 c 3.6,-0.1 3.7,-0.2 3.7,-4.1 0,-3.9 -0.1,-4 -3.7,-4.2 l -3.8,-0.1 3.8,-0.4 c 3.7,-0.4 3.7,-0.5 3.7,-4.9 0,-4.4 0,-4.4 -3.7,-4.6 l -3.8,-0.1 3.8,-0.4 c 3.7,-0.4 3.7,-0.5 3.7,-4.9 0,-4.4 0,-4.4 -3.7,-4.6 l -3.8,-0.1 3.8,-0.4 c 3.7,-0.4 3.7,-0.5 3.7,-4.9 0,-4.4 0,-4.4 -3.7,-4.6 l -3.8,-0.1 3.8,-0.4 c 3.7,-0.4 3.7,-0.5 3.7,-4.9 0,-4.4 0,-4.4 -3.7,-4.6 l -3.8,-0.1 3.8,-0.4 c 3.6,-0.4 3.7,-0.5 3.7,-4.4 0,-3.8 -0.1,-3.9 -3.7,-4.1 l -3.8,-0.1 3.8,-0.4 c 3.7,-0.4 3.7,-0.5 3.7,-4.9 0,-4.4 0,-4.4 -3.7,-4.6 l -3.8,-0.1 3.8,-0.4 c 3.7,-0.4 3.7,-0.5 3.7,-4.9 0,-4.4 0,-4.4 -3.7,-4.6 l -3.8,-0.1 3.8,-0.4 c 3.7,-0.4 3.7,-0.5 3.7,-4.9 0,-4.4 0,-4.4 -3.7,-4.6 l -3.8,-0.1 3.8,-0.4 c 3.6,-0.4 3.7,-0.5 3.7,-4.4 0,-3.8 -0.1,-3.9 -3.7,-4.1 l -3.8,-0.1 3.8,-0.4 c 3.7,-0.4 3.7,-0.5 3.7,-4.9 0,-4.4 0,-4.4 -3.7,-4.6 l -3.8,-0.1 3.8,-0.4 c 3.7,-0.4 3.7,-0.5 3.7,-4.9 0,-4.4 0,-4.4 -3.7,-4.6 l -3.8,-0.1 3.8,-0.4 c 3.7,-0.4 3.7,-0.5 3.7,-4.9 0,-4.4 0,-4.4 -3.7,-4.6 l -3.8,-0.1 3.8,-0.4 c 3.7,-0.4 3.7,-0.5 3.7,-4.9 0,-4.4 0,-4.4 -3.7,-4.6 l -3.8,-0.1 3.8,-0.4 c 5.7,-0.6 5.4,-8.4 -0.3,-9.4 l -3.5,-0.6 3.8,-0.2 c 3.6,-0.1 3.7,-0.2 3.7,-4.1 0,-3.9 -0.1,-4 -3.7,-4.2 l -3.8,-0.1 3.8,-0.4 c 3.7,-0.4 3.7,-0.5 3.7,-4.9 0,-4.4 0,-4.4 -3.7,-4.6 l -3.8,-0.1 3.8,-0.4 c 3.7,-0.4 3.7,-0.5 3.7,-4.9 0,-4.4 0,-4.4 -3.7,-4.6 l -3.8,-0.1 3.7,-0.4 3.7,-0.4 0,-14 0.1,-13.9 -3.8,-0.2 -3.7,-0.1 3.8,-0.4 c 3.7,-0.4 3.7,-0.5 3.7,-4.9 0,-4.4 0,-4.4 -3.7,-4.6 l -3.8,-0.1 3.8,-0.4 c 3.7,-0.4 3.7,-0.5 3.7,-4.9 0,-4.4 0,-4.4 -3.7,-4.6 l -3.8,-0.1 3.8,-0.4 c 3.7,-0.4 3.7,-0.5 3.7,-4.9 0,-4.4 0,-4.4 -3.7,-4.6 l -3.8,-0.1 3.8,-0.4 3.7,-0.4 0,-9 0,-8.9 -3.7,-0.2 -3.8,-0.1 3.8,-0.4 c 3.7,-0.4 3.7,-0.5 3.7,-4.9 0,-4.4 0,-4.4 -3.7,-4.6 l -3.8,-0.1 3.8,-0.4 c 3.7,-0.4 3.7,-0.5 3.7,-4.9 0,-4.4 0,-4.4 -3.7,-4.6 l -3.8,-0.1 3.8,-0.4 c 3.6,-0.4 3.7,-0.5 3.7,-4.4 0,-3.8 -0.1,-3.9 -3.7,-4.1 l -3.8,-0.1 3.8,-0.4 c 3.7,-0.4 3.7,-0.5 3.7,-4.9 0,-4.4 0,-4.4 -3.7,-4.6 l -3.8,-0.1 3.8,-0.4 c 3.7,-0.4 3.7,-0.5 3.7,-4.9 0,-4.4 0,-4.4 -3.7,-4.6 l -3.8,-0.1 3.8,-0.4 c 3.7,-0.4 3.7,-0.5 3.7,-4.9 0,-4.4 0,-4.4 -3.7,-4.6 l -3.8,-0.1 3.8,-0.4 c 3.7,-0.4 3.7,-0.5 3.7,-4.9 0,-4.4 0,-4.4 -3.7,-4.6 l -3.8,-0.1 3.8,-0.4 c 5.7,-0.6 5.4,-8.4 -0.3,-9.4 l -3.5,-0.6 3.8,-0.2 c 3.6,-0.1 3.7,-0.2 3.7,-4.1 0,-3.9 -0.1,-4 -3.7,-4.2 l -3.8,-0.1 3.8,-0.4 c 3.7,-0.4 3.7,-0.5 3.7,-4.9 0,-4.4 0,-4.4 -3.7,-4.6 l -3.8,-0.1 3.8,-0.4 c 3.7,-0.4 3.7,-0.5 3.7,-4.9 0,-4.4 0,-4.4 -3.7,-4.6 l -3.8,-0.1 3.8,-0.4 c 3.7,-0.4 3.7,-0.5 3.7,-4.9 0,-4.4 0,-4.4 -3.7,-4.6 l -3.8,-0.1 3.8,-0.4 c 3.7,-0.4 3.7,-0.5 3.7,-4.9 0,-4.4 0,-4.4 -3.7,-4.6 l -3.8,-0.1 3.8,-0.4 c 3.6,-0.4 3.7,-0.5 3.7,-4.4 0,-3.8 -0.1,-3.9 -3.7,-4.1 l -3.8,-0.1 3.8,-0.4 c 3.7,-0.4 3.7,-0.5 3.7,-4.9 l 0,-4.4 -3.7,-0.1 -3.8,-0.2 3.5,-0.6 c 3.3,-0.6 3.5,-0.9 3.8,-4.9 l 0.3,-4.2 -3.8,-0.2 -3.8,-0.1 3.8,-0.4 c 3.7,-0.4 3.7,-0.5 3.7,-4.9 0,-4.4 0,-4.4 -3.7,-4.6 l -3.8,-0.1 3.8,-0.4 c 3.7,-0.4 3.7,-0.5 3.7,-4.9 0,-4.4 0,-4.4 -3.7,-4.6 l -3.8,-0.1 3.8,-0.4 c 3.7,-0.4 3.7,-0.5 3.7,-4.9 0,-2.8 -0.4,-4.4 -1.2,-4.5 -1,0 -1,-0.2 0,-0.6 0.7,-0.2 1.2,-2.2 1.2,-4.4 0,-3.8 -0.1,-3.9 -3.7,-4.1 l -3.8,-0.1 3.8,-0.4 c 3.5,-0.4 3.7,-0.6 3.7,-3.9 l 0,-3.4 139.1,0.2 139.1,0.3 3.3,13.2 z m 532.5,225.6 c 20.4,30.4 70.4,55.2 172.4,85.7 l 13.9,4.2 19.1,-1.1 c 10.5,-0.6 24.3,-1.4 30.6,-1.6 6.3,-0.3 13.7,-0.8 16.4,-1.2 6.9,-0.8 7.9,-3.1 -27.5,64.1 l -31.4,59.5 -5,0.5 c -2.7,0.3 -15.1,1.4 -27.5,2.4 l -22.5,2 -11.5,-3.5 c -103.8,-30.9 -143.2,-55.1 -154.1,-94.9 -3.8,-13.8 -3.1,-23.9 3.5,-50.9 11.2,-45.7 17.9,-70.5 19,-70.5 0.6,0 2.7,2.4 4.6,5.3 z m -1651.6,49.2 11.9,47.6 -0.5,10.7 c -2.3,47.9 -39.5,74.5 -152.3,108.9 l -15,4.5 -18,-1.6 c -9.9,-0.9 -22.3,-1.9 -27.6,-2.2 l -9.6,-0.7 -14.8,-28.1 c -15.7,-29.7 -24.1,-45.6 -39.9,-75.3 -10.5,-19.8 -11.2,-21.9 -6.8,-20.9 1.5,0.4 11.5,1.1 22.2,1.6 10.8,0.6 25.6,1.4 33,1.8 l 13.5,0.8 19.5,-5.9 c 94.9,-28.5 140.8,-51.1 163.8,-80.3 3.6,-4.6 7.1,-8.4 7.7,-8.4 0.5,0 6.4,21.4 12.9,47.5 z m 290.6,331 c 0,1.3 29.8,1.5 262.5,1.5 l 262.5,0 0,4 c 0,3.9 0.1,4 3.8,4.2 l 3.7,0.1 -3.7,0.4 c -3.8,0.4 -3.8,0.5 -3.8,4.9 0,4.4 0,4.4 3.8,4.6 l 3.7,0.1 -3.7,0.4 c -3.8,0.4 -3.8,0.5 -3.8,4.9 0,4.4 0,4.4 3.8,4.6 l 3.7,0.1 -3.7,0.4 c -3.8,0.4 -3.8,0.5 -3.8,4.9 0,4.4 0,4.4 3.8,4.6 l 3.7,0.1 -3.7,0.4 c -3.8,0.4 -3.8,0.5 -3.8,4.9 0,4.4 0,4.4 3.8,4.6 l 3.7,0.1 -3.7,0.4 c -3.8,0.4 -3.8,0.5 -3.8,4.9 0,4.4 0,4.4 3.8,4.6 l 3.7,0.1 -3.7,0.4 c -3.7,0.4 -3.8,0.5 -3.8,4.4 0,3.8 0.1,3.9 3.8,4.1 l 3.7,0.1 -3.7,0.4 c -3.8,0.4 -3.8,0.5 -3.8,4.9 0,4.4 0,4.4 3.8,4.6 l 3.7,0.1 -3.7,0.4 c -5.7,0.6 -6,8.3 -0.3,8.3 1.9,0 3.5,0.4 3.5,1 0,0.5 -1.6,1 -3.5,1 -5.7,0 -5.4,7.9 0.3,8.2 l 3.7,0.1 -3.7,0.4 c -3.8,0.4 -3.8,0.5 -3.8,4.9 0,4.4 0,4.4 3.8,4.6 l 3.7,0.1 -3.7,0.4 c -3.8,0.4 -3.8,0.5 -3.8,4.9 0,4.4 0,4.4 3.8,4.6 l 3.7,0.1 -3.7,0.4 c -3.8,0.4 -3.8,0.5 -3.8,4.9 0,4.4 0,4.4 3.8,4.6 l 3.7,0.1 -3.7,0.4 c -3.8,0.4 -3.8,0.5 -3.8,4.9 0,4.4 0,4.4 3.8,4.6 l 3.7,0.1 -3.7,0.4 c -3.8,0.4 -3.8,0.5 -3.8,4.9 0,4.4 0,4.4 3.8,4.6 l 3.7,0.1 -3.7,0.4 c -3.7,0.4 -3.8,0.5 -3.8,4.4 0,3.8 0.1,3.9 3.8,4.1 l 3.7,0.1 -3.7,0.4 c -3.8,0.4 -3.8,0.5 -3.8,4.9 0,4.4 0,4.4 3.8,4.6 l 3.7,0.1 -3.7,0.4 c -3.8,0.4 -3.8,0.5 -3.8,4.9 0,4.4 0,4.4 3.8,4.6 l 3.7,0.1 -3.7,0.4 c -3.4,0.4 -3.8,0.7 -3.8,3.4 l 0,2.9 -268.4,0 -268.5,0 -0.5,-4.3 c -0.2,-2.3 -1.4,-16.6 -2.6,-31.7 -3.5,-44.9 -9.8,-96.3 -16.6,-134 -1.3,-7.4 -2.4,-13.8 -2.4,-14.3 0,-0.4 7.7,-0.7 17,-0.7 14.4,0 17,0.2 17,1.5 z m 1089.6,3.2 c -8,58.2 -13.3,119.4 -14.9,172.3 l -0.2,7.5 -262.2,0.3 c -148.7,0.1 -264.5,-0.2 -267.5,-0.7 -4.8,-0.8 -4.9,-0.9 -1.5,-1 l 3.7,-0.1 0,-4.5 0,-4.5 -3.7,-0.2 -3.8,-0.1 3.8,-0.4 c 3.7,-0.4 3.7,-0.5 3.7,-4.9 0,-4.4 0,-4.4 -3.7,-4.6 l -3.8,-0.1 3.8,-0.4 c 5.7,-0.6 5.4,-8.4 -0.3,-9.4 l -3.5,-0.6 3.8,-0.2 c 3.6,-0.1 3.7,-0.2 3.7,-4.1 0,-3.9 -0.1,-4 -3.7,-4.2 l -3.8,-0.1 3.8,-0.4 c 3.7,-0.4 3.7,-0.5 3.7,-4.9 0,-4.4 0,-4.4 -3.7,-4.6 l -3.8,-0.1 3.8,-0.4 c 3.7,-0.4 3.7,-0.5 3.7,-4.9 0,-4.4 0,-4.4 -3.7,-4.6 l -3.8,-0.1 3.8,-0.4 c 3.7,-0.4 3.7,-0.5 3.7,-4.9 0,-4.4 0,-4.4 -3.7,-4.6 l -3.8,-0.1 3.8,-0.4 c 3.7,-0.4 3.7,-0.5 3.7,-4.9 0,-4.4 0,-4.4 -3.7,-4.6 l -3.8,-0.1 3.8,-0.4 c 3.6,-0.4 3.7,-0.5 3.7,-4.4 0,-3.8 -0.1,-3.9 -3.7,-4.1 l -3.8,-0.1 3.8,-0.4 c 3.7,-0.4 3.7,-0.5 3.7,-4.9 0,-4.4 0,-4.4 -3.7,-4.6 l -3.8,-0.1 3.8,-0.4 c 3.7,-0.4 3.7,-0.5 3.7,-4.9 0,-4.4 0,-4.4 -3.7,-4.6 l -3.8,-0.1 3.8,-0.4 c 3.7,-0.4 3.7,-0.5 3.7,-4.9 0,-4.4 0,-4.4 -3.7,-4.6 l -3.8,-0.1 3.8,-0.4 c 3.6,-0.4 3.7,-0.5 3.7,-4.4 0,-3.8 -0.1,-3.9 -3.7,-4.1 l -3.8,-0.1 3.8,-0.4 c 3.7,-0.4 3.7,-0.5 3.7,-4.9 0,-4.4 0,-4.4 -3.7,-4.6 l -3.8,-0.1 3.8,-0.4 c 3.7,-0.4 3.7,-0.5 3.7,-4.9 0,-4.4 0,-4.4 -3.7,-4.6 l -3.8,-0.1 3.8,-0.4 c 3.7,-0.4 3.7,-0.5 3.7,-4.9 0,-4.4 0,-4.4 -3.7,-4.6 l -3.8,-0.1 3.8,-0.4 c 3.7,-0.4 3.7,-0.5 3.7,-4.9 0,-4.4 0,-4.4 -3.7,-4.6 l -3.8,-0.1 3.8,-0.4 c 5.7,-0.6 5.4,-8.4 -0.3,-9.4 l -3.5,-0.6 3.8,-0.2 c 2.6,-0.1 3.7,-0.6 3.7,-1.6 0,-1.3 29.7,-1.5 261.5,-1.5 231.8,0 261.5,-0.2 261.5,-1.5 0,-1.2 1.8,-1.5 10.1,-1.5 l 10.2,0 -0.7,4.7 z"
       id="path3271"
       style="fill:#000000;stroke:none" />
    <path
       d="m 1615,1269.8 -2.5,0.8 -0.3,14.6 c -0.3,16.6 -0.9,15.5 9.4,16.5 3.5,0.3 8.3,0 11.3,-0.7 l 5.1,-1.2 0,-14.3 c 0,-10.4 -0.3,-14.6 -1.2,-15.2 -1.7,-1 -18.7,-1.4 -21.8,-0.5 z"
       id="path3273"
       style="fill:#000000;stroke:none" />
  </g>
</svg>
