<?xml version="1.0" encoding="UTF-8"?>
<!DOCTYPE svg PUBLIC "-//W3C//DTD SVG 1.1//EN" "http://www.w3.org/Graphics/SVG/1.1/DTD/svg11.dtd">
<svg version="1.2" width="105.83mm" height="70.56mm" viewBox="0 0 10583 7056" preserveAspectRatio="xMidYMid" fill-rule="evenodd" clip-path="url(#presentation_clip_path)" stroke-width="28.222" stroke-linejoin="round" xmlns="http://www.w3.org/2000/svg" xmlns:ooo="http://xml.openoffice.org/svg/export" xmlns:xlink="http://www.w3.org/1999/xlink" xml:space="preserve">
 <defs class="ClipPathGroup">
  <clipPath id="presentation_clip_path" clipPathUnits="userSpaceOnUse">
   <rect x="0" y="0" width="10583" height="7056"/>
  </clipPath>
 </defs>
 <defs class="TextShapeIndex">
  <g ooo:slide="id1" ooo:id-list="id3 id4 id5"/>
 </defs>
 <defs class="EmbeddedBulletChars">
  <g id="bullet-char-template(57356)" transform="scale(0.00048828125,-0.00048828125)">
   <path d="M 580,1141 L 1163,571 580,0 -4,571 580,1141 Z"/>
  </g>
  <g id="bullet-char-template(57354)" transform="scale(0.00048828125,-0.00048828125)">
   <path d="M 8,1128 L 1137,1128 1137,0 8,0 8,1128 Z"/>
  </g>
  <g id="bullet-char-template(10146)" transform="scale(0.00048828125,-0.00048828125)">
   <path d="M 174,0 L 602,739 174,1481 1456,739 174,0 Z M 1358,739 L 309,1346 659,739 1358,739 Z"/>
  </g>
  <g id="bullet-char-template(10132)" transform="scale(0.00048828125,-0.00048828125)">
   <path d="M 2015,739 L 1276,0 717,0 1260,543 174,543 174,936 1260,936 717,1481 1274,1481 2015,739 Z"/>
  </g>
  <g id="bullet-char-template(10007)" transform="scale(0.00048828125,-0.00048828125)">
   <path d="M 0,-2 C -7,14 -16,27 -25,37 L 356,567 C 262,823 215,952 215,954 215,979 228,992 255,992 264,992 276,990 289,987 310,991 331,999 354,1012 L 381,999 492,748 772,1049 836,1024 860,1049 C 881,1039 901,1025 922,1006 886,937 835,863 770,784 769,783 710,716 594,584 L 774,223 C 774,196 753,168 711,139 L 727,119 C 717,90 699,76 672,76 641,76 570,178 457,381 L 164,-76 C 142,-110 111,-127 72,-127 30,-127 9,-110 8,-76 1,-67 -2,-52 -2,-32 -2,-23 -1,-13 0,-2 Z"/>
  </g>
  <g id="bullet-char-template(10004)" transform="scale(0.00048828125,-0.00048828125)">
   <path d="M 285,-33 C 182,-33 111,30 74,156 52,228 41,333 41,471 41,549 55,616 82,672 116,743 169,778 240,778 293,778 328,747 346,684 L 369,508 C 377,444 397,411 428,410 L 1163,1116 C 1174,1127 1196,1133 1229,1133 1271,1133 1292,1118 1292,1087 L 1292,965 C 1292,929 1282,901 1262,881 L 442,47 C 390,-6 338,-33 285,-33 Z"/>
  </g>
  <g id="bullet-char-template(9679)" transform="scale(0.00048828125,-0.00048828125)">
   <path d="M 813,0 C 632,0 489,54 383,161 276,268 223,411 223,592 223,773 276,916 383,1023 489,1130 632,1184 813,1184 992,1184 1136,1130 1245,1023 1353,916 1407,772 1407,592 1407,412 1353,268 1245,161 1136,54 992,0 813,0 Z"/>
  </g>
  <g id="bullet-char-template(8226)" transform="scale(0.00048828125,-0.00048828125)">
   <path d="M 346,457 C 273,457 209,483 155,535 101,586 74,649 74,723 74,796 101,859 155,911 209,963 273,989 346,989 419,989 480,963 531,910 582,859 608,796 608,723 608,648 583,586 532,535 482,483 420,457 346,457 Z"/>
  </g>
  <g id="bullet-char-template(8211)" transform="scale(0.00048828125,-0.00048828125)">
   <path d="M -4,459 L 1135,459 1135,606 -4,606 -4,459 Z"/>
  </g>
 </defs>
 <defs class="TextEmbeddedBitmaps"/>
 <g>
  <g id="id2" class="Master_Slide">
   <g id="bg-id2" class="Background"/>
   <g id="bo-id2" class="BackgroundObjects"/>
  </g>
 </g>
 <g class="SlideGroup">
  <g>
   <g id="id1" class="Slide" clip-path="url(#presentation_clip_path)">
    <g class="Page">
     <g class="com.sun.star.drawing.ClosedBezierShape">
      <g id="id3">
       <path fill="rgb(0,0,0)" stroke="none" d="M 4327,205 C 4328,207 4329,207 4330,207 4331,206 4329,203 4327,203 4324,203 4324,203 4327,205 Z"/>
      </g>
     </g>
     <g class="com.sun.star.drawing.ClosedBezierShape">
      <g id="id4">
       <path fill="rgb(0,0,0)" stroke="none" d="M 8034,501 C 8032,502 8029,504 8026,506 8022,510 8022,510 8015,506 8011,505 8003,503 7996,502 7986,501 7983,502 7974,506 7957,515 7948,522 7926,543 7907,561 7845,619 7739,718 7584,861 7591,855 7576,878 7489,1014 7424,1221 7388,1474 7374,1572 7364,1679 7364,1726 7365,1811 7365,1817 7361,1836 7358,1846 7357,1859 7357,1870 7357,1884 7357,1887 7362,1894 7364,1899 7366,1903 7366,1904 7366,1905 7349,1914 7328,1924 7308,1933 7290,1942 7290,1942 7289,1943 7292,1945 7294,1948 L 7300,1954 7275,1959 C 7185,1977 7064,2009 6966,2041 6944,2048 6917,2056 6906,2058 6809,2077 6718,2114 6657,2159 6649,2164 6610,2188 6570,2211 6459,2276 6310,2365 6247,2403 6028,2536 5903,2617 5846,2664 5814,2690 5791,2726 5773,2785 5750,2856 5737,2930 5711,3133 5687,3311 5673,3398 5652,3481 5634,3551 5616,3598 5583,3663 5549,3730 5528,3781 5514,3838 5496,3908 5496,3978 5513,4018 5516,4025 5527,4053 5538,4081 5564,4145 5562,4142 5589,4189 5727,4432 5858,4613 5934,4666 5945,4674 5938,4663 6029,4830 6051,4870 6073,4910 6078,4919 L 6086,4934 6104,4936 C 6114,4936 6140,4938 6162,4940 6208,4944 6199,4945 6271,4923 6379,4889 6447,4859 6482,4827 6507,4806 6526,4775 6534,4745 6536,4737 6537,4725 6537,4712 6537,4692 6537,4690 6512,4595 L 6487,4497 6492,4482 C 6500,4457 6500,4435 6492,4391 6436,4110 6378,3873 6334,3744 6317,3694 6308,3673 6287,3633 6267,3596 6262,3581 6264,3560 6264,3543 6268,3537 6278,3531 6295,3523 6436,3464 6455,3457 6500,3441 6523,3427 6552,3399 6568,3384 6579,3376 6603,3360 6620,3350 6651,3330 6671,3318 6691,3305 6708,3295 6709,3296 6709,3297 6719,3293 6730,3287 6741,3282 6750,3277 6750,3277 6751,3277 6751,3279 6751,3280 6751,3282 6753,3286 6757,3289 L 6763,3295 6778,3445 C 6840,4066 6836,4028 6837,4096 6839,4163 6840,4184 6847,4249 6857,4336 6862,4395 6867,4507 6869,4549 6872,4586 6873,4591 6874,4595 6876,4635 6877,4679 6883,4934 6892,5040 6913,5113 6923,5145 6928,5154 6952,5177 6967,5192 6973,5198 6970,5198 6968,5198 6967,5199 6967,5201 6967,5202 6971,5225 6975,5252 6992,5346 7002,5437 7009,5527 7010,5543 7011,5562 7012,5568 L 7013,5580 8070,5580 9127,5580 9127,5573 C 9127,5530 9136,5397 9144,5330 9148,5287 9157,5221 9159,5214 9159,5212 9163,5208 9168,5206 9179,5199 9198,5177 9205,5162 9233,5103 9246,4981 9252,4718 9253,4662 9255,4621 9256,4608 9258,4597 9260,4559 9262,4525 9267,4425 9272,4362 9282,4265 9291,4184 9292,4156 9293,4010 L 9293,3873 9314,3671 C 9325,3560 9339,3422 9344,3365 9350,3308 9355,3261 9356,3261 9356,3260 9360,3262 9363,3264 9367,3266 9370,3267 9370,3266 9371,3264 9402,3283 9441,3307 9502,3346 9512,3353 9526,3367 9555,3395 9574,3407 9618,3424 9642,3433 9679,3449 9780,3492 9795,3498 9808,3504 9810,3506 9819,3514 9820,3543 9812,3566 9809,3572 9800,3592 9791,3609 9781,3627 9770,3650 9766,3661 9719,3774 9651,4045 9588,4366 9582,4398 9580,4407 9581,4417 9583,4431 9586,4449 9591,4459 9594,4466 9593,4469 9569,4563 L 9543,4660 9543,4682 C 9543,4709 9547,4726 9560,4750 9576,4779 9600,4803 9634,4823 9676,4848 9755,4878 9851,4906 L 9878,4914 9903,4911 C 9918,4910 9944,4908 9961,4907 9979,4905 9994,4904 9994,4904 9995,4903 10018,4860 10072,4762 10096,4717 10121,4672 10126,4662 10135,4646 10138,4642 10148,4636 10164,4625 10195,4594 10219,4567 10295,4480 10393,4332 10496,4149 10514,4118 10522,4102 10542,4052 10572,3976 10574,3972 10578,3951 10581,3930 10581,3877 10576,3850 10564,3782 10539,3713 10496,3631 10465,3571 10448,3525 10431,3460 10407,3371 10393,3287 10365,3070 10337,2852 10317,2762 10284,2696 10264,2658 10252,2645 10201,2608 10102,2536 9851,2380 9556,2208 9534,2196 9512,2181 9505,2174 9468,2143 9426,2118 9374,2097 9359,2090 9343,2083 9339,2081 9334,2079 9329,2077 9326,2077 9323,2077 9308,2073 9291,2068 9274,2063 9243,2056 9223,2052 9202,2048 9179,2043 9171,2040 9054,2001 8864,1956 8720,1932 8707,1930 8696,1928 8695,1927 8694,1927 8692,1922 8691,1917 L 8687,1909 8697,1887 8708,1866 8708,1767 C 8707,1658 8706,1643 8693,1566 8658,1364 8561,1097 8430,838 L 8414,807 8364,758 C 8336,730 8282,677 8242,639 8171,570 8170,569 8125,536 8095,514 8077,503 8072,501 8065,500 8038,499 8034,501 Z M 8068,518 C 8073,519 8092,532 8122,554 L 8169,589 8274,692 C 8332,749 8384,800 8390,806 8401,818 8416,845 8447,910 8567,1160 8651,1405 8679,1586 8688,1647 8689,1671 8689,1769 L 8689,1860 8679,1884 8668,1907 8674,1921 C 8678,1931 8681,1942 8682,1954 L 8684,1972 8720,1989 C 8749,2002 8756,2007 8756,2009 8756,2012 8751,2015 8731,2024 8453,2147 8135,2187 7823,2137 7675,2114 7541,2073 7402,2008 L 7373,1995 7350,1972 C 7337,1960 7326,1949 7326,1947 7326,1946 7342,1937 7362,1928 L 7397,1911 7388,1897 7380,1883 7380,1862 C 7381,1850 7383,1833 7384,1824 7388,1804 7389,1766 7386,1747 7384,1736 7384,1727 7386,1693 7388,1670 7390,1649 7391,1646 7392,1642 7392,1638 7392,1635 7390,1626 7404,1507 7415,1435 7451,1205 7511,1020 7591,891 L 7606,867 7760,724 C 7845,645 7923,572 7934,561 7967,529 7980,520 7996,520 8008,520 8021,526 8042,542 L 8053,550 8047,538 C 8044,531 8041,523 8041,521 8041,517 8042,516 8051,516 8057,516 8064,517 8068,518 Z M 8736,1950 C 8875,1974 9026,2010 9155,2051 9173,2057 9199,2064 9213,2066 9243,2071 9267,2077 9301,2087 9320,2092 9324,2094 9324,2097 9324,2099 9318,2119 9312,2141 9300,2179 9299,2182 9300,2194 9301,2207 9301,2209 9290,2245 9274,2297 9265,2332 9254,2378 9189,2643 9184,2859 9238,3017 9253,3061 9312,3206 9326,3232 9327,3235 9331,3239 9334,3242 9340,3246 9340,3247 9338,3257 9337,3262 9331,3311 9326,3364 9321,3418 9314,3487 9311,3518 9308,3549 9303,3592 9301,3614 9299,3636 9292,3701 9287,3758 L 9276,3862 9274,4016 C 9273,4173 9272,4190 9264,4265 9254,4356 9249,4414 9244,4523 9242,4564 9239,4602 9238,4607 9237,4613 9235,4666 9233,4726 9232,4786 9230,4853 9229,4877 9222,5014 9210,5104 9191,5149 9185,5163 9167,5185 9154,5192 L 9145,5197 8083,5198 C 7167,5198 7020,5198 7020,5196 7020,5194 7017,5193 7012,5192 6998,5189 6991,5185 6971,5165 6948,5144 6943,5136 6935,5111 6914,5043 6904,4921 6899,4670 6898,4639 6897,4604 6895,4592 6894,4581 6891,4544 6889,4511 6884,4404 6879,4333 6868,4240 6862,4185 6860,4150 6859,4080 6857,4022 6856,4011 6794,3388 L 6784,3289 6778,3282 C 6774,3277 6772,3272 6771,3265 6768,3243 6769,3238 6781,3210 6798,3171 6841,3063 6849,3039 6862,2999 6871,2959 6877,2907 6882,2866 6884,2772 6881,2723 6872,2588 6844,2440 6799,2292 6785,2246 6784,2243 6784,2225 6784,2206 6783,2203 6771,2165 6764,2144 6758,2124 6758,2123 6758,2116 6849,2086 6910,2073 6924,2071 6944,2066 6954,2062 7020,2040 7108,2015 7181,1997 7231,1985 7311,1967 7317,1967 7320,1967 7329,1975 7342,1987 L 7363,2007 7397,2023 C 7461,2053 7513,2074 7581,2096 7750,2151 7924,2177 8103,2174 8155,2174 8157,2173 8174,2168 8189,2164 8195,2163 8218,2162 8235,2162 8247,2161 8254,2159 8260,2157 8274,2155 8290,2155 8307,2154 8320,2153 8329,2150 8338,2148 8353,2146 8376,2145 8410,2143 8414,2143 8477,2127 8534,2114 8602,2092 8657,2072 8700,2056 8781,2020 8781,2018 8781,2015 8771,1998 8766,1995 8763,1992 8748,1984 8731,1976 8710,1967 8701,1962 8700,1959 8698,1953 8699,1945 8701,1945 8702,1945 8718,1948 8736,1950 Z M 9447,2162 C 9896,2424 10190,2607 10239,2659 10279,2700 10307,2785 10331,2942 10334,2966 10343,3026 10349,3075 10377,3293 10390,3370 10413,3456 10431,3524 10447,3570 10473,3620 10534,3738 10560,3819 10563,3898 10564,3942 10561,3960 10548,3990 10543,4002 10536,4018 10533,4026 10506,4098 10495,4119 10440,4212 10359,4349 10285,4460 10222,4536 10194,4570 10151,4612 10131,4625 10109,4639 10103,4640 10060,4642 10038,4643 10010,4645 9997,4645 9970,4647 9976,4648 9907,4627 9805,4596 9726,4564 9684,4537 9646,4513 9617,4477 9607,4443 9600,4416 9600,4408 9611,4353 9662,4092 9721,3852 9763,3724 9779,3678 9793,3645 9811,3611 9833,3570 9837,3558 9837,3532 9838,3518 9838,3512 9840,3512 9841,3512 9868,3523 9899,3537 9930,3550 9968,3566 9982,3572 9996,3578 10051,3601 10103,3623 10189,3660 10199,3664 10201,3661 10203,3659 10204,3657 10204,3656 10204,3655 10138,3626 10057,3591 9805,3484 9832,3497 9816,3480 9803,3468 9798,3465 9779,3456 9766,3450 9743,3442 9719,3435 9598,3398 9582,3391 9543,3355 9525,3338 9514,3329 9487,3312 9468,3301 9430,3276 9401,3258 9365,3235 9348,3226 9347,3227 9346,3228 9344,3229 9343,3228 9336,3226 9262,3044 9247,2993 9193,2815 9214,2548 9305,2249 9316,2214 9317,2209 9317,2194 9316,2179 9317,2175 9328,2141 9334,2121 9339,2104 9339,2103 9339,2100 9354,2108 9447,2162 Z M 6746,2137 C 6746,2139 6751,2156 6757,2175 6768,2208 6768,2209 6767,2224 6767,2233 6767,2242 6768,2245 6773,2256 6796,2336 6806,2377 6847,2536 6866,2667 6866,2797 6866,2889 6857,2960 6836,3027 6820,3078 6748,3256 6742,3258 6740,3259 6738,3258 6738,3257 6737,3255 6722,3263 6693,3282 6560,3365 6564,3364 6541,3384 6530,3395 6516,3407 6512,3410 6489,3425 6458,3437 6390,3457 6310,3480 6290,3489 6267,3512 L 6254,3525 6131,3577 C 6063,3606 5982,3640 5952,3654 5921,3667 5891,3679 5887,3681 5879,3684 5879,3685 5881,3689 5882,3691 5883,3693 5884,3694 5884,3694 5906,3685 5973,3657 6125,3592 6243,3542 6244,3542 6245,3542 6246,3551 6246,3562 6247,3588 6252,3601 6275,3645 6294,3681 6306,3709 6322,3759 6363,3880 6416,4100 6467,4351 6482,4429 6484,4445 6478,4468 6471,4495 6451,4526 6427,4547 6383,4586 6298,4622 6143,4668 L 6113,4676 6083,4675 C 6067,4674 6038,4673 6019,4672 5986,4671 5984,4671 5971,4665 5964,4662 5952,4655 5945,4649 5929,4637 5891,4600 5871,4577 5799,4493 5702,4345 5604,4172 5586,4141 5579,4125 5560,4078 5547,4046 5535,4016 5532,4010 5524,3991 5521,3972 5521,3938 5521,3859 5547,3774 5606,3660 5635,3603 5652,3558 5669,3493 5692,3409 5706,3322 5733,3122 5747,3014 5752,2976 5761,2928 5782,2801 5808,2726 5844,2689 5864,2669 5921,2628 6020,2565 6055,2542 6089,2520 6097,2515 6105,2511 6130,2495 6154,2480 6192,2456 6275,2406 6352,2360 6498,2272 6736,2134 6741,2134 6743,2134 6745,2135 6746,2137 Z M 9617,4496 C 9630,4514 9661,4542 9687,4557 9737,4586 9823,4619 9939,4653 L 9974,4663 10008,4661 C 10027,4660 10055,4658 10072,4657 10088,4656 10103,4655 10106,4655 10115,4652 10117,4649 10015,4834 L 9988,4884 9976,4886 C 9951,4888 9897,4893 9888,4893 9873,4893 9785,4866 9727,4843 9693,4831 9652,4811 9634,4799 9610,4784 9587,4759 9575,4736 9568,4722 9563,4703 9562,4684 L 9561,4665 9583,4577 C 9608,4481 9608,4482 9617,4496 Z M 6500,4603 C 6521,4685 6522,4686 6522,4707 6522,4747 6509,4777 6478,4807 6449,4834 6404,4857 6319,4887 6295,4896 6225,4917 6207,4922 6202,4923 6190,4923 6163,4920 6143,4918 6121,4917 6116,4917 6110,4917 6103,4916 6100,4915 6097,4914 6082,4889 6035,4802 6002,4741 5974,4690 5974,4688 5974,4685 5976,4685 5985,4686 5990,4687 6012,4688 6034,4689 6055,4690 6082,4691 6092,4692 6111,4693 6111,4693 6147,4683 6255,4651 6349,4615 6394,4589 6423,4572 6450,4548 6466,4527 6470,4522 6473,4519 6475,4519 6477,4519 6484,4540 6500,4603 Z M 9140,5222 C 9138,5229 9130,5293 9126,5325 9122,5365 9116,5434 9114,5477 9113,5498 9111,5526 9111,5537 L 9110,5558 8071,5558 7032,5558 7030,5524 C 7024,5437 7012,5342 6997,5254 6994,5236 6992,5220 6992,5219 6992,5217 7288,5217 8066,5217 L 9141,5217 9140,5222 Z"/>
      </g>
     </g>
     <g class="com.sun.star.drawing.ClosedBezierShape">
      <g id="id5">
       <path fill="rgb(0,0,0)" stroke="none" d="M 2810,321 C 2807,322 2803,326 2800,328 2795,332 2795,332 2788,329 2783,326 2774,324 2764,323 2749,323 2747,323 2734,330 2716,338 2700,350 2685,364 2678,370 2607,429 2528,495 2450,561 2349,645 2304,684 L 2221,752 2136,844 2049,938 2031,971 C 2021,989 2005,1021 1996,1044 1981,1075 1976,1088 1969,1116 L 1961,1148 1964,1179 1967,1210 1957,1225 C 1917,1283 1905,1343 1921,1399 1934,1452 1978,1504 2043,1548 2057,1556 2058,1557 2057,1563 2056,1566 2055,1579 2054,1593 2053,1612 2054,1622 2056,1638 2062,1671 2060,1719 2052,1748 2051,1752 2050,1763 2051,1773 2052,1788 2053,1794 2057,1801 L 2061,1809 2057,1811 C 2055,1812 2045,1815 2037,1817 2013,1820 1988,1826 1975,1833 1967,1835 1944,1847 1923,1860 L 1883,1883 1837,1895 C 1763,1914 1675,1941 1620,1959 1609,1963 1591,1968 1581,1970 1477,1990 1387,2026 1318,2075 1305,2085 1268,2107 1236,2126 1128,2189 1027,2250 966,2287 955,2293 935,2306 920,2314 743,2420 568,2534 492,2590 445,2624 429,2641 410,2680 376,2748 354,2851 325,3077 297,3296 281,3390 259,3478 239,3556 225,3594 188,3669 140,3765 118,3826 105,3898 101,3919 100,3931 100,3962 100,4014 102,4021 124,4077 130,4087 140,4115 149,4137 161,4168 171,4188 190,4221 259,4346 339,4475 399,4558 458,4639 514,4703 553,4732 565,4742 568,4745 578,4763 584,4774 603,4810 621,4842 639,4875 667,4928 685,4959 L 715,5016 730,5018 C 738,5018 766,5021 792,5024 L 838,5027 873,5016 C 1015,4974 1096,4938 1135,4901 1171,4866 1188,4832 1189,4786 L 1190,4763 1163,4658 1136,4554 1141,4541 C 1143,4533 1146,4519 1147,4510 1151,4488 1152,4493 1127,4372 1072,4100 1018,3880 975,3754 961,3711 948,3682 933,3653 919,3625 900,3567 902,3556 904,3536 919,3519 946,3505 965,3495 984,3489 1045,3471 1115,3450 1152,3435 1175,3417 1180,3413 1193,3402 1204,3392 1220,3376 1232,3367 1297,3326 1337,3300 1370,3280 1371,3281 1372,3282 1404,3268 1410,3262 1412,3261 1413,3262 1414,3265 1414,3268 1417,3273 1421,3276 L 1426,3281 1441,3428 C 1449,3508 1458,3600 1461,3633 1473,3745 1495,3976 1499,4016 1501,4040 1503,4083 1504,4118 1505,4190 1507,4224 1514,4283 1524,4380 1531,4457 1536,4572 1538,4607 1540,4645 1542,4658 1543,4671 1546,4709 1547,4745 1551,5004 1563,5136 1586,5211 1595,5242 1602,5251 1626,5276 1644,5294 1647,5297 1644,5298 1642,5298 1640,5299 1640,5299 1640,5299 1643,5317 1647,5338 1659,5407 1671,5488 1678,5564 1682,5604 1688,5683 1688,5695 L 1688,5700 2800,5700 3910,5700 3912,5676 C 3913,5616 3919,5523 3926,5452 3931,5409 3941,5323 3943,5315 3944,5312 3949,5307 3953,5304 3964,5297 3984,5276 3990,5263 4020,5205 4034,5074 4041,4815 4043,4712 4044,4688 4046,4671 4047,4665 4049,4631 4051,4597 4057,4489 4062,4408 4070,4333 4083,4223 4084,4181 4084,4018 L 4084,3900 4098,3767 C 4119,3555 4124,3501 4137,3370 4151,3231 4150,3234 4163,3245 4171,3253 4208,3272 4209,3269 4210,3268 4242,3288 4280,3312 4343,3351 4353,3359 4372,3377 4398,3401 4411,3412 4434,3422 4458,3434 4486,3443 4539,3459 4665,3487 4695,3540 4643,3645 4622,3687 4605,3733 4580,3817 4540,3954 4491,4159 4447,4381 4441,4411 4435,4444 4433,4452 4428,4478 4429,4501 4438,4529 L 4442,4542 4417,4644 C 4390,4746 4390,4748 4390,4769 4390,4828 4421,4877 4480,4915 4522,4941 4619,4979 4720,5008 4757,5020 4804,5009 4839,5007 4851,5006 4862,5004 4863,5002 4866,5001 4878,4977 4973,4802 L 5012,4730 5030,4716 C 5114,4650 5236,4477 5379,4225 5409,4173 5414,4164 5434,4112 5445,4086 5457,4057 5461,4046 5472,4021 5476,4005 5479,3976 5483,3925 5474,3861 5447,3785 5433,3744 5420,3712 5388,3650 5360,3593 5347,3561 5333,3513 5303,3412 5286,3315 5253,3063 5235,2921 5223,2845 5208,2785 5187,2696 5163,2645 5129,2611 5079,2562 4853,2417 4508,2211 4461,2183 4332,2107 4317,2098 4312,2095 4297,2085 4285,2076 4245,2047 4204,2024 4152,2004 4105,1986 4048,1971 3997,1962 3985,1960 3969,1956 3962,1954 3915,1937 3801,1906 3732,1889 3659,1871 3560,1851 3493,1839 3475,1837 3459,1834 3458,1833 3456,1832 3454,1827 3452,1822 L 3448,1814 3459,1789 3470,1765 3470,1720 3470,1676 3496,1650 C 3560,1590 3612,1527 3670,1441 3720,1367 3738,1318 3727,1287 3723,1273 3707,1243 3691,1214 3683,1200 3676,1188 3676,1187 3676,1184 3673,1180 3669,1175 3666,1171 3657,1156 3650,1144 3591,1047 3481,880 3434,820 3403,780 3250,638 3020,439 2977,402 2966,392 2920,363 2892,344 2865,327 2861,324 2851,321 2820,318 2810,321 Z M 2844,341 C 2850,341 2861,348 2904,375 2964,416 2957,410 3038,480 3195,617 3293,707 3360,771 3398,807 3411,822 3425,842 3473,907 3609,1110 3609,1118 3609,1122 3605,1121 3579,1107 3509,1073 3419,1034 3385,1023 3366,1018 3362,1018 3338,1021 3293,1027 3232,1030 3184,1031 L 3135,1031 3093,1019 C 3070,1012 3012,996 2965,984 L 2879,961 2850,946 2823,931 2802,933 C 2772,937 2754,942 2729,954 2693,969 2646,982 2496,1013 2446,1023 2400,1034 2392,1036 2339,1051 2248,1075 2205,1086 2163,1097 2154,1100 2136,1109 2109,1122 2059,1155 2021,1184 2004,1196 1990,1207 1989,1207 1987,1207 1986,1200 1983,1170 L 1981,1149 1989,1118 C 1996,1093 2002,1077 2017,1046 2026,1023 2042,993 2051,977 L 2067,947 2150,858 2233,768 2436,599 C 2547,506 2648,421 2660,412 2670,403 2686,389 2695,381 2703,373 2716,363 2722,358 2755,337 2769,337 2810,364 2826,373 2826,373 2816,355 2810,341 2812,338 2829,340 2833,340 2841,341 2844,341 Z M 2826,954 C 2826,957 2837,987 2849,1021 2873,1085 2873,1084 2865,1101 L 2861,1110 2837,1109 C 2815,1108 2808,1108 2790,1112 2733,1123 2694,1135 2660,1149 2623,1166 2527,1190 2344,1225 2286,1236 2272,1240 2234,1252 2211,1261 2164,1276 2132,1285 2099,1295 2063,1306 2051,1309 2016,1320 1999,1334 1993,1356 1988,1370 1988,1377 1994,1395 2004,1438 2053,1503 2107,1550 2123,1564 2127,1570 2122,1570 2118,1570 2051,1530 2031,1515 1985,1481 1953,1440 1941,1398 1935,1380 1933,1343 1937,1323 1942,1294 1955,1262 1973,1235 1982,1224 1985,1220 1988,1220 1990,1220 1999,1216 2012,1207 2062,1166 2110,1135 2143,1119 2157,1112 2169,1108 2196,1102 2235,1092 2289,1077 2362,1057 2389,1050 2428,1040 2449,1036 2583,1008 2612,1001 2643,994 2689,982 2714,974 2735,964 2758,953 2793,945 2818,946 2826,946 2826,947 2826,954 Z M 2860,965 C 2873,972 2891,977 2970,998 3023,1013 3080,1028 3097,1033 3118,1039 3136,1043 3149,1044 3180,1047 3296,1040 3341,1034 3347,1033 3357,1032 3361,1032 3381,1032 3471,1069 3591,1127 3629,1145 3625,1142 3655,1193 3681,1234 3704,1279 3708,1294 3710,1303 3711,1307 3709,1318 3703,1353 3680,1395 3621,1476 3564,1555 3496,1629 3435,1678 3406,1701 3393,1710 3358,1730 3341,1739 3279,1773 3221,1806 3060,1897 3003,1927 2970,1941 2947,1949 2902,2014 2848,2114 L 2830,2148 2819,2148 C 2811,2148 2795,2147 2784,2147 2765,2145 2760,2144 2757,2142 2753,2134 2743,2108 2737,2084 2725,2036 2706,2002 2633,1893 2594,1836 2592,1833 2577,1822 2552,1803 2503,1775 2402,1722 2379,1711 2353,1697 2345,1693 2234,1635 2160,1593 2160,1590 2160,1588 2161,1587 2162,1587 2169,1587 2260,1632 2348,1678 2372,1690 2409,1709 2431,1720 2514,1763 2579,1803 2627,1840 2660,1865 2688,1895 2688,1904 2688,1908 2689,1909 2693,1909 2704,1909 2767,2008 2801,2080 2808,2097 2814,2111 2815,2113 2815,2115 2820,2109 2825,2098 2834,2079 2862,2038 2882,2013 2900,1990 2964,1929 2988,1911 3046,1864 3107,1829 3179,1798 3243,1769 3275,1752 3322,1721 3423,1657 3522,1563 3595,1460 3604,1447 3613,1437 3613,1438 3614,1438 3614,1437 3614,1435 3614,1434 3620,1423 3629,1410 3646,1380 3663,1349 3670,1326 3682,1291 3672,1263 3639,1240 3626,1229 3601,1217 3579,1212 3569,1209 3558,1206 3554,1204 3517,1189 3452,1166 3433,1163 3407,1159 3358,1156 3292,1154 3207,1151 3213,1152 3047,1131 2972,1122 2902,1113 2894,1112 2877,1111 2877,1111 2878,1107 2878,1104 2880,1098 2882,1092 L 2886,1084 2863,1023 C 2851,991 2841,962 2841,960 2841,956 2844,957 2860,965 Z M 2866,1125 C 2900,1127 2974,1136 3172,1160 3199,1163 3232,1165 3271,1168 L 3330,1170 3339,1176 C 3353,1188 3376,1210 3384,1223 3395,1240 3397,1247 3394,1266 3392,1277 3392,1290 3393,1308 3395,1354 3388,1384 3368,1424 3344,1470 3307,1518 3233,1596 3170,1662 3148,1689 3116,1730 3078,1781 3060,1812 3055,1841 3054,1846 3053,1850 3048,1852 3045,1854 3031,1863 3018,1873 2993,1890 2992,1890 2975,1893 2961,1894 2955,1894 2922,1890 2884,1884 2842,1883 2822,1887 L 2810,1888 2804,1853 C 2792,1774 2792,1767 2797,1620 2801,1551 2806,1415 2810,1318 2814,1222 2818,1138 2819,1133 2819,1124 2820,1122 2823,1122 2824,1122 2844,1123 2866,1125 Z M 2803,1125 C 2803,1126 2801,1180 2797,1245 2791,1406 2782,1649 2779,1704 2777,1764 2779,1798 2791,1865 2793,1879 2794,1890 2794,1891 2793,1892 2772,1893 2748,1893 L 2702,1894 2680,1871 C 2668,1858 2650,1842 2642,1836 2632,1827 2622,1816 2614,1806 2606,1794 2592,1782 2567,1758 2546,1742 2504,1702 2472,1672 L 2413,1615 2384,1573 C 2346,1517 2322,1478 2299,1433 2277,1391 2268,1370 2262,1340 2256,1319 2251,1268 2253,1263 2255,1258 2277,1252 2360,1236 2543,1199 2626,1179 2666,1161 2690,1151 2723,1141 2766,1131 2797,1124 2803,1123 2803,1125 Z M 3421,1176 C 3444,1179 3484,1191 3533,1211 3547,1216 3567,1223 3577,1226 3619,1236 3650,1259 3657,1282 3664,1302 3661,1318 3640,1359 3599,1444 3517,1548 3430,1623 3349,1694 3287,1734 3183,1781 3154,1793 3118,1811 3105,1819 3091,1826 3078,1833 3077,1833 3073,1833 3074,1824 3081,1809 3106,1761 3159,1693 3244,1603 3336,1507 3381,1444 3401,1380 3405,1363 3406,1359 3407,1310 3408,1282 3410,1255 3410,1250 3410,1234 3395,1210 3370,1187 3354,1172 3356,1171 3379,1172 3389,1173 3408,1175 3421,1176 Z M 2239,1289 C 2244,1366 2278,1443 2372,1581 2397,1617 2406,1628 2418,1640 2427,1648 2450,1669 2468,1687 2487,1706 2513,1729 2524,1739 2536,1750 2547,1762 2551,1766 L 2557,1772 2551,1769 C 2547,1768 2542,1765 2539,1764 2536,1762 2520,1753 2505,1745 2490,1737 2461,1720 2439,1710 2418,1699 2377,1678 2348,1663 2277,1625 2195,1586 2170,1575 2144,1566 2134,1558 2097,1522 2040,1466 2008,1416 2006,1380 2005,1373 2005,1362 2006,1358 2008,1350 2019,1337 2031,1332 2035,1330 2065,1320 2095,1310 2127,1301 2170,1287 2193,1281 2214,1273 2233,1268 2235,1267 2237,1267 2238,1271 2239,1289 Z M 2106,1581 C 2161,1613 2252,1663 2379,1730 2498,1791 2540,1816 2568,1835 2578,1843 2583,1850 2611,1891 2690,2007 2708,2040 2719,2087 2725,2111 2733,2132 2738,2142 2741,2146 2742,2150 2742,2152 2742,2156 2741,2157 2736,2156 2733,2155 2711,2152 2686,2150 2663,2148 2608,2141 2564,2134 L 2485,2123 2449,2108 C 2372,2078 2303,2053 2260,2041 2224,2031 2211,2024 2181,2002 2146,1978 2094,1933 2094,1929 2094,1925 2098,1927 2129,1944 2205,1988 2227,1996 2323,2017 2347,2022 2390,2031 2415,2036 2457,2043 2465,2044 2482,2043 L 2501,2042 2510,2049 C 2527,2062 2550,2070 2568,2067 2582,2065 2605,2054 2613,2043 2647,2005 2633,1950 2585,1927 2574,1923 2571,1922 2554,1922 2536,1922 2534,1923 2523,1928 2511,1934 2493,1950 2491,1956 2490,1959 2483,1959 2441,1952 2413,1949 2382,1945 2372,1944 2308,1938 2280,1932 2255,1920 2246,1915 2224,1901 2209,1890 2159,1854 2126,1834 2101,1825 2094,1823 2090,1821 2090,1819 2090,1818 2086,1809 2080,1801 2072,1786 2072,1785 2072,1769 2072,1761 2073,1745 2076,1734 2081,1706 2083,1675 2078,1647 2075,1624 2074,1584 2076,1573 2077,1570 2079,1568 2080,1568 2083,1568 2094,1574 2106,1581 Z M 3449,1730 L 3447,1767 3436,1790 3425,1812 3432,1827 C 3436,1836 3439,1848 3440,1862 3442,1873 3444,1882 3446,1883 3448,1883 3514,1916 3518,1917 3521,1919 3528,1933 3528,1938 3528,1948 3500,1971 3447,2006 3416,2026 3414,2027 3383,2036 3333,2052 3314,2057 3285,2065 3270,2069 3243,2076 3226,2083 3209,2089 3193,2093 3192,2093 3189,2093 3185,2088 3151,2035 L 3134,2009 3134,1993 C 3135,1956 3113,1928 3078,1917 3074,1915 3070,1913 3070,1912 3070,1911 3079,1905 3091,1898 3102,1892 3160,1860 3218,1827 3276,1794 3341,1758 3361,1747 3394,1729 3420,1712 3437,1698 3440,1696 3444,1694 3447,1693 3450,1693 3450,1696 3449,1730 Z M 2083,1834 C 2111,1839 2143,1857 2197,1896 2222,1915 2254,1934 2257,1934 2258,1934 2260,1935 2263,1937 2266,1940 2276,1943 2310,1949 2318,1950 2338,1953 2356,1955 2374,1956 2411,1961 2441,1965 L 2492,1971 2520,1968 C 2535,1966 2552,1963 2557,1962 2567,1961 2567,1961 2571,1966 2579,1976 2588,1994 2588,2001 2588,2007 2587,2012 2578,2020 L 2570,2031 2513,2031 2455,2031 2390,2018 C 2239,1988 2214,1980 2124,1928 L 2076,1900 2023,1900 C 1986,1900 1966,1901 1957,1902 1943,1906 1936,1909 1870,1947 1854,1956 1833,1968 1823,1972 L 1804,1982 1804,1977 C 1804,1969 1799,1962 1791,1955 1787,1953 1785,1950 1786,1949 1788,1947 1809,1938 1815,1938 1818,1938 1865,1912 1925,1876 1978,1845 1985,1842 2019,1835 2040,1830 2063,1829 2083,1834 Z M 3519,1862 C 3664,1889 3799,1922 3941,1967 3960,1972 3984,1979 3995,1981 4056,1990 4159,2022 4159,2031 4159,2032 4153,2052 4146,2075 4133,2115 4132,2119 4133,2135 4133,2151 4132,2157 4124,2180 4078,2332 4046,2485 4033,2629 4028,2682 4028,2804 4033,2846 4040,2910 4051,2963 4067,3009 4077,3036 4117,3137 4134,3179 4147,3208 4149,3219 4143,3224 4142,3225 4138,3229 4135,3234 L 4129,3241 4120,3324 C 4116,3369 4109,3452 4102,3506 4097,3561 4087,3656 4081,3719 4076,3780 4069,3844 4067,3861 4065,3884 4064,3917 4063,4033 4063,4189 4062,4224 4052,4308 4042,4409 4035,4486 4030,4602 4029,4630 4027,4657 4026,4665 4024,4683 4021,4748 4019,4852 4013,5058 4000,5179 3978,5241 3972,5257 3969,5263 3956,5276 3940,5294 3928,5299 3902,5300 L 3882,5300 3882,5105 3882,4910 3866,4897 C 3824,4863 3758,4791 3709,4727 3579,4556 3463,4320 3414,4127 L 3404,4089 2807,4089 2209,4089 2206,4098 C 2188,4165 2173,4213 2152,4268 2058,4514 1905,4750 1754,4882 L 1732,4901 1732,5100 1732,5300 1714,5300 C 1700,5300 1696,5299 1696,5297 1696,5295 1694,5294 1682,5291 1670,5288 1663,5284 1642,5264 1620,5243 1614,5234 1607,5210 1584,5141 1573,5019 1568,4758 1566,4709 1565,4663 1564,4658 1561,4648 1559,4618 1554,4518 1550,4438 1545,4367 1535,4286 1529,4229 1528,4205 1525,4123 1523,4062 1522,4033 1516,3977 1513,3939 1498,3789 1483,3644 1468,3498 1455,3357 1451,3328 L 1446,3276 1441,3270 C 1434,3263 1434,3261 1432,3243 1430,3224 1430,3224 1435,3213 1457,3167 1511,3028 1520,2994 1551,2890 1558,2759 1542,2606 1530,2488 1500,2345 1457,2202 1446,2166 1445,2162 1446,2148 1447,2134 1447,2131 1433,2088 1425,2063 1419,2041 1419,2041 1419,2038 1456,2024 1489,2013 1519,2003 1554,1995 1584,1988 1593,1986 1624,1978 1652,1969 1679,1960 1704,1952 1707,1952 1710,1952 1712,1956 1708,1959 1704,1962 1690,1987 1690,1993 1690,1996 1691,2001 1693,2004 1695,2011 1695,2012 1690,2016 1688,2019 1678,2026 1668,2033 1652,2045 1602,2091 1602,2094 1602,2095 1604,2098 1606,2102 1609,2107 1610,2108 1608,2116 L 1605,2125 1616,2137 C 1622,2143 1629,2151 1631,2155 1635,2159 1639,2163 1641,2163 1647,2164 1680,2168 1688,2168 1696,2168 1706,2159 1718,2140 1731,2119 1753,2075 1757,2062 1761,2054 1762,2052 1776,2043 1794,2031 1799,2025 1797,2009 L 1796,1998 1822,1986 C 1836,1980 1870,1962 1896,1946 1932,1925 1947,1917 1957,1915 1971,1912 2019,1910 2036,1912 L 2049,1913 2071,1933 C 2132,1989 2184,2029 2216,2044 2222,2048 2238,2053 2250,2056 2290,2067 2349,2088 2436,2122 L 2485,2141 2563,2152 C 2608,2159 2667,2166 2697,2169 L 2750,2175 2779,2170 C 2796,2167 2816,2166 2826,2166 2834,2166 2875,2166 2914,2164 2974,2163 2992,2162 3021,2158 3058,2152 3084,2147 3110,2141 3119,2139 3127,2137 3129,2137 3130,2137 3137,2145 3144,2155 3175,2198 3208,2215 3268,2219 3345,2223 3413,2204 3477,2160 3540,2116 3566,2101 3598,2085 3643,2063 3671,2056 3708,2056 3744,2056 3766,2062 3796,2083 3810,2092 3840,2121 3841,2126 3841,2128 3843,2138 3845,2147 3848,2169 3851,2175 3862,2180 3869,2184 3869,2185 3869,2193 3869,2197 3868,2210 3866,2221 3862,2240 3856,2305 3859,2308 3860,2308 3863,2309 3868,2310 3874,2311 3877,2313 3880,2320 L 3884,2328 3901,2329 C 3909,2330 3921,2331 3925,2332 3935,2334 3935,2334 3956,2318 3968,2308 3978,2300 3979,2299 3980,2296 3980,2290 3980,2284 3980,2268 3963,2207 3953,2183 L 3948,2171 3952,2155 C 3957,2133 3956,2127 3946,2119 3942,2115 3936,2108 3933,2102 3925,2089 3916,2081 3907,2081 3903,2081 3900,2079 3894,2070 3882,2055 3855,2030 3841,2019 3778,1975 3705,1969 3617,2002 3578,2018 3569,2022 3472,2079 3428,2106 3385,2129 3317,2148 3294,2157 3264,2152 3240,2139 3227,2132 3206,2114 3206,2110 3206,2106 3246,2092 3295,2080 3347,2067 3416,2045 3429,2037 3473,2011 3529,1968 3540,1953 3547,1942 3547,1936 3542,1925 3533,1908 3530,1905 3494,1888 3466,1874 3459,1871 3459,1868 3459,1864 3459,1861 3458,1858 3457,1855 3458,1854 3464,1854 3467,1854 3492,1858 3519,1862 Z M 2916,1905 C 2936,1907 2955,1909 2958,1909 2962,1909 2964,1910 2964,1912 2963,1913 2953,1923 2941,1933 2899,1971 2864,2012 2837,2053 2828,2066 2821,2077 2821,2078 2821,2079 2820,2079 2819,2079 2816,2079 2808,2067 2797,2047 2789,2027 2778,2008 2775,2003 2759,1976 2744,1953 2732,1934 2723,1923 2717,1912 2717,1911 2717,1910 2729,1909 2747,1909 2769,1909 2784,1908 2810,1904 2849,1897 2860,1897 2916,1905 Z M 3087,1929 C 3108,1938 3124,1960 3126,1982 L 3127,1993 3112,1972 C 3094,1950 3087,1945 3064,1943 3052,1942 3039,1945 3027,1952 3023,1955 3012,1952 3010,1948 3008,1945 3009,1944 3017,1936 3029,1926 3040,1923 3059,1924 3072,1924 3077,1925 3087,1929 Z M 1788,1931 C 1788,1934 1770,1941 1764,1941 1756,1941 1761,1935 1771,1932 1784,1928 1788,1928 1788,1931 Z M 2576,1932 C 2594,1937 2613,1958 2621,1977 2625,1990 2624,2009 2617,2020 2606,2044 2594,2031 2600,2019 2609,2001 2601,1977 2578,1950 2573,1945 2573,1945 2562,1946 2546,1949 2507,1954 2506,1953 2506,1953 2508,1950 2510,1947 2524,1931 2551,1926 2576,1932 Z M 1760,1949 L 1767,1954 1758,1953 C 1753,1952 1744,1953 1736,1954 1730,1955 1724,1956 1722,1955 1722,1955 1726,1952 1731,1950 1742,1943 1749,1943 1760,1949 Z M 2990,1955 C 2990,1956 2988,1963 2987,1970 2976,2009 3011,2056 3054,2059 L 3066,2060 3091,2089 C 3103,2104 3114,2117 3114,2120 3114,2122 3109,2124 3095,2127 3067,2133 3024,2140 2990,2143 2955,2147 2854,2148 2854,2144 2854,2141 2877,2096 2899,2059 2932,2002 2961,1964 2975,1956 2984,1951 2990,1951 2990,1955 Z M 3077,1964 C 3087,1967 3116,2006 3153,2065 3174,2099 3193,2122 3212,2137 3234,2155 3264,2168 3285,2168 3315,2170 3368,2147 3396,2137 3420,2127 3435,2119 3521,2068 3589,2027 3633,2008 3677,2000 3704,1995 3746,1996 3769,2001 3789,2006 3814,2019 3831,2031 3845,2041 3878,2072 3882,2079 3883,2084 3883,2084 3876,2085 3863,2087 3851,2093 3848,2099 L 3845,2105 3829,2091 C 3805,2068 3786,2056 3758,2048 3737,2040 3699,2038 3672,2043 3630,2051 3581,2073 3526,2109 3517,2115 3494,2130 3477,2143 3430,2175 3397,2189 3347,2200 3330,2203 3320,2204 3289,2204 3248,2204 3233,2202 3207,2191 3188,2182 3174,2171 3161,2151 3141,2124 3111,2088 3072,2044 3038,2006 3036,2004 3035,1996 3034,1984 3038,1977 3049,1968 3058,1962 3066,1961 3077,1964 Z M 1765,1967 C 1768,1968 1772,1971 1774,1973 1779,1978 1789,2016 1788,2022 1787,2025 1770,2038 1766,2038 1765,2038 1763,2034 1762,2029 1757,2016 1745,2000 1735,1996 1727,1993 1715,1995 1708,2000 1702,2003 1702,2003 1700,1999 1699,1997 1698,1994 1699,1990 1701,1985 1712,1975 1718,1970 1731,1964 1754,1962 1765,1967 Z M 1792,1977 C 1791,1979 1790,1978 1789,1973 1787,1968 1787,1967 1789,1970 1791,1971 1792,1975 1792,1977 Z M 1742,2017 C 1757,2036 1756,2048 1730,2101 1718,2121 1708,2140 1706,2143 L 1701,2149 1691,2141 C 1685,2137 1675,2130 1667,2125 L 1654,2116 1641,2125 C 1634,2129 1627,2132 1626,2132 1626,2131 1627,2123 1629,2113 1632,2103 1634,2094 1634,2093 1634,2092 1630,2094 1626,2098 L 1619,2105 1616,2099 1611,2094 1636,2073 C 1648,2060 1665,2047 1674,2040 1682,2034 1692,2026 1695,2023 1698,2020 1706,2015 1711,2012 1726,2002 1731,2003 1742,2017 Z M 4259,2086 C 4378,2156 4541,2252 4575,2273 4579,2275 4594,2285 4608,2293 4844,2434 5038,2560 5103,2613 5129,2634 5144,2657 5161,2698 5191,2771 5206,2848 5236,3084 5265,3308 5281,3401 5306,3490 5324,3558 5339,3595 5375,3667 5403,3722 5419,3759 5431,3798 5455,3867 5464,3932 5459,3979 5456,4007 5454,4014 5443,4039 5439,4049 5426,4081 5415,4107 5394,4161 5377,4194 5313,4302 5165,4551 5047,4701 4978,4725 4975,4726 4955,4728 4935,4729 4913,4730 4884,4731 4867,4732 L 4837,4733 4800,4722 C 4701,4692 4630,4667 4576,4640 4509,4607 4468,4565 4454,4514 4447,4488 4448,4475 4466,4385 4528,4078 4589,3832 4635,3710 4674,3637 4693,3570 4716,3500 4726,3471 4741,3425 4750,3397 4760,3368 4784,3292 4805,3227 4827,3164 4855,3078 4868,3039 4882,2999 4903,2932 4917,2891 4934,2839 4941,2814 4940,2813 4938,2812 4935,2812 4931,2811 L 4926,2811 4810,3163 C 4723,3429 4693,3515 4690,3515 4655,3477 4614,3462 4571,3450 4444,3411 4421,3400 4381,3359 4367,3345 4368,3345 4202,3240 4190,3233 4182,3228 4182,3229 4178,3239 4170,3224 4136,3139 4086,3019 4074,2983 4063,2927 4050,2866 4046,2821 4046,2740 4046,2643 4056,2555 4077,2442 4091,2366 4119,2254 4141,2181 4151,2153 4151,2150 4150,2137 4149,2123 4149,2121 4161,2081 4172,2047 4174,2040 4177,2040 4179,2040 4217,2061 4259,2086 Z M 1411,2072 C 1429,2128 1429,2129 1429,2148 1429,2164 1430,2170 1439,2199 1536,2518 1558,2795 1504,2989 1489,3042 1408,3243 1402,3243 1401,3243 1398,3242 1398,3241 1398,3240 1380,3251 1358,3264 1337,3278 1296,3305 1267,3323 1223,3351 1212,3359 1193,3377 1168,3400 1159,3406 1137,3417 1115,3429 1088,3438 1045,3451 987,3468 961,3476 941,3487 925,3494 919,3498 905,3511 895,3521 888,3528 887,3528 886,3528 881,3514 875,3497 864,3462 836,3379 809,3295 753,3129 720,3025 699,2965 690,2935 675,2891 668,2866 L 653,2822 645,2824 C 641,2825 638,2826 638,2826 637,2827 655,2882 677,2951 700,3018 723,3089 729,3106 734,3124 748,3163 758,3193 830,3414 866,3522 872,3540 875,3551 879,3568 882,3578 886,3601 901,3638 913,3656 928,3679 959,3761 983,3844 1022,3978 1065,4160 1109,4383 1132,4493 1132,4492 1126,4517 1117,4570 1078,4615 1011,4650 961,4675 878,4705 776,4735 L 740,4746 684,4744 C 653,4742 623,4741 616,4740 568,4738 491,4658 383,4500 328,4418 281,4344 224,4242 184,4173 185,4173 159,4110 147,4078 135,4049 133,4046 118,4016 115,3948 126,3889 139,3823 167,3752 214,3658 250,3589 274,3513 297,3399 312,3325 321,3260 344,3091 366,2917 377,2846 397,2775 413,2709 436,2664 463,2637 474,2627 533,2582 569,2558 669,2491 835,2388 1034,2268 1201,2167 1397,2053 1402,2053 1404,2052 1406,2057 1411,2072 Z M 3917,2094 C 3919,2097 3917,2097 3912,2094 3907,2092 3907,2092 3912,2092 3914,2092 3916,2092 3917,2094 Z M 3874,2102 C 3870,2105 3864,2111 3860,2116 3851,2126 3849,2125 3854,2112 3859,2102 3866,2096 3879,2095 3881,2095 3880,2097 3874,2102 Z M 3914,2109 C 3919,2111 3928,2117 3935,2122 3945,2128 3945,2129 3945,2137 3945,2143 3943,2156 3941,2158 3940,2159 3938,2157 3935,2155 3926,2149 3917,2146 3901,2146 3888,2145 3887,2146 3881,2152 3877,2156 3872,2162 3871,2166 3869,2175 3869,2175 3864,2171 3854,2167 3854,2145 3864,2130 3868,2123 3883,2109 3888,2106 3896,2102 3904,2103 3914,2109 Z M 1627,2108 C 1626,2110 1625,2115 1624,2120 1623,2128 1621,2130 1618,2126 1614,2123 1617,2113 1621,2109 1625,2105 1628,2105 1627,2108 Z M 1665,2128 C 1672,2132 1677,2135 1678,2135 1678,2137 1676,2141 1673,2146 1667,2156 1666,2157 1659,2156 1646,2156 1642,2153 1636,2145 1629,2138 1629,2137 1631,2134 1634,2133 1639,2130 1644,2127 1648,2124 1653,2121 1654,2121 1654,2121 1659,2124 1665,2128 Z M 1692,2146 C 1698,2151 1698,2152 1696,2156 1693,2159 1672,2160 1672,2157 1672,2152 1680,2141 1682,2141 1684,2141 1689,2143 1692,2146 Z M 3923,2162 C 3934,2166 3943,2180 3951,2203 3958,2225 3969,2266 3971,2275 3971,2281 3971,2281 3962,2282 3954,2282 3925,2287 3918,2289 3916,2289 3913,2294 3910,2301 3905,2322 3905,2322 3894,2302 L 3882,2283 3882,2293 3882,2304 3876,2303 C 3871,2302 3868,2301 3868,2301 3866,2299 3872,2234 3874,2221 3877,2215 3879,2203 3879,2195 3881,2176 3883,2166 3888,2161 3892,2157 3894,2156 3904,2157 3910,2158 3919,2160 3923,2162 Z M 3972,2290 C 3972,2293 3969,2296 3963,2301 3954,2308 3954,2308 3951,2293 L 3950,2286 3961,2286 C 3971,2286 3972,2286 3972,2290 Z M 3946,2290 C 3948,2292 3949,2298 3949,2302 3951,2310 3950,2311 3941,2318 3933,2324 3932,2324 3921,2323 3916,2322 3910,2321 3910,2320 3909,2320 3912,2313 3914,2306 L 3917,2292 3928,2290 C 3943,2287 3945,2287 3946,2290 Z M 3892,2308 C 3899,2319 3899,2319 3894,2319 3889,2319 3884,2309 3884,2302 3884,2295 3886,2298 3892,2308 Z M 3397,4132 C 3450,4334 3563,4564 3698,4739 3740,4794 3764,4821 3816,4871 L 3864,4918 3864,5112 3864,5307 2807,5307 1750,5307 1750,5107 1750,4906 1760,4897 C 1765,4892 1782,4876 1798,4863 1977,4691 2150,4385 2220,4113 L 2222,4105 2806,4105 3389,4105 3397,4132 Z M 4466,4574 C 4476,4589 4502,4615 4524,4628 4572,4662 4673,4702 4813,4743 L 4840,4751 4878,4748 C 4900,4747 4927,4746 4940,4746 4953,4745 4967,4744 4973,4743 4983,4742 4983,4742 4982,4747 4981,4750 4953,4804 4918,4869 L 4855,4985 4845,4986 C 4796,4989 4764,5001 4722,4989 4618,4959 4529,4924 4487,4896 4436,4865 4407,4818 4407,4767 4407,4750 4409,4742 4419,4703 4441,4613 4455,4564 4457,4564 4458,4564 4462,4569 4466,4574 Z M 1148,4671 L 1173,4764 1172,4785 C 1170,4810 1164,4831 1153,4850 1142,4867 1115,4894 1098,4906 1054,4935 974,4966 866,4999 L 835,5008 799,5004 C 779,5003 754,5001 744,5000 L 725,4999 694,4944 C 663,4886 646,4854 615,4796 604,4777 596,4759 596,4758 596,4755 597,4755 601,4756 604,4756 624,4758 645,4759 667,4760 697,4761 712,4762 L 739,4763 778,4751 C 904,4714 1001,4677 1049,4645 1070,4632 1093,4612 1107,4595 1115,4585 1121,4578 1122,4578 1123,4578 1136,4620 1148,4671 Z M 1732,5320 C 1732,5323 1853,5323 2807,5323 3761,5323 3882,5323 3882,5320 3882,5318 3885,5318 3902,5318 L 3922,5318 3921,5326 C 3905,5441 3895,5562 3891,5665 L 3890,5679 2800,5680 1709,5680 1708,5673 C 1707,5667 1704,5640 1702,5610 1695,5522 1682,5421 1668,5347 1666,5333 1664,5320 1664,5319 1664,5318 1679,5318 1698,5318 1727,5318 1732,5318 1732,5320 Z"/>
      </g>
     </g>
    </g>
   </g>
  </g>
 </g>
</svg>