<?xml version="1.0" encoding="UTF-8" standalone="no"?>
<!-- Created with Inkscape (http://www.inkscape.org/) -->

<svg
   xmlns:dc="http://purl.org/dc/elements/1.1/"
   xmlns:cc="http://creativecommons.org/ns#"
   xmlns:rdf="http://www.w3.org/1999/02/22-rdf-syntax-ns#"
   xmlns:svg="http://www.w3.org/2000/svg"
   xmlns="http://www.w3.org/2000/svg"
   version="1.0"
   width="300pt"
   height="200pt"
   viewBox="0 0 7500 3306"
   id="svg3227">
  <defs
     id="defs3321" />
  <metadata
     id="metadata3229">
Created by potrace 1.10, written by Peter Selinger 2001-2011
<rdf:RDF>
  <cc:Work
     rdf:about="">
    <dc:format>image/svg+xml</dc:format>
    <dc:type
       rdf:resource="http://purl.org/dc/dcmitype/StillImage" />
    <dc:title></dc:title>
  </cc:Work>
</rdf:RDF>
</metadata>
  <g
     transform="matrix(0.1,0,0,-0.1,0,3306)"
     id="g3231"
     style="fill:#000000;stroke:none">
    <path
       d="m 60460,30263 c -8,-3 -25,-15 -38,-26 -22,-20 -23,-20 -60,-3 -134,65 -257,13 -467,-198 -96,-97 -419,-409 -976,-942 -809,-775 -775,-740 -851,-864 -503,-814 -872,-2112 -1042,-3665 -49,-450 -69,-722 -67,-915 6,-458 5,-490 -18,-590 -31,-137 -29,-259 5,-317 34,-59 44,-50 -176,-159 -230,-113 -210,-98 -176,-133 l 27,-28 -128,-27 c -474,-101 -1103,-274 -1618,-444 -115,-39 -257,-80 -315,-92 -504,-103 -983,-303 -1302,-543 -41,-31 -245,-159 -454,-285 -582,-351 -1358,-827 -1689,-1034 -1401,-879 -2075,-1344 -2225,-1533 -262,-333 -383,-835 -580,-2405 -207,-1654 -333,-2195 -668,-2865 -399,-800 -536,-1514 -367,-1917 15,-35 75,-187 134,-338 136,-347 126,-326 266,-581 719,-1311 1404,-2291 1802,-2577 57,-41 24,18 499,-882 114,-217 229,-433 254,-480 l 45,-85 95,-7 c 52,-3 188,-14 302,-24 240,-21 193,-28 568,92 826,267 1165,473 1318,804 114,245 111,305 -56,969 l -132,524 26,81 c 61,186 58,211 -122,1106 -370,1840 -665,2921 -951,3480 -153,299 -168,485 -43,548 84,42 825,364 925,402 234,87 356,162 507,311 82,81 141,127 267,209 89,58 248,162 354,231 105,70 194,122 198,118 3,-5 52,16 109,46 120,63 110,60 110,38 0,-9 14,-32 32,-50 l 31,-32 79,-808 c 324,-3354 306,-3146 312,-3513 7,-364 13,-475 51,-825 51,-469 75,-788 105,-1395 11,-223 25,-425 30,-450 5,-25 14,-238 20,-475 32,-1381 79,-1953 191,-2345 50,-173 77,-219 204,-347 78,-78 107,-113 94,-113 -25,0 -26,14 25,-291 86,-506 143,-996 176,-1484 6,-88 13,-188 16,-222 l 6,-63 5529,0 5529,0 0,38 c 0,363 67,1221 135,1732 31,234 28,221 76,250 300,184 399,778 439,2630 7,303 16,526 25,595 8,61 21,263 30,450 25,539 50,880 105,1400 47,438 53,589 55,1380 l 3,740 107,1090 c 58,600 130,1341 160,1649 30,307 56,561 59,563 3,3 21,-4 40,-15 21,-13 36,-16 38,-10 9,25 725,-458 816,-550 148,-150 249,-215 480,-306 78,-31 269,-112 424,-180 652,-286 589,-252 608,-322 33,-117 0,-243 -130,-498 -300,-585 -662,-1976 -1061,-4081 -48,-251 -45,-350 16,-507 14,-36 11,-53 -117,-560 l -132,-523 0,-120 c 0,-540 407,-844 1609,-1206 l 140,-42 135,13 c 74,6 210,18 303,25 92,6 169,14 171,16 5,5 126,235 406,764 128,242 256,485 285,540 46,86 62,106 112,142 397,288 1093,1289 1823,2624 105,191 264,568 386,910 148,416 8,1102 -387,1890 -336,673 -455,1197 -684,3029 -175,1400 -305,1911 -569,2244 -182,228 -1633,1181 -3662,2404 -114,69 -230,148 -270,183 -193,171 -410,305 -684,420 -80,34 -163,71 -185,82 -22,12 -51,22 -65,23 -14,0 -97,22 -185,48 -88,26 -248,65 -355,86 -107,22 -229,51 -270,65 -614,211 -1606,457 -2359,585 -148,25 -136,19 -155,78 l -16,48 52,114 53,115 0,535 c -1,589 -7,672 -76,1085 -182,1088 -688,2531 -1376,3927 l -82,168 -263,267 c -823,841 -995,1005 -1250,1197 -159,119 -250,181 -275,187 -41,9 -179,11 -203,2 z m 181,-92 c 23,-5 123,-74 282,-196 l 247,-187 548,-557 c 720,-731 644,-645 746,-849 516,-1032 996,-2307 1226,-3256 163,-671 200,-987 200,-1705 l 0,-494 -56,-126 -55,-125 31,-79 c 19,-51 35,-114 42,-177 l 11,-98 189,-90 c 236,-114 234,-108 54,-190 -2183,-995 -4762,-963 -6951,88 l -150,72 -122,121 c -68,67 -123,127 -123,134 0,7 83,55 185,105 l 185,93 -46,75 -45,75 4,115 c 2,63 12,156 21,205 21,108 24,311 7,411 -13,75 8,480 28,550 5,17 7,42 4,56 -10,50 63,689 122,1078 189,1242 503,2243 921,2938 l 80,132 805,772 c 442,424 851,819 909,878 264,267 331,280 562,103 l 58,-44 -30,67 c -51,114 -27,137 111,105 z m 3492,-7731 c 728,-128 1515,-323 2192,-544 94,-30 231,-67 305,-80 274,-51 580,-139 580,-167 0,-11 -30,-117 -66,-236 -63,-208 -66,-220 -59,-289 6,-67 3,-82 -54,-275 -505,-1715 -601,-3172 -272,-4167 79,-237 389,-1020 458,-1157 9,-16 29,-41 46,-55 29,-25 29,-26 18,-80 -6,-30 -34,-291 -61,-580 -28,-289 -64,-662 -80,-830 -16,-168 -39,-402 -50,-520 -12,-118 -46,-467 -77,-775 l -56,-560 -7,-835 c -8,-848 -11,-937 -55,-1345 -52,-489 -76,-803 -105,-1390 -11,-220 -24,-425 -30,-455 -5,-30 -16,-318 -25,-640 -46,-1828 -133,-2352 -414,-2518 l -46,-27 -5557,-3 c -4788,-2 -5558,0 -5558,12 0,9 -16,17 -41,21 -151,26 -340,231 -403,437 -112,365 -164,1023 -191,2378 -3,168 -12,357 -20,420 -8,63 -21,261 -30,440 -27,576 -56,962 -110,1465 -31,292 -43,484 -50,860 -7,316 -12,376 -338,3735 l -52,536 -31,38 c -23,27 -33,52 -38,89 -14,118 -9,145 55,297 88,210 311,797 352,925 306,956 211,2425 -261,4030 -73,248 -77,265 -78,365 -1,100 -4,115 -67,320 -37,118 -67,221 -67,227 0,42 474,202 795,269 72,15 174,42 227,60 500,172 1105,342 1652,463 289,64 250,70 380,-58 l 111,-108 175,-86 c 1144,-555 2408,-834 3692,-815 275,4 285,5 373,32 76,24 111,29 227,32 91,2 154,8 190,19 33,11 103,19 188,22 91,3 158,12 205,25 49,14 123,22 245,28 181,9 202,12 530,95 298,74 655,189 940,300 223,87 650,278 650,291 0,18 -54,106 -77,125 -16,13 -99,58 -185,99 -162,77 -168,82 -168,143 0,33 -15,33 193,-3 z m 3718,-1142 c 2352,-1413 3885,-2404 4146,-2680 258,-274 389,-787 573,-2245 225,-1780 350,-2345 651,-2946 450,-897 577,-1549 389,-1997 -27,-63 -62,-151 -78,-195 -143,-384 -199,-501 -485,-1000 -757,-1326 -1392,-2165 -1739,-2297 -39,-15 -94,-21 -252,-28 -110,-5 -258,-12 -327,-16 -142,-8 -108,-15 -469,98 -1044,327 -1456,588 -1569,996 -48,174 -46,187 159,1190 360,1764 641,2790 905,3297 116,222 138,291 139,427 1,76 4,108 13,108 6,0 146,-59 310,-131 164,-72 359,-157 433,-189 74,-33 360,-158 635,-279 523,-230 525,-231 525,-176 0,6 -345,163 -767,348 -1320,579 -1176,510 -1263,599 -100,100 -225,162 -505,248 -635,196 -717,234 -919,430 -97,93 -155,138 -296,230 -96,63 -298,194 -449,292 -188,123 -276,175 -282,167 -26,-43 -156,252 -430,983 -389,1040 -317,2505 213,4298 55,189 60,212 59,293 -2,81 2,103 58,288 34,110 61,202 61,205 0,16 75,-26 561,-318 z m -14127,135 c 3,-10 30,-101 61,-203 55,-178 57,-188 51,-268 -3,-48 -1,-95 5,-110 114,-297 344,-1285 423,-1817 167,-1128 114,-1945 -177,-2722 -262,-696 -380,-966 -406,-924 -5,8 -79,-34 -232,-134 -694,-452 -678,-442 -794,-554 -196,-191 -297,-241 -790,-391 -420,-128 -523,-175 -643,-297 l -72,-73 -643,-281 c -353,-155 -775,-340 -937,-412 -162,-71 -314,-138 -338,-148 -42,-18 -46,-33 -17,-67 3,-3 116,45 465,198 796,351 1414,620 1420,620 4,0 10,-48 12,-107 5,-143 28,-211 149,-448 286,-560 617,-1819 1003,-3809 98,-504 99,-580 11,-771 -169,-367 -595,-602 -1705,-941 l -155,-47 -155,7 c -85,4 -236,11 -336,15 -175,7 -183,8 -250,40 -348,163 -952,960 -1656,2186 -329,572 -369,650 -498,983 -66,169 -130,334 -144,367 -159,389 -19,1079 386,1888 322,645 447,1191 663,2902 222,1753 339,2154 720,2459 183,147 810,579 1187,817 40,26 174,112 298,191 200,128 631,398 1035,648 764,473 2006,1219 2032,1219 12,1 24,-6 27,-16 z M 68742,8703 c 203,-304 685,-547 1686,-849 l 182,-55 178,11 c 97,6 247,15 332,20 85,5 165,12 178,15 49,15 57,32 -474,-970 l -143,-270 -63,-7 c -128,-14 -414,-38 -460,-38 -124,0 -826,244 -1119,389 -387,192 -568,418 -586,737 l -6,101 119,476 c 129,519 127,514 176,440 z M 52439,8125 c 112,-443 114,-452 114,-565 1,-390 -240,-647 -823,-880 -219,-88 -637,-229 -822,-278 -28,-8 -91,-5 -230,9 -106,10 -219,19 -250,19 -101,0 -75,-39 -421,619 -174,330 -317,607 -317,616 0,14 8,16 53,11 28,-4 144,-11 257,-16 113,-6 250,-13 305,-16 113,-6 213,20 680,177 728,245 1081,443 1276,714 56,78 52,85 178,-410 z M 66246,4783 c -8,-38 -52,-386 -71,-558 -23,-215 -53,-587 -65,-820 -5,-115 -13,-261 -16,-322 l -6,-113 -5432,0 -5433,0 -12,183 c -32,469 -92,981 -172,1459 -16,97 -29,181 -29,187 0,8 1550,11 5621,11 l 5621,0 -6,-27 z"
       id="path3269" />
    <path
       d="m 16256,30160 c -16,-5 -39,-19 -52,-31 -23,-22 -23,-22 -61,-3 -136,66 -317,3 -511,-181 -37,-34 -386,-336 -777,-670 -390,-334 -894,-765 -1120,-958 l -410,-351 -429,-473 -430,-473 -88,-167 c -157,-298 -262,-548 -310,-740 l -42,-168 16,-155 16,-155 -53,-80 c -393,-597 -234,-1200 433,-1641 69,-45 73,-50 68,-79 -17,-94 -18,-284 -2,-380 29,-171 19,-416 -24,-565 -17,-60 -1,-218 27,-267 l 24,-42 -23,-12 c -12,-7 -59,-18 -103,-26 -236,-40 -306,-68 -567,-225 l -197,-119 -228,-60 c -369,-97 -808,-229 -1081,-324 -57,-20 -145,-44 -196,-55 -517,-106 -966,-290 -1309,-536 -64,-47 -247,-163 -405,-258 -536,-323 -1045,-633 -1347,-821 -55,-34 -158,-98 -230,-142 -1160,-714 -2131,-1369 -2340,-1578 -290,-290 -437,-834 -620,-2305 -227,-1819 -336,-2300 -685,-3020 -316,-653 -434,-1059 -435,-1495 0,-261 8,-297 123,-580 23,-55 78,-194 122,-308 82,-213 173,-391 423,-827 646,-1130 1213,-1917 1589,-2209 59,-46 74,-65 121,-154 30,-56 127,-239 215,-407 89,-168 230,-435 315,-595 l 153,-290 74,-7 c 41,-4 179,-17 306,-28 l 231,-20 179,55 c 1173,361 1549,641 1570,1175 l 5,115 -134,533 -135,533 24,67 c 64,186 64,197 -68,862 -374,1899 -703,3147 -964,3661 -74,146 -168,437 -160,496 25,185 157,266 711,434 473,145 596,207 795,404 99,98 816,584 831,563 5,-8 165,69 196,94 8,6 13,2 18,-14 4,-13 20,-36 35,-53 l 28,-30 71,-745 c 40,-410 85,-880 102,-1045 55,-571 169,-1751 188,-1955 11,-116 22,-339 26,-515 7,-368 17,-543 50,-845 53,-488 82,-885 110,-1470 9,-179 22,-377 30,-440 7,-63 16,-261 20,-440 24,-1322 80,-1996 196,-2375 49,-158 78,-206 201,-330 91,-91 106,-111 89,-113 -12,-2 -21,-5 -21,-7 0,-2 16,-91 35,-199 93,-527 204,-1507 205,-1818 l 0,-28 5533,0 5533,0 2,123 c 9,454 54,1033 123,1572 38,298 35,288 86,322 295,198 396,778 433,2493 11,525 16,649 30,735 5,33 16,204 25,380 26,548 55,959 96,1340 60,562 69,780 69,1606 l 0,606 65,674 c 105,1081 132,1357 196,2024 68,708 65,694 129,635 39,-37 227,-134 232,-120 9,25 702,-445 808,-548 220,-213 333,-271 832,-423 525,-160 654,-238 687,-415 13,-70 -71,-337 -168,-531 -261,-524 -617,-1890 -976,-3748 -31,-159 -62,-323 -70,-364 -26,-131 -18,-251 26,-392 l 21,-66 -131,-524 c -149,-595 -156,-648 -111,-825 112,-437 544,-710 1619,-1025 l 113,-33 192,17 c 105,10 237,20 294,24 56,3 109,11 116,17 14,10 79,132 547,1020 l 194,368 90,73 c 416,336 1030,1218 1743,2501 147,264 170,314 272,579 51,132 111,283 133,335 200,474 91,1082 -363,2020 -334,690 -445,1187 -670,2990 -184,1477 -328,2010 -619,2301 -251,250 -1376,992 -3096,2042 -228,139 -872,530 -945,573 -30,17 -103,68 -162,112 -371,278 -871,482 -1430,582 -64,11 -143,30 -175,41 -602,209 -1620,464 -2338,584 -190,32 -183,29 -206,86 l -17,46 54,123 54,123 0,228 0,227 131,129 c 517,505 1058,1273 1149,1629 42,163 15,252 -179,597 -39,71 -73,134 -74,140 -1,7 -16,32 -33,57 -17,25 -62,97 -99,160 -295,496 -844,1339 -1074,1650 -151,205 -917,927 -2059,1942 -236,211 -652,515 -793,581 -45,20 -208,32 -253,17 z m 171,-100 c 35,0 492,-297 608,-395 381,-322 1601,-1441 1956,-1795 293,-292 449,-507 991,-1360 309,-487 300,-456 100,-356 -346,173 -797,373 -964,427 -93,29 -117,31 -238,15 -218,-29 -526,-48 -765,-50 l -240,-1 -210,62 c -115,34 -403,114 -639,178 l -429,116 -139,75 -139,75 -107,-12 c -145,-15 -236,-40 -361,-98 -180,-84 -413,-145 -1161,-305 -245,-53 -476,-105 -515,-116 -267,-78 -719,-202 -927,-255 -338,-87 -515,-183 -921,-500 -82,-63 -152,-115 -156,-115 -10,0 -15,34 -31,187 l -11,103 42,161 c 47,183 165,460 305,721 l 79,147 415,457 415,458 1010,865 c 556,475 1055,903 1110,950 55,47 135,118 178,158 243,227 338,242 574,90 79,-51 80,-50 33,42 -35,70 -24,84 59,75 24,-2 59,-4 78,-4 z m -92,-3120 c 1,-19 52,-174 114,-344 120,-328 119,-322 82,-408 l -20,-48 -123,7 c -207,10 -612,-86 -878,-208 -187,-86 -662,-202 -1575,-384 -291,-58 -356,-74 -545,-139 -118,-40 -348,-115 -510,-165 -162,-51 -343,-108 -402,-126 -258,-81 -346,-214 -289,-437 55,-216 295,-550 565,-788 79,-70 102,-100 75,-100 -21,0 -351,205 -453,281 -464,349 -595,800 -371,1274 57,119 133,227 159,223 14,-1 53,23 116,73 432,344 643,466 920,534 194,48 462,121 825,225 132,37 328,87 435,110 669,143 812,175 965,214 232,60 350,100 457,151 116,57 292,96 413,91 39,-1 40,-2 40,-36 z m 170,-61 c 62,-34 150,-61 548,-169 261,-71 546,-150 633,-176 105,-30 193,-49 258,-55 153,-15 732,17 951,51 152,24 323,-34 890,-302 446,-212 516,-249 549,-296 102,-142 361,-622 391,-725 47,-162 -69,-412 -430,-927 -426,-608 -865,-1041 -1315,-1296 -85,-48 -391,-223 -680,-390 -801,-461 -1082,-614 -1250,-683 -113,-46 -335,-374 -602,-888 -66,-127 -86,-173 -74,-173 9,0 16,-5 16,-11 0,-6 -5,-7 -12,-2 -7,4 -93,13 -191,19 -155,9 -179,13 -192,30 -26,34 -73,168 -104,295 -58,242 -150,416 -517,970 -263,398 -238,379 -1149,869 -115,62 -244,131 -285,153 -730,393 -974,537 -910,537 34,0 492,-228 930,-463 113,-60 298,-158 411,-218 557,-292 961,-565 1187,-804 72,-77 92,-103 92,-126 0,-23 4,-29 23,-29 65,0 528,-790 609,-1040 3,-9 22,22 47,73 272,570 969,1176 1762,1536 860,389 1531,946 2071,1718 47,67 88,120 90,117 3,-2 5,2 5,9 0,6 33,66 72,132 209,347 272,566 203,701 -71,138 -234,250 -448,308 -49,13 -107,31 -129,41 -471,201 -641,234 -1300,255 -420,13 -394,11 -1220,115 -374,47 -718,88 -763,92 -95,7 -95,6 -57,104 l 18,46 -111,306 c -140,383 -138,363 -17,296 z m 30,-814 c 171,-12 536,-55 1525,-179 129,-17 295,-29 489,-35 l 294,-11 46,-36 c 206,-164 294,-313 271,-458 -9,-53 -11,-121 -6,-215 23,-448 -150,-767 -795,-1466 -583,-633 -842,-998 -884,-1248 -4,-25 -14,-43 -33,-54 -15,-10 -83,-58 -152,-107 -166,-119 -203,-126 -475,-89 -190,26 -400,34 -501,19 l -60,-8 -27,178 c -62,403 -63,436 -33,1189 14,352 42,1043 61,1535 40,1009 40,1000 63,1000 9,0 107,-7 217,-15 z m -315,-2 c 0,-5 -11,-278 -25,-608 -34,-821 -83,-2060 -93,-2343 -11,-304 1,-474 59,-820 12,-68 18,-126 14,-130 -4,-4 -107,-8 -231,-10 l -224,-3 -111,116 c -62,64 -147,145 -190,181 -47,39 -103,99 -138,148 -43,59 -110,127 -238,241 -98,88 -310,288 -471,444 l -294,285 -143,216 c -350,527 -547,910 -611,1190 -24,105 -51,367 -41,394 10,25 123,54 532,136 914,185 1324,287 1525,380 175,80 680,216 680,183 z m 3076,-258 c 119,-16 314,-77 559,-175 72,-29 170,-63 219,-76 331,-90 471,-271 391,-509 -135,-405 -634,-1080 -1123,-1518 -400,-359 -716,-565 -1229,-803 -145,-67 -321,-154 -390,-193 -172,-97 -185,-92 -117,49 119,248 386,593 814,1050 458,489 677,809 776,1135 26,86 41,311 45,661 1,81 -74,205 -195,324 -80,78 -77,84 41,76 54,-4 147,-13 209,-21 z m -5883,-577 c 21,-388 196,-780 662,-1483 123,-185 168,-245 231,-304 44,-41 156,-150 249,-241 94,-91 218,-211 276,-266 59,-54 119,-115 135,-133 l 29,-35 -30,15 c -16,9 -43,22 -60,31 -16,8 -91,50 -165,93 -74,43 -223,124 -330,180 -107,57 -310,164 -450,239 -356,191 -766,395 -890,445 -320,128 -801,712 -818,993 -12,203 17,226 448,359 157,48 373,117 480,152 252,84 226,89 233,-45 z m -661,-1486 c 270,-163 726,-418 1358,-757 970,-522 944,-504 1155,-821 393,-594 484,-763 540,-999 29,-124 66,-234 95,-282 31,-53 27,-75 -12,-69 -18,3 -130,15 -248,26 -118,12 -392,48 -609,81 l -393,60 -182,74 c -380,154 -724,280 -936,341 -178,52 -248,87 -398,198 -173,128 -432,352 -432,373 0,23 22,14 174,-76 380,-223 486,-263 966,-370 467,-104 684,-141 792,-134 l 96,6 44,-35 c 328,-267 764,97 551,459 -97,166 -328,240 -488,156 -57,-29 -146,-111 -157,-143 -4,-13 -42,-10 -254,19 -137,18 -289,37 -339,42 -445,42 -540,75 -813,277 -246,183 -412,284 -539,328 -31,11 -53,25 -53,33 0,8 -20,49 -45,92 -54,93 -60,173 -25,339 31,149 36,303 14,445 -19,119 -24,323 -11,378 10,39 23,35 149,-41 z m 6681,-759 -6,-187 -53,-118 -53,-118 30,-73 c 19,-46 35,-109 44,-177 7,-57 17,-106 22,-107 12,-4 346,-168 361,-177 17,-11 52,-81 52,-106 0,-46 -142,-166 -405,-343 -156,-105 -163,-108 -315,-156 -250,-79 -347,-108 -491,-145 -75,-19 -206,-60 -292,-90 -86,-31 -162,-56 -170,-56 -13,0 -34,30 -203,298 l -83,132 0,83 c 1,184 -105,329 -283,386 -57,19 -47,34 65,97 56,32 341,195 632,363 292,167 611,350 711,407 163,92 296,179 379,248 64,53 65,48 58,-161 z m -6800,-528 c 141,-30 304,-121 573,-321 125,-93 280,-194 297,-194 6,0 18,-6 26,-14 15,-14 70,-28 236,-61 39,-7 142,-21 230,-29 88,-9 276,-31 419,-51 l 259,-35 136,20 c 76,11 160,24 187,29 57,11 69,1 123,-103 45,-85 42,-121 -15,-190 l -45,-56 -285,0 -284,0 -326,65 c -749,149 -874,193 -1326,461 l -233,139 -265,0 c -382,0 -333,15 -763,-238 -81,-48 -188,-107 -237,-132 l -90,-45 0,27 c 0,34 -27,76 -68,106 -17,13 -28,28 -24,33 8,12 117,54 140,54 17,0 253,135 552,316 264,159 297,174 470,213 103,23 221,26 313,6 z m 7149,-149 c 722,-133 1397,-302 2106,-530 92,-30 212,-62 267,-71 300,-52 815,-211 815,-252 0,-8 -30,-112 -67,-231 -63,-206 -66,-222 -64,-307 2,-80 -3,-105 -39,-225 -473,-1570 -602,-3021 -355,-3985 54,-212 218,-662 401,-1103 65,-155 76,-209 49,-232 -9,-7 -29,-30 -45,-50 l -29,-36 -41,-425 c -22,-233 -63,-651 -90,-929 -27,-278 -74,-764 -105,-1080 -30,-316 -62,-642 -71,-725 -13,-122 -17,-286 -19,-880 -2,-792 -10,-974 -55,-1400 -55,-517 -84,-906 -111,-1500 -6,-137 -15,-279 -20,-315 -13,-92 -26,-430 -39,-955 -22,-942 -76,-1547 -166,-1875 -79,-283 -197,-401 -411,-408 l -103,-4 0,994 0,993 -76,65 c -907,773 -1905,2512 -2252,3927 l -47,193 -1427,0 c -1421,0 -1428,0 -1428,20 0,16 -7,20 -37,22 l -38,1 38,4 c 37,4 37,5 37,49 0,44 0,44 -37,46 l -38,1 38,4 c 37,4 37,5 37,49 0,44 0,44 -37,46 l -38,1 38,4 c 57,6 54,84 -3,94 l -35,6 38,2 c 36,1 37,2 37,41 0,39 -1,40 -37,42 l -38,1 38,4 c 37,4 37,5 37,49 0,44 0,44 -37,46 l -38,1 38,4 c 37,4 37,5 37,49 0,44 0,44 -37,46 l -38,1 38,4 c 37,4 37,5 37,49 0,44 0,44 -37,46 l -38,1 38,4 c 37,4 37,5 37,49 0,44 0,44 -37,46 l -38,1 38,4 c 36,4 37,5 37,44 0,38 -1,39 -37,41 l -38,1 38,4 c 37,4 37,5 37,49 0,44 0,44 -37,46 l -38,1 38,4 c 37,4 37,5 37,49 0,44 0,44 -37,46 l -38,1 38,4 c 37,4 37,5 37,49 0,44 0,44 -37,46 l -38,1 38,4 c 36,4 37,5 37,44 0,38 -1,39 -37,41 l -38,1 38,4 c 37,4 37,5 37,49 0,44 0,44 -37,46 l -38,1 38,4 c 37,4 37,5 37,49 0,44 0,44 -37,46 l -38,1 38,4 c 37,4 37,5 37,49 0,44 0,44 -37,46 l -38,1 38,4 c 37,4 37,5 37,49 0,44 0,44 -37,46 l -38,1 38,4 c 57,6 54,84 -3,94 l -35,6 38,2 c 36,1 37,2 37,41 0,39 -1,40 -37,42 l -38,1 38,4 c 37,4 37,5 37,49 0,44 0,44 -37,46 l -38,1 38,4 c 37,4 37,5 37,49 0,44 0,44 -37,46 l -38,1 38,4 c 37,4 37,5 37,49 0,44 0,44 -37,46 l -38,1 38,4 c 37,4 37,5 37,49 0,44 0,44 -37,46 l -38,1 38,4 c 36,4 37,5 37,44 0,38 -1,39 -37,41 l -38,1 38,4 c 37,4 37,5 37,49 l 0,44 -37,1 -38,2 35,6 c 33,6 35,9 38,49 l 3,42 -38,2 -38,1 38,4 c 37,4 37,5 37,49 0,44 0,44 -37,46 l -38,1 38,4 37,4 0,90 0,89 -37,2 -38,1 38,4 c 37,4 37,5 37,49 0,44 0,44 -37,46 l -38,1 38,4 c 37,4 37,5 37,49 0,44 0,44 -37,46 l -38,1 38,4 c 37,4 37,5 37,49 0,44 0,44 -37,46 l -38,1 38,4 c 57,6 54,84 -3,94 l -35,6 38,2 c 36,1 37,2 37,41 0,39 -1,40 -37,42 l -38,1 38,4 c 37,4 37,5 37,49 0,44 0,44 -37,46 l -38,1 38,4 c 37,4 37,5 37,49 0,44 0,44 -37,46 l -38,1 38,4 c 37,4 37,5 37,49 0,44 0,44 -37,46 l -38,1 38,4 c 37,4 37,5 37,49 0,44 0,44 -37,46 l -38,1 38,4 c 36,4 37,5 37,44 0,38 -1,39 -37,41 l -38,1 38,4 c 37,4 37,5 37,49 0,44 0,44 -37,46 l -38,1 38,4 c 37,4 37,5 37,49 0,44 0,44 -37,46 l -38,1 38,4 c 37,4 37,5 37,49 0,44 0,44 -37,46 l -38,1 38,4 c 36,4 37,5 37,44 0,38 -1,39 -37,41 l -38,1 38,4 c 37,4 37,5 37,49 0,44 0,44 -37,46 l -38,1 38,4 c 37,4 37,5 37,49 0,44 0,44 -37,46 l -38,1 38,4 c 37,4 37,5 37,49 0,44 0,44 -37,46 l -38,1 38,4 c 37,4 37,5 37,49 0,44 0,44 -37,46 l -38,1 38,4 c 57,6 54,84 -3,94 l -35,6 38,2 c 36,1 37,2 37,41 0,39 -1,40 -37,42 l -38,1 38,4 c 37,4 37,5 37,49 0,44 0,44 -37,46 l -38,1 38,4 c 37,4 37,5 37,49 0,44 0,44 -37,46 l -38,1 38,4 c 37,4 37,5 37,49 0,44 0,44 -37,46 l -38,1 38,4 c 37,4 37,5 37,49 0,44 0,44 -37,46 l -38,1 38,4 c 36,4 37,5 37,44 0,38 -1,39 -37,41 l -38,1 38,4 c 37,4 37,5 37,49 l 0,44 -37,1 -38,2 35,6 c 33,6 35,9 38,49 l 3,42 -38,2 -38,1 38,4 c 37,4 37,5 37,49 0,44 0,44 -37,46 l -38,1 38,4 c 37,4 37,5 37,49 0,44 0,44 -37,46 l -38,1 38,4 c 37,4 37,5 37,49 0,28 -4,44 -12,45 -10,0 -10,2 0,6 7,2 12,22 12,44 0,38 -1,39 -37,41 l -38,1 38,4 c 37,4 37,5 37,49 0,44 0,44 -37,46 l -38,1 38,4 c 37,4 37,5 37,49 0,44 0,44 -37,46 l -38,1 38,4 c 37,4 37,5 37,49 0,44 0,44 -37,46 l -38,1 38,4 c 37,4 37,5 37,49 0,44 0,44 -37,46 l -38,1 38,4 c 57,6 54,84 -3,94 l -35,6 38,2 c 36,1 37,2 37,41 0,39 -1,40 -37,42 l -38,1 38,4 c 37,4 37,5 37,49 0,44 0,44 -37,46 l -38,1 38,4 c 37,4 37,5 37,49 0,44 0,44 -37,46 l -38,1 38,4 c 37,4 37,5 37,49 0,44 0,44 -37,46 l -38,1 38,4 c 37,4 37,5 37,49 0,44 0,44 -37,46 l -38,1 38,4 c 36,4 37,5 37,44 0,38 -1,39 -37,41 l -38,1 38,4 c 37,4 37,5 37,49 0,44 0,44 -37,46 l -38,1 38,4 c 37,4 37,5 37,49 0,44 0,44 -37,46 l -38,1 38,4 c 37,4 37,5 37,49 0,44 0,44 -37,46 l -38,1 38,4 c 36,4 37,5 37,44 0,38 -1,39 -37,41 l -38,1 38,4 c 37,4 37,5 37,49 0,44 0,44 -37,46 l -38,1 38,4 c 37,4 37,5 37,49 0,44 0,44 -37,46 l -38,1 38,4 c 37,4 37,5 37,49 0,44 0,44 -37,46 l -38,1 38,4 c 37,4 37,5 37,49 0,44 0,44 -37,46 l -38,1 38,4 c 57,6 54,84 -3,94 l -35,6 38,2 c 36,1 37,2 37,41 0,39 -1,40 -37,42 l -38,1 38,4 c 37,4 37,5 37,49 0,44 0,44 -37,46 l -38,1 38,4 c 37,4 37,5 37,49 0,44 0,44 -37,46 l -38,1 38,4 c 37,4 37,5 37,49 0,44 0,44 -37,46 l -38,1 38,4 c 37,4 37,5 37,49 0,44 0,44 -37,46 l -38,1 38,4 c 36,4 37,5 37,44 0,38 -1,39 -37,41 l -38,1 38,4 c 37,4 37,5 37,49 l 0,44 -37,1 -38,2 35,6 c 33,6 35,9 38,49 l 3,42 -38,2 -38,1 38,4 c 37,4 37,5 37,49 0,44 0,44 -37,46 l -38,1 38,4 c 37,4 37,5 37,49 0,44 0,44 -37,46 l -38,1 38,4 c 37,4 37,5 37,49 0,44 0,44 -37,46 l -38,1 38,4 c 36,4 37,5 37,48 0,38 3,44 27,50 l 26,6 -6,260 -6,261 30,66 c 19,42 29,79 27,98 l -4,31 75,7 c 41,3 169,6 285,6 288,0 602,39 895,110 67,17 128,30 134,30 7,0 40,-40 75,-89 158,-225 322,-312 618,-331 382,-23 719,74 1039,300 680,480 1004,603 1347,512 166,-45 446,-248 463,-337 2,-11 11,-60 20,-109 20,-110 35,-140 85,-168 48,-28 50,-47 20,-207 -18,-97 -44,-427 -34,-443 2,-3 22,-9 45,-13 35,-6 43,-13 61,-50 l 21,-42 81,-7 c 44,-3 101,-8 126,-12 45,-6 47,-5 150,75 121,94 124,98 122,169 -2,86 -85,392 -140,515 l -25,58 22,89 c 28,107 23,139 -27,180 -20,17 -51,56 -68,88 -35,63 -82,102 -124,102 -22,0 -37,12 -71,58 -338,448 -813,568 -1376,346 -195,-77 -237,-100 -720,-391 -419,-253 -608,-321 -396,-142 48,41 97,82 108,92 11,10 -79,-48 -200,-129 -299,-201 -385,-228 -556,-174 -107,33 -279,154 -279,195 0,22 198,91 441,154 260,67 598,178 664,218 222,134 502,351 554,429 36,55 38,82 10,144 -40,89 -59,103 -239,191 -139,67 -170,86 -170,103 0,12 -3,31 -6,44 -9,31 12,30 298,-22 z m -3001,-212 c 102,-13 198,-24 213,-24 43,0 30,-18 -83,-124 -235,-219 -601,-669 -601,-738 0,-42 -41,16 -115,163 -47,95 -98,192 -112,218 -81,140 -153,258 -219,354 -41,59 -74,112 -74,117 0,6 59,10 148,10 113,1 186,7 317,29 197,32 247,32 526,-5 z m -4358,-40 c 40,-6 57,-18 155,-109 431,-400 660,-562 889,-624 203,-56 494,-161 928,-335 l 240,-95 395,-60 c 429,-65 887,-116 963,-106 42,5 47,4 47,-14 0,-10 13,-49 30,-85 l 29,-67 -6,-259 -6,-259 26,-10 c 15,-6 27,-17 27,-26 0,-10 11,-16 38,-17 l 37,-1 -37,-4 c -38,-4 -38,-5 -38,-49 0,-44 0,-44 38,-46 l 37,-1 -37,-4 c -38,-4 -38,-5 -38,-49 0,-44 0,-44 38,-46 l 37,-1 -37,-4 c -38,-4 -38,-5 -38,-49 0,-44 0,-44 38,-46 l 37,-1 -37,-4 c -38,-4 -38,-5 -38,-49 0,-44 0,-44 38,-46 l 37,-1 -37,-4 c -57,-6 -60,-83 -3,-83 19,0 35,-4 35,-10 0,-5 -16,-10 -35,-10 -57,0 -54,-79 3,-82 l 37,-1 -37,-4 c -38,-4 -38,-5 -38,-49 0,-44 0,-44 38,-46 l 37,-1 -37,-4 c -38,-4 -38,-5 -38,-49 0,-44 0,-44 38,-46 l 37,-1 -37,-4 c -38,-4 -38,-5 -38,-49 0,-44 0,-44 38,-46 l 37,-1 -37,-4 c -38,-4 -38,-5 -38,-49 0,-44 0,-44 38,-46 l 37,-1 -37,-4 c -38,-4 -38,-5 -38,-49 0,-44 0,-44 38,-46 l 37,-1 -37,-4 c -37,-4 -38,-5 -38,-44 0,-38 1,-39 38,-41 l 37,-1 -37,-4 c -38,-4 -38,-5 -38,-49 0,-44 0,-44 38,-46 l 37,-1 -37,-4 c -38,-4 -38,-5 -38,-49 0,-44 0,-44 38,-46 l 37,-1 -37,-4 c -38,-4 -38,-5 -38,-49 0,-44 0,-44 38,-46 l 37,-1 -37,-4 c -38,-4 -38,-5 -38,-49 0,-44 0,-44 38,-46 l 37,-1 -37,-4 c -38,-4 -38,-5 -38,-49 0,-44 0,-44 38,-46 l 37,-1 -37,-4 c -37,-4 -38,-5 -38,-44 0,-38 1,-39 38,-41 l 37,-1 -37,-4 c -38,-4 -38,-5 -38,-49 0,-44 0,-44 38,-46 l 37,-1 -37,-4 c -57,-6 -60,-83 -3,-83 19,0 35,-4 35,-10 0,-5 -16,-10 -35,-10 -57,0 -54,-79 3,-82 l 37,-1 -37,-4 c -38,-4 -38,-5 -38,-49 0,-44 0,-44 38,-46 l 37,-1 -37,-4 c -38,-4 -38,-5 -38,-49 0,-44 0,-44 38,-46 l 37,-1 -37,-4 c -38,-4 -38,-5 -38,-49 0,-44 0,-44 38,-46 l 37,-1 -37,-4 c -38,-4 -38,-5 -38,-49 0,-44 0,-44 38,-46 l 37,-1 -37,-4 c -38,-4 -38,-5 -38,-49 0,-44 0,-44 38,-46 l 37,-1 -37,-4 c -37,-4 -38,-5 -38,-44 0,-38 1,-39 38,-41 l 37,-1 -37,-4 c -38,-4 -38,-5 -38,-49 0,-44 0,-44 38,-46 l 37,-1 -37,-4 c -38,-4 -38,-5 -38,-49 0,-44 0,-44 38,-46 l 37,-1 -37,-4 c -38,-4 -38,-5 -38,-49 0,-44 0,-44 38,-46 l 37,-1 -37,-4 c -38,-4 -38,-5 -38,-49 0,-44 0,-44 38,-46 l 37,-1 -37,-4 c -38,-4 -38,-5 -38,-49 0,-44 0,-44 38,-46 l 37,-1 -37,-4 c -37,-4 -38,-5 -38,-44 0,-38 1,-39 38,-41 l 37,-1 -37,-4 c -38,-4 -38,-5 -38,-49 0,-44 0,-44 38,-46 l 37,-1 -37,-4 c -38,-4 -38,-5 -38,-49 0,-44 0,-44 38,-46 l 37,-1 -37,-4 c -38,-4 -38,-5 -38,-49 0,-44 0,-44 38,-46 l 37,-1 -37,-4 c -57,-6 -60,-83 -3,-83 19,0 35,-4 35,-10 0,-5 -16,-10 -35,-10 -57,0 -54,-79 3,-82 l 37,-1 -37,-4 c -38,-4 -38,-5 -38,-49 0,-44 0,-44 38,-46 l 37,-1 -37,-4 c -38,-4 -38,-5 -38,-49 0,-44 0,-44 38,-46 l 37,-1 -37,-4 c -38,-4 -38,-5 -38,-49 0,-44 0,-44 38,-46 l 37,-1 -37,-4 c -38,-4 -38,-5 -38,-49 0,-44 0,-44 38,-46 l 37,-1 -37,-4 c -38,-4 -38,-5 -38,-49 0,-44 0,-44 38,-46 l 37,-1 -37,-4 c -37,-4 -38,-5 -38,-44 0,-38 1,-39 38,-41 l 37,-1 -37,-4 c -38,-4 -38,-5 -38,-49 0,-44 0,-44 38,-46 l 37,-1 -37,-4 c -38,-4 -38,-5 -38,-49 0,-44 0,-44 38,-46 l 37,-1 -37,-4 c -38,-4 -38,-5 -38,-49 0,-44 0,-44 38,-46 l 37,-1 -37,-4 c -38,-4 -38,-5 -38,-49 0,-44 0,-44 38,-46 l 37,-1 -37,-4 c -38,-4 -38,-5 -38,-49 0,-44 0,-44 38,-46 l 37,-1 -37,-4 c -37,-4 -38,-5 -38,-44 0,-38 1,-39 38,-41 l 37,-1 -37,-4 c -38,-4 -38,-5 -38,-49 0,-44 0,-44 38,-46 l 37,-1 -37,-4 c -57,-6 -60,-83 -3,-83 19,0 35,-4 35,-10 0,-5 -16,-10 -35,-10 -57,0 -54,-79 3,-82 l 37,-1 -37,-4 c -38,-4 -38,-5 -38,-49 0,-44 0,-44 38,-46 l 37,-1 -37,-4 c -38,-4 -38,-5 -38,-49 0,-44 0,-44 38,-46 l 37,-1 -37,-4 c -38,-4 -38,-5 -38,-49 0,-44 0,-44 38,-46 l 37,-1 -37,-4 c -38,-4 -38,-5 -38,-49 0,-44 0,-44 38,-46 l 37,-1 -37,-4 c -38,-4 -38,-5 -38,-49 0,-44 0,-44 38,-46 l 37,-1 -37,-4 c -37,-4 -38,-5 -38,-44 0,-38 1,-39 38,-41 l 37,-1 -37,-4 c -38,-4 -38,-5 -38,-49 0,-44 0,-44 38,-46 l 37,-1 -37,-4 c -38,-4 -38,-5 -38,-49 0,-44 0,-44 38,-46 l 37,-1 -37,-4 c -38,-4 -38,-5 -38,-49 0,-44 0,-44 38,-46 l 37,-1 -37,-4 c -38,-4 -38,-5 -38,-49 0,-44 0,-44 38,-46 l 37,-1 -37,-4 c -37,-4 -38,-5 -38,-44 0,-38 1,-39 38,-41 l 37,-1 -37,-4 c -38,-4 -38,-5 -38,-49 0,-44 0,-44 38,-46 l 37,-1 -37,-4 c -38,-4 -38,-5 -38,-49 0,-44 0,-44 38,-46 l 37,-1 -37,-4 c -57,-6 -60,-83 -3,-83 19,0 35,-4 35,-10 0,-5 -16,-10 -35,-10 -57,0 -54,-79 3,-82 l 37,-1 -37,-4 c -38,-4 -38,-5 -38,-49 0,-44 0,-44 38,-46 l 37,-1 -37,-4 c -38,-4 -38,-5 -38,-49 0,-44 0,-44 38,-46 l 37,-1 -37,-4 c -38,-4 -38,-5 -38,-49 0,-44 0,-44 38,-46 l 37,-1 -37,-4 c -38,-4 -38,-5 -38,-49 0,-44 0,-44 38,-46 l 37,-1 -37,-4 c -38,-4 -38,-5 -38,-49 0,-44 0,-44 38,-46 l 37,-1 -37,-4 c -37,-4 -38,-5 -38,-44 0,-38 1,-39 38,-41 l 37,-1 -37,-4 c -38,-4 -38,-5 -38,-49 0,-44 0,-44 38,-46 l 37,-1 -37,-4 c -38,-4 -38,-5 -38,-49 0,-44 0,-44 38,-46 l 37,-1 -37,-4 c -38,-4 -38,-5 -38,-49 0,-44 0,-44 38,-46 l 37,-1 -37,-4 c -38,-4 -38,-5 -38,-49 0,-44 0,-44 38,-46 l 37,-1 -37,-4 c -38,-4 -38,-5 -38,-49 0,-44 0,-44 38,-46 l 37,-1 -37,-4 c -37,-4 -38,-5 -38,-44 0,-38 1,-39 38,-41 l 37,-1 -37,-4 c -38,-4 -38,-5 -38,-49 0,-44 0,-44 38,-46 l 37,-1 -37,-4 c -57,-6 -60,-83 -3,-83 19,0 35,-4 35,-10 0,-5 -16,-10 -35,-10 -57,0 -54,-79 3,-82 l 37,-1 -37,-4 c -38,-4 -38,-5 -38,-49 0,-44 0,-44 38,-46 l 37,-1 -37,-4 c -38,-4 -38,-5 -38,-49 0,-44 0,-44 38,-46 l 37,-1 -37,-4 c -38,-4 -38,-5 -38,-49 0,-44 0,-44 38,-46 l 37,-1 -37,-4 c -38,-4 -38,-5 -38,-49 0,-44 0,-44 38,-46 l 37,-1 -37,-4 c -38,-4 -38,-5 -38,-49 0,-44 0,-44 38,-46 l 37,-1 -37,-4 c -37,-4 -38,-5 -38,-44 0,-38 1,-39 38,-41 l 37,-1 -37,-4 c -38,-4 -38,-5 -38,-49 0,-44 0,-44 38,-46 l 37,-1 -37,-4 c -38,-4 -38,-5 -38,-49 0,-44 0,-44 38,-46 l 37,-1 -37,-4 c -38,-4 -38,-5 -38,-49 l 0,-44 -1440,0 -1439,0 -11,-42 C 12848,9360 11952,7770 10998,6923 l -108,-96 0,-1018 0,-1019 -90,0 c -71,0 -90,3 -90,14 0,15 -10,20 -70,31 -78,16 -274,188 -325,286 -145,278 -212,946 -245,2431 -6,252 -15,480 -20,508 -10,52 -19,203 -45,715 -21,410 -50,772 -95,1180 -32,291 -40,418 -50,830 -8,313 -17,460 -45,745 -19,195 -93,960 -165,1700 -72,740 -142,1464 -156,1610 l -26,265 -31,32 c -48,51 -62,207 -24,290 105,235 372,941 421,1113 279,979 170,2385 -314,4035 -54,186 -58,205 -53,275 5,72 2,86 -66,308 -39,127 -71,236 -71,241 0,36 532,209 820,266 47,10 199,55 338,101 139,46 262,84 273,84 20,0 26,-24 9,-35 -52,-32 -99,-172 -78,-232 15,-41 0,-58 -117,-145 -88,-65 -335,-293 -335,-310 0,-5 10,-23 21,-40 19,-27 20,-33 9,-73 l -12,-45 53,-58 c 30,-32 65,-75 79,-95 28,-42 29,-42 155,-57 137,-15 150,-14 190,21 58,51 237,375 280,506 15,46 23,55 94,101 93,61 111,90 104,172 l -5,55 129,62 c 70,34 236,126 368,204 132,78 258,146 280,151 99,24 338,35 438,22 z m 2667,-104 c 89,-26 188,-127 220,-225 32,-96 -4,-273 -54,-269 -13,2 -14,-1 -6,-11 8,-9 8,-15 0,-20 -5,-3 -10,-1 -10,5 0,7 -7,10 -15,6 -12,-4 -13,-2 -7,12 11,20 5,45 -8,37 -5,-3 -7,-13 -4,-23 5,-14 4,-14 -4,-3 -8,11 -5,25 9,52 44,88 5,214 -108,347 -28,32 -28,32 -83,22 -76,-14 -274,-39 -278,-36 -1,2 9,18 24,35 65,78 200,107 324,71 z m 2060,-114 c 0,-8 -7,-42 -16,-76 -51,-201 123,-438 336,-457 l 62,-6 119,-141 c 65,-78 119,-148 119,-157 0,-27 -320,-91 -617,-123 -176,-20 -683,-23 -683,-4 0,15 120,244 228,433 165,290 306,486 380,525 44,23 72,25 72,6 z m 437,-47 c 46,-16 191,-214 376,-514 212,-345 438,-525 657,-525 15,0 30,-5 32,-11 4,-11 312,91 518,173 125,49 197,89 625,348 787,477 1273,492 1697,52 116,-120 120,-128 65,-137 -59,-10 -116,-41 -135,-75 l -16,-28 -76,72 c -183,175 -339,245 -565,253 -339,13 -592,-96 -1190,-517 -327,-229 -576,-313 -935,-314 -332,-2 -495,68 -641,271 -99,138 -248,320 -443,542 -169,193 -179,207 -183,250 -10,111 106,198 214,160 z m -6534,-13 c 50,-21 63,-43 92,-154 33,-124 29,-141 -33,-181 -62,-39 -58,-40 -76,22 -42,140 -173,212 -268,145 -27,-18 -27,-18 -38,2 -52,98 190,222 323,166 z m -117,-253 c 82,-100 73,-161 -60,-428 -53,-104 -106,-203 -118,-218 l -23,-29 -50,39 c -28,21 -80,58 -117,82 l -68,43 -66,-41 c -81,-51 -79,-54 -54,60 26,121 26,119 -18,76 l -38,-37 -17,29 -17,29 118,109 c 64,60 151,134 192,165 41,30 89,69 105,86 102,103 168,113 231,35 z m 12532,-355 c 589,-352 1405,-847 1572,-953 19,-13 96,-60 170,-105 1167,-717 2136,-1358 2460,-1630 327,-273 453,-728 665,-2400 224,-1769 332,-2234 690,-2970 412,-848 520,-1452 339,-1890 -24,-58 -87,-217 -140,-355 -105,-275 -190,-439 -509,-990 -736,-1268 -1325,-2030 -1665,-2154 -20,-8 -116,-17 -220,-21 -102,-5 -252,-12 -335,-15 l -150,-7 -185,57 c -1295,396 -1740,708 -1740,1221 0,241 460,2364 695,3209 148,530 327,1030 388,1080 7,6 23,35 36,65 73,168 95,231 108,309 8,47 52,203 98,346 46,143 122,379 168,525 47,146 172,533 277,860 105,327 245,762 310,965 66,204 175,543 243,755 85,263 120,387 113,392 -7,4 -25,8 -40,10 l -29,3 -577,-1795 c -435,-1353 -581,-1796 -594,-1798 -9,-2 -16,1 -16,6 0,19 -67,93 -120,134 -86,65 -240,132 -456,198 -635,196 -749,251 -949,460 -71,75 -64,70 -890,608 -57,38 -101,60 -103,53 -17,-50 -56,29 -226,456 -247,620 -308,804 -365,1088 -191,958 -43,2381 394,3800 43,140 46,155 40,224 -9,97 102,491 138,491 10,0 193,-104 405,-232 z m -14177,70 c 88,-286 89,-289 89,-387 0,-83 6,-113 49,-260 547,-1836 617,-3285 210,-4370 -264,-704 -392,-997 -411,-940 -2,6 -91,-46 -198,-117 -107,-70 -312,-204 -455,-297 -224,-145 -276,-184 -371,-276 -193,-187 -313,-249 -734,-376 -472,-143 -574,-188 -698,-312 -46,-46 -87,-83 -91,-83 -4,0 -30,71 -58,158 -57,174 -194,600 -331,1027 -274,851 -443,1377 -541,1683 -49,152 -122,379 -162,503 l -72,226 -36,-9 c -20,-6 -38,-12 -39,-13 -2,-2 87,-286 198,-632 112,-345 226,-702 255,-793 30,-91 94,-291 143,-445 361,-1123 539,-1675 568,-1765 19,-58 41,-145 49,-193 21,-120 94,-308 158,-403 228,-339 656,-2002 1047,-4060 126,-667 -268,-994 -1733,-1440 l -180,-54 -276,15 c -152,8 -303,16 -337,18 -350,17 -1073,956 -1954,2537 -197,354 -195,350 -322,678 -60,158 -119,303 -129,324 -75,147 -89,499 -33,796 65,341 199,702 437,1177 294,589 427,1186 642,2895 192,1523 324,2034 597,2309 220,221 1280,923 2843,1883 834,512 1807,1096 1827,1097 13,1 24,-23 49,-101 z m 12458,-185 c 165,-96 182,-119 150,-214 -16,-45 -14,-44 -46,-21 -41,28 -89,42 -165,44 -78,3 -129,-33 -149,-104 -11,-42 -12,-42 -39,-28 -71,38 -39,190 62,286 76,73 113,81 187,37 z m 48,-270 c 74,-35 130,-155 202,-433 45,-176 45,-174 -9,-178 -41,-2 -181,-27 -222,-38 -10,-3 -23,-26 -33,-62 -29,-106 -26,-106 -88,-1 l -57,94 0,-54 0,-53 -32,6 c -17,3 -33,8 -36,10 -8,9 20,342 34,404 8,35 17,95 20,135 16,192 77,239 221,170 z m -5617,-245 c 0,-117 10,-138 68,-138 62,0 72,19 72,137 l 0,103 29,0 29,0 6,-152 c 15,-391 14,-428 -7,-440 -31,-16 -169,-22 -225,-9 l -50,13 4,141 c 3,78 7,211 10,295 l 6,152 29,0 29,0 0,-102 z m -40,-9668 c 0,-5 17,-11 38,-12 l 37,-1 -37,-4 c -38,-4 -38,-5 -38,-49 0,-44 0,-44 38,-46 l 37,-1 -37,-4 c -37,-4 -38,-5 -38,-44 0,-38 1,-39 38,-41 l 37,-1 -37,-4 c -38,-4 -38,-5 -38,-49 0,-44 0,-44 38,-46 l 37,-1 -37,-4 c -38,-4 -38,-5 -38,-49 0,-44 0,-44 38,-46 l 37,-1 -37,-4 c -38,-4 -38,-5 -38,-49 0,-44 0,-44 38,-46 l 37,-1 -37,-4 c -57,-6 -60,-83 -3,-83 19,0 35,-4 35,-10 0,-5 -16,-10 -35,-10 -57,0 -54,-79 3,-82 l 37,-1 -37,-4 c -38,-4 -38,-5 -38,-49 0,-44 0,-44 38,-46 l 37,-1 -37,-4 c -38,-4 -38,-5 -38,-49 0,-44 0,-44 38,-46 l 37,-1 -37,-4 c -38,-4 -38,-5 -38,-49 0,-44 0,-44 38,-46 l 37,-1 -37,-4 c -38,-4 -38,-5 -38,-49 0,-44 0,-44 38,-46 l 37,-1 -37,-4 c -38,-4 -38,-5 -38,-49 0,-44 0,-44 38,-46 l 37,-1 -37,-4 c -37,-4 -38,-5 -38,-44 0,-38 1,-39 38,-41 l 37,-1 -37,-4 c -38,-4 -38,-5 -38,-49 0,-44 0,-44 38,-46 l 37,-1 -37,-4 c -38,-4 -38,-5 -38,-49 0,-44 0,-44 38,-46 l 37,-1 -37,-4 c -38,-4 -38,-5 -38,-49 0,-44 0,-44 38,-46 l 37,-1 -37,-4 c -38,-4 -38,-5 -38,-49 0,-44 0,-44 38,-46 l 37,-1 -37,-4 c -38,-4 -38,-5 -38,-49 0,-44 0,-44 38,-46 l 37,-1 -37,-4 c -37,-4 -38,-5 -38,-44 0,-38 1,-39 38,-41 l 37,-1 -37,-4 c -38,-4 -38,-5 -38,-49 0,-44 0,-44 38,-46 l 37,-1 -37,-4 c -57,-6 -60,-83 -3,-83 19,0 35,-4 35,-10 0,-5 -16,-10 -35,-10 -57,0 -54,-79 3,-82 l 37,-1 -37,-4 c -38,-4 -38,-5 -38,-49 0,-44 0,-44 38,-46 l 37,-1 -37,-4 c -38,-4 -38,-5 -38,-49 0,-44 0,-44 38,-46 l 37,-1 -37,-4 c -38,-4 -38,-5 -38,-49 0,-44 0,-44 38,-46 l 37,-1 -37,-4 -38,-4 0,-140 0,-139 38,-2 37,-1 -37,-4 c -38,-4 -38,-5 -38,-49 0,-44 0,-44 38,-46 l 37,-1 -37,-4 c -38,-4 -38,-5 -38,-49 0,-44 0,-44 38,-46 l 37,-1 -37,-4 c -38,-4 -38,-5 -38,-49 0,-44 0,-44 38,-46 l 37,-1 -37,-4 c -37,-4 -38,-5 -38,-44 0,-38 1,-39 38,-41 l 37,-1 -37,-4 c -38,-4 -38,-5 -38,-49 0,-44 0,-44 38,-46 l 37,-1 -37,-4 c -38,-4 -38,-5 -38,-49 0,-44 0,-44 38,-46 l 37,-1 -37,-4 c -38,-4 -38,-5 -38,-49 0,-44 0,-44 38,-46 l 37,-1 -37,-4 c -38,-4 -38,-5 -38,-49 0,-44 0,-44 38,-46 l 37,-1 -37,-4 c -38,-4 -38,-5 -38,-49 0,-44 0,-44 38,-46 l 37,-1 -37,-4 c -37,-4 -38,-5 -38,-44 0,-38 1,-39 38,-41 l 37,-1 -37,-4 c -38,-4 -38,-5 -38,-49 0,-44 0,-44 38,-46 l 37,-1 -37,-4 c -57,-6 -60,-83 -3,-83 19,0 35,-4 35,-10 0,-5 -16,-10 -35,-10 -57,0 -54,-79 3,-82 l 37,-1 -37,-4 c -38,-4 -38,-5 -38,-49 0,-44 0,-44 38,-46 l 37,-1 -37,-4 c -38,-4 -38,-5 -38,-49 0,-44 0,-44 38,-46 l 37,-1 -37,-4 c -38,-4 -38,-5 -38,-49 0,-44 0,-44 38,-46 l 37,-1 -37,-4 c -38,-4 -38,-5 -38,-49 0,-44 0,-44 38,-46 l 37,-1 -37,-4 c -38,-4 -38,-5 -38,-49 0,-44 0,-44 38,-46 l 37,-1 -37,-4 c -37,-4 -38,-5 -38,-44 0,-38 1,-39 38,-41 l 37,-1 -37,-4 c -38,-4 -38,-5 -38,-49 0,-44 0,-44 38,-46 l 37,-1 -37,-4 c -38,-4 -38,-5 -38,-49 0,-44 0,-44 38,-46 l 37,-1 -37,-4 c -38,-4 -38,-5 -38,-49 0,-44 0,-44 38,-46 l 37,-1 -37,-4 c -38,-4 -38,-5 -38,-49 0,-44 0,-44 38,-46 l 37,-1 -37,-4 c -38,-4 -38,-5 -38,-49 0,-44 0,-44 38,-46 l 37,-1 -37,-4 c -37,-4 -38,-5 -38,-44 0,-38 1,-39 38,-41 l 37,-1 -37,-4 c -38,-4 -38,-5 -38,-49 0,-44 0,-44 38,-46 l 37,-1 -37,-4 c -38,-4 -38,-5 -38,-49 0,-44 0,-44 38,-46 l 37,-1 -37,-4 c -38,-4 -38,-5 -38,-49 0,-44 0,-44 38,-46 l 37,-1 -37,-4 c -57,-6 -60,-83 -3,-83 19,0 35,-4 35,-10 0,-5 -16,-10 -35,-10 -57,0 -54,-79 3,-82 l 37,-1 -37,-4 c -38,-4 -38,-5 -38,-49 0,-44 0,-44 38,-46 l 37,-1 -37,-4 c -38,-4 -38,-5 -38,-49 0,-44 0,-44 38,-46 l 37,-1 -37,-4 c -38,-4 -38,-5 -38,-49 0,-44 0,-44 38,-46 l 37,-1 -37,-4 c -38,-4 -38,-5 -38,-49 0,-44 0,-44 38,-46 l 37,-1 -37,-4 c -21,-2 -38,-8 -38,-14 0,-5 -977,-9 -2580,-9 l -2580,0 0,1024 0,1025 48,43 c 993,899 1915,2506 2292,3996 l 11,42 1404,0 c 930,0 1405,-3 1405,-10 z m 3035,-127 c 351,-1370 1173,-2854 2087,-3766 l 238,-238 0,-995 0,-994 -2570,0 -2570,0 0,35 c 0,33 -2,35 -37,37 l -38,1 38,4 c 37,4 37,5 37,49 0,44 0,44 -37,46 l -38,1 38,4 c 37,4 37,5 37,49 0,44 0,44 -37,46 l -38,1 38,4 c 37,4 37,5 37,49 0,44 0,44 -37,46 l -38,1 38,4 c 36,4 37,5 37,44 0,38 -1,39 -37,41 l -38,1 38,4 c 37,4 37,5 37,49 l 0,44 -37,1 -38,2 35,6 c 33,6 35,9 38,49 l 3,42 -38,2 -38,1 38,4 c 37,4 37,5 37,49 0,44 0,44 -37,46 l -38,1 38,4 c 37,4 37,5 37,49 0,44 0,44 -37,46 l -38,1 38,4 c 37,4 37,5 37,49 0,28 -4,44 -12,45 -10,0 -10,2 0,6 7,2 12,22 12,44 0,38 -1,39 -37,41 l -38,1 38,4 c 37,4 37,5 37,49 0,44 0,44 -37,46 l -38,1 38,4 c 37,4 37,5 37,49 0,44 0,44 -37,46 l -38,1 38,4 c 37,4 37,5 37,49 0,44 0,44 -37,46 l -38,1 38,4 c 37,4 37,5 37,49 0,44 0,44 -37,46 l -38,1 38,4 c 57,6 54,84 -3,94 l -35,6 38,2 c 36,1 37,2 37,41 0,39 -1,40 -37,42 l -38,1 38,4 c 37,4 37,5 37,49 0,44 0,44 -37,46 l -38,1 38,4 c 37,4 37,5 37,49 0,44 0,44 -37,46 l -38,1 38,4 c 37,4 37,5 37,49 0,44 0,44 -37,46 l -38,1 38,4 c 37,4 37,5 37,49 0,44 0,44 -37,46 l -38,1 38,4 c 36,4 37,5 37,44 0,38 -1,39 -37,41 l -38,1 38,4 c 37,4 37,5 37,49 0,44 0,44 -37,46 l -38,1 38,4 c 37,4 37,5 37,49 0,44 0,44 -37,46 l -38,1 38,4 c 37,4 37,5 37,49 0,44 0,44 -37,46 l -38,1 38,4 c 36,4 37,5 37,44 0,38 -1,39 -37,41 l -38,1 38,4 c 37,4 37,5 37,49 0,44 0,44 -37,46 l -38,1 38,4 c 37,4 37,5 37,49 0,44 0,44 -37,46 l -38,1 38,4 c 37,4 37,5 37,49 0,44 0,44 -37,46 l -38,1 38,4 c 37,4 37,5 37,49 0,44 0,44 -37,46 l -38,1 38,4 c 57,6 54,84 -3,94 l -35,6 38,2 c 36,1 37,2 37,41 0,39 -1,40 -37,42 l -38,1 38,4 c 37,4 37,5 37,49 0,44 0,44 -37,46 l -38,1 38,4 c 37,4 37,5 37,49 0,44 0,44 -37,46 l -38,1 37,4 37,4 0,140 1,139 -38,2 -37,1 38,4 c 37,4 37,5 37,49 0,44 0,44 -37,46 l -38,1 38,4 c 37,4 37,5 37,49 0,44 0,44 -37,46 l -38,1 38,4 c 37,4 37,5 37,49 0,44 0,44 -37,46 l -38,1 38,4 37,4 0,90 0,89 -37,2 -38,1 38,4 c 37,4 37,5 37,49 0,44 0,44 -37,46 l -38,1 38,4 c 37,4 37,5 37,49 0,44 0,44 -37,46 l -38,1 38,4 c 36,4 37,5 37,44 0,38 -1,39 -37,41 l -38,1 38,4 c 37,4 37,5 37,49 0,44 0,44 -37,46 l -38,1 38,4 c 37,4 37,5 37,49 0,44 0,44 -37,46 l -38,1 38,4 c 37,4 37,5 37,49 0,44 0,44 -37,46 l -38,1 38,4 c 37,4 37,5 37,49 0,44 0,44 -37,46 l -38,1 38,4 c 57,6 54,84 -3,94 l -35,6 38,2 c 36,1 37,2 37,41 0,39 -1,40 -37,42 l -38,1 38,4 c 37,4 37,5 37,49 0,44 0,44 -37,46 l -38,1 38,4 c 37,4 37,5 37,49 0,44 0,44 -37,46 l -38,1 38,4 c 37,4 37,5 37,49 0,44 0,44 -37,46 l -38,1 38,4 c 37,4 37,5 37,49 0,44 0,44 -37,46 l -38,1 38,4 c 36,4 37,5 37,44 0,38 -1,39 -37,41 l -38,1 38,4 c 37,4 37,5 37,49 l 0,44 -37,1 -38,2 35,6 c 33,6 35,9 38,49 l 3,42 -38,2 -38,1 38,4 c 37,4 37,5 37,49 0,44 0,44 -37,46 l -38,1 38,4 c 37,4 37,5 37,49 0,44 0,44 -37,46 l -38,1 38,4 c 37,4 37,5 37,49 0,28 -4,44 -12,45 -10,0 -10,2 0,6 7,2 12,22 12,44 0,38 -1,39 -37,41 l -38,1 38,4 c 35,4 37,6 37,39 l 0,34 1391,-2 1391,-3 33,-132 z m 5325,-2256 c 204,-304 704,-552 1724,-857 l 139,-42 191,11 c 105,6 243,14 306,16 63,3 137,8 164,12 69,8 79,31 -275,-641 l -314,-595 -50,-5 c -27,-3 -151,-14 -275,-24 l -225,-20 -115,35 c -1038,309 -1432,551 -1541,949 -38,138 -31,239 35,509 112,457 179,705 190,705 6,0 27,-24 46,-53 z m -16516,-492 119,-476 -5,-107 C 8075,6933 7703,6667 6575,6323 l -150,-45 -180,16 c -99,9 -223,19 -276,22 l -96,7 -148,281 c -157,297 -241,456 -399,753 -105,198 -112,219 -68,209 15,-4 115,-11 222,-16 108,-6 256,-14 330,-18 l 135,-8 195,59 c 949,285 1408,511 1638,803 36,46 71,84 77,84 5,0 64,-214 129,-475 z m 2906,-3310 c 0,-13 298,-15 2625,-15 l 2625,0 0,-40 c 0,-39 1,-40 38,-42 l 37,-1 -37,-4 c -38,-4 -38,-5 -38,-49 0,-44 0,-44 38,-46 l 37,-1 -37,-4 c -38,-4 -38,-5 -38,-49 0,-44 0,-44 38,-46 l 37,-1 -37,-4 c -38,-4 -38,-5 -38,-49 0,-44 0,-44 38,-46 l 37,-1 -37,-4 c -38,-4 -38,-5 -38,-49 0,-44 0,-44 38,-46 l 37,-1 -37,-4 c -38,-4 -38,-5 -38,-49 0,-44 0,-44 38,-46 l 37,-1 -37,-4 c -37,-4 -38,-5 -38,-44 0,-38 1,-39 38,-41 l 37,-1 -37,-4 c -38,-4 -38,-5 -38,-49 0,-44 0,-44 38,-46 l 37,-1 -37,-4 c -57,-6 -60,-83 -3,-83 19,0 35,-4 35,-10 0,-5 -16,-10 -35,-10 -57,0 -54,-79 3,-82 l 37,-1 -37,-4 c -38,-4 -38,-5 -38,-49 0,-44 0,-44 38,-46 l 37,-1 -37,-4 c -38,-4 -38,-5 -38,-49 0,-44 0,-44 38,-46 l 37,-1 -37,-4 c -38,-4 -38,-5 -38,-49 0,-44 0,-44 38,-46 l 37,-1 -37,-4 c -38,-4 -38,-5 -38,-49 0,-44 0,-44 38,-46 l 37,-1 -37,-4 c -38,-4 -38,-5 -38,-49 0,-44 0,-44 38,-46 l 37,-1 -37,-4 c -37,-4 -38,-5 -38,-44 0,-38 1,-39 38,-41 l 37,-1 -37,-4 c -38,-4 -38,-5 -38,-49 0,-44 0,-44 38,-46 l 37,-1 -37,-4 c -38,-4 -38,-5 -38,-49 0,-44 0,-44 38,-46 l 37,-1 -37,-4 c -34,-4 -38,-7 -38,-34 l 0,-29 -2684,0 -2685,0 -5,43 c -2,23 -14,166 -26,317 -35,449 -98,963 -166,1340 -13,74 -24,138 -24,143 0,4 77,7 170,7 144,0 170,-2 170,-15 z m 10896,-32 c -80,-582 -133,-1194 -149,-1723 l -2,-75 -2622,-3 c -1487,-1 -2645,2 -2675,7 -48,8 -49,9 -15,10 l 37,1 0,45 0,45 -37,2 -38,1 38,4 c 37,4 37,5 37,49 0,44 0,44 -37,46 l -38,1 38,4 c 57,6 54,84 -3,94 l -35,6 38,2 c 36,1 37,2 37,41 0,39 -1,40 -37,42 l -38,1 38,4 c 37,4 37,5 37,49 0,44 0,44 -37,46 l -38,1 38,4 c 37,4 37,5 37,49 0,44 0,44 -37,46 l -38,1 38,4 c 37,4 37,5 37,49 0,44 0,44 -37,46 l -38,1 38,4 c 37,4 37,5 37,49 0,44 0,44 -37,46 l -38,1 38,4 c 36,4 37,5 37,44 0,38 -1,39 -37,41 l -38,1 38,4 c 37,4 37,5 37,49 0,44 0,44 -37,46 l -38,1 38,4 c 37,4 37,5 37,49 0,44 0,44 -37,46 l -38,1 38,4 c 37,4 37,5 37,49 0,44 0,44 -37,46 l -38,1 38,4 c 36,4 37,5 37,44 0,38 -1,39 -37,41 l -38,1 38,4 c 37,4 37,5 37,49 0,44 0,44 -37,46 l -38,1 38,4 c 37,4 37,5 37,49 0,44 0,44 -37,46 l -38,1 38,4 c 37,4 37,5 37,49 0,44 0,44 -37,46 l -38,1 38,4 c 37,4 37,5 37,49 0,44 0,44 -37,46 l -38,1 38,4 c 57,6 54,84 -3,94 l -35,6 38,2 c 26,1 37,6 37,16 0,13 297,15 2615,15 2318,0 2615,2 2615,15 0,12 18,15 101,15 l 102,0 -7,-47 z"
       id="path3271" />
    <path
       d="m 16150,20362 -25,-8 -3,-146 c -3,-166 -9,-155 94,-165 35,-3 83,0 113,7 l 51,12 0,143 c 0,104 -3,146 -12,152 -17,10 -187,14 -218,5 z"
       id="path3273" />
  </g>
</svg>
