<?xml version="1.0" encoding="UTF-8" standalone="no"?>
<!-- Created with Inkscape (http://www.inkscape.org/) -->

<svg
   xmlns:dc="http://purl.org/dc/elements/1.1/"
   xmlns:cc="http://creativecommons.org/ns#"
   xmlns:rdf="http://www.w3.org/1999/02/22-rdf-syntax-ns#"
   xmlns:svg="http://www.w3.org/2000/svg"
   xmlns="http://www.w3.org/2000/svg"
   xmlns:sodipodi="http://sodipodi.sourceforge.net/DTD/sodipodi-0.dtd"
   xmlns:inkscape="http://www.inkscape.org/namespaces/inkscape"
   version="1.0"
   width="300pt"
   height="200pt"
   viewBox="0 0 7500 3306"
   id="svg3409"
   inkscape:version="0.48.4 r9939"
   sodipodi:docname="teddy.svg">
  <sodipodi:namedview
     pagecolor="#ffffff"
     bordercolor="#666666"
     borderopacity="1"
     objecttolerance="10"
     gridtolerance="10"
     guidetolerance="10"
     inkscape:pageopacity="0"
     inkscape:pageshadow="2"
     inkscape:window-width="1535"
     inkscape:window-height="876"
     id="namedview3115"
     showgrid="false"
     inkscape:zoom="2.3230815"
     inkscape:cx="174.35057"
     inkscape:cy="133.43515"
     inkscape:window-x="65"
     inkscape:window-y="24"
     inkscape:window-maximized="1"
     inkscape:current-layer="svg3409" />
  <defs
     id="defs3493" />
  <metadata
     id="metadata3411">
Created by potrace 1.10, written by Peter Selinger 2001-2011
<rdf:RDF>
  <cc:Work
     rdf:about="">
    <dc:format>image/svg+xml</dc:format>
    <dc:type
       rdf:resource="http://purl.org/dc/dcmitype/StillImage" />
    <dc:title />
  </cc:Work>
</rdf:RDF>
</metadata>
  <g
     id="g3131"
     transform="matrix(1.2178366,0,0,1.2101284,1113.0196,-319.91204)">
    <path
       d="m 597.94344,-175.78084 c -123.04625,7.50282 -226.21003,24.94687 -252.4699,42.5785 -9.94123,6.56497 -24.57173,50.081325 -39.76494,118.356987 l -6.3774,27.948004 -81.4056,33.57512 C 161.46688,69.936513 123.57764,84.191871 94.316645,93.382825 -63.430145,143.27658 -221.55208,209.11382 -269.19498,245.12736 -435.38245,370.61202 -593.87952,818.53038 -723.49073,1529.4226 c -36.57625,201.2631 -78.96719,485.8076 -81.96831,552.02 -1.87571,43.8915 11.06666,137.8643 89.28355,641.4911 34.70055,222.8337 45.2045,295.6111 45.2045,310.8043 0,21.0079 6.00225,35.0757 21.5706,50.2689 28.69829,27.7604 80.09261,147.2428 116.48128,269.9139 23.44632,79.5299 32.26213,104.2892 37.32653,104.2892 19.50733,0 104.2892,-29.261 171.0643,-59.2723 55.3333,-24.7593 178.75469,-88.7208 178.75469,-92.6598 0,-0.7503 -19.50734,-40.7028 -43.32879,-89.096 l -43.14122,-87.5954 -18.94462,-83.2813 -18.75705,-83.2813 4.31413,-9.0034 c 9.19095,-18.3819 4.87683,-56.6463 -12.19209,-107.853 -13.88021,-42.2034 -18.56948,-160.5604 -23.63388,-609.0414 -1.12542,-89.2836 -2.62599,-167.3129 -3.75141,-173.3152 -3.93898,-23.8214 -10.69152,-41.4531 -26.44744,-68.8383 -10.69152,-18.382 -10.87909,-21.1955 -2.43842,-34.1379 11.62937,-17.6316 25.88473,-76.7163 68.27567,-280.9806 10.31637,-49.1435 20.63275,-98.4745 23.25874,-109.7287 2.62598,-11.2543 11.06666,-50.8316 18.94462,-87.9706 32.07455,-152.4948 57.58414,-261.6608 59.64742,-256.0337 2.06327,5.8147 7.12768,84.7818 18.19434,282.2936 5.0644,92.8474 10.1288,179.6925 11.25423,193.01 2.43841,30.7616 2.43841,136.3638 0,203.7016 -0.93786,28.3231 -3.1887,88.7208 -4.68927,134.1129 -1.50056,45.3921 -4.12655,112.5423 -5.62711,149.1185 -2.25085,57.9593 -3.56384,97.5367 -7.31525,224.1468 -0.75028,25.322 -1.12542,27.5729 -11.25423,62.6485 -22.32089,77.0915 -21.38304,102.7887 7.31525,180.2553 14.81807,39.9525 17.06891,48.018 21.38303,75.966 10.12881,66.0249 10.87909,101.8508 3.37627,166.9378 -7.87796,66.7751 -7.50282,61.8982 -3.93898,65.4621 34.88812,35.0757 277.60434,67.5254 629.11146,84.5943 170.50158,8.0655 205.01456,7.8779 394.8359,-1.8757 322.05859,-16.8814 532.88779,-45.3921 586.90809,-79.3423 l 7.3153,-4.5017 -1.313,-18.1944 c -0.5627,-9.9412 -2.8136,-31.1367 -4.8769,-47.0802 -11.6293,-87.5954 -4.1265,-164.6869 23.4463,-238.9648 29.8238,-80.2802 30.9492,-105.4146 8.6283,-183.0688 -12.1921,-41.8282 -12.9424,-48.9559 -14.0678,-130.3615 -0.5627,-37.139 -2.2508,-97.9118 -3.939,-135.0508 -12.9423,-305.9274 -15.5683,-435.9138 -10.5039,-516.7567 2.0632,-35.6384 7.3152,-125.8598 11.4418,-200.7004 7.1276,-128.8609 13.505,-229.5863 16.3186,-259.41 l 1.313,-13.5051 5.252,20.6328 c 10.3163,40.8903 26.0723,110.6666 46.5175,206.3275 11.2542,53.6452 23.2587,108.4158 26.2598,121.9208 3.0012,13.3175 14.443,67.3378 25.322,120.0452 41.4531,199.1998 53.2701,247.7806 65.8373,270.4766 8.2531,15.0057 8.2531,20.8203 -0.9379,35.0757 -28.5107,45.2045 -29.4485,52.8949 -31.1367,226.21 -2.626,304.0518 -7.5028,502.1263 -14.0678,576.7793 -2.4384,26.2599 -2.6259,27.5729 -11.2542,54.3955 -15.5683,48.3931 -19.1322,85.5321 -9.9412,103.3513 l 4.1265,7.5028 -18.757,83.4689 -18.7571,83.2813 -43.8915,88.7208 -43.8915,88.5333 6.9401,4.5017 c 95.4734,59.835 333.8755,160.3728 347.193,146.4926 3.0012,-3.1887 12.9424,-33.3876 32.4497,-98.4745 37.139,-124.3593 92.8474,-256.0338 114.7932,-271.4146 16.3186,-11.4418 22.8836,-27.1977 25.322,-60.0225 2.2508,-29.261 10.6915,-87.0327 45.9548,-313.8055 87.5954,-564.3996 92.2847,-600.4131 85.7197,-660.2481 -20.2576,-183.444 -71.8395,-498.1873 -118.5446,-724.96 -124.7343,-604.35215 -266.7252,-972.74062 -418.2822,-1085.09535 -45.2045,-33.57511 -191.8846,-95.09824 -339.315,-142.366 -40.1401,-12.942369 -217.2067,-80.280179 -230.3366,-87.595428 -0.3751,-0.187571 -3.939,-14.630499 -7.8779,-32.074556 -14.0678,-62.085835 -27.9481,-105.039476 -36.20116,-112.729866 -28.69828,-26.82259 -261.66084,-52.70731 -399.9003,-44.26664 z m 188.50835,18.56948 c 105.78976,8.2531 197.1366,26.63501 202.38857,40.89037 8.06553,21.007892 0.56271,47.267762 -19.6949,70.151363 -5.25198,5.814686 -5.81469,6.002256 -14.25536,4.314122 -80.0926,-15.755922 -430.84944,-17.631627 -537.95219,-2.813558 -6.94011,1.125423 -27.94801,-22.69603 -52.89489,-59.647417 -11.81694,-17.44406 -12.00451,-17.06892 9.37853,-23.82146 50.26889,-15.75592 132.04963,-27.01015 235.77612,-32.63726 28.13557,-1.50057 142.55358,0.75028 177.25412,3.56384 z m -432.16243,66.587525 c 3.75141,5.627115 17.25648,22.883601 29.82371,38.451952 12.56722,15.380781 29.82371,37.32653 38.45195,48.7683305 8.62824,11.25423 22.50846,29.0734275 30.76156,39.3898045 18.38191,23.071172 117.41914,123.421388 134.48805,136.176188 14.44293,10.87908 20.44518,18.75705 32.63727,42.95364 9.19095,18.19434 30.94913,68.6508 30.94913,71.46436 0,1.87571 -22.13332,-8.81581 -47.83048,-23.25874 C 550.67567,233.68556 487.08927,185.85508 431.00569,133.14777 385.98877,91.131979 315.64984,17.979484 315.64984,13.477792 c 0,-12.567223 28.13557,-117.794272 30.76156,-115.168282 0.37514,0.37514 3.93898,5.43954 7.87796,11.066655 z m 654.99614,35.075683 c 2.4385,9.190955 7.3153,29.073428 10.6916,44.454209 l 6.3774,27.948004 -48.39323,71.464361 C 900.49465,202.54886 902.18279,200.29801 900.11951,196.92174 884.17602,168.41103 933.8822,20.980612 976.83585,-30.788846 c 8.81581,-10.691518 18.38191,-24.384165 21.19546,-30.19885 6.56499,-13.692647 6.18979,-13.880217 11.25419,5.439544 z m -212.51733,17.444057 c 69.02594,2.250846 125.10952,6.189826 150.43154,10.503948 l 5.81468,1.125423 -5.25197,7.877961 C 934.44491,1.0981395 900.68222,83.81673 893.55455,114.20315 c -2.62599,10.87909 -7.50282,22.50846 -16.31864,39.01466 -38.26438,71.65194 -136.36375,268.22582 -164.12419,328.81109 l -10.1288,22.13332 -0.37514,-24.00902 C 700.73207,375.67643 694.72982,332.34764 678.41118,307.77591 674.84734,302.52393 664.90611,281.32847 656.27786,260.88328 630.76828,199.7353 616.88806,175.35113 601.50728,163.72176 579.7491,147.21556 473.39663,36.924105 449.76274,6.3501135 420.31417,-31.914269 421.06446,-29.663423 437.00795,-31.163987 c 83.46887,-7.50282 245.71735,-10.691518 359.76022,-6.940108 z M 438.50851,161.84606 c 61.14799,54.77058 120.98298,96.41123 187.94564,130.73664 l 37.13896,19.13219 6.00226,12.19208 c 12.00451,24.38416 15.56835,57.95928 15.56835,151.18182 -12.38886,111.24488 -6.69402,80.86315 -43.14121,166.75018 -41.45309,97.72423 -66.96267,176.1287 -73.90278,226.9603 -4.12655,30.76156 -6.18983,239.52753 -7.69039,793.42323 -0.56271,204.2643 -1.50057,390.3342 -1.87571,413.5929 -0.37514,23.2588 -0.93785,187.9457 -0.93785,366.1377 l 0,323.9342 -4.12655,0.5627 c -6.56497,0.9379 -7.12768,9.0034 -0.75028,9.0034 3.56384,0 4.87683,0.9379 4.87683,3.7514 0,3.5639 -0.93785,3.7514 -21.94575,2.626 -173.12757,-8.2531 -297.29924,-21.0079 -459.735294,-46.7051 -35.825965,-5.8146 -94.910673,-15.0056 -131.48692,-20.8203 -73.715206,-11.4418 -68.838376,-10.3164 -69.963796,-16.5062 -0.75028,-4.1265 -0.18757,-4.6892 4.87683,-5.252 10.12881,-0.9378 9.19096,-8.4406 -1.31299,-9.9412 l -8.44067,-1.313 -9.5661,-26.2599 c -29.82371,-81.218 -30.57399,-103.7264 -6.75254,-182.5061 9.37853,-30.9491 10.31638,-39.0146 11.25423,-93.9728 0.93786,-49.7062 5.43955,-184.3818 7.50282,-221.1456 0.56271,-10.3164 2.25085,-55.5209 3.75141,-100.3502 1.50057,-44.8294 3.75141,-106.5401 4.87684,-136.9265 2.81355,-78.0293 3.00112,-190.384 0.18757,-224.1467 -1.12543,-15.5684 -5.62712,-89.8463 -9.75367,-165.0621 -9.37852,-170.6891 -14.06779,-247.2179 -18.19434,-291.6721 -4.12655,-46.1423 -4.12655,-50.0813 1.87571,-88.1581 18.94462,-123.9841 19.50733,-351.31957 1.12542,-497.9997 -15.38078,-122.85868 -50.64404,-270.8518 -90.59655,-379.07998 l -10.12881,-27.3853 6.00226,-3.56384 c 51.20674,-31.1367 199.199868,-90.59655 331.2495,-132.79991 35.45082,-11.4418 71.65193,-24.946876 116.29371,-43.328785 53.45759,-22.133319 65.08696,-26.25987 68.08809,-24.571736 3.93898,2.625987 6.56497,1.312994 8.62824,-4.126551 0.75029,-2.063275 5.06441,-5.251974 9.75367,-6.940108 l 8.2531,-3.376269 58.14686,58.709566 c 32.07455,32.074553 66.58753,66.024813 76.9039,75.215773 z M 1046.6121,32.985124 c -5.6271,10.691519 -5.8147,11.629371 -2.8136,14.630499 3.1887,3.188699 4.1266,2.438417 11.6294,-7.877961 2.626,-3.563839 4.6892,-3.001128 78.4045,26.447441 46.1423,18.569479 95.2858,36.763817 126.2349,46.705057 84.7819,27.19772 153.2451,52.33217 217.9569,79.71746 36.3887,15.38078 111.2293,51.76946 111.2293,54.20787 0,0.75029 -3.3762,10.50395 -7.3152,21.19547 -47.8305,128.86093 -85.3446,295.61111 -98.4745,436.66412 -13.6927,147.24285 -7.6904,391.83482 12.0045,479.05502 1.313,5.8147 1.313,12.5673 0.1876,20.4452 -4.1266,26.2599 -9.9413,114.2305 -22.6961,345.5049 -4.1265,75.2158 -8.4407,147.4304 -9.3785,160.1852 -2.4384,29.6361 -2.4384,109.166 0,180.2552 5.0644,151.3694 7.878,228.2733 11.2542,312.3049 2.0633,50.4565 4.3141,119.67 4.8769,153.8078 1.1254,73.7152 1.8757,81.0305 13.8802,122.296 21.383,74.6531 20.4452,97.1615 -7.878,174.8157 -9.5661,26.2599 -12.1921,32.0746 -15.3808,32.4497 -4.6892,0.7503 -6.5649,8.4407 -2.4384,10.1288 2.4384,0.9379 2.4384,8.2531 0,8.2531 -2.0633,0 -90.409,13.6927 -156.2462,24.1966 -279.2925,44.6418 -505.31494,61.8983 -717.2696,54.9582 l -20.44519,-0.5627 1.313,-734.7137 c 0.75028,-404.0269 1.68813,-739.4029 2.06327,-745.03 0.37514,-5.6271 1.12543,-100.1627 1.87571,-210.079 1.31299,-243.27892 1.12542,-240.27779 10.87909,-259.78512 15.94349,-32.4497 90.22141,-124.17167 212.3298,-262.5987 22.69603,-25.88473 49.51861,-56.64629 59.45985,-68.65081 9.94124,-12.00451 29.82371,-34.13783 44.07907,-49.33104 27.76043,-29.63614 30.01128,-33.57512 25.13445,-41.64065 -2.81356,-4.68926 -2.81356,-6.94011 0.18757,-32.44969 1.8757,-15.00564 3.93898,-42.76608 4.68926,-61.7107 l 1.12542,-34.3254 -14.6305,-32.4497 -14.44293,-32.63726 7.31525,-9.94124 c 7.87796,-10.69152 44.26664,-63.96154 93.03498,-136.176184 28.8858,-42.766074 29.6361,-43.516356 34.3254,-41.45308 2.4384,1.125423 4.3141,2.625987 3.939,3.188698 z M 888.67771,209.30139 c 2.81356,7.69039 11.4418,27.94801 19.13219,45.01692 l 14.06779,31.13671 -0.93785,26.25987 c -1.31299,32.82483 -5.25198,72.40221 -7.12768,71.08922 -3.37627,-1.87571 -35.82597,-58.89714 -53.45759,-93.59768 l -19.13219,-37.5141 19.88247,-38.8271 20.07004,-38.82709 1.313,10.69152 c 0.56271,5.81468 3.37627,16.88134 6.18982,24.57173 z m -1135.17666,77.27905 c 75.21577,210.4541 107.47789,434.41328 99.22479,689.50916 -3.56384,107.2903 -12.94236,199.1999 -21.75818,212.8925 -10.31637,16.1311 -40.51522,147.2429 -105.41462,457.2969 -48.9559,234.088 -60.02256,280.9806 -73.15249,307.0529 -11.4418,22.5085 -11.06666,27.1977 4.12655,52.3322 23.63388,39.7649 24.57173,47.0802 26.0723,187.3829 5.0644,489.9341 9.56609,610.3544 25.32202,658.7476 16.88134,51.5819 20.25761,93.4101 8.2531,100.5378 -1.50057,0.7503 -2.62599,3.1887 -2.62599,5.0644 0,2.0633 -0.75028,3.7514 -1.8757,3.7514 -4.31413,0 -211.7671,73.3401 -287.35801,101.4756 -47.83048,18.0068 -50.26889,18.5695 -55.3333,15.9435 -16.31863,-8.4406 -22.8836,-21.7581 -24.94688,-51.3943 -2.06327,-29.6361 -7.69039,-66.7751 -56.27114,-380.2054 -51.20675,-329.5614 -74.84063,-494.0607 -78.02933,-542.0787 -4.12655,-65.4621 67.15024,-517.3195 126.04737,-799.0504 111.97959,-534.20075 235.77612,-875.20392 369.51389,-1017.00721 10.69152,-11.25423 34.3254,-32.4497 36.38868,-32.4497 0.56271,0 5.81468,13.50508 11.81694,30.19885 z M 1626.7676,276.45163 c 139.5525,132.61235 269.7264,485.24489 385.2698,1042.51687 61.3356,295.9862 128.2983,728.5238 122.8587,792.4853 -5.0644,58.8972 -27.3853,212.1423 -82.3434,566.6505 -44.0791,283.7942 -49.8938,322.6213 -52.5198,355.4461 -1.6881,21.1955 -5.4395,30.9491 -15.3808,39.2022 -11.6293,9.7537 -10.3163,9.9413 -56.6462,-7.5028 -48.0181,-18.0067 -148.931,-54.0203 -236.9016,-84.5943 -42.0158,-14.6305 -58.7096,-21.1954 -58.7096,-23.2587 0,-1.5006 -1.6881,-3.939 -3.5638,-5.0644 -12.1921,-7.6904 -9.1909,-45.9548 7.3153,-97.1615 13.3175,-41.078 17.6316,-104.2892 21.5706,-316.0563 0.5627,-30.3864 1.313,-74.8407 1.8757,-98.4745 0.5627,-23.8215 1.313,-95.0983 1.8757,-158.4971 2.0632,-238.2145 1.5005,-233.5253 27.3853,-276.4789 15.3807,-25.6972 15.5683,-30.3864 3.7514,-52.7073 -12.5672,-23.2588 -28.3232,-89.8463 -73.1525,-307.6157 -6.1898,-30.0112 -13.3175,-63.7739 -15.9435,-75.0282 -2.626,-11.4418 -12.3797,-57.0214 -21.7582,-101.288 -38.8271,-183.6315 -58.3344,-263.9117 -67.5254,-279.8552 -5.8147,-9.9413 -13.505,-66.0248 -18.757,-136.5513 -5.6271,-74.84067 -4.1266,-265.78744 3.0011,-341.19078 12.9424,-141.61572 50.4565,-310.05403 96.4112,-434.41328 2.8136,-7.69039 5.6272,-15.56835 6.3774,-17.44405 1.5006,-4.87683 5.4396,-2.25085 25.5096,16.88134 z m -780.29325,17.8192 c 15.19321,31.1367 35.26325,66.58753 55.70844,98.66208 l 15.94349,24.94688 -23.25874,23.82145 c -12.75479,13.12994 -33.76269,36.57625 -46.70506,51.95703 -12.94236,15.56835 -38.07681,44.64178 -55.896,64.71182 -332.80869,454.38111 -105.90947,6.31457 -3.93898,-202.20099 30.38642,-62.08584 30.19885,-61.52313 33.76269,-52.89489 2.43841,5.81469 4.68926,6.75254 9.37852,3.75141 2.43842,-1.50056 2.06328,-3.18869 -2.62599,-11.81694 l -5.43954,-10.1288 4.31412,-7.87796 c 5.81469,-10.12881 4.87683,-11.06666 18.75705,17.06891 z M 29.604823,2743.5664 c 162.998767,25.8847 353.945537,48.7684 406.465277,48.7684 0.75028,0 1.50056,53.6451 1.50056,119.1072 l 0,119.2949 -6.00226,-0.9379 c -3.37626,-0.5627 -16.69377,-1.5006 -29.63613,-2.0633 -226.21003,-10.8791 -452.04491,-40.5152 -513.00532,-67.5254 l -10.87909,-4.6892 1.31299,-16.5062 c 0.75028,-9.0034 3.00113,-29.0734 5.06441,-44.4542 7.12767,-55.1458 6.56496,-95.0983 -1.87571,-152.87 l -3.1887,-21.7582 33.950263,5.252 c 18.569479,2.8136 70.901649,11.0667 116.29371,18.3819 z M 1464.8943,2726.4975 c -9.191,45.2045 -10.6915,121.7333 -3.7514,175.566 2.2508,17.444 4.6892,36.5762 5.252,42.3909 l 1.1254,10.504 -10.8791,4.6892 c -66.5875,29.6362 -264.2868,54.7706 -546.39288,69.9638 -29.44857,1.5006 -60.77284,3.1887 -69.77623,3.939 l -16.5062,1.1254 0,-119.1072 0,-118.9197 27.76043,-1.313 c 64.33669,-2.8136 171.81458,-11.817 241.40328,-19.8825 76.7163,-9.1909 107.1027,-13.6926 303.8642,-45.0169 69.9638,-11.0667 69.2135,-11.0667 67.9005,-3.939 z m -931.09997,70.9017 c 22.32089,1.1254 33.95026,4.3141 15.38078,4.3141 -6.00226,0 -8.81582,0.9378 -9.5661,2.8135 -1.8757,4.6893 3.00113,8.4407 10.50395,8.4407 5.81469,0 7.31525,0.7503 8.2531,4.1266 0.75028,3.3762 0.37514,152.6823 -0.56271,192.8224 l -0.18757,6.565 -11.81694,0 c -11.25423,0 -11.62937,0.1876 -12.19208,5.0644 l -0.56272,5.252 12.19209,0 c 8.06553,0 12.37965,0.7503 12.37965,2.0633 0,1.6881 -3.75141,1.8757 -12.56722,1.1254 -28.96511,-4.593 -57.67656,-3.91 -81.96831,-3.1887 l -10.50395,0 0,-116.4813 0,-116.6689 28.69829,1.313 c 15.56835,0.5627 39.20223,1.6882 52.51974,2.4385 z m 275.16592,117.7942 0,115.3559 -117.23156,0 c -71.8395,0 -117.23157,-0.7503 -117.23157,-1.6881 0,-1.1255 3.1887,-2.0633 7.12768,-2.4385 5.62712,-0.3751 7.12768,-1.313 7.50282,-4.8768 0.56272,-4.1266 0.18757,-4.3141 -9.94123,-4.8768 -3.75141,-0.1876 -3.75141,-1.6882 -4.31412,-102.0384 l -0.37515,-101.6632 9.19096,0 c 17.63163,0 17.25649,-10.5039 -0.37514,-11.8169 -5.43955,-0.3752 43.14121,-0.7503 108.04061,-0.9379 l 117.6067,-0.3751 z m -1093.53601,52.5198 c 0,0.5627 8.62824,38.6395 18.94462,84.7818 l 18.94462,84.0316 41.07794,81.9683 41.07794,81.9683 -25.88473,14.2554 c -104.10163,57.5841 -215.70608,105.9773 -285.29473,123.7965 -15.9435,4.1266 -12.37966,11.6294 -40.51523,-82.531 -29.07343,-97.3491 -54.20788,-161.8733 -91.72198,-237.0891 -7.87796,-15.5684 -14.25536,-29.0734 -14.25536,-29.8237 0,-0.9379 15.38079,-7.3153 34.32541,-14.2554 18.75705,-6.9401 39.20223,-14.6305 45.39206,-17.0689 6.18982,-2.4384 33.19998,-12.0045 60.02256,-21.5706 26.82258,-9.3785 54.20787,-19.1322 60.96041,-21.5706 64.33668,-23.6339 136.92647,-48.3932 136.92647,-46.8926 z m 2022.00996,36.5762 c 40.3277,13.8802 127.9231,45.2045 153.8078,54.9582 6.7526,2.626 26.635,9.9412 44.0791,16.3186 17.6316,6.565 32.0746,12.0045 32.4497,12.1921 0.3751,0.3751 -5.8147,13.3175 -13.6926,29.0734 -37.8893,75.7785 -65.2746,146.305 -91.9096,236.3388 -15.3808,52.8949 -27.0101,88.1582 -28.8858,88.1582 -10.6916,0 -78.4045,-22.8836 -124.1717,-42.0158 -61.8983,-25.6972 -198.6372,-94.348 -198.6372,-99.5999 0,-0.5628 18.5695,-38.2644 41.2655,-83.8441 l 41.2655,-83.0937 17.8192,-80.6553 c 9.9413,-44.4542 18.3819,-81.7807 18.7571,-82.9062 0.5627,-1.6881 10.3164,0.9379 33.2,9.0034 17.8192,6.1898 51.3943,18.0068 74.653,26.0723 z"
       id="path3449"
       inkscape:connector-curvature="0"
       style="fill:#000000;stroke:none" />
    <path
       d="m 600.00671,331.40979 c -39.20223,12.56722 -37.13896,68.08809 3.1887,78.96718 71.86606,5.6832 67.04655,-98.67728 -3.1887,-78.96718 z m 27.19773,15.56835 c 26.82258,17.8192 7.31525,60.96041 -22.69604,50.2689 -12.00451,-4.31413 -13.88021,-5.81469 -18.19433,-15.19322 -11.62937,-25.32201 17.81919,-50.64403 40.89037,-35.07568 z"
       id="path3451"
       inkscape:connector-curvature="0"
       style="fill:#000000;stroke:none" />
    <path
       d="m 233.68153,1804.2134 c -2.25085,2.8135 -285.482304,496.3115 -290.171567,505.5025 l -3.001128,6.1898 6.940109,4.3141 c 15.19321,9.3785 67.71295,38.8271 69.401085,38.8271 2.063275,0 293.547831,-507.3782 293.922971,-511.6923 0.18757,-1.8757 -12.19208,-10.1288 -36.38867,-24.0091 -39.76495,-23.2587 -38.07682,-22.3208 -40.7028,-19.1321 z m 34.13783,32.6372 24.7593,14.443 -41.07794,71.4643 c -22.50846,39.2022 -85.53214,148.931 -139.74002,243.4665 -54.395443,94.7231 -99.599934,172.1897 -100.537786,172.1897 -3.7514105,0 -50.081324,-27.3853 -49.518612,-29.261 0.937852,-4.5017 277.979478,-486.3703 279.667618,-486.5578 0.93785,0 12.94236,6.3774 26.44744,14.2553 z"
       id="path3453"
       inkscape:connector-curvature="0"
       style="fill:#000000;stroke:none" />
    <path
       d="m 640.89708,769.94962 c -20.63275,9.75366 -28.69828,34.13783 -18.00677,54.95816 18.94462,37.70167 76.15363,24.19659 76.15363,-18.00677 0,-29.44857 -31.32428,-49.33104 -58.14686,-36.95139 z m 35.6384,9.94124 c 17.63162,12.00451 19.31976,36.01353 3.56384,50.8316 -28.88586,27.38529 -72.21465,-14.44293 -46.51749,-45.01692 10.50395,-12.37965 29.44857,-15.00564 42.95365,-5.81468 z"
       id="path3455"
       inkscape:connector-curvature="0"
       style="fill:#000000;stroke:none" />
    <path
       d="m 640.89708,1119.0183 c -38.82709,17.6316 -25.32202,76.9039 17.63163,77.0915 33.76269,0.1876 52.51974,-37.5141 32.26213,-65.2745 -10.12881,-14.0678 -33.01241,-19.5074 -49.89376,-11.817 z m 28.69829,6.0023 c 12.37965,4.6892 21.19547,17.444 21.19547,30.7615 0,32.2622 -41.64066,44.6418 -59.27228,17.8192 -17.06892,-25.6971 9.56609,-59.4598 38.07681,-48.5807 z"
       id="path3457"
       inkscape:connector-curvature="0"
       style="fill:#000000;stroke:none" />
    <path
       d="m 645.58634,1455.8949 c -24.38416,7.878 -34.88811,36.9514 -21.5706,59.835 20.44518,34.8881 75.21577,19.3198 75.0282,-21.383 -0.37514,-27.948 -26.82258,-46.8926 -53.4576,-38.452 z m 27.76044,9.5661 c 19.6949,9.3786 23.63388,38.6396 7.12768,53.0825 -13.88022,12.0045 -32.26213,11.4418 -45.01692,-1.6882 -25.32202,-25.8847 4.87683,-66.9626 37.88924,-51.3943 z"
       id="path3459"
       inkscape:connector-curvature="0"
       style="fill:#000000;stroke:none" />
    <path
       d="m 649.52532,1803.6506 c -38.26438,12.1921 -43.51635,60.0226 -8.44067,76.3412 47.83048,22.5085 82.90616,-49.1434 35.6384,-72.9649 -7.12768,-3.5638 -21.0079,-5.252 -27.19773,-3.3763 z m 23.82146,10.6916 c 15.94349,7.6904 22.8836,31.6994 13.3175,45.7672 -12.75479,18.757 -35.63839,21.5706 -50.8316,6.1898 -25.88473,-25.8847 4.12655,-67.713 37.5141,-51.957 z"
       id="path3461"
       inkscape:connector-curvature="0"
       style="fill:#000000;stroke:none" />
    <path
       d="m 1055.803,1822.5953 c -19.3197,11.2542 -36.2011,21.1954 -37.1389,22.1333 -2.0633,2.0633 290.7342,514.3183 293.9229,514.3183 2.4385,0 70.339,-38.8271 73.7152,-42.2034 2.8136,-2.626 -289.0461,-514.881 -293.1726,-514.6934 -0.9379,0 -17.8192,9.1909 -37.3266,20.4452 z m 172.3773,241.9659 c 76.3412,133.1751 138.9898,243.0914 139.3649,244.4044 0.1876,1.1254 -10.8791,8.6282 -24.7593,16.6937 l -25.322,14.2554 -11.0667,-18.9446 c -103.1638,-177.8169 -268.6009,-469.1138 -267.1004,-470.6144 2.626,-2.626 45.9548,-27.5729 48.2056,-27.5729 1.1255,-0.1875 64.3367,108.7909 140.6779,241.7784 z"
       id="path3463"
       inkscape:connector-curvature="0"
       style="fill:#000000;stroke:none" />
    <path
       d="m 648.58747,2163.9736 c -38.82709,18.9446 -25.88473,77.0915 17.06892,77.0915 23.82145,0 40.32766,-16.6938 40.32766,-40.7028 0,-29.0735 -31.51185,-48.9559 -57.39658,-36.3887 z m 30.01128,7.3152 c 22.13332,10.1288 26.63501,36.7638 9.19096,53.0825 -28.32315,26.4474 -69.77623,-9.191 -48.58076,-41.8282 8.44067,-13.13 25.13444,-17.8192 39.3898,-11.2543 z"
       id="path3465"
       inkscape:connector-curvature="0"
       style="fill:#000000;stroke:none" />
    <path
       d="m 651.40103,2511.5417 c -19.6949,6.3774 -31.69941,33.5751 -23.25874,53.4576 17.06891,41.0779 78.40447,28.8859 78.02933,-15.5683 -0.18757,-28.1356 -27.01016,-46.7051 -54.77059,-37.8893 z m 27.19772,8.6283 c 33.57512,15.3807 21.38304,64.7118 -15.19321,61.7106 -11.4418,-0.9378 -18.00677,-4.8768 -24.57173,-14.6305 -18.00677,-26.2598 10.87909,-60.3977 39.76494,-47.0801 z"
       id="path3467"
       inkscape:connector-curvature="0"
       style="fill:#000000;stroke:none" />
    <path
       d="m 822.46533,376.98942 c -33.01241,12.00451 -36.38868,58.33443 -5.25198,74.27792 27.35628,7.54108 57.63727,-9.69965 55.97198,-42.96115 -1.22022,-12.00695 -9.75496,-19.49214 -12.27156,-22.65364 -14.51143,-11.14262 -23.4428,-14.10267 -38.44844,-8.66313 z m 31.1367,15.94349 c 18.19434,11.62937 10.87909,45.57964 -10.87909,50.45647 -5.43954,1.31299 -17.06892,0.37514 -18.75705,-1.313 -0.56271,-0.56271 -2.62599,-1.8757 -4.68926,-3.00112 -15.72151,-13.90948 -12.2245,-20.01678 -9.5661,-33.01241 3.00113,-16.88135 27.01015,-24.00903 43.8915,-13.12994 z"
       id="path3469"
       inkscape:connector-curvature="0"
       style="fill:#000000;stroke:none" />
    <path
       d="m 617.2632,2817.4692 c -35.6384,13.1299 -39.38981,58.7096 -6.56497,75.2158 39.01467,19.5073 77.46662,-28.1356 49.70618,-61.7107 -10.50394,-12.7548 -29.44856,-18.7571 -43.14121,-13.5051 z m 30.01128,11.8169 c 28.51072,21.0079 8.06553,67.9006 -25.88473,58.7096 -38.45195,-10.3164 -30.01128,-65.8372 9.94124,-63.2113 6.9401,0.3752 12.56722,1.8758 15.94349,4.5017 z"
       id="path3471"
       inkscape:connector-curvature="0"
       style="fill:#000000;stroke:none" />
    <path
       d="m 617.2632,2924.3844 c -21.57061,7.8779 -33.19998,27.7604 -28.13558,47.4553 12.00452,44.8294 72.96493,41.8282 80.46775,-3.939 4.31412,-27.0101 -27.01015,-53.0824 -52.33217,-43.5163 z m 28.69829,11.0666 c 30.19885,20.2577 10.1288,68.8384 -24.57174,59.4599 -36.95139,-9.9412 -30.76156,-63.774 7.50282,-63.774 8.06553,0 12.19208,1.1254 17.06892,4.3141 z"
       id="path3473"
       inkscape:connector-curvature="0"
       style="fill:#000000;stroke:none" />
  </g>
  <path
     style="fill:#000000;stroke:none"
     inkscape:connector-curvature="0"
     id="path3475"
     d="m 5209.0745,-514.89418 c -4.7958,10.6622 -17.8134,40.3309 -28.5472,65.8274 -23.2945,54.7015 -16.8999,47.0526 -54.1254,63.973 -141.1373,64.2048 -168.5426,75.5623 -223.3532,93.1781 -180.6466,58.1784 -368.8297,136.7539 -431.4051,180.5615 -206.9101,144.634699 -408.7958,725.72307 -568.66,1636.87508 -39.5093,225.0644 -85.1848,538.2078 -92.7214,636.2534 -3.4256,43.8076 13.4744,167.1179 110.5348,803.1397 43.8485,286.9515 50.2431,332.1498 52.7551,366.4541 2.9691,41.4899 11.6473,61.887 32.2013,76.4895 25.3499,17.8475 93.8632,183.1112 138.8535,335.1631 28.5473,96.1913 36.9973,120.9925 42.0215,121.9196 25.3499,5.0993 203.9412,-65.5955 319.0434,-126.3236 38.8242,-20.629 102.7699,-56.0922 106.6523,-59.1055 1.827,-1.3907 -12.3324,-32.9137 -50.2431,-110.3302 l -52.5268,-108.2442 -23.5229,-104.304 -23.2944,-104.072 4.7958,-9.5032 c 11.1906,-21.7879 6.623,-68.377 -12.1039,-127.4825 -19.4121,-60.4963 -26.035,-227.1506 -30.831,-776.4843 -1.827,-220.1969 -2.5122,-224.1373 -37.2255,-282.7793 -11.6473,-19.47 -11.8757,-25.2647 -1.8271,-43.5758 14.6162,-26.4237 29.6891,-89.4695 81.074,-338.8716 65.7728,-317.7791 121.9536,-576.2209 124.9225,-572.9759 2.0554,2.0862 12.3324,164.1048 23.7513,377.1164 3.8824,70.6948 9.1352,162.4823 11.6472,203.972 6.1662,96.4231 2.2838,283.4747 -12.7891,640.8892 -2.0553,44.503 -4.1108,118.6746 -4.7959,164.5684 -1.3703,101.2906 -2.7405,113.3434 -15.7581,159.0053 -28.7755,98.9728 -27.6337,130.0322 9.3635,231.091 33.3431,91.7874 42.4783,186.8198 28.3189,295.9911 -2.7406,20.3972 -5.0244,47.0526 -5.2527,59.1056 l -0.4568,22.0197 19.1837,9.735 c 72.1673,36.3904 288.2124,66.5227 628.2666,87.6152 144.1062,8.8079 328.4069,15.9933 367.6878,14.139 14.3877,-0.6954 44.3052,-1.8542 66.2294,-2.5497 427.066,-13.9071 778.9957,-54.4697 871.717,-100.1316 21.9243,-10.894 21.0107,-3.0132 9.8203,-100.3635 -6.623,-58.642 -7.3081,-77.1849 -4.796,-113.5753 4.5676,-60.7281 13.0175,-111.7211 23.2946,-141.3897 50.6997,-145.5619 51.3848,-156.224 16.8999,-273.5079 -7.7649,-26.1918 -8.6784,-32.2183 -9.3635,-61.4234 -4.1109,-143.7075 -6.1662,-205.5944 -8.9067,-276.9846 -1.827,-45.1984 -5.0243,-128.1779 -6.8514,-184.2702 -1.827,-56.0922 -4.5675,-130.7274 -5.7094,-165.7272 -2.9689,-82.9795 -2.9689,-213.4752 0,-251.7199 1.1419,-16.4568 6.8513,-115.4296 12.5608,-219.9652 14.1593,-260.9915 21.2391,-369.6993 23.9797,-369.6993 2.9688,0 28.5471,112.4164 69.6551,307.1169 14.3877,67.4499 29.0039,137.4493 32.8863,155.2969 3.8824,17.8475 16.6716,79.9663 28.5472,137.9128 42.935,209.7666 59.8349,279.3026 74.4511,307.8122 11.1905,21.5562 11.1905,21.3244 -0.2285,41.0262 -36.7687,63.5095 -37.2255,67.9135 -38.1389,287.1834 -0.4568,57.2512 -0.9135,104.7673 -1.5987,105.6945 -0.4568,0.9272 -1.1419,40.099 -1.3703,87.1516 -1.1418,211.3892 -8.45,454.3013 -15.9864,525.6915 -1.5987,15.0661 -5.7095,33.8408 -12.3324,54.9333 -19.1837,62.1187 -23.5229,102.9131 -13.0175,126.5553 l 5.4811,12.053 -22.8378,102.6813 -23.0661,102.6814 -52.5268,108.2442 c -29.004,59.5691 -52.7553,109.1714 -52.7553,110.0985 0,4.6357 129.0333,73.4762 198.0033,105.9264 85.4133,40.099 203.2561,82.5159 228.8344,82.5159 5.0242,0 17.1283,-35.6951 47.2741,-137.9129 20.7824,-71.622 36.5403,-116.125 64.1741,-182.6476 20.7823,-49.8341 61.2052,-133.7407 64.6308,-133.7407 5.7094,0 22.6094,-19.4701 28.5471,-32.9137 5.0244,-11.5893 6.623,-19.47 8.2217,-41.0262 2.2838,-32.2183 11.4188,-97.3502 46.589,-327.0505 93.6348,-613.7701 113.9603,-755.8553 116.7009,-818.2057 3.4256,-73.4763 -56.866,-486.9832 -119.213,-817.0468 -155.5251,-824.46398 -343.9366,-1343.433581 -538.971,-1484.12788 -59.6065,-43.1122 -239.1113,-119.1381 -419.9862,-177.7801 -73.5376,-23.874 -65.316,-20.3972 -173.5669,-69.3041 l -95.9186,-43.1123 -4.1108,-19.47 c -8.45,-42.1851 -29.4607,-99.4364 -39.0526,-106.8535 -2.2838,-1.8543 -18.0418,-1.1589 -51.8417,1.3907 -200.5155,16.4568 -460.8658,15.2979 -664.3502,-2.7814 -28.3188,-2.5497 -58.9213,-5.0993 -67.8281,-6.0265 l -16.6715,-1.3907 -9.1352,19.7018 z m 83.3579,6.2583 c 232.945,20.1654 539.1992,20.629 703.8595,1.1589 l 11.8756,-1.3907 4.7959,9.9668 c 8.45,16.4568 15.9864,38.7083 23.0661,67.9134 7.0797,28.5097 6.8513,31.2912 -2.5122,31.5229 -1.8269,0 -21.239,2.0861 -42.9349,4.6358 -188.4115,21.7879 -459.2672,24.5693 -676.4542,6.9536 -60.9767,-4.8676 -129.0333,-12.2847 -130.8603,-13.9072 -1.1419,-0.9272 5.7094,-19.9336 15.0729,-41.9534 29.9175,-69.7676 31.0593,-72.0855 35.3986,-70.6948 2.0553,0.6954 28.5471,3.245 58.693,5.7947 z m -94.7767,128.8732 c 258.295,30.364 583.7329,30.8276 819.6468,1.1589 l 35.1702,-4.4039 100.7145,45.1983 c 55.2674,24.8011 110.3063,48.2116 122.182,52.1519 142.0508,45.6619 252.5855,86.9199 345.0784,128.4097 48.8728,21.7879 102.7699,49.6022 104.3686,53.5426 0.6851,1.6225 -5.0244,20.397199 -12.5608,41.953299 -55.7241,158.5419 -97.5172,347.216001 -113.2753,511.784201 -17.8134,182.87947 -12.104,472.14877 11.4188,593.14128 3.1973,16.4567 3.1973,21.556 0,54.4696 -5.2526,52.6155 -11.4188,150.6612 -23.0661,365.2953 -5.7094,104.5356 -11.1904,204.2038 -12.5607,221.356 -6.6229,94.3371 -5.0243,174.5351 11.4189,601.4855 6.3945,164.1047 9.3635,270.0311 7.7649,272.5807 -2.969,5.0994 4.1107,54.4698 12.1039,81.5888 31.0594,107.5489 30.6026,129.105 -5.481,229.9321 -8.2216,22.9469 -16.4433,46.5891 -18.0419,52.3837 l -3.1973,10.6622 -25.5783,3.9404 c -14.1593,2.3178 -71.0254,11.3574 -126.2927,20.1653 -387.5567,62.3506 -613.1936,80.6616 -909.3993,73.9399 -236.5991,-5.5629 -403.9998,-22.2515 -689.2433,-68.377 -50.243,-8.1125 -112.8185,-18.0793 -139.3102,-22.2515 -26.2636,-3.9404 -48.1877,-7.4171 -48.4161,-7.6489 -5.0243,-3.4769 -2.5122,-12.9801 3.4257,-12.9801 14.1593,0 10.9621,-11.3575 -3.8824,-13.6753 -7.7649,-1.3907 -7.7649,-1.3907 -21.2392,-37.7812 -33.1147,-91.092 -34.485,-125.1647 -8.45,-214.6342 14.1595,-48.9069 15.3013,-58.8737 16.6717,-149.9657 0.6851,-42.1851 3.8824,-141.6215 6.8513,-221.3559 15.3012,-385.229 17.585,-506.4533 11.8755,-592.2142 -2.0553,-30.5958 -7.7648,-131.8864 -12.7891,-224.8327 -11.4188,-209.7667 -17.3567,-304.1036 -22.1527,-353.4742 -4.7958,-49.834 -4.7958,-48.4433 2.2839,-91.5555 22.1526,-137.21741 25.1215,-415.59291 5.9378,-591.05508 -16.8999,-154.8333 -55.2674,-327.5141 -105.9671,-475.162001 -9.592,-28.0462 -18.0419,-52.6155 -18.727,-54.701599 -4.796,-15.5297 241.8518,-118.4428 419.301,-174.7669 48.4161,-15.5297 74.6795,-26.4236 196.6331,-82.0523 30.8309,-13.9072 56.4092,-25.4965 57.0945,-25.4965 0.6851,-0.2318 13.931,1.3907 29.689,3.245 z m -697.6934,352.546999 c 55.2674,166.654401 89.5241,330.527301 104.8253,499.267701 16.9,185.42907 5.4811,539.13498 -19.1836,588.73718 -13.0175,26.1919 -34.9418,118.9064 -84.7282,358.11 -8.9066,41.9532 -20.0972,94.8005 -24.8931,117.0521 -5.0243,22.2514 -16.2148,76.0259 -24.8931,119.3699 -49.3296,244.071 -68.0566,322.8784 -83.3578,351.8517 -13.7027,25.4964 -13.0175,31.2911 5.9379,63.7412 30.6025,51.6883 29.9174,45.4301 32.6578,342.3484 3.4258,365.0634 10.5055,602.8763 19.6406,664.0679 1.1419,8.3442 6.3946,28.0461 11.4188,44.0394 19.1837,60.0326 23.5229,112.1845 9.8203,117.5156 -2.0555,0.6953 -4.3392,3.7085 -5.4811,6.49 -1.5986,4.1722 -12.7892,8.8079 -63.2606,26.4236 -94.5483,33.3773 -228.8342,82.0525 -291.6381,105.9264 l -57.0943,21.5562 -9.1351,-5.0993 c -11.8757,-6.49 -23.5229,-24.1058 -25.1216,-37.0858 -0.4567,-5.3311 -2.0553,-21.788 -3.654,-36.3905 -2.9689,-32.9137 -15.9865,-121.2243 -55.7241,-381.2886 -100.2578,-656.1871 -111.2199,-738.2394 -105.282,-794.5634 22.6094,-218.5746 88.3821,-627.2139 146.1616,-910.9204 C 4103.2706,614.83239 4240.0687,205.96132 4389.656,0.83041949 c 21.6959,-29.90040049 81.9876,-93.17810049 87.0119,-91.55560049 1.3703,0.6954 12.104,29.2051 23.2944,63.5095 z m 2264.5915,-47.0526 c 170.3696,151.82 335.9433,602.412601 477.9942,1301.943681 70.3402,345.8252 153.4697,884.7284 148.902,963.0722 -4.1107,66.7545 -27.6336,231.3228 -121.04,842.5434 -31.9729,208.8394 -40.1944,267.2496 -42.4782,299.2361 -2.0554,29.6686 -5.7095,41.0262 -16.6716,52.6155 -15.0728,15.9933 -15.9864,16.225 -52.5268,1.8543 -58.2363,-22.715 -183.1587,-68.1453 -333.4311,-121.2243 -32.8865,-11.5893 -45.904,-17.384 -47.9593,-20.8607 -1.5987,-2.5497 -4.5675,-7.4172 -6.8513,-10.6622 -9.5919,-13.9072 -4.1108,-60.4963 13.931,-117.5156 19.6404,-61.6553 25.1215,-206.5218 31.5161,-821.6827 1.5986,-168.0451 2.7404,-174.9986 30.8309,-223.6738 18.9554,-32.4501 19.6405,-38.7083 6.6229,-63.7412 -15.0728,-28.9733 -33.1147,-104.3038 -77.6483,-322.183 -10.0486,-49.834 -21.4675,-104.9992 -25.35,-122.8467 -3.8823,-17.8476 -18.4985,-87.8471 -32.8863,-155.2969 -47.7308,-226.687 -69.4267,-319.1698 -80.1604,-341.4212 -28.3189,-59.1055 -39.7377,-400.06321 -20.0973,-608.90268 14.6162,-157.8465 57.0944,-353.0105 108.4793,-499.963101 6.3946,-18.3111 12.5608,-36.6222 13.7027,-40.7944 2.9689,-9.9668 3.1973,-9.9668 25.1215,9.5033 z M 4699.7927,2961.4371 c 25.8067,3.9404 87.9254,13.9073 138.1684,22.0197 471.1428,76.2578 842.2563,87.847 1270.9208,39.1719 75.5931,-8.5761 154.84,-19.9335 274.0531,-39.1719 58.4647,-9.5032 123.7806,-19.9335 145.0197,-23.1785 21.4675,-3.0132 40.8796,-6.2583 43.3918,-6.9536 4.7959,-0.9272 4.7959,-0.9272 0.9135,26.1918 -10.5054,72.781 -10.9621,121.2243 -2.2838,189.3694 2.5121,19.0065 5.2527,43.8077 6.1662,54.7017 l 1.3702,19.7018 -13.2459,6.0264 c -116.9293,53.079 -737.431,107.7807 -1068.5784,94.5689 -427.0659,-17.1523 -738.8012,-51.9202 -835.8617,-92.9464 l -17.3567,-7.1854 1.3704,-12.0529 c 0.6851,-6.4899 3.8824,-35.2315 7.0796,-63.973 8.2216,-72.0856 6.8514,-132.8135 -5.0243,-205.5945 -1.3702,-8.5761 -0.9135,-9.5031 2.7405,-8.8078 2.5122,0.6953 25.35,4.1721 51.1566,8.1124 z m -231.5749,402.3811 23.0663,104.0721 49.5579,100.5953 c 27.4052,55.1651 48.8727,101.2906 47.7308,102.4495 -3.654,3.4769 -70.5686,39.8673 -117.3859,63.7413 -108.4794,54.9333 -202.3426,92.7145 -269.7139,108.476 -7.0798,1.6225 -8.6784,-2.7814 -41.7931,-115.6614 -31.5161,-107.0852 -63.0323,-189.1376 -107.5658,-280.2297 -10.7338,-21.5562 -18.9554,-39.4037 -18.727,-39.8672 1.3702,-1.159 135.8847,-51.6883 182.2453,-68.1453 25.8066,-9.2714 53.4403,-19.2382 61.6619,-22.2514 77.8767,-28.2779 163.7467,-58.4102 165.5737,-57.9465 1.1419,0.2317 12.5608,47.5161 25.3498,104.7673 z m 2368.5033,-84.6019 c 71.9389,25.7282 94.0915,33.6089 110.3063,39.1718 21.4676,7.1854 114.8739,41.2579 143.8779,52.3837 4.3391,1.6225 16.2148,6.0265 26.2634,9.7351 10.0486,3.9403 30.1459,11.3574 44.762,16.9203 l 26.2634,9.9669 -15.073,30.364 c -44.9902,90.1648 -84.9564,194.4688 -116.4724,304.799 -13.2459,46.5891 -29.4607,97.5821 -31.7445,100.3634 -2.2838,2.5497 -53.4404,-12.2846 -92.9497,-26.8871 -78.5619,-28.9732 -171.0547,-72.781 -271.9976,-128.8732 l -29.9174,-16.6886 50.0146,-102.4496 49.7863,-102.4495 23.0661,-102.9131 c 12.5608,-56.5559 22.8378,-103.145 22.8378,-103.6085 0,-1.6225 0.9136,-1.3908 60.9768,20.1654 z" />
</svg>
