<?xml version="1.0" encoding="UTF-8" standalone="no"?>
<!-- Created with Inkscape (http://www.inkscape.org/) -->

<svg
   xmlns:dc="http://purl.org/dc/elements/1.1/"
   xmlns:cc="http://creativecommons.org/ns#"
   xmlns:rdf="http://www.w3.org/1999/02/22-rdf-syntax-ns#"
   xmlns:svg="http://www.w3.org/2000/svg"
   xmlns="http://www.w3.org/2000/svg"
   xmlns:sodipodi="http://sodipodi.sourceforge.net/DTD/sodipodi-0.dtd"
   xmlns:inkscape="http://www.inkscape.org/namespaces/inkscape"
   version="1.0"
   width="300pt"
   height="200pt"
   viewBox="0 0 6000 2644.8"
   id="svg3323"
   inkscape:version="0.48.4 r9939"
   sodipodi:docname="teddy_rayures.svg">
  <sodipodi:namedview
     pagecolor="#ffffff"
     bordercolor="#666666"
     borderopacity="1"
     objecttolerance="10"
     gridtolerance="10"
     guidetolerance="10"
     inkscape:pageopacity="0"
     inkscape:pageshadow="2"
     inkscape:window-width="1535"
     inkscape:window-height="876"
     id="namedview20"
     showgrid="false"
     inkscape:zoom="2.3230815"
     inkscape:cx="163.83498"
     inkscape:cy="146.53749"
     inkscape:window-x="65"
     inkscape:window-y="24"
     inkscape:window-maximized="1"
     inkscape:current-layer="svg3323" />
  <defs
     id="defs3407" />
  <metadata
     id="metadata3325">
Created by potrace 1.10, written by Peter Selinger 2001-2011
<rdf:RDF>
  <cc:Work
     rdf:about="">
    <dc:format>image/svg+xml</dc:format>
    <dc:type
       rdf:resource="http://purl.org/dc/dcmitype/StillImage" />
    <dc:title />
  </cc:Work>
</rdf:RDF>
</metadata>
  <g
     id="g3011"
     transform="matrix(1.3933286,0,0,1.3846492,-516.97978,-468.10444)">
    <path
       d="m 1437.7839,61.2804 c -63.7421,3.1477 -125.5168,11.9352 -159.3552,22.6901 -20.5916,6.4266 -21.6408,7.607 -28.8545,29.5102 -1.5738,4.9839 -3.8035,10.2302 -4.8528,11.4106 -1.0492,1.1804 -1.5738,2.7543 -1.1804,3.5412 1.0493,1.5739 -6.2955,29.7726 -8.394,32.2645 -0.7869,0.9181 -1.0492,2.492 -0.6558,3.4101 0.3935,1.0493 -0.6558,8.0006 -2.3608,15.4765 l -3.1477,13.6403 -56.922,23.477 c -39.4781,16.2634 -65.9717,26.2313 -86.4322,32.658 -110.30261,34.8876 -220.86758,80.9236 -254.18134,106.1056 -116.2047,87.7438 -227.03199,400.9456 -317.66116,898.0289 -25.57553,140.731 -55.21691,339.6955 -57.31541,385.9938 -1.31157,30.6906 7.73823,96.4 62.43051,448.5554 24.26397,155.814 31.60873,206.7027 31.60873,217.3264 0,14.6895 4.19701,24.5263 15.08301,35.1499 20.06695,19.4112 56.00384,102.9579 81.44821,188.7343 16.39457,55.6104 22.55893,72.923 26.10015,72.923 13.64028,0 72.92304,-20.4604 119.61477,-41.4454 38.69119,-17.3127 124.99219,-62.0371 124.99219,-64.7914 0,-0.5246 -13.50912,-28.3298 -30.166,-62.037 -30.82179,-62.5617 -32.78914,-67.4145 -37.24846,-92.0719 -0.26231,-2.2297 -4.85279,-22.2966 -10.09906,-44.8555 l -9.44327,-40.9209 3.14776,-6.2955 c 6.42667,-12.9845 3.41007,-39.6093 -8.52517,-75.5462 -9.31212,-28.0675 -13.24682,-122.5002 -15.86995,-375.37 -1.96735,-194.6363 -0.78694,-183.0946 -21.1162,-218.638 -8.13171,-14.1649 -8.26286,-16.0011 -2.36082,-25.0509 8.13171,-12.3287 18.0996,-53.643 47.74098,-196.4725 7.21361,-34.3631 14.42722,-68.8572 16.26342,-76.7266 1.83619,-7.8694 7.73823,-35.5435 13.24681,-61.5125 22.42777,-106.6302 40.26506,-182.9633 41.70778,-179.0286 1.44272,4.0658 4.98395,59.4139 12.0664,185.5865 3.14776,58.3646 6.82014,120.664 8.00055,138.3701 2.36082,35.15 2.09851,122.1068 -0.78694,191.4886 -0.65578,19.1489 -2.22966,59.2828 -3.27891,89.1865 -1.18041,29.9037 -2.88545,76.8577 -3.9347,104.2694 -1.18041,27.4118 -2.49197,69.9065 -3.14776,94.4328 l -1.1804,44.5932 -7.34477,25.4444 c -15.60763,53.9053 -14.95185,71.8738 5.1151,126.0414 10.36137,27.9364 11.93525,33.5761 14.95185,53.1184 7.08245,46.1671 7.60708,71.218 2.36082,116.7294 -5.50858,46.6917 -5.24626,43.2816 -2.75429,45.7736 25.44437,25.5755 209.32587,49.1837 468.75357,60.332 97.9739,4.3282 112.1388,4.197 233.4586,-1.9674 233.5898,-11.5417 385.4691,-31.6087 424.1603,-56.0038 l 5.1151,-3.1478 -0.9181,-12.7221 c -0.3935,-6.9513 -1.9673,-21.772 -3.4101,-32.9203 -8.1317,-61.3813 -2.8854,-115.1555 16.3946,-167.0935 20.8539,-56.135 21.6408,-73.71 6.0332,-128.0088 -8.5252,-29.379 -9.0498,-34.2318 -9.8367,-92.4653 -0.3935,-26.756 -1.5739,-68.5949 -2.6232,-93.1212 -1.1804,-24.5263 -2.8854,-70.5622 -4.0658,-102.3021 -1.0493,-31.7399 -2.6231,-73.71 -3.2789,-93.1212 -3.0166,-85.7764 -3.0166,-122.2379 -0.1312,-167.2246 1.4427,-23.477 4.197,-70.0376 6.0332,-103.6137 5.1151,-93.2523 9.7056,-169.8477 11.8041,-196.9971 1.0493,-13.5091 1.9674,-25.5755 2.0985,-26.8871 0.2623,-6.8201 16.9192,64.3979 36.5927,156.3386 7.8694,37.5108 16.2634,75.8085 18.3619,85.2518 2.0985,9.3121 10.0991,47.0852 17.7061,83.9402 28.9856,139.2882 37.2485,173.2578 46.036,189.1277 5.7709,10.4926 5.7709,14.5584 -0.6558,24.5263 -19.9358,31.6087 -20.7227,37.1173 -21.772,157.519 -1.9673,228.8682 -5.902,376.2882 -11.2794,416.4221 -0.6558,5.3774 -3.5413,16.9192 -6.4267,25.5755 -10.886,33.4449 -13.378,59.8074 -6.8202,72.2673 l 2.7543,5.3774 -13.1156,58.2335 -13.1157,58.2335 -30.6906,62.0371 -30.6906,61.9058 4.8528,3.1478 c 66.7586,41.8389 233.4586,112.1388 242.7707,102.4333 2.0985,-2.2297 9.0498,-23.3459 22.6901,-68.8572 25.969,-86.9568 64.9225,-179.0287 80.2678,-189.7835 11.4106,-8.0006 16.0011,-19.0177 17.7061,-41.9701 1.5739,-20.4605 7.476,-60.8567 32.1334,-219.4249 61.2501,-394.6501 64.529,-419.8322 59.9385,-461.6711 -14.1649,-128.14 -50.2329,-348.6142 -82.8909,-506.9201 -87.2191,-422.5864 -186.5046,-680.1779 -292.4791,-758.7406 -31.6087,-23.4771 -134.1731,-66.4964 -237.2622,-99.5479 -40.6585,-13.1156 -159.6175,-59.545 -161.4537,-63.0863 -0.5246,-1.0492 -2.8854,-10.2302 -5.1151,-20.3292 -9.0498,-40.7897 -19.6735,-73.71 -25.4444,-79.2186 -20.3292,-19.1488 -174.1759,-36.068 -279.4946,-30.6906 z m 131.8124,12.8533 c 75.8084,5.9021 137.7143,18.6243 141.7802,29.1168 1.705,4.4593 3.4101,4.4593 -21.1162,-0.3935 -124.5987,-24.9197 -272.1499,-25.3132 -394.6501,-1.0492 -25.7067,5.1151 -27.674,4.9839 -27.674,-1.7051 0,-8.7875 90.498,-23.3458 177.0613,-28.4609 18.362,-1.0493 100.4659,0.5246 124.5988,2.4919 z m -20.9851,22.9524 c 54.2988,3.2789 126.9595,13.1157 158.6994,21.3785 l 6.1644,1.5739 -1.8362,7.2136 c -2.6231,10.2302 -1.9674,9.9679 -22.5589,6.689 -119.2213,-19.1488 -263.2312,-19.4112 -373.5339,-0.7869 -10.6237,1.8362 -19.9358,3.2789 -20.7227,3.2789 -0.9181,0 -4.984,-4.3282 -9.0498,-9.4433 l -7.4759,-9.5744 10.2302,-2.2297 c 37.6419,-8.394 89.9734,-14.9518 147.9446,-18.493 16.6568,-1.0493 92.7276,-0.787 112.1388,0.3934 z m -281.1996,23.6082 c 2.6231,3.9347 12.0664,16.0011 20.8539,26.8871 8.7874,10.7548 20.8539,26.1001 26.8871,34.1007 6.0332,7.8694 15.7387,20.3293 21.5096,27.5429 12.8534,16.1322 82.104,86.301 94.0393,95.2196 10.099,7.6071 14.296,13.1157 22.8212,30.0349 6.4267,12.7222 21.6408,48.0033 21.6408,49.9706 0,0.6558 -4.9839,-1.3115 -11.1483,-4.3281 -10.3613,-5.1152 -11.1483,-5.9021 -11.1483,-9.5745 0,-21.9031 -74.3657,-116.0735 -182.701,-231.3601 -13.6403,-14.4272 -13.5092,-14.1649 -10.0991,-23.2147 0.7869,-1.9674 1.5739,-3.2789 1.8362,-3.0166 0.2623,0.2623 2.7543,3.8035 5.5086,7.7382 z m 301.2666,11.8041 c 40.1339,2.492 93.7769,8.394 126.566,14.1649 l 5.6398,0.9181 -3.6724,4.197 c -3.5413,4.0659 -3.9347,4.197 -9.8368,3.0166 -56.0038,-11.0171 -304.0208,-12.3287 -376.1569,-1.8362 -3.8036,0.5246 -4.984,0 -6.8202,-2.6231 l -2.2296,-3.1478 8.1317,-1.4427 c 71.6114,-12.3287 179.9467,-17.9684 258.3784,-13.2468 z m -285.0032,38.8223 c 80.7924,87.4814 137.0586,156.7321 152.6662,187.8162 4.5905,9.0498 4.8528,9.0498 -9.181,0.5246 -10.6236,-6.4266 -12.3287,-8.0005 -14.5583,-13.2468 -10.886,-25.8378 -66.3652,-90.1045 -137.7144,-159.6175 l -27.1495,-26.3625 1.7051,-7.7382 c 1.0492,-4.197 2.3608,-9.181 3.0166,-11.0172 l 1.3116,-3.2789 4.0658,4.7217 c 2.3609,2.6231 13.9026,15.2141 25.8379,28.1986 z m 300.3485,-13.7714 c 40.6585,1.4427 77.6446,4.197 97.3181,7.2136 l 4.7217,0.6558 -3.6724,5.6397 c -9.3121,13.7715 -32.9203,71.6115 -37.9043,92.8589 -1.8361,7.607 -5.2462,15.7387 -11.4106,27.2805 -26.7559,50.1018 -95.3508,187.5539 -114.762,229.9174 l -7.0824,15.4765 -0.2623,-16.788 c -1.3116,-73.0542 -5.5086,-103.3514 -16.9192,-120.5329 -2.492,-3.6724 -9.4433,-18.4931 -15.4765,-32.7891 -17.8373,-42.7571 -27.5429,-59.8074 -38.2977,-67.9391 -24.3951,-18.3619 -121.0575,-123.156 -123.5495,-133.7797 -1.3115,-5.902 171.684,-10.6237 267.2971,-7.2136 z m 146.8953,9.5744 1.4427,7.0825 -15.3453,22.0343 c -21.772,31.2152 -57.0531,83.9402 -63.4798,94.9573 -6.9513,11.4106 -6.8201,11.5418 -3.8035,-2.3608 1.4427,-6.2955 3.2789,-14.4272 3.9347,-17.9685 1.5739,-7.4759 8.394,-19.0177 24.5263,-41.97 9.8367,-13.9026 50.3641,-68.7261 51.0199,-68.8572 0.1311,0 0.9181,3.1477 1.705,7.0824 z m -443.9649,48.1345 c 49.5772,50.2329 86.9568,92.203 102.9579,115.8112 l 4.4593,6.5578 -6.2955,-4.4593 c -32.5268,-23.3459 -66.3652,-53.7742 -113.8439,-102.3021 l -34.1007,-34.7565 0.7869,-5.7709 c 0.3935,-3.1477 1.4427,-8.0005 2.0985,-10.886 l 1.4427,-5.1151 3.5413,2.6232 c 1.9673,1.3115 19.5423,18.6242 38.9535,38.2977 z m 28.5921,71.7426 c 48.6591,45.249 90.498,75.1527 142.436,101.7775 l 25.7067,13.2468 4.197,8.5252 c 8.394,17.0503 10.886,40.5273 10.886,105.7121 l 0,47.3476 c -17.6986,27.9113 -21.7828,49.0843 -30.166,69.2506 -29.1167,68.726 -46.6917,123.0249 -51.8068,159.3552 -2.6232,19.4112 -4.197,177.8483 -5.2463,556.7596 -0.3935,149.3873 -1.0492,279.4946 -1.3116,289.2002 -0.2623,9.7056 -0.5246,121.7133 -0.5246,248.804 l -0.1311,231.0978 -2.8855,0.3935 c -4.5905,0.6558 -4.9839,6.2955 -0.5246,6.2955 2.492,0 3.4101,0.6558 3.4101,2.6231 0,2.492 -0.6558,2.6232 -15.3454,1.8362 -121.0574,-5.7709 -207.8831,-14.6895 -321.4647,-32.6579 -25.0509,-4.0659 -66.3652,-10.4926 -91.94074,-14.5584 -51.54452,-8.0006 -48.13445,-7.2136 -48.92139,-11.5418 -0.52462,-2.8854 -0.13116,-3.2789 3.41007,-3.6724 7.21361,-0.6558 6.42667,-5.902 -1.04925,-6.9513 -5.37742,-0.9181 -6.0332,-1.3115 -7.86939,-6.4266 -26.62478,-74.3658 -27.01825,-80.5302 -8.13171,-144.7969 4.32817,-15.083 8.39402,-42.1012 6.55783,-44.9867 -0.78694,-1.3115 1.18041,-65.3159 4.06585,-138.239 1.04925,-25.969 2.88544,-72.6607 3.9347,-103.6137 1.04925,-31.0841 2.62313,-73.8411 3.41007,-95.0885 1.96735,-54.6923 2.0985,-133.1239 0.13115,-156.7321 -0.78694,-10.886 -3.93469,-62.824 -6.82014,-115.4177 -6.55782,-119.3525 -9.83674,-172.8644 -12.72218,-203.9485 -2.88545,-32.2645 -2.88545,-35.0188 1.31156,-61.6436 13.24682,-86.6944 13.64028,-245.6562 0.78694,-348.2206 -10.75483,-85.9075 -35.41226,-189.39 -63.34861,-265.0674 l -7.08245,-19.1488 4.19701,-2.492 c 35.80573,-21.772 139.28825,-63.3486 231.62248,-92.8588 24.7886,-8.0006 50.1018,-17.4439 81.317,-30.2972 37.3797,-15.4765 45.5114,-18.3619 47.6099,-17.1815 2.7543,1.8362 4.5904,0.9181 6.0332,-2.8854 0.5246,-1.4428 3.5412,-3.6724 6.8201,-4.984 l 5.7709,-2.3608 30.953,31.7399 c 17.0503,17.4438 40.7897,40.7897 52.7249,51.8068 z m 435.9644,-79.8743 c -3.9347,7.4759 -4.0659,8.1317 -1.9674,10.2302 2.2297,2.2296 2.8855,1.705 8.1317,-5.5086 1.8362,-2.492 3.279,-2.0985 54.8235,18.4931 32.2645,12.9845 66.6275,25.7067 88.2683,32.658 59.2828,19.0177 107.1549,36.5926 152.4039,55.7415 25.4444,10.7548 77.7759,36.1992 77.7759,37.9042 0,0.5247 -2.3608,7.3448 -5.1151,14.8207 -33.4449,90.1046 -59.6763,206.7027 -68.8572,305.3325 -9.5744,103.089 -5.3774,273.986 8.394,334.9738 0.9181,4.0658 0.9181,8.7875 0.1312,14.296 -2.8855,18.0997 -7.2137,83.1533 -15.2142,229.7863 -2.492,46.1671 -5.5086,98.1051 -6.689,115.4178 -3.2789,47.0852 -1.5739,128.9269 6.689,336.4166 3.9347,97.187 4.5905,119.0901 4.5905,144.928 0.1311,30.166 1.0492,37.1173 9.5744,66.3652 14.5584,49.8395 13.7714,66.6275 -5.902,120.4017 -6.689,18.3619 -8.5252,22.4278 -10.7549,22.6901 -3.2789,0.5246 -4.5905,5.902 -1.705,7.0824 1.705,0.6558 1.705,5.7709 0,5.7709 -1.4427,0 -63.2175,9.5745 -109.2534,16.9192 -128.6646,20.5916 -205.26,29.3791 -310.1852,35.5434 -41.4455,2.3609 -144.6657,4.3282 -175.6187,3.279 l -30.0348,-0.9181 0.9181,-513.7403 c 0.5246,-282.5112 1.1804,-516.6256 1.4427,-520.1669 0.2623,-3.6724 0.7869,-69.7753 1.3116,-146.8953 0.9181,-170.897 0.7869,-168.6673 7.607,-182.3076 11.1484,-22.6901 63.2175,-87.088 148.4693,-183.6192 15.8699,-18.0996 34.6253,-39.6092 41.5766,-48.0033 6.9513,-8.394 20.8539,-23.8705 30.8218,-34.4941 19.4111,-20.7228 20.985,-23.4771 17.575,-29.1168 -1.9674,-3.2789 -1.9674,-4.8528 0.1311,-22.6901 1.3116,-10.4925 2.7543,-29.9037 3.2789,-43.1505 l 0.787,-24.0016 -10.2303,-22.6901 -10.099,-22.8212 5.1151,-6.9513 c 5.5086,-7.476 30.9529,-44.7244 65.0536,-95.2197 20.1982,-29.9037 20.7228,-30.4283 24.0017,-28.9856 1.705,0.7869 3.0166,1.8362 2.7543,2.2297 z m -110.4338,123.2871 c 1.9673,5.3774 8.0005,19.5423 13.3779,31.4776 l 9.8368,21.772 -0.6558,18.3619 c -0.9181,22.9524 -3.6724,50.6264 -4.984,49.7083 -2.3608,-1.3115 -25.0509,-41.1831 -37.3796,-65.4471 l -13.3779,-26.2313 13.9026,-27.1494 14.0337,-27.1494 0.9181,7.4759 c 0.3935,4.0659 2.3608,11.8041 4.3282,17.1815 z m -793.7595,54.0365 c 52.59377,147.1577 75.1527,303.7586 69.38181,482.1315 -2.49197,75.0215 -9.0498,139.2882 -15.21416,148.8627 -7.21361,11.2794 -28.32981,102.9579 -73.70998,319.7596 -34.23186,163.6834 -41.97009,196.4726 -51.15105,214.7033 -8.00055,15.7388 -7.73824,19.0177 2.88544,36.5927 16.39457,27.674 17.18151,33.0515 18.09961,129.7138 3.41007,337.3347 6.82014,428.095 17.83729,461.9334 11.93524,36.3304 14.1649,65.316 5.77089,70.2999 -1.04926,0.5247 -1.8362,2.2297 -1.8362,3.5413 0,1.4427 -0.52462,2.6231 -1.31156,2.6231 -3.0166,0 -148.07574,51.2822 -200.93183,70.9557 -33.44492,12.591 -35.14996,12.9845 -38.69118,11.1483 -11.41062,-5.9021 -16.0011,-15.2142 -17.44382,-35.9369 -1.44273,-20.7227 -5.37742,-46.6917 -39.34697,-265.8543 -35.80574,-230.4421 -52.33146,-345.4664 -54.56112,-379.0425 -2.88545,-45.7736 46.95404,-361.7298 88.1372,-558.7269 78.30046,-373.5339 164.86378,-611.9765 258.3784,-711.1308 7.47592,-7.8694 24.00164,-22.6901 25.44437,-22.6901 0.39347,0 4.06585,9.4433 8.26286,21.1162 z m 1309.8605,-7.0824 c 97.5805,92.7276 188.6031,339.302 269.3955,728.9681 42.8882,206.7027 89.7111,509.412 85.9076,554.1364 -3.5413,40.9209 -18.4931,143.4853 -56.3973,388.2234 -32.2646,208.6701 -35.9369,233.5898 -37.9043,256.5422 -1.1804,14.8207 -3.8035,21.6409 -10.7548,27.4117 -8.1317,6.8202 -7.2136,6.9513 -39.6093,-5.2462 -33.5761,-12.591 -104.1383,-37.7731 -165.6507,-59.1516 -29.3791,-10.2302 -41.052,-14.8207 -41.052,-16.2634 0,-1.0493 -1.1804,-2.7543 -2.492,-3.5413 -8.5252,-5.3774 -6.4267,-32.1333 5.1151,-67.9391 11.8041,-36.3303 14.0338,-90.2357 18.3619,-449.2112 1.5739,-118.8278 1.1804,-115.8112 17.8373,-143.8787 11.4106,-19.0177 11.673,-22.0343 3.2789,-37.7731 -8.7875,-16.2634 -19.8046,-62.824 -51.151,-215.0968 -4.3282,-20.985 -9.3121,-44.5932 -11.1483,-52.4626 -1.8362,-8.0005 -8.6564,-39.8716 -15.2142,-70.8245 -27.1494,-128.4023 -40.7897,-184.5373 -47.2163,-195.6856 -4.0659,-7.0824 -9.4433,-46.0359 -13.378,-98.1051 -2.2297,-30.0348 -2.2297,-177.9794 0,-207.8831 8.7875,-115.4178 33.9695,-234.9014 69.7753,-331.8261 1.9673,-5.3774 3.9347,-10.886 4.4593,-12.1975 1.0492,-3.4101 3.8035,-1.5739 17.8373,11.8041 z m -545.6113,12.4598 c 10.6237,21.772 24.6575,46.5606 38.9535,68.9884 l 11.1483,17.4438 -16.2634,16.6569 c -8.9186,9.1809 -23.6081,25.5755 -32.6579,36.3303 -9.0498,10.886 -26.6248,31.2153 -39.0847,45.2491 -47.741,53.643 -101.7775,117.7785 -122.3691,145.1903 -11.0171,14.5583 -11.1483,14.5583 -6.6889,0.6557 3.1477,-9.3121 3.9347,-10.6236 6.2955,-9.9679 2.7543,0.6558 11.1483,-8.394 11.1483,-12.1975 0,-3.6724 -4.3282,-3.5412 -7.4759,0.1311 -4.0659,4.7217 -4.197,5.2463 5.6397,-20.4604 22.6901,-58.8893 58.4958,-138.239 110.6961,-244.7381 21.2474,-43.4128 21.1162,-43.0193 23.6082,-36.9861 1.705,4.0658 3.2789,4.7216 6.5578,2.6231 1.7051,-1.0493 1.4427,-2.2297 -1.8362,-8.2629 l -3.8035,-7.0824 3.0166,-5.5086 c 4.0658,-7.0825 3.4101,-7.7382 13.1156,11.9352 z M 999.06522,2095.912 c 110.69618,17.3126 126.17258,19.6735 149.51848,22.8212 36.4615,4.984 91.1538,10.886 126.5661,13.9026 17.3127,1.3116 35.8057,2.8855 41.052,3.4101 l 9.4433,0.7869 0,19.6735 0,19.6735 -15.3453,-0.9181 c -126.9596,-7.0825 -227.0321,-19.1489 -345.72875,-41.4455 l -23.21471,-4.4593 -0.52462,-3.9347 c -0.39347,-2.2297 -1.70504,-11.9352 -3.0166,-21.772 l -2.49198,-17.7061 6.68899,1.0492 c 3.54122,0.6558 29.24791,4.5905 57.05309,8.9187 z m 1045.18658,-7.6071 c 0,0.9181 -1.0493,8.1317 -2.2297,16.1322 l -2.2296,14.2961 -8.5252,1.8362 c -80.2678,16.3946 -205.3912,34.8876 -300.3485,44.0686 -37.3796,3.6724 -120.664,9.9679 -132.0746,9.9679 -3.0166,0 -3.0166,-0.2623 -3.0166,-17.4438 l 0,-17.575 19.4111,-0.9181 c 44.9867,-1.9673 120.1394,-8.2629 168.7985,-13.9026 53.643,-6.4267 74.8904,-9.5744 212.4736,-31.4776 43.2817,-6.9513 47.8722,-7.3447 47.741,-4.9839 z m -651.3234,51.8068 c 15.6076,0.787 23.7393,3.0166 10.7548,3.0166 -4.197,0 -6.1643,0.6558 -6.689,1.9674 -1.3115,3.2789 2.0985,5.902 7.3448,5.902 l 4.984,0 0.918,12.7222 c 0.787,9.181 0.2624,96.4001 -0.6557,128.2711 0,0.7869 -3.4101,1.3116 -8.1317,1.3116 -8.0006,0 -8.2629,0.1311 -8.6564,3.5412 l -0.3934,3.6724 8.5251,0 c 5.6398,0 8.6564,0.5246 8.6564,1.4427 0,1.1804 -2.6232,1.3116 -8.7875,0.7869 -4.984,-0.5246 -15.7388,-0.918 -24.0017,-0.918 -10.886,-0.1312 -14.4272,-0.3935 -12.7222,-1.4428 2.2297,-1.3115 3.1478,-6.2955 1.3116,-6.5578 -12.4599,-1.9673 -20.3293,0.6558 -15.8699,5.1151 1.1804,1.1804 -0.2623,1.5739 -5.9021,1.5739 l -7.4759,0 0,-81.4482 0,-81.5794 20.067,0.9181 c 10.8859,0.3935 27.4117,1.1804 36.7238,1.705 z m 192.4066,82.3663 0,80.6613 -81.9728,0 c -50.233,0 -81.9728,-0.5246 -81.9728,-1.1804 0,-0.7869 2.2296,-1.4427 4.9839,-1.705 3.8035,-0.2623 4.984,-1.0493 5.2463,-3.2789 0.3934,-2.6232 -2.6232,-4.8528 -5.7709,-4.1971 -4.4593,0.787 -4.4593,0.9181 -4.4593,-70.9556 l 0,-70.8246 6.4266,0 c 12.3287,0 12.0664,-7.3447 -0.2623,-8.2628 -3.8035,-0.2624 30.166,-0.5247 75.5462,-0.6558 l 82.2351,-0.2623 z m 452.7524,-58.3646 c 0,11.5418 0.1312,21.6408 0.2624,22.5589 0.1311,1.8362 -6.689,3.0166 -65.4472,12.1976 -120.1394,18.493 -251.2959,32.3956 -360.4182,38.1665 l -16.788,0.9181 0.3935,-20.1981 0.3934,-20.1981 17.0504,-0.9181 c 120.4017,-6.4267 280.9373,-26.3625 399.3717,-49.446 28.0675,-5.5086 24.9197,-7.7383 25.182,16.9192 z m -1028.5296,0.6558 c 96.7935,16.2634 198.7021,27.5428 299.4304,32.9202 l 16.6569,0.787 0,20.1981 0,20.067 -8.1317,-0.5247 c -4.5905,-0.3934 -18.6243,-1.3115 -31.2153,-1.9673 -88.793,-5.2463 -175.3563,-15.6077 -296.28268,-35.6746 l -49.05255,-8.1317 0.9181,-11.6729 c 0.39347,-6.5579 0.78694,-15.4765 0.78694,-19.9358 l 0,-8.1317 16.13225,3.0166 c 8.78749,1.705 31.60873,5.7708 50.75764,9.0498 z m 1033.2513,58.6269 c 0.7869,6.689 1.8362,15.4765 2.2296,19.5424 l 0.787,7.3447 -7.6071,3.2789 c -46.5606,20.7228 -184.7996,38.2977 -382.059,48.9214 -20.5916,1.0493 -42.4947,2.2297 -48.7903,2.7543 l -11.5417,0.787 0,-22.4278 c 0,-22.1655 0,-22.4278 3.0166,-22.9524 1.5738,-0.2623 15.8699,-1.3116 31.7398,-2.0985 106.4992,-5.5086 262.7066,-23.2147 381.6656,-43.1505 32.2645,-5.3774 28.9856,-6.2955 30.5595,8.0005 z m -1051.48211,0.3935 c 127.61531,20.8539 206.17811,29.9037 319.62851,36.7238 l 14.6896,0.9181 0,20.9851 0,20.8539 -4.197,-0.6558 c -2.3609,-0.3935 -11.673,-1.0493 -20.7228,-1.4427 -158.1748,-7.6071 -316.0873,-28.3298 -358.71317,-47.2164 l -7.60708,-3.2789 0.91809,-10.886 c 1.44272,-17.7061 2.36082,-24.5263 3.41007,-24.5263 0.52463,0 24.26396,3.8036 52.59378,8.5252 z m -170.63467,35.6746 c 0,0.6558 3.27891,14.9518 7.21361,31.871 l 7.08245,30.8218 -3.54122,3.0166 c -13.64028,11.5418 -85.77639,42.4947 -176.66787,75.6773 l -36.72384,13.5092 -2.88544,-6.1644 c -1.57388,-3.2789 -9.18096,-19.1488 -16.91919,-35.1499 -7.73824,-16.1323 -13.77144,-29.5103 -13.50913,-29.7726 0.26231,-0.2623 11.14831,-4.4593 24.13281,-9.3121 12.98449,-4.8528 27.1494,-10.099 31.47757,-11.8041 4.32816,-1.705 23.21471,-8.394 41.97009,-15.083 18.75539,-6.5578 37.90424,-13.378 42.62588,-15.083 51.67568,-19.0177 95.74428,-33.8384 95.74428,-32.5268 z m 1413.86758,25.3132 c 28.1987,9.7056 89.4488,31.6087 107.5484,38.4289 4.7217,1.8362 18.6242,6.9513 30.8218,11.4106 12.3287,4.5905 22.4278,8.394 22.6901,8.5252 0.2623,0.2623 -4.8528,10.886 -11.1483,23.7393 -6.4267,12.9845 -13.7715,28.3298 -16.3946,34.2319 l -4.7216,10.7548 -33.3138,-12.3287 c -90.8915,-33.1826 -151.7481,-59.4139 -173.9136,-74.8904 -4.5904,-3.2789 -8.9186,-5.3774 -9.7056,-4.984 -0.7869,0.5247 -1.0492,-0.1311 -0.5246,-1.5738 0.3935,-1.4428 3.4101,-14.5584 6.689,-29.3791 3.2789,-14.8207 6.2955,-27.674 6.5578,-28.461 0.3935,-1.1804 7.2136,0.6558 23.2147,6.2955 12.4599,4.3282 35.9369,12.5911 52.2003,18.2308 z m -84.9894,62.824 c 19.6735,11.9352 51.4134,26.3625 102.6956,46.6917 36.1992,14.2961 98.1051,37.3796 100.4659,37.3796 1.9673,0 -14.2961,48.2656 -17.9685,53.5119 -0.5246,0.7869 -39.3469,-13.5091 -66.7586,-24.264 -49.8395,-19.8046 -90.8915,-39.7404 -130.1073,-62.9551 l -11.9353,-7.0824 3.6724,-8.1318 c 1.9674,-4.4593 5.3774,-15.3453 7.3448,-24.2639 1.9673,-8.7875 3.6724,-16.0011 3.9347,-16.0011 0.1311,0 4.0658,2.3608 8.6563,5.1151 z m -1308.02429,4.9839 c 0.78694,2.7543 2.36082,9.4433 3.54123,14.8207 1.18041,5.3774 4.19701,13.7715 6.55782,18.6243 l 4.45933,8.7874 -8.91865,5.1152 c -50.23296,29.2479 -100.07244,51.9379 -171.02814,77.6446 -33.1826,12.0664 -30.69063,11.5418 -31.87104,6.8202 -0.39347,-1.9674 -4.72163,-13.7715 -9.31211,-26.3625 -4.72164,-12.4599 -8.39402,-22.8212 -8.13171,-22.9524 0.26232,-0.2623 6.0332,-2.2297 12.85334,-4.5905 64.66018,-22.1654 156.99439,-59.8074 186.89808,-76.2019 14.29607,-7.7383 13.37797,-7.6071 14.95185,-1.7051 z m 1316.28719,82.6287 c 43.9374,23.477 101.9086,48.3967 154.7647,66.6275 8.0005,2.7543 14.6895,5.2462 14.9518,5.3774 1.3116,1.0493 -24.2639,83.1533 -25.969,83.1533 -7.4759,0 -54.6922,-16.0011 -86.8256,-29.3791 -43.544,-18.0996 -138.8948,-65.9718 -138.8948,-69.6441 0,-0.3935 8.9187,-18.6243 19.9358,-40.5274 l 19.8047,-39.7404 11.2794,6.8201 c 6.1644,3.8035 20.1981,11.5418 30.953,17.3127 z m -1272.34975,18.3619 19.14886,38.2977 -18.0996,9.9679 c -78.82509,43.544 -201.71877,95.0885 -208.93238,87.6126 -2.49198,-2.6232 -25.18206,-77.907 -23.73934,-79.2186 0.52463,-0.5246 11.27946,-4.5905 23.87049,-9.0498 69.1195,-24.5263 139.41941,-56.2662 180.34026,-81.3171 4.32816,-2.6231 8.00054,-4.7216 8.00054,-4.7216 0.13116,0.1312 8.78749,17.3127 19.41117,38.4289 z"
       id="path3363"
       inkscape:connector-curvature="0"
       style="fill:#000000;stroke:none" />
    <path
       d="m 1439.2266,415.7965 c -27.4117,8.7875 -25.969,47.6099 2.2297,55.2169 62.296,10.1843 46.8815,-68.9989 -2.2297,-55.2169 z m 21.7137,7.0442 c 9.7056,4.0658 16.4214,21.4398 11.5686,30.7519 -9.7056,18.8865 -43.9059,10.863 -43.9059,-10.3843 0,-14.8207 18.5659,-26.2697 32.3373,-20.3676 z"
       id="path3365"
       inkscape:connector-curvature="0"
       style="fill:#000000;stroke:none" />
    <path
       d="m 1183.0779,1445.6377 c -1.5739,1.9674 -199.62031,347.0403 -202.89922,353.467 l -2.0985,4.3282 4.85279,3.0166 c 10.62368,6.5578 47.34753,27.1494 48.52793,27.1494 1.4427,0 205.26,-354.7785 205.5223,-357.7952 0.1312,-1.3115 -8.5252,-7.0824 -25.4444,-16.788 -27.8052,-16.2634 -26.6247,-15.6076 -28.4609,-13.378 z m 23.8705,22.8213 17.4438,10.099 -11.5418,19.8047 c -6.2955,10.886 -47.2164,82.3663 -91.1538,158.8306 -43.8063,76.4643 -82.8909,144.4034 -86.6945,150.9612 l -7.0824,12.0664 -17.7062,-10.099 c -9.7055,-5.5086 -17.57495,-10.6237 -17.31263,-11.4107 0.52462,-3.0166 194.37403,-340.089 195.55443,-340.2201 0.6558,0 9.0498,4.4593 18.4931,9.9679 z"
       id="path3367"
       inkscape:connector-curvature="0"
       style="fill:#000000;stroke:none" />
    <path
       d="m 1467.8188,722.4405 c -14.4272,6.8202 -20.067,23.8705 -12.5911,38.4289 13.2469,26.3625 53.2496,16.9192 53.2496,-12.591 0,-20.5916 -21.9031,-34.4942 -40.6585,-25.8379 z m 24.9197,6.9513 c 12.3287,8.3941 13.5091,25.1821 2.492,35.5435 -20.1981,19.1488 -50.4953,-10.0991 -32.5268,-31.4776 7.3447,-8.6563 20.5915,-10.4925 30.0348,-4.0659 z"
       id="path3369"
       inkscape:connector-curvature="0"
       style="fill:#000000;stroke:none" />
    <path
       d="m 1467.8188,966.5229 c -27.1494,12.3287 -17.7062,53.7742 12.3287,53.9053 23.6082,0.1312 36.7238,-26.2313 22.5589,-45.6425 -7.0824,-9.8367 -23.0835,-13.6402 -34.8876,-8.2628 z m 20.0669,4.197 c 8.6564,3.2789 14.8207,12.1975 14.8207,21.5097 0,22.5589 -29.1167,31.2152 -41.4455,12.4598 -11.9352,-17.9684 6.689,-41.5766 26.6248,-33.9695 z"
       id="path3371"
       inkscape:connector-curvature="0"
       style="fill:#000000;stroke:none" />
    <path
       d="m 1471.2288,1202.08 c -22.5589,7.2136 -26.3624,38.5601 -6.1643,51.0199 19.1488,11.8041 43.544,-1.705 43.4128,-24.1328 -0.2623,-19.5423 -18.7554,-32.7891 -37.2485,-26.8871 z m 19.2801,6.689 c 13.7714,6.5578 16.5257,27.0183 4.9839,37.1173 -20.7227,18.0996 -50.233,-9.0498 -33.1826,-30.6906 6.5578,-8.2629 18.3619,-11.0172 28.1987,-6.4267 z"
       id="path3373"
       inkscape:connector-curvature="0"
       style="fill:#000000;stroke:none" />
    <path
       d="m 1473.852,1445.2443 c -26.756,8.5252 -30.4283,41.9701 -5.9021,53.3807 33.4449,15.7388 57.9712,-34.363 24.9198,-51.0199 -4.984,-2.492 -14.6896,-3.6724 -19.0177,-2.3608 z m 16.6569,7.4759 c 11.1483,5.3774 16.0011,22.1655 9.3121,32.0022 -8.9187,13.1157 -24.9198,15.083 -35.5435,4.3282 -18.0996,-18.0997 2.8855,-47.3476 26.2314,-36.3304 z"
       id="path3375"
       inkscape:connector-curvature="0"
       style="fill:#000000;stroke:none" />
    <path
       d="m 1757.9371,1458.4911 c -13.5092,7.8694 -25.3133,14.8207 -25.969,15.4765 -1.4428,1.4427 203.2926,359.6313 205.5223,359.6313 1.705,0 49.1837,-27.1494 51.5445,-29.5102 1.9673,-1.8362 -202.1122,-360.0248 -204.9977,-359.8937 -0.6558,0 -12.4599,6.4267 -26.1001,14.2961 z m 120.5328,169.192 c 53.3807,93.1211 97.187,169.9789 97.4493,170.897 0.1312,0.7869 -7.607,6.0332 -17.3126,11.6729 l -17.7062,9.9679 -7.7382,-13.2468 c -72.1361,-124.3364 -187.8162,-328.0226 -186.7669,-329.0719 1.8362,-1.8361 32.1333,-19.28 33.7072,-19.28 0.787,0 44.9867,76.0709 98.3674,169.0609 z"
       id="path3377"
       inkscape:connector-curvature="0"
       style="fill:#000000;stroke:none" />
    <path
       d="m 1473.1962,1697.196 c -27.1494,13.2469 -18.0996,53.9054 11.9352,53.9054 16.6569,0 28.1987,-11.6729 28.1987,-28.461 0,-20.3293 -22.0343,-34.2318 -40.1339,-25.4444 z m 20.985,5.1151 c 15.4765,7.0825 18.6243,25.7067 6.4267,37.1174 -19.6735,18.3619 -49.0525,-6.5579 -34.1007,-29.1168 6.1644,-9.3121 17.7061,-12.591 27.674,-8.0006 z"
       id="path3379"
       inkscape:connector-curvature="0"
       style="fill:#000000;stroke:none" />
    <path
       d="m 1475.1635,1940.2292 c -13.7714,4.4593 -22.1654,23.477 -16.2634,37.3796 11.9353,28.7233 54.8235,20.1981 54.5612,-10.886 -0.1312,-19.6735 -18.8866,-32.658 -38.2978,-26.4936 z m 19.0177,6.0332 c 23.4771,10.7548 14.9519,45.249 -10.6236,43.1505 -8.0006,-0.6558 -12.5911,-3.4101 -17.1815,-10.2303 -12.5911,-18.3619 7.607,-42.2324 27.8051,-32.9202 z"
       id="path3381"
       inkscape:connector-curvature="0"
       style="fill:#000000;stroke:none" />
    <path
       d="m 1599.0367,447.6676 c -22.5589,8.2628 -29.7028,39.4781 -8.98,51.5445 54.1615,16.6668 44.6849,-56.0711 8.98,-51.5445 z m 15.1528,9.8367 c 13.9026,6.8202 12.1975,28.8545 -2.6232,35.4123 -8.9186,3.9347 -20.3292,-0.1312 -24.5262,-8.7875 -8.7875,-17.8373 9.3121,-35.5434 27.1494,-26.6248 z"
       id="path3383"
       inkscape:connector-curvature="0"
       style="fill:#000000;stroke:none" />
    <path
       d="m 1452.8669,2153.4897 c -26.1001,8.394 -29.9037,41.4455 -6.1643,53.2496 27.0182,13.3779 53.9053,-19.1489 35.1499,-42.6259 -6.689,-8.5252 -20.3292,-13.5091 -28.9856,-10.6237 z m 19.4112,8.9186 c 19.9358,14.6896 5.6397,47.4787 -18.0996,41.052 -26.8871,-7.2136 -20.9851,-46.0359 6.9513,-44.1997 4.8528,0.2623 8.7875,1.3116 11.1483,3.1477 z"
       id="path3385"
       inkscape:connector-curvature="0"
       style="fill:#000000;stroke:none" />
    <path
       d="m 1451.293,2228.9047 c -31.2152,11.5418 -24.7885,54.9546 8.1318,55.2169 14.4272,0 23.8704,-7.3447 27.8051,-22.0343 5.2463,-19.8046 -16.9192,-40.265 -35.9369,-33.1826 z m 20.067,7.7382 c 21.1162,14.165 7.0825,48.1345 -17.1815,41.5767 -25.8378,-6.9513 -21.5097,-44.5933 5.2463,-44.5933 5.6397,0 8.5251,0.787 11.9352,3.0166 z"
       id="path3387"
       inkscape:connector-curvature="0"
       style="fill:#000000;stroke:none" />
  </g>
  <path
     style="fill:#000000;stroke:none"
     inkscape:connector-curvature="0"
     id="path3389"
     d="m 4153.9938,-368.89126 c -3.8369,8.52963 -14.251,32.26475 -22.8381,52.66181 -18.6357,43.76128 -13.5201,37.64212 -43.3007,51.17851 -112.911,51.36374 -134.8356,60.44979 -178.6844,74.54245 -144.5188,46.54266 -295.0668,109.403068 -345.1277,144.449198 C 3398.5133,69.648454 3237.003,534.51916 3109.1103,1263.4407 c -31.6076,180.0518 -68.1485,430.5665 -74.1778,509.003 -2.7404,35.4168 12.6066,145.9326 94.8235,684.2332 26.8575,175.2304 33.9829,225.6671 35.8098,251.4418 2.3752,33.1917 9.318,49.5096 25.5786,61.0061 9.1351,6.49 50.609,87.8934 53.7149,105.5091 0.3655,2.4106 2.3751,7.6026 4.385,11.4967 1.8269,3.894 4.0195,9.6423 4.7502,12.6092 0.7307,2.7813 2.3752,6.3045 3.654,7.6025 3.4715,3.5231 25.2133,63.9731 25.944,71.5757 0.1828,3.7085 1.6445,9.2714 3.1061,12.0529 1.4615,2.9668 3.2887,8.3442 4.0194,11.8674 0.7307,3.5231 2.0098,7.2317 2.7406,8.3443 0.9134,0.9271 6.9427,20.5827 13.7027,43.5758 12.972,44.3176 24.1169,77.6948 26.6748,80.4763 8.9524,10.0131 161.1447,-49.5097 257.4297,-100.3171 31.2424,-16.5034 82.2169,-44.8739 85.3227,-47.2845 1.4616,-1.1125 -10.0487,-26.5163 -40.3774,-89.1914 -23.3862,-48.2114 -43.1182,-90.1185 -43.849,-93.0854 -0.7308,-3.1523 -3.2887,-14.8343 -5.8465,-25.96 -2.3752,-11.3113 -9.8661,-45.801 -16.9915,-76.9531 l -12.6066,-56.3705 3.8369,-7.6026 c 8.9524,-17.4303 5.481,-54.3306 -9.6835,-101.986 -12.9718,-40.9797 -17.3568,-111.4427 -21.0108,-334.6994 -0.5482,-33.1919 -1.2789,-84.5556 -1.8271,-114.0388 -0.5481,-29.6686 -1.2788,-105.8801 -1.8269,-169.6676 -1.4617,-178.0119 -1.8271,-180.608 -28.3192,-226.2235 -10.7795,-18.7283 -11.1449,-22.6222 -2.9233,-37.6421 11.693,-21.139 23.7516,-71.5755 64.8598,-271.0973 52.6188,-254.2233 97.5639,-460.97673 99.9391,-458.38074 1.6444,1.66882 9.866,131.28384 19.0012,301.69324 3.1059,56.5557 7.3081,129.9857 9.3178,163.1774 4.0197,63.6022 4.0197,115.5225 -0.1825,236.4222 -0.9137,27.4436 -2.558,75.0988 -3.6542,105.6945 -1.0961,30.5958 -3.654,97.3503 -5.6639,148.3434 -2.0096,50.9928 -4.3848,126.4624 -5.2982,167.8132 -0.9136,43.3904 -2.3752,78.6219 -3.6542,83.4431 -1.0962,4.6357 -5.6639,20.768 -10.0486,36.1586 -13.3376,46.3573 -16.4434,67.3107 -13.7029,91.7873 2.7405,24.4767 9.3179,49.5097 23.0208,86.781 17.9049,49.1386 25.0303,86.2245 25.213,131.4691 0.1828,13.5364 0.9135,24.6621 1.827,24.6621 2.5578,0 0,44.8739 -4.3847,79.7345 -2.1926,16.874 -4.0197,38.5693 -4.2023,48.2116 l -0.3655,17.6156 15.3472,7.7882 c 72.7162,36.715 345.6758,67.1252 718.9397,80.2907 131.1814,4.6357 473.9337,-16.1324 645.1275,-39.1256 103.593,-13.9071 191.6563,-36.7149 197.1372,-50.9929 1.0963,-2.9669 -0.5481,-23.1786 -6.2119,-71.2047 -5.2983,-46.9136 -5.8464,-61.7479 -3.8367,-90.8603 3.6541,-48.5825 10.4141,-89.3768 18.6358,-113.1116 40.0121,-114.9662 40.9256,-126.6482 15.3471,-212.6874 -8.9526,-29.4832 -9.6833,-37.4565 -10.9621,-102.5422 -0.5482,-32.0792 -2.558,-99.7608 -4.5678,-150.1975 -11.8757,-297.6136 -15.1642,-446.3277 -11.1448,-501.5856 1.0962,-16.3176 5.8465,-97.3503 10.2312,-179.8661 11.5106,-209.5349 16.9916,-295.75958 19.1841,-295.75958 2.3752,0 22.8379,90.11858 55.7245,245.69358 11.5105,53.9599 23.2036,109.9595 26.3095,124.2374 3.1059,14.2781 13.3373,63.9733 22.8381,110.3305 34.3482,167.8133 47.8682,223.4419 59.5613,246.2497 8.9526,17.2449 8.9526,17.0596 -0.1827,32.821 -29.2325,50.6221 -28.6845,45.9864 -30.8769,234.5677 -5.2984,473.4004 -8.9526,563.519 -24.6651,613.9557 -15.3472,49.6949 -18.8184,82.3305 -10.4141,101.2442 l 4.3849,9.6423 -18.2705,82.1451 -18.4529,82.145 -42.0218,86.5955 c -23.2036,47.6553 -42.2048,87.3371 -42.2048,88.0787 0,3.7086 103.2278,58.781 158.4043,84.7411 68.3313,32.0793 162.6064,66.0129 183.0694,66.0129 4.0193,0 13.52,-27.8144 38.3676,-112.3701 23.2035,-78.6219 48.0512,-143.3367 82.5823,-214.1705 9.866,-20.3973 18.8184,-36.9005 19.9148,-36.9005 4.5675,0 18.0874,-15.5761 22.8378,-26.3309 4.0196,-9.2714 5.2985,-15.576 6.5774,-32.8209 1.8269,-25.7747 9.1351,-77.8802 37.2715,-261.6404 74.9087,-491.0163 91.1694,-604.6842 93.3618,-654.5646 2.7406,-58.781 -45.4934,-389.0302 -95.3715,-653.6375 C 5694.7353,483.52602 5544.0046,68.165006 5387.9756,-44.390462 c -47.6857,-34.48972 -191.2908,-95.310408 -335.9924,-142.223968 -58.8306,-19.09927 -52.2532,-16.31789 -138.855,-55.44332 l -76.7355,-34.48986 -3.2887,-15.5761 c -6.76,-33.93344 -23.5688,-79.54893 -31.2422,-85.48271 -1.8273,-1.48344 -10.597,-1.29807 -28.8673,0.18538 -166.9915,14.27804 -374.1776,13.90728 -544.0922,-1.29793 -22.6552,-2.03972 -47.1376,-4.07943 -54.263,-4.82123 l -13.3374,-1.11255 -7.3081,15.76149 z m 66.6868,5.19198 c 109.257,9.45681 202.4359,12.98011 316.9912,12.05294 94.0926,-0.92717 198.051,-5.56289 246.1021,-11.31114 8.039,-0.92717 9.6832,-0.55628 11.3277,2.59585 7.3081,13.90728 -175.3957,22.99332 -344.2142,17.05969 -105.6026,-3.70869 -271.8632,-14.09281 -281.9118,-17.61597 -4.385,-1.48345 0.9134,-8.52963 5.6637,-7.41708 2.1925,0.55628 23.0207,2.59599 46.0413,4.63571 z m -19.1839,23.17871 c 239.1594,20.95347 534.2261,20.95347 599.2687,0 2.9233,-0.92717 9.1352,11.31115 9.1352,17.80106 0,1.85434 -25.0304,8.3444 -44.7624,11.68205 -89.5249,15.20521 -258.7086,16.31776 -469.549,2.96688 -32.156,-2.03971 -76.3702,-5.37737 -98.4774,-7.41722 -21.9244,-2.03958 -41.4738,-3.70854 -43.4834,-3.70854 -4.385,0 -3.8368,-3.33765 2.1923,-17.43017 3.4715,-7.97364 4.385,-8.71529 8.7699,-7.78812 2.7405,0.55628 19.3665,2.22509 36.9061,3.89406 z m 616.9909,62.48951 c -1.2789,0.74166 -3.4712,1.48345 -4.9329,1.48345 -1.4616,0 -16.9914,1.66883 -34.3482,3.70854 -150.7307,17.43045 -367.4177,19.65555 -541.169,5.56303 -47.6857,-3.89406 -103.2278,-9.82784 -104.6894,-11.12577 -0.7307,-0.7418 0.7309,-6.86095 3.6542,-13.7219 4.7504,-12.0528 5.1157,-12.4237 10.5968,-11.49653 9.3179,1.66882 83.6784,8.34426 127.8928,11.31115 238.7939,16.31776 436.2967,13.16548 519.2443,-7.97336 l 19.732,-5.00661 3.1059,12.97997 c 2.3751,9.8277 2.558,13.16548 0.9135,14.27803 z m -665.2246,18.1721 c 211.0229,23.54947 460.2309,23.54947 647.3196,0 l 28.1366,-3.52316 80.5725,36.15868 c 44.2141,19.84078 88.2458,38.56916 97.7464,41.72156 113.6418,36.52944 202.0705,69.53585 276.0655,102.727638 39.0986,17.43031 82.2167,39.68184 83.4958,42.83411 0.548,1.29793 -4.0197,16.31776 -10.0489,33.5626904 -44.5796,126.8335116 -77.8319,277.4018716 -90.6211,409.4273716 -14.2508,145.37637 -9.6832,377.90435 9.1352,474.51283 2.558,13.16563 2.558,17.24493 0,43.57591 -4.2022,42.09245 -9.1352,120.52883 -18.4531,292.23623 -4.5676,83.6285 -9.3179,163.734 -10.4142,178.012 -4.5674,53.7744 -1.827,191.3627 9.5007,481.1883 4.7503,120.3435 7.4908,213.2434 6.3947,218.8064 -1.6444,9.086 3.1058,41.7215 9.5007,63.6021 24.8476,86.0391 24.4822,103.2839 -4.385,183.9457 -6.5773,18.3575 -13.1546,37.2712 -14.4338,41.907 l -2.5577,8.5296 -20.4628,3.1524 c -11.3278,1.8543 -56.8209,9.086 -101.0353,16.1322 -276.4308,44.5032 -416.382,57.854 -626.6742,59.7082 -215.4078,2.0397 -390.2555,-12.7946 -652.2528,-55.2578 -40.1948,-6.49 -90.2556,-14.4634 -111.4494,-17.8012 -21.0109,-3.1523 -38.5504,-5.9338 -38.7331,-6.1191 -4.0196,-2.7814 -2.0098,-10.384 2.7404,-10.384 11.3277,0 8.7699,-9.0861 -3.1057,-10.9404 -6.2121,-1.1126 -6.2121,-1.1126 -16.9916,-30.225 -26.4921,-72.8735 -27.5882,-100.3171 -6.76,-171.3364 11.3275,-38.9402 12.241,-47.4698 13.3374,-121.2706 0.5481,-34.119 2.7405,-102.5422 4.7502,-152.0518 12.0585,-297.0573 14.7991,-430.3809 10.2313,-497.8771 -1.6441,-24.4765 -6.2118,-105.5091 -10.2313,-179.8662 -9.1352,-167.8133 -13.8856,-243.28293 -17.7222,-282.77939 -3.8368,-39.86723 -3.8368,-38.75453 1.827,-73.24439 19.3666,-119.41642 19.9147,-359.73239 1.0961,-504.36711 -15.1642,-116.26388 -43.8489,-239.75975 -81.1203,-348.6065417 -7.6737,-22.4370503 -14.4338,-42.0924603 -14.9819,-43.7612803 -3.8368,-12.42384 193.6662,-94.754268 335.4444,-139.813618 38.916,-12.4237 61.5712,-21.88051 157.308,-65.64179 24.6649,-11.12578 44.7624,-20.3972 44.9452,-20.3972 0,-0.18538 14.7991,1.48345 32.8867,3.52316 z M 3583.5922,11.052858 c 41.6565,123.124972 72.5334,264.051012 85.1401,389.215552 15.3471,152.23733 7.3081,449.29469 -13.5202,491.38701 -10.414,21.13898 -28.5017,97.72117 -67.6004,285.56088 -6.9426,33.1917 -15.8951,75.2842 -19.9148,93.6417 -4.0193,18.3575 -13.1546,61.7478 -20.0972,96.4231 -39.4641,195.2568 -54.4458,258.3027 -66.687,281.4813 -10.9622,20.3972 -10.4141,25.0329 4.7503,50.993 23.5688,39.8672 23.2034,37.2712 25.2132,208.0514 5.6638,493.4267 9.135,580.2075 25.7613,632.313 15.3469,48.0262 18.8184,89.7477 7.8562,94.0128 -1.6444,0.5561 -3.4714,2.9667 -4.3849,5.1918 -1.279,3.3377 -10.2315,7.0464 -50.6089,21.1389 -75.6394,26.702 -183.0693,65.642 -233.313,84.7411 l -45.676,17.2449 -7.308,-4.0794 c -9.5007,-5.192 -18.8185,-19.2846 -20.0975,-29.6686 -0.3654,-4.2649 -1.6443,-17.4304 -2.9231,-29.1124 -2.3752,-26.331 -12.7894,-96.9793 -44.5799,-305.0308 -80.2071,-524.7642 -88.9768,-590.4061 -84.2264,-636.3925 17.9049,-172.0783 70.7064,-501.771 116.9304,-727.9946 101.9487,-500.28769 211.0231,-824.60299 333.0692,-990.562067 14.9816,-20.397195 63.0328,-70.277495 66.5041,-69.165085 1.2789,0.55627 8.4045,18.72837 15.7125,40.60901 z m 1814.7975,-27.44352 C 5552.5919,121.0122 5701.13,563.07518 5822.8109,1247.3085 c 40.0122,223.9982 79.6588,506.2214 77.1009,548.3137 -3.2885,53.4037 -22.1071,185.0582 -96.8331,674.0346 -25.5784,167.0717 -32.1557,213.7997 -33.9828,239.389 -1.6445,23.7349 -4.5677,32.8209 -13.3374,42.0923 -12.0585,12.7947 -12.7892,12.9802 -42.022,1.4835 -46.5894,-18.1721 -146.5284,-54.5162 -266.7476,-96.9793 -26.3093,-9.2715 -36.7235,-13.9072 -38.3677,-16.6887 -1.2791,-2.0398 -3.6543,-5.9336 -5.6638,-8.7151 -7.6735,-10.9403 -3.1062,-47.4699 11.3277,-93.8272 11.6929,-37.0858 16.0779,-98.2773 19.5491,-269.7992 0.5482,-27.6291 1.2789,-66.3837 1.8271,-86.2247 0.5481,-19.8408 1.827,-119.2307 2.9233,-220.6604 2.1924,-223.813 1.6443,-218.4354 25.5786,-259.4153 15.347,-26.3309 15.7125,-30.4104 4.5676,-52.6619 -12.6066,-25.4038 -25.0305,-78.4365 -67.0524,-284.0772 -10.0488,-48.9533 -19.0011,-91.973 -19.9146,-95.496 -0.9136,-3.5232 -8.7699,-40.2382 -17.357,-81.589 -37.2715,-178.7535 -58.8306,-271.0972 -67.6005,-290.19646 -23.0206,-48.95328 -31.9731,-320.05062 -16.2604,-487.67832 11.6929,-126.27724 45.6758,-282.4085 86.7842,-399.9705717 5.1157,-14.6487999 10.0487,-29.2977303 10.9622,-32.6353803 2.3751,-7.97364 2.5579,-7.97364 20.0974,7.60247 z M 3746.5641,2412.1738 c 20.6456,3.1524 70.341,11.1258 110.5359,17.6158 376.918,61.0063 673.8118,70.2777 1016.747,31.3375 60.4749,-6.8609 123.8731,-15.9468 219.2446,-31.3375 46.7721,-7.6025 99.0254,-15.9469 116.017,-18.5428 17.1741,-2.4106 32.7039,-5.0066 34.8963,-5.5629 3.654,-0.7418 3.654,-0.5563 1.4617,13.5363 -1.0963,7.7879 -2.7405,18.9138 -3.2887,24.662 l -1.2789,10.5695 -15.8953,2.9669 c -535.8703,102.7277 -1009.8041,110.1448 -1469.3044,23.1786 -49.1473,-9.2715 -45.6759,-8.1588 -45.6759,-15.2051 0,-5.563 -3.8369,-35.7878 -6.5774,-52.662 -1.0963,-6.8608 -0.7307,-7.6025 2.1925,-7.0462 2.0097,0.5563 20.2801,3.3377 40.9256,6.4899 z m 1490.8635,94.198 c 0,10.1987 0.5481,24.6622 1.0963,32.2647 l 1.2788,13.9072 -46.4068,7.6026 c -536.4185,89.0059 -950.6081,91.6019 -1435.8696,9.0859 l -46.5894,-7.9733 0.7309,-27.629 c 0.3653,-15.3907 0.7308,-27.9997 0.9135,-28.1853 0.1826,-0.1853 8.4044,1.2982 18.453,3.3378 325.761,63.973 707.2466,79.92 1070.6447,44.1321 127.1618,-12.4237 283.5563,-35.2316 398.2943,-58.0392 17.1742,-3.5232 32.5214,-6.3047 34.3483,-6.49 2.7406,-0.1856 3.106,1.8542 3.106,17.9865 z m 8.5872,97.7211 c 4.2021,37.6422 5.481,36.1587 -36.9062,48.7678 -124.2387,37.2713 -589.7681,74.5426 -818.5134,65.4566 -345.8583,-13.5364 -597.6243,-41.3507 -676.1869,-74.5425 l -13.8855,-5.9337 1.0961,-7.6026 c 0.5483,-4.0795 1.4617,-14.0927 2.1924,-22.066 0.9136,-12.053 1.6445,-14.2781 4.385,-14.2781 1.8271,0 33.0695,5.0066 69.6103,11.1257 179.5978,29.8541 293.7877,42.8341 461.1443,52.291 56.6383,3.1522 294.5187,3.1522 356.2727,0 209.3787,-10.9403 412.3626,-33.0065 604.7497,-66.0127 48.0513,-8.3444 43.4835,-9.6424 46.0415,12.7945 z M 3552.35,2693.2844 c 5.1157,23.3641 9.1351,43.3903 8.7697,44.6883 -2.1925,6.861 -49.1474,32.2648 -101.9488,55.0724 -50.4262,21.8807 -198.0509,78.8074 -199.3298,76.7677 -0.1828,-0.3709 -4.0195,-8.9006 -8.2218,-19.0993 -4.3849,-10.1986 -14.799,-32.6354 -23.386,-49.8802 -8.4044,-17.245 -14.9818,-31.523 -14.7991,-31.894 1.0964,-0.9271 108.7089,-41.3506 145.7978,-54.5161 20.6455,-7.4171 42.7527,-15.3906 49.33,-17.8012 62.4847,-22.8078 130.9987,-46.728 132.4603,-46.3573 0.9135,0.1856 6.0293,19.6556 11.3277,43.0197 z m 1903.7742,-26.8873 c 25.9439,9.2715 52.9841,18.9137 59.9269,21.5098 7.1254,2.4106 18.6357,6.49 25.5783,8.9006 18.4531,6.1192 91.352,32.6356 117.8441,42.8342 3.4714,1.2979 12.972,4.8211 21.0111,7.7879 8.0389,3.1524 24.1168,9.0861 35.6271,13.5362 l 21.1937,7.9735 -12.9719,25.9601 c -7.1255,14.4634 -17.7224,37.4566 -23.7516,51.1784 -5.8466,13.7218 -10.9622,25.2185 -10.9622,25.4038 -0.9137,1.8543 -155.6636,-57.8538 -203.1667,-78.4365 -44.0316,-19.0991 -99.2082,-47.8407 -99.2082,-51.7347 0,-0.1853 4.5675,-20.5826 10.0488,-45.2446 5.481,-24.8476 10.0485,-45.4302 10.0485,-45.8011 0,-1.2979 0.5481,-1.1125 48.7821,16.1324 z m -1881.4845,127.946 c 2.558,11.6822 7.1255,26.331 10.597,33.5628 3.2886,7.2317 5.8464,13.3509 5.6638,13.5362 -36.9063,28.5561 -164.9817,88.2642 -273.8732,127.5751 l -17.5396,6.3047 -2.9232,-9.4569 c -1.6442,-5.192 -7.8563,-22.2514 -13.7027,-37.6421 -10.4142,-27.4434 -10.7795,-28.3706 -6.9429,-29.4831 69.4276,-21.6953 243.179,-94.7543 283.3738,-119.2309 5.1157,-2.9669 9.5006,-5.5629 10.0487,-5.5629 0.5481,-0.1855 2.9231,9.0861 5.2983,20.3971 z m 1840.3761,0.9273 c 44.5796,22.8077 135.5662,60.079 228.0144,93.6415 16.626,6.1192 31.0596,11.3113 32.3385,11.8676 1.4617,0.3708 -0.3654,7.2317 -5.6637,20.768 -4.2022,10.9403 -10.0488,27.0726 -12.972,35.7879 -2.9233,8.7151 -5.8466,16.5031 -6.5773,17.4302 -1.4617,1.8543 -47.5031,-14.6488 -99.3909,-35.4169 -61.2058,-24.6621 -118.0267,-52.1055 -166.8087,-80.2907 -29.9633,-17.4304 -27.7709,-13.9072 -19.1839,-32.8211 4.2022,-9.0859 8.9526,-22.9932 10.5969,-31.152 1.6443,-8.1589 3.2885,-15.9469 3.6541,-17.0595 0.548,-1.6688 3.6541,-0.5563 10.2314,3.3377 5.2983,3.1523 16.9915,9.4569 25.7612,13.9073 z m -1782.459,128.8731 c 14.6164,29.8541 25.944,54.7017 25.0305,55.6288 -2.9231,2.7814 -56.4555,31.8937 -93.9097,50.993 -78.0146,39.4963 -142.8745,66.5689 -195.3105,81.2178 -28.5017,7.9735 -24.2995,10.384 -33.4348,-18.7283 -15.347,-48.5823 -25.5785,-86.0391 -23.9341,-87.5226 0.9134,-0.7416 10.7795,-4.6357 21.7417,-8.5296 90.4384,-31.5229 194.2143,-79.1783 257.6125,-117.933 8.0389,-5.0065 14.799,-9.0859 14.9816,-9.0859 0.3654,0 12.6066,24.2911 27.2228,53.9598 z m 1738.2446,-35.7879 c 59.196,34.4899 144.7016,73.43 226.5529,103.2841 18.6358,6.6754 35.9926,12.98 38.5504,14.0925 l 4.7503,1.8543 -9.866,33.7482 c -11.1449,38.7546 -22.2898,73.9861 -24.1169,76.0259 -1.827,2.0396 -42.7527,-9.8277 -74.3605,-21.5098 -62.85,-23.1786 -136.8451,-58.2247 -217.6002,-103.0985 l -24.1169,-13.3509 26.492,-53.9599 26.4921,-53.7743 4.9329,3.3376 c 2.7405,1.8544 12.7894,7.788 22.2899,13.3508 z" />
</svg>
