<?xml version="1.0" encoding="UTF-8" standalone="no"?>
<!-- Created with Inkscape (http://www.inkscape.org/) -->

<svg
   xmlns:dc="http://purl.org/dc/elements/1.1/"
   xmlns:cc="http://creativecommons.org/ns#"
   xmlns:rdf="http://www.w3.org/1999/02/22-rdf-syntax-ns#"
   xmlns:svg="http://www.w3.org/2000/svg"
   xmlns="http://www.w3.org/2000/svg"
   version="1.0"
   width="300pt"
   height="200pt"
   viewBox="0 0 7500 3306"
   id="svg3409">
  <defs
     id="defs3493" />
  <metadata
     id="metadata3411">
Created by potrace 1.10, written by Peter Selinger 2001-2011
<rdf:RDF>
  <cc:Work
     rdf:about="">
    <dc:format>image/svg+xml</dc:format>
    <dc:type
       rdf:resource="http://purl.org/dc/dcmitype/StillImage" />
    <dc:title></dc:title>
  </cc:Work>
</rdf:RDF>
</metadata>
  <g
     transform="matrix(0.1,0,0,-0.1,0,2500)"
     id="g3413"
     style="fill:#000000;stroke:none">
    <path
       d="m 8475,22124 c -656,-40 -1206,-133 -1346,-227 -53,-35 -131,-267 -212,-631 l -34,-149 -434,-179 c -301,-124 -503,-200 -659,-249 -841,-266 -1684,-617 -1938,-809 -886,-669 -1731,-3057 -2422,-6847 -195,-1073 -421,-2590 -437,-2943 -10,-234 59,-735 476,-3420 185,-1188 241,-1576 241,-1657 0,-112 32,-187 115,-268 153,-148 427,-785 621,-1439 125,-424 172,-556 199,-556 104,0 556,156 912,316 295,132 953,473 953,494 0,4 -104,217 -231,475 l -230,467 -101,444 -100,444 23,48 c 49,98 26,302 -65,575 -74,225 -99,856 -126,3247 -6,476 -14,892 -20,924 -21,127 -57,221 -141,367 -57,98 -58,113 -13,182 62,94 138,409 364,1498 55,262 110,525 124,585 14,60 59,271 101,469 171,813 307,1395 318,1365 11,-31 38,-452 97,-1505 27,-495 54,-958 60,-1029 13,-164 13,-727 0,-1086 -5,-151 -17,-473 -25,-715 -8,-242 -22,-600 -30,-795 -12,-309 -19,-520 -39,-1195 -4,-135 -6,-147 -60,-334 -119,-411 -114,-548 39,-961 79,-213 91,-256 114,-405 54,-352 58,-543 18,-890 -42,-356 -40,-330 -21,-349 186,-187 1480,-360 3354,-451 909,-43 1093,-42 2105,10 1717,90 2841,242 3129,423 l 39,24 -7,97 c -3,53 -15,166 -26,251 -62,467 -22,878 125,1274 159,428 165,562 46,976 -65,223 -69,261 -75,695 -3,198 -12,522 -21,720 -69,1631 -83,2324 -56,2755 11,190 39,671 61,1070 38,687 72,1224 87,1383 l 7,72 28,-110 c 55,-218 139,-590 248,-1100 60,-286 124,-578 140,-650 16,-71 77,-359 135,-640 221,-1062 284,-1321 351,-1442 44,-80 44,-111 -5,-187 -152,-241 -157,-282 -166,-1206 -14,-1621 -40,-2677 -75,-3075 -13,-140 -14,-147 -60,-290 -83,-258 -102,-456 -53,-551 l 22,-40 -100,-445 -100,-444 -234,-473 -234,-472 37,-24 c 509,-319 1780,-855 1851,-781 16,17 69,178 173,525 198,663 495,1365 612,1447 87,61 122,145 135,320 12,156 57,464 245,1673 467,3009 492,3201 457,3520 -108,978 -383,2656 -632,3865 -665,3222 -1422,5186 -2230,5785 -241,179 -1023,507 -1809,759 -214,69 -1158,428 -1228,467 -2,1 -21,78 -42,171 -75,331 -149,560 -193,601 -153,143 -1395,281 -2132,236 z m 1005,-99 c 564,-44 1051,-142 1079,-218 43,-112 3,-252 -105,-374 -28,-31 -31,-32 -76,-23 -427,84 -2297,94 -2868,15 -37,-6 -149,121 -282,318 -63,93 -64,91 50,127 268,84 704,144 1257,174 150,8 760,-4 945,-19 z m -2304,-355 c 20,-30 92,-122 159,-205 67,-82 159,-199 205,-260 46,-60 120,-155 164,-210 98,-123 626,-658 717,-726 77,-58 109,-100 174,-229 49,-97 165,-366 165,-381 0,-10 -118,47 -255,124 -282,158 -621,413 -920,694 -240,224 -615,614 -615,638 0,67 150,628 164,614 2,-2 21,-29 42,-59 z m 3492,-187 c 13,-49 39,-155 57,-237 l 34,-149 -258,-381 c -413,-609 -404,-597 -415,-579 -85,152 180,938 409,1214 47,57 98,130 113,161 35,73 33,74 60,-29 z m -1133,-93 c 368,-12 667,-33 802,-56 l 31,-6 -28,-42 c -71,-105 -251,-546 -289,-708 -14,-58 -40,-120 -87,-208 -204,-382 -727,-1430 -875,-1753 l -54,-118 -2,128 c -10,557 -42,788 -129,919 -19,28 -72,141 -118,250 -136,326 -210,456 -292,518 -116,88 -683,676 -809,839 -157,204 -153,192 -68,200 445,40 1310,57 1918,37 z M 7625,20324 c 326,-292 645,-514 1002,-697 l 198,-102 32,-65 c 64,-130 83,-309 83,-806 -66.0491,-593.083 -35.688,-431.108 -230,-889 -221,-521 -357,-939 -394,-1210 -22,-164 -33,-1277 -41,-4230 -3,-1089 -8,-2081 -10,-2205 -2,-124 -5,-1002 -5,-1952 l 0,-1727 -22,-3 c -35,-5 -38,-48 -4,-48 19,0 26,-5 26,-20 0,-19 -5,-20 -117,-14 -923,44 -1585,112 -2451,249 -191,31 -506,80 -701,111 -393,61 -367,55 -373,88 -4,22 -1,25 26,28 54,5 49,45 -7,53 l -45,7 -51,140 c -159,433 -163,553 -36,973 50,165 55,208 60,501 5,265 29,983 40,1179 3,55 12,296 20,535 8,239 20,568 26,730 15,416 16,1015 1,1195 -6,83 -30,479 -52,880 -50,910 -75,1318 -97,1555 -22,246 -22,267 10,470 101,661 104,1873 6,2655 -82,655 -270,1444 -483,2021 l -54,146 32,19 c 273,166 1062,483 1766,708 189,61 382,133 620,231 285,118 347,140 363,131 21,-14 35,-7 46,22 4,11 27,28 52,37 l 44,18 310,-313 c 171,-171 355,-352 410,-401 z m 3242,687 c -30,-57 -31,-62 -15,-78 17,-17 22,-13 62,42 14,19 25,16 418,-141 246,-99 508,-196 673,-249 452,-145 817,-279 1162,-425 194,-82 593,-276 593,-289 0,-4 -18,-56 -39,-113 -255,-687 -455,-1576 -525,-2328 -73,-785 -41,-2089 64,-2554 7,-31 7,-67 1,-109 -22,-140 -53,-609 -121,-1842 -22,-401 -45,-786 -50,-854 -13,-158 -13,-582 0,-961 27,-807 42,-1217 60,-1665 11,-269 23,-638 26,-820 6,-393 10,-432 74,-652 114,-398 109,-518 -42,-932 -51,-140 -65,-171 -82,-173 -25,-4 -35,-45 -13,-54 13,-5 13,-44 0,-44 -11,0 -482,-73 -833,-129 -1489,-238 -2694,-330 -3824,-293 l -109,3 7,3917 c 4,2154 9,3942 11,3972 2,30 6,534 10,1120 7,1297 6,1281 58,1385 85,173 481,662 1132,1400 121,138 264,302 317,366 53,64 159,182 235,263 148,158 160,179 134,222 -15,25 -15,37 1,173 10,80 21,228 25,329 l 6,183 -78,173 -77,174 39,53 c 42,57 236,341 496,726 154,228 158,232 183,221 13,-6 23,-14 21,-17 z m -842,-940 c 15,-41 61,-149 102,-240 l 75,-166 -5,-140 c -7,-175 -28,-386 -38,-379 -18,10 -191,314 -285,499 l -102,200 106,207 107,207 7,-57 c 3,-31 18,-90 33,-131 z m -6052,-412 c 401,-1122 573,-2316 529,-3676 -19,-572 -69,-1062 -116,-1135 -55,-86 -216,-785 -562,-2438 -261,-1248 -320,-1498 -390,-1637 -61,-120 -59,-145 22,-279 126,-212 131,-251 139,-999 27,-2612 51,-3254 135,-3512 90,-275 108,-498 44,-536 -8,-4 -14,-17 -14,-27 0,-11 -4,-20 -10,-20 -23,0 -1129,-391 -1532,-541 -255,-96 -268,-99 -295,-85 -87,45 -122,116 -133,274 -11,158 -41,356 -300,2027 -273,1757 -399,2634 -416,2890 -22,349 358,2758 672,4260 597,2848 1257,4666 1970,5422 57,60 183,173 194,173 3,0 31,-72 63,-161 z m 9987,54 c 744,-707 1438,-2587 2054,-5558 327,-1578 684,-3884 655,-4225 -27,-314 -146,-1131 -439,-3021 -235,-1513 -266,-1720 -280,-1895 -9,-113 -29,-165 -82,-209 -62,-52 -55,-53 -302,40 -256,96 -794,288 -1263,451 -224,78 -313,113 -313,124 0,8 -9,21 -19,27 -65,41 -49,245 39,518 71,219 94,556 115,1685 3,162 7,399 10,525 3,127 7,507 10,845 11,1270 8,1245 146,1474 82,137 83,162 20,281 -67,124 -151,479 -390,1640 -33,160 -71,340 -85,400 -14,61 -66,304 -116,540 -207,979 -311,1407 -360,1492 -31,53 -72,352 -100,728 -30,399 -22,1417 16,1819 69,755 269,1653 514,2316 15,41 30,83 34,93 8,26 29,12 136,-90 z m -4160,-95 c 81,-166 188,-355 297,-526 l 85,-133 -124,-127 c -68,-70 -180,-195 -249,-277 -69,-83 -203,-238 -298,-345 -1774.3125,-2422.455 -564.6382,-33.665 -21,1078 162,331 161,328 180,282 13,-31 25,-36 50,-20 13,8 11,17 -14,63 l -29,54 23,42 c 31,54 26,59 100,-91 z M 5445,6560 c 869,-138 1887,-260 2167,-260 4,0 8,-286 8,-635 l 0,-636 -32,5 c -18,3 -89,8 -158,11 -1206,58 -2410,216 -2735,360 l -58,25 7,88 c 4,48 16,155 27,237 38,294 35,507 -10,815 l -17,116 181,-28 c 99,-15 378,-59 620,-98 z m 7652,91 c -49,-241 -57,-649 -20,-936 12,-93 25,-195 28,-226 l 6,-56 -58,-25 c -355,-158 -1409,-292 -2913,-373 -157,-8 -324,-17 -372,-21 l -88,-6 0,635 0,634 148,7 c 343,15 916,63 1287,106 409,49 571,73 1620,240 373,59 369,59 362,21 z M 8133,6273 c 119,-6 181,-23 82,-23 -32,0 -47,-5 -51,-15 -10,-25 16,-45 56,-45 31,0 39,-4 44,-22 4,-18 2,-814 -3,-1028 l -1,-35 -63,0 c -60,0 -62,-1 -65,-27 l -3,-28 65,0 c 43,0 66,-4 66,-11 0,-9 -20,-10 -67,-6 -154.4225,24.4866 -307.4927,20.8454 -437,17 l -56,0 0,621 0,622 153,-7 c 83,-3 209,-9 280,-13 z m 1467,-628 0,-615 -625,0 c -383,0 -625,4 -625,9 0,6 17,11 38,13 30,2 38,7 40,26 3,22 1,23 -53,26 -20,1 -20,9 -23,544 l -2,542 49,0 c 94,0 92,56 -2,63 -29,2 230,4 576,5 l 627,2 z M 3770,5365 c 0,-3 46,-206 101,-452 l 101,-448 219,-437 219,-437 -138,-76 c -555,-307 -1150,-565 -1521,-660 -85,-22 -66,-62 -216,440 -155,519 -289,863 -489,1264 -42,83 -76,155 -76,159 0,5 82,39 183,76 100,37 209,78 242,91 33,13 177,64 320,115 143,50 289,102 325,115 343,126 730,258 730,250 z m 10780,-195 c 215,-74 682,-241 820,-293 36,-14 142,-53 235,-87 94,-35 171,-64 173,-65 2,-2 -31,-71 -73,-155 -202,-404 -348,-780 -490,-1260 -82,-282 -144,-470 -154,-470 -57,0 -418,122 -662,224 -330,137 -1059,503 -1059,531 0,3 99,204 220,447 l 220,443 95,430 c 53,237 98,436 100,442 3,9 55,-5 177,-48 95,-33 274,-96 398,-139 z"
       id="path3449" />
    <path
       d="m 8486,19420 c -209,-67 -198,-363 17,-421 383.1416,-30.299 357.4472,526.081 -17,421 z m 145,-83 c 143,-95 39,-325 -121,-268 -64,23 -74,31 -97,81 -62,135 95,270 218,187 z"
       id="path3451" />
    <path
       d="M 6533,11568 C 6521,11553 5011,8922 4986,8873 l -16,-33 37,-23 c 81,-50 361,-207 370,-207 11,0 1565,2705 1567,2728 1,10 -65,54 -194,128 -212,124 -203,119 -217,102 z m 182,-174 132,-77 -219,-381 c -120,-209 -456,-794 -745,-1298 -290,-505 -531,-918 -536,-918 -20,0 -267,146 -264,156 5,24 1482,2593 1491,2594 5,0 69,-34 141,-76 z"
       id="path3453" />
    <path
       d="m 8704,17082 c -110,-52 -153,-182 -96,-293 101,-201 406,-129 406,96 0,157 -167,263 -310,197 z m 190,-53 c 94,-64 103,-192 19,-271 -154,-146 -385,77 -248,240 56,66 157,80 229,31 z"
       id="path3455" />
    <path
       d="m 8704,15221 c -207,-94 -135,-410 94,-411 180,-1 280,200 172,348 -54,75 -176,104 -266,63 z m 153,-32 c 66,-25 113,-93 113,-164 0,-172 -222,-238 -316,-95 -91,137 51,317 203,259 z"
       id="path3457" />
    <path
       d="m 8729,13425 c -130,-42 -186,-197 -115,-319 109,-186 401,-103 400,114 -2,149 -143,250 -285,205 z m 148,-51 c 105,-50 126,-206 38,-283 -74,-64 -172,-61 -240,9 -135,138 26,357 202,274 z"
       id="path3459" />
    <path
       d="m 8750,11571 c -204,-65 -232,-320 -45,-407 255,-120 442,262 190,389 -38,19 -112,28 -145,18 z m 127,-57 c 85,-41 122,-169 71,-244 -68,-100 -190,-115 -271,-33 -138,138 22,361 200,277 z"
       id="path3461" />
    <path
       d="m 10916,11470 c -103,-60 -193,-113 -198,-118 -11,-11 1550,-2742 1567,-2742 13,0 375,207 393,225 15,14 -1541,2745 -1563,2744 -5,0 -95,-49 -199,-109 z m 919,-1290 c 407,-710 741,-1296 743,-1303 1,-6 -58,-46 -132,-89 l -135,-76 -59,101 c -550,948 -1432,2501 -1424,2509 14,14 245,147 257,147 6,1 343,-580 750,-1289 z"
       id="path3463" />
    <path
       d="m 8745,9650 c -207,-101 -138,-411 91,-411 127,0 215,89 215,217 0,155 -168,261 -306,194 z m 160,-39 c 118,-54 142,-196 49,-283 -151,-141 -372,49 -259,223 45,70 134,95 210,60 z"
       id="path3465" />
    <path
       d="m 8760,7797 c -105,-34 -169,-179 -124,-285 91,-219 418,-154 416,83 -1,150 -144,249 -292,202 z m 145,-46 c 179,-82 114,-345 -81,-329 -61,5 -96,26 -131,78 -96,140 58,322 212,251 z"
       id="path3467" />
    <path
       d="m 9672,19177 c -176,-64 -194,-311 -28,-396 145.8453,-40.204 307.2832,51.712 298.405,229.04 -6.5054,64.013 -52.0069,103.919 -65.4237,120.774 C 9799.6161,19190.219 9752,19206 9672,19177 z m 166,-85 c 97,-62 58,-243 -58,-269 -29,-7 -91,-2 -100,7 -3,3 -14,10 -25,16 -83.8165,74.156 -65.1728,106.716 -51,176 16,90 144,128 234,70 z"
       id="path3469" />
    <path
       d="m 8578,6166 c -190,-70 -210,-313 -35,-401 208,-104 413,150 265,329 -56,68 -157,100 -230,72 z m 160,-63 c 152,-112 43,-362 -138,-313 -205,55 -160,351 53,337 37,-2 67,-10 85,-24 z"
       id="path3471" />
    <path
       d="m 8578,5596 c -115,-42 -177,-148 -150,-253 64,-239 389,-223 429,21 23,144 -144,283 -279,232 z m 153,-59 c 161,-108 54,-367 -131,-317 -197,53 -164,340 40,340 43,0 65,-6 91,-23 z"
       id="path3473" />
    <path
       d="m 29590,21538 c -21,-46 -78,-174 -125,-284 -102,-236 -74,-203 -237,-276 -618,-277 -738,-326 -978,-402 -791,-251 -1615,-590 -1889,-779 -906,-624 -1790,-3131 -2490,-7062 -173,-971 -373,-2322 -406,-2745 -15,-189 59,-721 484,-3465 192,-1238 220,-1433 231,-1581 13,-179 51,-267 141,-330 111,-77 411,-790 608,-1446 125,-415 162,-522 184,-526 111,-22 893,283 1397,545 170,89 450,242 467,255 8,6 -54,142 -220,476 l -230,467 -103,450 -102,449 21,41 c 49,94 29,295 -53,550 -85,261 -114,980 -135,3350 -8,950 -11,967 -163,1220 -51,84 -52,109 -8,188 64,114 130,386 355,1462 288,1371 534,2486 547,2472 9,-9 54,-708 104,-1627 17,-305 40,-701 51,-880 27,-416 10,-1223 -56,-2765 -9,-192 -18,-512 -21,-710 -6,-437 -12,-489 -69,-686 -126,-427 -121,-561 41,-997 146,-396 186,-806 124,-1277 -12,-88 -22,-203 -23,-255 l -2,-95 84,-42 c 316,-157 1262,-287 2751,-378 631,-38 1438,-69 1610,-61 63,3 194,8 290,11 1870,60 3411,235 3817,432 96,47 92,13 43,433 -29,253 -32,333 -21,490 20,262 57,482 102,610 222,628 225,674 74,1180 -34,113 -38,139 -41,265 -18,620 -27,887 -39,1195 -8,195 -22,553 -30,795 -8,242 -20,564 -25,715 -13,358 -13,921 0,1086 5,71 30,498 55,949 62,1126 93,1595 105,1595 13,0 125,-485 305,-1325 63,-291 127,-593 144,-670 17,-77 73,-345 125,-595 188,-905 262,-1205 326,-1328 49,-93 49,-92 -1,-177 -161,-274 -163,-293 -167,-1239 -2,-247 -4,-452 -7,-456 -2,-4 -5,-173 -6,-376 -5,-912 -37,-1960 -70,-2268 -7,-65 -25,-146 -54,-237 -84,-268 -103,-444 -57,-546 l 24,-52 -100,-443 -101,-443 -230,-467 c -127,-257 -231,-471 -231,-475 0,-20 565,-317 867,-457 374,-173 890,-356 1002,-356 22,0 75,154 207,595 91,309 160,501 281,788 91,215 268,577 283,577 25,0 99,84 125,142 22,50 29,84 36,177 10,139 50,420 204,1411 410,2648 499,3261 511,3530 15,317 -249,2101 -522,3525 -681,3557 -1506,5796 -2360,6403 -261,186 -1047,514 -1839,767 -322,103 -286,88 -760,299 l -420,186 -18,84 c -37,182 -129,429 -171,461 -10,8 -79,5 -227,-6 -878,-71 -2018,-66 -2909,12 -124,11 -258,22 -297,26 l -73,6 -40,-85 z m 365,-27 c 1020,-87 2361,-89 3082,-5 l 52,6 21,-43 c 37,-71 70,-167 101,-293 31,-123 30,-135 -11,-136 -8,0 -93,-9 -188,-20 -825,-94 -2011,-106 -2962,-30 -267,21 -565,53 -573,60 -5,4 25,86 66,181 131,301 136,311 155,305 9,-3 125,-14 257,-25 z m -415,-556 c 1131,-131 2556,-133 3589,-5 l 154,19 441,-195 c 242,-107 483,-208 535,-225 622,-197 1106,-375 1511,-554 214,-94 450,-214 457,-231 3,-7 -22,-88 -55,-181 -244,-684 -427,-1498 -496,-2208 -78,-789 -53,-2037 50,-2559 14,-71 14,-93 0,-235 -23,-227 -50,-650 -101,-1576 -25,-451 -49,-881 -55,-955 -29,-407 -22,-753 50,-2595 28,-708 41,-1165 34,-1176 -13,-22 18,-235 53,-352 136,-464 134,-557 -24,-992 -36,-99 -72,-201 -79,-226 l -14,-46 -112,-17 c -62,-10 -311,-49 -553,-87 -1697,-269 -2685,-348 -3982,-319 -1036,24 -1769,96 -3018,295 -220,35 -494,78 -610,96 -115,17 -211,32 -212,33 -22,15 -11,56 15,56 62,0 48,49 -17,59 -34,6 -34,6 -93,163 -145,393 -151,540 -37,926 62,211 67,254 73,647 3,182 17,611 30,955 67,1662 77,2185 52,2555 -9,132 -34,569 -56,970 -50,905 -76,1312 -97,1525 -21,215 -21,209 10,395 97,592 110,1793 26,2550 -74,668 -242,1413 -464,2050 -42,121 -79,227 -82,236 -21,67 1059,511 1836,754 212,67 327,114 861,354 135,60 247,110 250,110 3,1 61,-6 130,-14 z m -3055,-1521 c 242,-719 392,-1426 459,-2154 74,-800 24,-2326 -84,-2540 -57,-113 -153,-513 -371,-1545 -39,-181 -88,-409 -109,-505 -22,-96 -71,-328 -109,-515 -216,-1053 -298,-1393 -365,-1518 -60,-110 -57,-135 26,-275 134,-223 131,-196 143,-1477 15,-1575 46,-2601 86,-2865 5,-36 28,-121 50,-190 84,-259 103,-484 43,-507 -9,-3 -19,-16 -24,-28 -7,-18 -56,-38 -277,-114 -414,-144 -1002,-354 -1277,-457 l -250,-93 -40,22 c -52,28 -103,104 -110,160 -2,23 -9,94 -16,157 -13,142 -70,523 -244,1645 -439,2831 -487,3185 -461,3428 99,943 387,2706 640,3930 553,2671 1152,4435 1807,5320 95,129 359,402 381,395 6,-3 53,-126 102,-274 z m 9916,203 c 746,-655 1471,-2599 2093,-5617 308,-1492 672,-3817 652,-4155 -18,-288 -121,-998 -530,-3635 -140,-901 -176,-1153 -186,-1291 -9,-128 -25,-177 -73,-227 -66,-69 -70,-70 -230,-8 -255,98 -802,294 -1460,523 -144,50 -201,75 -210,90 -7,11 -20,32 -30,46 -42,60 -18,261 61,507 86,266 110,891 138,3545 7,725 12,755 135,965 83,140 86,167 29,275 -66,125 -145,450 -340,1390 -44,215 -94,453 -111,530 -17,77 -81,379 -144,670 -209,978 -304,1377 -351,1473 -124,255 -174,1726 -88,2627 64,681 250,1523 475,2157 28,79 55,158 60,176 13,43 14,43 110,-41 z M 27360,6540 c 113,-17 385,-60 605,-95 2063,-329 3688,-379 5565,-169 331,37 678,86 1200,169 256,41 542,86 635,100 94,13 179,27 190,30 21,4 21,4 4,-113 -46,-314 -48,-523 -10,-817 11,-82 23,-189 27,-236 l 6,-85 -58,-26 c -512,-229 -3229,-465 -4679,-408 -1870,74 -3235,224 -3660,401 l -76,31 6,52 c 3,28 17,152 31,276 36,311 30,573 -22,887 -6,37 -4,41 12,38 11,-3 111,-18 224,-35 z m -1014,-1736 101,-449 217,-434 c 120,-238 214,-437 209,-442 -16,-15 -309,-172 -514,-275 -475,-237 -886,-400 -1181,-468 -31,-7 -38,12 -183,499 -138,462 -276,816 -471,1209 -47,93 -83,170 -82,172 6,5 595,223 798,294 113,40 234,83 270,96 341,122 717,252 725,250 5,-1 55,-205 111,-452 z m 10371,365 c 315,-111 412,-145 483,-169 94,-31 503,-178 630,-226 19,-7 71,-26 115,-42 44,-17 132,-49 196,-73 l 115,-43 -66,-131 c -197,-389 -372,-839 -510,-1315 -58,-201 -129,-421 -139,-433 -10,-11 -234,53 -407,116 -344,125 -749,314 -1191,556 l -131,72 219,442 218,442 101,444 c 55,244 100,445 100,447 0,7 4,6 267,-87 z"
       id="path3475" />
  </g>
</svg>
