<?xml version="1.0" encoding="UTF-8" standalone="no"?>
<!-- Created with Inkscape (http://www.inkscape.org/) -->

<svg
   xmlns:dc="http://purl.org/dc/elements/1.1/"
   xmlns:cc="http://creativecommons.org/ns#"
   xmlns:rdf="http://www.w3.org/1999/02/22-rdf-syntax-ns#"
   xmlns:svg="http://www.w3.org/2000/svg"
   xmlns="http://www.w3.org/2000/svg"
   version="1.0"
   width="4000pt"
   height="2500pt"
   viewBox="0 0 4000 2500"
   id="svg3323">
  <defs
     id="defs3407" />
  <metadata
     id="metadata3325">
Created by potrace 1.10, written by Peter Selinger 2001-2011
<rdf:RDF>
  <cc:Work
     rdf:about="">
    <dc:format>image/svg+xml</dc:format>
    <dc:type
       rdf:resource="http://purl.org/dc/dcmitype/StillImage" />
    <dc:title></dc:title>
  </cc:Work>
</rdf:RDF>
</metadata>
  <g
     transform="matrix(0.1,0,0,-0.1,0,2500)"
     id="g3327"
     style="fill:#000000;stroke:none">
    <path
       d="m 8475,22123 c -486,-24 -957,-91 -1215,-173 -157,-49 -165,-58 -220,-225 -12,-38 -29,-78 -37,-87 -8,-9 -12,-21 -9,-27 8,-12 -48,-227 -64,-246 -6,-7 -8,-19 -5,-26 3,-8 -5,-61 -18,-118 l -24,-104 -434,-179 c -301,-124 -503,-200 -659,-249 -841,-266 -1684,-617 -1938,-809 -886,-669 -1731,-3057 -2422,-6847 -195,-1073 -421,-2590 -437,-2943 -10,-234 59,-735 476,-3420 185,-1188 241,-1576 241,-1657 0,-112 32,-187 115,-268 153,-148 427,-785 621,-1439 125,-424 172,-556 199,-556 104,0 556,156 912,316 295,132 953,473 953,494 0,4 -103,216 -230,473 -235,477 -250,514 -284,702 -2,17 -37,170 -77,342 l -72,312 24,48 c 49,99 26,302 -65,576 -71,214 -101,934 -121,2862 -15,1484 -6,1396 -161,1667 -62,108 -63,122 -18,191 62,94 138,409 364,1498 55,262 110,525 124,585 14,60 59,271 101,469 171,813 307,1395 318,1365 11,-31 38,-453 92,-1415 24,-445 52,-920 61,-1055 18,-268 16,-931 -6,-1460 -5,-146 -17,-452 -25,-680 -9,-228 -22,-586 -30,-795 -9,-209 -19,-533 -24,-720 l -9,-340 -56,-194 c -119,-411 -114,-548 39,-961 79,-213 91,-256 114,-405 54,-352 58,-543 18,-890 -42,-356 -40,-330 -21,-349 194,-195 1596,-375 3574,-460 747,-33 855,-32 1780,15 1781,88 2939,241 3234,427 l 39,24 -7,97 c -3,53 -15,166 -26,251 -62,468 -22,878 125,1274 159,428 165,562 46,976 -65,224 -69,261 -75,705 -3,204 -12,523 -20,710 -9,187 -22,538 -31,780 -8,242 -20,562 -25,710 -23,654 -23,932 -1,1275 11,179 32,534 46,790 39,711 74,1295 90,1502 8,103 15,195 16,205 2,52 129,-491 279,-1192 60,-286 124,-578 140,-650 16,-71 77,-359 135,-640 221,-1062 284,-1321 351,-1442 44,-80 44,-111 -5,-187 -152,-241 -158,-283 -166,-1201 -15,-1745 -45,-2869 -86,-3175 -5,-41 -27,-129 -49,-195 -83,-255 -102,-456 -52,-551 l 21,-41 -100,-444 -100,-444 -234,-473 -234,-472 37,-24 c 509,-319 1780,-855 1851,-781 16,17 69,178 173,525 198,663 495,1365 612,1447 87,61 122,145 135,320 12,156 57,464 245,1673 467,3009 492,3201 457,3520 -108,977 -383,2658 -632,3865 -665,3222 -1422,5186 -2230,5785 -241,179 -1023,507 -1809,759 -310,100 -1217,454 -1231,481 -4,8 -22,78 -39,155 -69,311 -150,562 -194,604 -155,146 -1328,275 -2131,234 z m 1005,-98 c 578,-45 1050,-142 1081,-222 13,-34 26,-34 -161,3 -950,190 -2075,193 -3009,8 -196,-39 -211,-38 -211,13 0,67 690,178 1350,217 140,8 766,-4 950,-19 z m -160,-175 c 414,-25 968,-100 1210,-163 l 47,-12 -14,-55 c -20,-78 -15,-76 -172,-51 -909,146 -2007,148 -2848,6 -81,-14 -152,-25 -158,-25 -7,0 -38,33 -69,72 l -57,73 78,17 c 287,64 686,114 1128,141 127,8 707,6 855,-3 z m -2144,-180 c 20,-30 92,-122 159,-205 67,-82 159,-199 205,-260 46,-60 120,-155 164,-210 98,-123 626,-658 717,-726 77,-58 109,-100 174,-229 49,-97 165,-366 165,-381 0,-5 -38,10 -85,33 -79,39 -85,45 -85,73 0,167 -567,885 -1393,1764 -104,110 -103,108 -77,177 6,15 12,25 14,23 2,-2 21,-29 42,-59 z m 2297,-90 c 306,-19 715,-64 965,-108 l 43,-7 -28,-32 c -27,-31 -30,-32 -75,-23 -427,84 -2318,94 -2868,14 -29,-4 -38,0 -52,20 l -17,24 62,11 c 546,94 1372,137 1970,101 z m -2173,-296 c 616,-667 1045,-1195 1164,-1432 35,-69 37,-69 -70,-4 -81,49 -94,61 -111,101 -83,197 -506,687 -1050,1217 l -207,201 13,59 c 8,32 18,70 23,84 l 10,25 31,-36 c 18,-20 106,-116 197,-215 z m 2290,105 c 310,-11 592,-32 742,-55 l 36,-5 -28,-43 c -71,-105 -251,-546 -289,-708 -14,-58 -40,-120 -87,-208 -204,-382 -727,-1430 -875,-1753 l -54,-118 -2,128 c -10,557 -42,788 -129,919 -19,28 -72,141 -118,250 -136,326 -210,456 -292,518 -186,140 -923,939 -942,1020 -10,45 1309,81 2038,55 z m 1120,-73 11,-54 -117,-168 c -166,-238 -435,-640 -484,-724 -53,-87 -52,-88 -29,18 11,48 25,110 30,137 12,57 64,145 187,320 75,106 384,524 389,525 1,0 7,-24 13,-54 z m -3385,-367 c 378,-383 663,-703 785,-883 l 34,-50 -48,34 c -248,178 -506,410 -868,780 l -260,265 6,44 c 3,24 11,61 16,83 l 11,39 27,-20 c 15,-10 149,-142 297,-292 z m 218,-547 c 371,-345 690,-573 1086,-776 l 196,-101 32,-65 c 64,-130 83,-309 83,-806 l 0,-361 c -134.9429,-212.809 -166.0824,-374.242 -230,-528 -222,-524 -356,-938 -395,-1215 -20,-148 -32,-1356 -40,-4245 -3,-1139 -8,-2131 -10,-2205 -2,-74 -4,-928 -4,-1897 l -1,-1762 -22,-3 c -35,-5 -38,-48 -4,-48 19,0 26,-5 26,-20 0,-19 -5,-20 -117,-14 -923,44 -1585,112 -2451,249 -191,31 -506,80 -701,111 -393,61 -367,55 -373,88 -4,22 -1,25 26,28 55,5 49,45 -8,53 -41,7 -46,10 -60,49 -203,567 -206,614 -62,1104 33,115 64,321 50,343 -6,10 9,498 31,1054 8,198 22,554 30,790 8,237 20,563 26,725 15,417 16,1015 1,1195 -6,83 -30,479 -52,880 -50,910 -75,1318 -97,1555 -22,246 -22,267 10,470 101,661 104,1873 6,2655 -82,655 -270,1444 -483,2021 l -54,146 32,19 c 273,166 1062,483 1766,708 189,61 382,133 620,231 285,118 347,140 363,131 21,-14 35,-7 46,22 4,11 27,28 52,38 l 44,18 236,-242 c 130,-133 311,-311 402,-395 z m 3324,609 c -30,-57 -31,-62 -15,-78 17,-17 22,-13 62,42 14,19 25,16 418,-141 246,-99 508,-196 673,-249 452,-145 817,-279 1162,-425 194,-82 593,-276 593,-289 0,-4 -18,-56 -39,-113 -255,-687 -455,-1576 -525,-2328 -73,-786 -41,-2089 64,-2554 7,-31 7,-67 1,-109 -22,-138 -55,-634 -116,-1752 -19,-352 -42,-748 -51,-880 -25,-359 -12,-983 51,-2565 30,-741 35,-908 35,-1105 1,-230 8,-283 73,-506 111,-380 105,-508 -45,-918 -51,-140 -65,-171 -82,-173 -25,-4 -35,-45 -13,-54 13,-5 13,-44 0,-44 -11,0 -482,-73 -833,-129 -981,-157 -1565,-224 -2365,-271 -316,-18 -1103,-33 -1339,-25 l -229,7 7,3917 c 4,2154 9,3939 11,3966 2,28 6,532 10,1120 7,1303 6,1286 58,1390 85,173 482,664 1132,1400 121,138 264,302 317,366 53,64 159,182 235,263 148,158 160,179 134,222 -15,25 -15,37 1,173 10,80 21,228 25,329 l 6,183 -78,173 -77,174 39,53 c 42,57 236,341 496,726 154,228 158,232 183,221 13,-6 23,-14 21,-17 z m -842,-940 c 15,-41 61,-149 102,-240 l 75,-166 -5,-140 c -7,-175 -28,-386 -38,-379 -18,10 -191,314 -285,499 l -102,200 106,207 107,207 7,-57 c 3,-31 18,-90 33,-131 z m -6052,-412 c 401,-1122 573,-2316 529,-3676 -19,-572 -69,-1062 -116,-1135 -55,-86 -216,-785 -562,-2438 -261,-1248 -320,-1498 -390,-1637 -61,-120 -59,-145 22,-279 125,-211 131,-252 138,-989 26,-2572 52,-3264 136,-3522 91,-277 108,-498 44,-536 -8,-4 -14,-17 -14,-27 0,-11 -4,-20 -10,-20 -23,0 -1129,-391 -1532,-541 -255,-96 -268,-99 -295,-85 -87,45 -122,116 -133,274 -11,158 -41,356 -300,2027 -273,1757 -399,2634 -416,2890 -22,349 358,2758 672,4260 597,2848 1257,4666 1970,5422 57,60 183,173 194,173 3,0 31,-72 63,-161 z m 9987,54 c 744,-707 1438,-2587 2054,-5558 327,-1576 684,-3884 655,-4225 -27,-312 -141,-1094 -430,-2960 -246,-1591 -274,-1781 -289,-1956 -9,-113 -29,-165 -82,-209 -62,-52 -55,-53 -302,40 -256,96 -794,288 -1263,451 -224,78 -313,113 -313,124 0,8 -9,21 -19,27 -65,41 -49,245 39,518 90,277 107,688 140,3425 12,906 9,883 136,1097 87,145 89,168 25,288 -67,124 -151,479 -390,1640 -33,160 -71,340 -85,400 -14,61 -66,304 -116,540 -207,979 -311,1407 -360,1492 -31,54 -72,351 -102,748 -17,229 -17,1357 0,1585 67,880 259,1791 532,2530 15,41 30,83 34,93 8,26 29,12 136,-90 z m -4160,-95 c 81,-166 188,-355 297,-526 l 85,-133 -124,-127 c -68,-70 -180,-195 -249,-277 -69,-83 -203,-238 -298,-345 -364,-409 -776,-898 -933,-1107 -84,-111 -85,-111 -51,-5 24,71 30,81 48,76 21,-5 85,64 85,93 0,28 -33,27 -57,-1 -31,-36 -32,-40 43,156 173,449 446,1054 844,1866 162,331 161,328 180,282 13,-31 25,-36 50,-20 13,8 11,17 -14,63 l -29,54 23,42 c 31,54 26,59 100,-91 z M 5130,6610 c 844,-132 962,-150 1140,-174 278,-38 695,-83 965,-106 132,-10 273,-22 313,-26 l 72,-6 0,-150 0,-150 -117,7 c -968,54 -1731,146 -2636,316 l -177,34 -4,30 c -3,17 -13,91 -23,166 l -19,135 51,-8 c 27,-5 223,-35 435,-68 z m 7969,58 c 0,-7 -8,-62 -17,-123 l -17,-109 -65,-14 c -612,-125 -1566,-266 -2290,-336 -285,-28 -920,-76 -1007,-76 -23,0 -23,2 -23,133 l 0,134 148,7 c 343,15 916,63 1287,106 409,49 571,73 1620,240 330,53 365,56 364,38 z M 8133,6273 c 119,-6 181,-23 82,-23 -32,0 -47,-5 -51,-15 -10,-25 16,-45 56,-45 l 38,0 7,-97 c 6,-70 2,-735 -5,-978 0,-6 -26,-10 -62,-10 -61,0 -63,-1 -66,-27 l -3,-28 65,0 c 43,0 66,-4 66,-11 0,-9 -20,-10 -67,-6 -38,4 -120,7 -183,7 -83,1 -110,3 -97,11 17,10 24,48 10,50 -95,15 -155,-5 -121,-39 9,-9 -2,-12 -45,-12 l -57,0 0,621 0,622 153,-7 c 83,-3 209,-9 280,-13 z m 1467,-628 0,-615 -625,0 c -383,0 -625,4 -625,9 0,6 17,11 38,13 29,2 38,8 40,25 3,20 -20,37 -44,32 -34,-6 -34,-7 -34,541 l 0,540 49,0 c 94,0 92,56 -2,63 -29,2 230,4 576,5 l 627,2 z m 3452,445 c 0,-88 1,-165 2,-172 1,-14 -51,-23 -499,-93 -916,-141 -1916,-247 -2748,-291 l -128,-7 3,154 3,154 130,7 c 918,49 2142,201 3045,377 214,42 190,59 192,-129 z m -7842,-5 c 738,-124 1515,-210 2283,-251 l 127,-6 0,-154 0,-153 -62,4 c -35,3 -142,10 -238,15 -677,40 -1337,119 -2259,272 l -374,62 7,89 c 3,50 6,118 6,152 l 0,62 123,-23 c 67,-13 241,-44 387,-69 z m 7878,-447 c 6,-51 14,-118 17,-149 l 6,-56 -58,-25 c -355,-158 -1409,-292 -2913,-373 -157,-8 -324,-17 -372,-21 l -88,-6 0,171 c 0,169 0,171 23,175 12,2 121,10 242,16 812,42 2003,177 2910,329 246,41 221,48 233,-61 z m -8017,-3 c 973,-159 1572,-228 2437,-280 l 112,-7 0,-160 0,-159 -32,5 c -18,3 -89,8 -158,11 -1206,58 -2410,216 -2735,360 l -58,25 7,83 c 11,135 18,187 26,187 4,0 185,-29 401,-65 z M 3770,5363 c 0,-5 25,-114 55,-243 l 54,-235 -27,-23 c -104,-88 -654,-324 -1347,-577 l -280,-103 -22,47 c -12,25 -70,146 -129,268 -59,123 -105,225 -103,227 2,2 85,34 184,71 99,37 207,77 240,90 33,13 177,64 320,115 143,50 289,102 325,115 394,145 730,258 730,248 z m 10780,-193 c 215,-74 682,-241 820,-293 36,-14 142,-53 235,-87 94,-35 171,-64 173,-65 2,-2 -37,-83 -85,-181 -49,-99 -105,-216 -125,-261 l -36,-82 -254,94 c -693,253 -1157,453 -1326,571 -35,25 -68,41 -74,38 -6,-4 -8,1 -4,12 3,11 26,111 51,224 25,113 48,211 50,217 3,9 55,-5 177,-48 95,-33 274,-96 398,-139 z m -648,-479 c 150,-91 392,-201 783,-356 276,-109 748,-285 766,-285 15,0 -109,-368 -137,-408 -4,-6 -300,103 -509,185 -380,151 -693,303 -992,480 l -91,54 28,62 c 15,34 41,117 56,185 15,67 28,122 30,122 1,0 31,-18 66,-39 z m -9973,-38 c 6,-21 18,-72 27,-113 9,-41 32,-105 50,-142 l 34,-67 -68,-39 c -383,-223 -763,-396 -1304,-592 -253,-92 -234,-88 -243,-52 -3,15 -36,105 -71,201 -36,95 -64,174 -62,175 2,2 46,17 98,35 493,169 1197,456 1425,581 109,59 102,58 114,13 z m 10036,-630 c 335,-179 777,-369 1180,-508 61,-21 112,-40 114,-41 10,-8 -185,-634 -198,-634 -57,0 -417,122 -662,224 -332,138 -1059,503 -1059,531 0,3 68,142 152,309 l 151,303 86,-52 c 47,-29 154,-88 236,-132 z m -9701,-140 146,-292 -138,-76 c -601,-332 -1538,-725 -1593,-668 -19,20 -192,594 -181,604 4,4 86,35 182,69 527,187 1063,429 1375,620 33,20 61,36 61,36 1,-1 67,-132 148,-293 z"
       id="path3363" />
    <path
       d="m 8486,19420 c -209,-67 -198,-363 17,-421 474.9737,-77.65 357.4472,526.081 -17,421 z m 165.5552,-53.708 c 74,-31 125.2045,-163.467 88.2045,-234.467 -74,-144 -334.7597,-82.825 -334.7597,79.175 0,113 141.5552,200.292 246.5552,155.292 z"
       id="path3365" />
    <path
       d="M 6533,11568 C 6521,11553 5011,8922 4986,8873 l -16,-33 37,-23 c 81,-50 361,-207 370,-207 11,0 1565,2705 1567,2728 1,10 -65,54 -194,128 -212,124 -203,119 -217,102 z m 182,-174 133,-77 -88,-151 c -48,-83 -360,-628 -695,-1211 -334,-583 -632,-1101 -661,-1151 l -54,-92 -135,77 c -74,42 -134,81 -132,87 4,23 1482,2593 1491,2594 5,0 69,-34 141,-76 z"
       id="path3367" />
    <path
       d="m 8704,17082 c -110,-52 -153,-182 -96,-293 101,-201 406,-129 406,96 0,157 -167,263 -310,197 z m 190,-53 c 94,-64 103,-192 19,-271 -154,-146 -385,77 -248,240 56,66 157,80 229,31 z"
       id="path3369" />
    <path
       d="m 8704,15221 c -207,-94 -135,-410 94,-411 180,-1 280,200 172,348 -54,75 -176,104 -266,63 z m 153,-32 c 66,-25 113,-93 113,-164 0,-172 -222,-238 -316,-95 -91,137 51,317 203,259 z"
       id="path3371" />
    <path
       d="m 8730,13425 c -172,-55 -201,-294 -47,-389 146,-90 332,13 331,184 -2,149 -143,250 -284,205 z m 147,-51 c 105,-50 126,-206 38,-283 -158,-138 -383,69 -253,234 50,63 140,84 215,49 z"
       id="path3373" />
    <path
       d="m 8750,11571 c -204,-65 -232,-320 -45,-407 255,-120 442,262 190,389 -38,19 -112,28 -145,18 z m 127,-57 c 85,-41 122,-169 71,-244 -68,-100 -190,-115 -271,-33 -138,138 22,361 200,277 z"
       id="path3375" />
    <path
       d="m 10916,11470 c -103,-60 -193,-113 -198,-118 -11,-11 1550,-2742 1567,-2742 13,0 375,207 393,225 15,14 -1541,2745 -1563,2744 -5,0 -95,-49 -199,-109 z m 919,-1290 c 407,-710 741,-1296 743,-1303 1,-6 -58,-46 -132,-89 l -135,-76 -59,101 c -550,948 -1432,2501 -1424,2509 14,14 245,147 257,147 6,0 343,-580 750,-1289 z"
       id="path3377" />
    <path
       d="m 8745,9650 c -207,-101 -138,-411 91,-411 127,0 215,89 215,217 0,155 -168,261 -306,194 z m 160,-39 c 118,-54 142,-196 49,-283 -150,-140 -374,50 -260,222 47,71 135,96 211,61 z"
       id="path3379" />
    <path
       d="m 8760,7797 c -105,-34 -169,-179 -124,-285 91,-219 418,-154 416,83 -1,150 -144,249 -292,202 z m 145,-46 c 179,-82 114,-345 -81,-329 -61,5 -96,26 -131,78 -96,140 58,322 212,251 z"
       id="path3381" />
    <path
       d="m 9704.4675,19177 c -172,-63 -226.4675,-301 -68.4675,-393 412.953,-127.076 340.6992,427.513 68.4675,393 z M 9820,19102 c 106,-52 93,-220 -20,-270 -68,-30 -155,1 -187,67 -67,136 71,271 207,203 z"
       id="path3383" />
    <path
       d="m 8590,6171 c -199,-64 -228,-316 -47,-406 206,-102 411,146 268,325 -51,65 -155,103 -221,81 z m 148,-68 c 152,-112 43,-362 -138,-313 -205,55 -160,351 53,337 37,-2 67,-10 85,-24 z"
       id="path3385" />
    <path
       d="m 8578,5596 c -238,-88 -189,-419 62,-421 110,0 182,56 212,168 40,151 -129,307 -274,253 z m 153,-59 c 161,-108 54,-367 -131,-317 -197,53 -164,340 40,340 43,0 65,-6 91,-23 z"
       id="path3387" />
    <path
       d="m 29590,21538 c -21,-46 -78,-174 -125,-284 -102,-236 -74,-203 -237,-276 -618,-277 -738,-326 -978,-402 -791,-251 -1615,-590 -1889,-779 -906,-624 -1790,-3131 -2490,-7062 -173,-971 -373,-2322 -406,-2745 -15,-191 69,-787 519,-3690 147,-945 186,-1217 196,-1356 13,-179 51,-267 140,-329 50,-35 277,-474 294,-569 2,-13 13,-41 24,-62 10,-21 22,-52 26,-68 4,-15 13,-34 20,-41 19,-19 138,-345 142,-386 1,-20 9,-50 17,-65 8,-16 18,-45 22,-64 4,-19 11,-39 15,-45 5,-5 38,-111 75,-235 71,-239 132,-419 146,-434 49,-54 882,267 1409,541 171,89 450,242 467,255 8,6 -55,143 -221,481 -128,260 -236,486 -240,502 -4,17 -18,80 -32,140 -13,61 -54,247 -93,415 l -69,304 21,41 c 49,94 30,293 -53,550 -71,221 -95,601 -115,1805 -3,179 -7,456 -10,615 -3,160 -7,571 -10,915 -8,960 -10,974 -155,1220 -59,101 -61,122 -16,203 64,114 130,386 355,1462 288,1371 534,2486 547,2472 9,-9 54,-708 104,-1627 17,-305 40,-701 51,-880 22,-343 22,-623 -1,-1275 -5,-148 -14,-405 -20,-570 -6,-165 -20,-525 -31,-800 -11,-275 -24,-682 -29,-905 -5,-234 -13,-424 -20,-450 -6,-25 -31,-112 -55,-195 -73,-250 -90,-363 -75,-495 15,-132 51,-267 126,-468 98,-265 137,-465 138,-709 1,-73 5,-133 10,-133 14,0 0,-242 -24,-430 -12,-91 -22,-208 -23,-260 l -2,-95 84,-42 c 398,-198 1892,-362 3935,-433 718,-25 2594,87 3531,211 567,75 1049,198 1079,275 6,16 -3,125 -34,384 -29,253 -32,333 -21,490 20,262 57,482 102,610 219,620 224,683 84,1147 -49,159 -53,202 -60,553 -3,173 -14,538 -25,810 -65,1605 -83,2407 -61,2705 6,88 32,525 56,970 63,1130 93,1595 105,1595 13,0 125,-486 305,-1325 63,-291 127,-593 144,-670 17,-77 73,-345 125,-595 188,-905 262,-1205 326,-1328 49,-93 49,-92 -1,-177 -160,-273 -157,-248 -169,-1265 -29,-2553 -49,-3039 -135,-3311 -84,-268 -103,-444 -57,-546 l 24,-52 -100,-443 -101,-443 -230,-467 c -127,-257 -231,-471 -231,-475 0,-20 565,-317 867,-457 374,-173 890,-356 1002,-356 22,0 74,150 210,606 127,424 263,773 452,1155 54,110 103,199 109,199 25,0 99,84 125,142 22,50 29,84 36,177 10,139 50,420 204,1411 410,2648 499,3261 511,3530 15,317 -249,2098 -522,3525 -681,3556 -1506,5796 -2360,6403 -261,186 -1047,514 -1839,767 -322,103 -286,88 -760,299 l -420,186 -18,84 c -37,183 -129,429 -171,461 -10,8 -58,7 -158,-1 -914,-77 -2048,-75 -2978,7 -124,11 -258,22 -297,26 l -73,6 -40,-85 z m 365,-28 c 598,-51 1108,-70 1735,-65 515,5 1084,30 1347,61 44,5 53,3 62,-14 40,-75 -960,-124 -1884,-92 -578,20 -1488,76 -1543,95 -24,8 5,46 31,40 12,-3 126,-14 252,-25 z m -105,-125 c 1309,-113 2924,-113 3280,0 16,5 50,-61 50,-96 0,-10 -137,-45 -245,-63 -490,-82 -1416,-88 -2570,-16 -176,11 -418,29 -539,40 -120,11 -227,20 -238,20 -24,0 -21,18 12,94 19,43 24,47 48,42 15,-3 106,-12 202,-21 z m 3377,-337 c -7,-4 -19,-8 -27,-8 -8,0 -93,-9 -188,-20 -825,-94 -2011,-106 -2962,-30 -261,21 -565,53 -573,60 -4,4 4,37 20,74 26,65 28,67 58,62 51,-9 458,-45 700,-61 1307,-88 2388,-71 2842,43 l 108,27 17,-70 c 13,-53 14,-71 5,-77 z m -3641,-98 c 1155,-127 2519,-127 3543,0 l 154,19 441,-195 c 242,-107 483,-208 535,-225 622,-197 1106,-375 1511,-554 214,-94 450,-214 457,-231 3,-7 -22,-88 -55,-181 -244,-684 -426,-1496 -496,-2208 -78,-784 -53,-2038 50,-2559 14,-71 14,-93 0,-235 -23,-227 -50,-650 -101,-1576 -25,-451 -51,-883 -57,-960 -25,-290 -10,-1032 52,-2595 26,-649 41,-1150 35,-1180 -9,-49 17,-225 52,-343 136,-464 134,-557 -24,-992 -36,-99 -72,-201 -79,-226 l -14,-46 -112,-17 c -62,-10 -311,-49 -553,-87 -1513,-240 -2279,-312 -3430,-322 -1179,-11 -2136,69 -3570,298 -220,35 -494,78 -610,96 -115,17 -211,32 -212,33 -22,15 -11,56 15,56 62,0 48,49 -17,59 -34,6 -34,6 -93,163 -145,393 -151,541 -37,924 62,210 67,256 73,654 3,184 15,553 26,820 66,1602 81,2321 56,2685 -9,132 -34,569 -56,970 -50,905 -76,1312 -97,1525 -21,215 -21,209 10,395 106,644 109,1940 6,2720 -83,627 -240,1293 -444,1880 -42,121 -79,227 -82,236 -21,67 1060,511 1836,754 213,67 337,118 861,354 135,60 245,110 246,110 0,1 81,-8 180,-19 z m -3118,-1461 c 228,-664 397,-1424 466,-2099 84,-821 40,-2423 -74,-2650 -57,-114 -156,-527 -370,-1540 -38,-179 -87,-406 -109,-505 -22,-99 -72,-333 -110,-520 -216,-1053 -298,-1393 -365,-1518 -60,-110 -57,-135 26,-275 129,-215 127,-201 138,-1122 31,-2661 50,-3129 141,-3410 84,-259 103,-484 43,-507 -9,-3 -19,-16 -24,-28 -7,-18 -56,-38 -277,-114 -414,-144 -1002,-354 -1277,-457 l -250,-93 -40,22 c -52,28 -103,104 -110,160 -2,23 -9,94 -16,157 -13,142 -70,523 -244,1645 -439,2830 -487,3184 -461,3432 98,928 387,2706 640,3926 558,2698 1155,4447 1823,5342 82,110 345,379 364,373 7,-3 46,-101 86,-219 z m 9933,148 c 844,-741 1657,-3125 2323,-6815 219,-1208 436,-2730 422,-2957 -18,-288 -121,-998 -530,-3635 -140,-901 -176,-1153 -186,-1291 -9,-128 -25,-177 -73,-227 -66,-69 -70,-70 -230,-8 -255,98 -802,294 -1460,523 -144,50 -201,75 -210,90 -7,11 -20,32 -31,47 -42,59 -17,256 62,506 64,200 88,530 107,1455 3,149 7,358 10,465 3,107 10,643 16,1190 12,1207 9,1178 140,1399 84,142 86,164 25,284 -69,137 -137,423 -367,1532 -55,264 -104,496 -109,515 -5,19 -48,217 -95,440 -204,964 -322,1462 -370,1565 -126,264 -175,1726 -89,2630 64,681 250,1523 475,2157 28,79 55,158 60,176 13,43 14,43 110,-41 z M 27360,6540 c 113,-17 385,-60 605,-95 2063,-329 3688,-379 5565,-169 331,37 678,86 1200,169 256,41 542,86 635,100 94,13 179,27 191,30 20,4 20,3 8,-73 -6,-42 -15,-102 -18,-133 l -7,-57 -87,-16 c -2933,-554 -5527,-594 -8042,-125 -269,50 -250,44 -250,82 0,30 -21,193 -36,284 -6,37 -4,41 12,38 11,-3 111,-18 224,-35 z m 8160,-508 c 0,-55 3,-133 6,-174 l 7,-75 -254,-41 c -2936,-480 -5203,-494 -7859,-49 l -255,43 4,149 c 2,83 4,151 5,152 1,1 46,-7 101,-18 1783,-345 3871,-431 5860,-238 696,67 1552,190 2180,313 94,19 178,34 188,35 15,1 17,-10 17,-97 z m 47,-527 c 23,-203 30,-195 -202,-263 -680,-201 -3228,-402 -4480,-353 -1893,73 -3271,223 -3701,402 l -76,32 6,41 c 3,22 8,76 12,119 5,65 9,77 24,77 10,0 181,-27 381,-60 983,-161 1608,-231 2524,-282 310,-17 1612,-17 1950,0 1146,59 2257,178 3310,356 263,45 238,52 252,-69 z m -9270,-481 c 28,-126 50,-234 48,-241 -12,-37 -269,-174 -558,-297 -276,-118 -1084,-425 -1091,-414 -1,2 -22,48 -45,103 -24,55 -81,176 -128,269 -46,93 -82,170 -81,172 6,5 595,223 798,294 113,40 234,83 270,96 342,123 717,252 725,250 5,-1 33,-106 62,-232 z m 10420,145 c 142,-50 290,-102 328,-116 39,-13 102,-35 140,-48 101,-33 500,-176 645,-231 19,-7 71,-26 115,-42 44,-17 132,-49 195,-73 l 116,-43 -71,-140 c -39,-78 -97,-202 -130,-276 -32,-74 -60,-136 -60,-137 -5,-10 -852,312 -1112,423 -241,103 -543,258 -543,279 0,1 25,111 55,244 30,134 55,245 55,247 0,7 3,6 267,-87 z M 26419,4479 c 14,-63 39,-142 58,-181 18,-39 32,-72 31,-73 -202,-154 -903,-476 -1499,-688 l -96,-34 -16,51 c -9,28 -43,120 -75,203 -57,148 -59,153 -38,159 380,117 1331,511 1551,643 28,16 52,30 55,30 3,1 16,-49 29,-110 z m 10073,-5 c 244,-123 742,-324 1248,-505 91,-33 170,-61 177,-64 8,-2 -2,-39 -31,-112 -23,-59 -55,-146 -71,-193 -16,-47 -32,-89 -36,-94 -8,-10 -260,79 -544,191 -335,133 -646,281 -913,433 -164,94 -152,75 -105,177 23,49 49,124 58,168 9,44 18,86 20,92 3,9 20,3 56,-18 29,-17 93,-51 141,-75 z m -9756,-695 c 80,-161 142,-295 137,-300 -16,-15 -309,-172 -514,-275 -427,-213 -782,-359 -1069,-438 -156,-43 -133,-56 -183,101 -84,262 -140,464 -131,472 5,4 59,25 119,46 495,170 1063,427 1410,636 44,27 81,49 82,49 2,0 69,-131 149,-291 z m 9514,193 c 324,-186 792,-396 1240,-557 102,-36 197,-70 211,-76 l 26,-10 -54,-182 c -61,-209 -122,-399 -132,-410 -10,-11 -234,53 -407,116 -344,125 -749,314 -1191,556 l -132,72 145,291 145,290 27,-18 c 15,-10 70,-42 122,-72 z"
       id="path3389" />
  </g>
</svg>
