<?xml version="1.0" encoding="UTF-8" standalone="no"?>
<!-- Created with Inkscape (http://www.inkscape.org/) -->

<svg
   xmlns:dc="http://purl.org/dc/elements/1.1/"
   xmlns:cc="http://creativecommons.org/ns#"
   xmlns:rdf="http://www.w3.org/1999/02/22-rdf-syntax-ns#"
   xmlns:svg="http://www.w3.org/2000/svg"
   xmlns="http://www.w3.org/2000/svg"
   version="1.0"
   width="7500"
   height="3306"
   viewBox="0 0 6000 2644.8"
   id="svg3323">
  <defs
     id="defs3407" />
  <metadata
     id="metadata3325">
Created by potrace 1.10, written by Peter Selinger 2001-2011
<rdf:RDF>
  <cc:Work
     rdf:about="">
    <dc:format>image/svg+xml</dc:format>
    <dc:type
       rdf:resource="http://purl.org/dc/dcmitype/StillImage" />
    <dc:title></dc:title>
  </cc:Work>
</rdf:RDF>
</metadata>
  <g
     transform="matrix(0.1,0,0,-0.1,0,2644.8)"
     id="g3327"
     style="fill:#000000;stroke:none">
    <path
       d="m 14377.839,25835.196 c -637.421,-31.477 -1255.168,-119.352 -1593.552,-226.901 -205.916,-64.266 -216.408,-76.07 -288.545,-295.102 -15.738,-49.839 -38.035,-102.302 -48.528,-114.106 -10.492,-11.804 -15.738,-27.543 -11.804,-35.412 10.493,-15.739 -62.955,-297.726 -83.94,-322.645 -7.869,-9.181 -10.492,-24.92 -6.558,-34.101 3.935,-10.493 -6.558,-80.006 -23.608,-154.765 l -31.477,-136.403 -569.22,-234.77 c -394.781,-162.634 -659.717,-262.313 -864.322,-326.58 -1103.0261,-348.876 -2208.6758,-809.236 -2541.8134,-1061.056 -1162.047,-877.438 -2270.3199,-4009.456 -3176.6116,-8980.289 -255.7553,-1407.31 -552.1691,-3396.955 -573.1541,-3859.938 -13.1157,-306.9059 77.3823,-964.0002 624.3051,-4485.5538 242.6397,-1558.1397 316.0873,-2067.0271 316.0873,-2173.2639 0,-146.8954 41.9701,-245.2628 150.8301,-351.4996 200.6695,-194.1117 560.0384,-1029.5789 814.4821,-1887.3427 163.9457,-556.10384 225.5893,-729.23044 261.0015,-729.23044 136.4028,0 729.2304,204.6042 1196.1477,414.4547 386.9119,173.12664 1249.9219,620.37054 1249.9219,647.91334 0,5.2463 -135.0912,283.2982 -301.66,620.3705 -308.2179,625.6167 -327.8914,674.1447 -372.4846,920.719 -2.6231,22.2966 -48.5279,222.9661 -100.9906,448.5553 l -94.4327,409.2085 31.4776,62.9551 c 64.2667,129.845 34.1007,396.0928 -85.2517,755.4617 -93.1212,280.675 -132.4682,1225.0022 -158.6995,3753.7004 -19.6735,1946.3629 -7.8694,1830.9459 -211.162,2186.3799 -81.3171,141.649 -82.6286,160.011 -23.6082,250.509 81.3171,123.287 180.996,536.43 477.4098,1964.725 72.1361,343.631 144.2722,688.572 162.6342,767.266 18.3619,78.694 77.3823,355.435 132.4681,615.125 224.2777,1066.302 402.6506,1829.633 417.0778,1790.286 14.4272,-40.658 49.8395,-594.139 120.664,-1855.865 31.4776,-583.646 68.2014,-1206.64 80.0055,-1383.701 23.6082,-351.5 20.9851,-1221.068 -7.8694,-1914.886 -6.5578,-191.489 -22.2966,-592.828 -32.7891,-891.8649 -11.8041,-299.0369 -28.8545,-768.5773 -39.347,-1042.6945 -11.8041,-274.1174 -24.9197,-699.0647 -31.4776,-944.3274 l -11.804,-445.9323 -73.4477,-254.4437 c -156.0763,-539.0534 -149.5185,-718.7378 51.151,-1260.4144 103.6137,-279.3634 119.3525,-335.7607 149.5185,-531.184 70.8245,-461.671 76.0708,-712.18 23.6082,-1167.2933 -55.0858,-466.9173 -52.4626,-432.8166 -27.5429,-457.7363 254.4437,-255.7553 2093.2587,-491.8371 4687.5357,-603.3201 979.739,-43.2817 1121.388,-41.9701 2334.586,19.6735 2335.898,115.4177 3854.691,316.0872 4241.603,560.0384 l 51.151,31.4776 -9.181,127.2218 c -3.935,69.513 -19.673,217.7199 -34.101,329.203 -81.317,613.8126 -28.854,1151.5544 163.946,1670.9344 208.539,561.35 216.408,737.0998 60.332,1280.0879 -85.252,293.7906 -90.498,342.3186 -98.367,924.6536 -3.935,267.5594 -15.739,685.949 -26.232,931.2118 -11.804,245.2627 -28.854,705.6222 -40.658,1023.0209 -10.493,317.399 -26.231,737.1 -32.789,931.212 -30.166,857.764 -30.166,1222.379 -1.312,1672.246 14.427,234.77 41.97,700.376 60.332,1036.137 51.151,932.523 97.056,1698.477 118.041,1969.971 10.493,135.091 19.674,255.755 20.985,268.871 2.623,68.201 169.192,-643.979 365.927,-1563.386 78.694,-375.108 162.634,-758.085 183.619,-852.518 20.985,-93.121 100.991,-470.852 177.061,-839.402 289.856,-1392.882 372.485,-1732.578 460.36,-1891.277 57.709,-104.926 57.709,-145.584 -6.558,-245.263 -199.358,-316.087 -207.227,-371.173 -217.72,-1575.1902 -19.673,-2288.682 -59.02,-3762.8816 -112.794,-4164.2206 -6.558,-53.7742 -35.413,-169.192 -64.267,-255.7553 -108.86,-334.4492 -133.78,-598.0739 -68.202,-722.6726 l 27.543,-53.7742 -131.156,-582.335 -131.157,-582.3351 -306.906,-620.3705 -306.906,-619.0589 48.528,-31.4775 c 667.586,-418.3894 2334.586,-1121.38854 2427.707,-1024.33274 20.985,22.2966 90.498,233.4587 226.901,688.57194 259.69,869.5679 649.225,1790.2869 802.678,1897.8352 114.106,80.0055 160.011,190.177 177.061,419.701 15.739,204.6042 74.76,608.5664 321.334,2194.249 612.501,3946.5008 645.29,4198.3214 599.385,4616.7105 -141.649,1281.4 -502.329,3486.142 -828.909,5069.201 -872.191,4225.864 -1865.046,6801.779 -2924.791,7587.406 -316.087,234.771 -1341.731,664.964 -2372.622,995.479 -406.585,131.156 -1596.175,595.45 -1614.537,630.863 -5.246,10.492 -28.854,102.302 -51.151,203.292 -90.498,407.897 -196.735,737.1 -254.444,792.186 -203.292,191.488 -1741.759,360.68 -2794.946,306.906 z m 1318.124,-128.533 c 758.084,-59.021 1377.143,-186.243 1417.802,-291.168 17.05,-44.593 34.101,-44.593 -211.162,3.935 -1245.987,249.197 -2721.499,253.132 -3946.501,10.492 -257.067,-51.151 -276.74,-49.839 -276.74,17.051 0,87.875 904.98,233.458 1770.613,284.609 183.62,10.493 1004.659,-5.246 1245.988,-24.919 z m -209.851,-229.524 c 542.988,-32.789 1269.595,-131.157 1586.994,-213.785 l 61.644,-15.739 -18.362,-72.136 c -26.231,-102.302 -19.674,-99.679 -225.589,-66.89 -1192.213,191.488 -2632.312,194.112 -3735.339,7.869 -106.237,-18.362 -199.358,-32.789 -207.227,-32.789 -9.181,0 -49.84,43.282 -90.498,94.433 l -74.759,95.744 102.302,22.297 c 376.419,83.94 899.734,149.518 1479.446,184.93 166.568,10.493 927.276,7.87 1121.388,-3.934 z m -2811.996,-236.082 c 26.231,-39.347 120.664,-160.011 208.539,-268.871 87.874,-107.548 208.539,-261.001 268.871,-341.007 60.332,-78.694 157.387,-203.293 215.096,-275.429 128.534,-161.322 821.04,-863.01 940.393,-952.196 100.99,-76.071 142.96,-131.157 228.212,-300.349 64.267,-127.222 216.408,-480.033 216.408,-499.706 0,-6.558 -49.839,13.115 -111.483,43.281 -103.613,51.152 -111.483,59.021 -111.483,95.745 0,219.031 -743.657,1160.735 -1827.01,2313.601 -136.403,144.272 -135.092,141.649 -100.991,232.147 7.869,19.674 15.739,32.789 18.362,30.166 2.623,-2.623 27.543,-38.035 55.086,-77.382 z m 3012.666,-118.041 c 401.339,-24.92 937.769,-83.94 1265.66,-141.649 l 56.398,-9.181 -36.724,-41.97 c -35.413,-40.659 -39.347,-41.97 -98.368,-30.166 -560.038,110.171 -3040.208,123.287 -3761.569,18.362 -38.036,-5.246 -49.84,0 -68.202,26.231 l -22.296,31.478 81.317,14.427 c 716.114,123.287 1799.467,179.684 2583.784,132.468 z m -2850.032,-388.223 c 807.924,-874.814 1370.586,-1567.321 1526.662,-1878.162 45.905,-90.498 48.528,-90.498 -91.81,-5.246 -106.236,64.266 -123.287,80.005 -145.583,132.468 -108.86,258.378 -663.652,901.045 -1377.144,1596.175 l -271.495,263.625 17.051,77.382 c 10.492,41.97 23.608,91.81 30.166,110.172 l 13.116,32.789 40.658,-47.217 c 23.609,-26.231 139.026,-152.141 258.379,-281.986 z m 3003.485,137.714 c 406.585,-14.427 776.446,-41.97 973.181,-72.136 l 47.217,-6.558 -36.724,-56.397 c -93.121,-137.715 -329.203,-716.115 -379.043,-928.589 -18.361,-76.07 -52.462,-157.387 -114.106,-272.805 -267.559,-501.018 -953.508,-1875.539 -1147.62,-2299.174 l -70.824,-154.765 -2.623,167.88 c -13.116,730.542 -55.086,1033.514 -169.192,1205.329 -24.92,36.724 -94.433,184.931 -154.765,327.891 -178.373,427.571 -275.429,598.074 -382.977,679.391 -243.951,183.619 -1210.575,1231.56 -1235.495,1337.797 -13.115,59.02 1716.84,106.237 2672.971,72.136 z m 1468.953,-95.744 14.427,-70.825 -153.453,-220.343 c -217.72,-312.152 -570.531,-839.402 -634.798,-949.573 -69.513,-114.106 -68.201,-115.418 -38.035,23.608 14.427,62.955 32.789,144.272 39.347,179.685 15.739,74.759 83.94,190.177 245.263,419.7 98.367,139.026 503.641,687.261 510.199,688.572 1.311,0 9.181,-31.477 17.05,-70.824 z m -4439.649,-481.345 c 495.772,-502.329 869.568,-922.03 1029.579,-1158.112 l 44.593,-65.578 -62.955,44.593 c -325.268,233.459 -663.652,537.742 -1138.439,1023.021 l -341.007,347.565 7.869,57.709 c 3.935,31.477 14.427,80.005 20.985,108.86 l 14.427,51.151 35.413,-26.232 c 19.673,-13.115 195.423,-186.242 389.535,-382.977 z m 285.921,-717.426 c 486.591,-452.49 904.98,-751.527 1424.36,-1017.775 l 257.067,-132.468 41.97,-85.252 c 83.94,-170.503 108.86,-405.273 108.86,-1057.121 l 0,-473.476 c -176.986,-279.113 -217.828,-490.843 -301.66,-692.506 -291.167,-687.26 -466.917,-1230.249 -518.068,-1593.552 -26.232,-194.112 -41.97,-1778.483 -52.463,-5567.596 -3.935,-1493.873 -10.492,-2794.946 -13.116,-2892.002 -2.623,-97.0558 -5.246,-1217.1327 -5.246,-2488.0399 l -1.311,-2310.9783 -28.855,-3.9347 c -45.905,-6.5579 -49.839,-62.9552 -5.246,-62.9552 24.92,0 34.101,-6.5578 34.101,-26.2313 0,-24.9197 -6.558,-26.2313 -153.454,-18.3619 -1210.574,57.7089 -2078.831,146.8953 -3214.647,326.5798 -250.509,40.6585 -663.652,104.9252 -919.4074,145.5838 -515.4452,80.0055 -481.3445,72.1361 -489.2139,115.4177 -5.2462,28.8545 -1.3116,32.7892 34.1007,36.7239 72.1361,6.5578 64.2667,59.0204 -10.4925,69.5129 -53.7742,9.181 -60.332,13.1157 -78.6939,64.2667 -266.2478,743.6577 -270.1825,805.3012 -81.3171,1447.9683 43.2817,150.83 83.9402,421.0125 65.5783,449.867 -7.8694,13.1156 11.8041,653.1596 40.6585,1382.3902 10.4925,259.69 28.8544,726.6073 39.347,1036.137 10.4925,310.841 26.2313,738.411 34.1007,950.885 19.6735,546.923 20.985,1331.239 1.3115,1567.321 -7.8694,108.86 -39.3469,628.24 -68.2014,1154.177 -65.5782,1193.525 -98.3674,1728.644 -127.2218,2039.485 -28.8545,322.645 -28.8545,350.188 13.1156,616.436 132.4682,866.944 136.4028,2456.562 7.8694,3482.206 -107.5483,859.075 -354.1226,1893.9 -633.4861,2650.674 l -70.8245,191.488 41.9701,24.92 c 358.0573,217.72 1392.8825,633.486 2316.2248,928.588 247.886,80.006 501.018,174.439 813.17,302.972 373.797,154.765 455.114,183.619 476.099,171.815 27.543,-18.362 45.904,-9.181 60.332,28.854 5.246,14.428 35.412,36.724 68.201,49.84 l 57.709,23.608 309.53,-317.399 c 170.503,-174.438 407.897,-407.897 527.249,-518.068 z m 4359.644,798.743 c -39.347,-74.759 -40.659,-81.317 -19.674,-102.302 22.297,-22.296 28.855,-17.05 81.317,55.086 18.362,24.92 32.79,20.985 548.235,-184.931 322.645,-129.845 666.275,-257.067 882.683,-326.58 592.828,-190.177 1071.549,-365.926 1524.039,-557.415 254.444,-107.548 777.759,-361.992 777.759,-379.042 0,-5.247 -23.608,-73.448 -51.151,-148.207 -334.449,-901.046 -596.763,-2067.027 -688.572,-3053.325 -95.744,-1030.89 -53.774,-2739.86 83.94,-3349.738 9.181,-40.658 9.181,-87.875 1.312,-142.96 -28.855,-180.997 -72.137,-831.533 -152.142,-2297.863 -24.92,-461.671 -55.086,-981.051 -66.89,-1154.178 -32.789,-470.852 -15.739,-1289.269 66.89,-3364.1656 39.347,-971.8703 45.905,-1190.9017 45.905,-1449.2801 1.311,-301.6601 10.492,-371.1731 95.744,-663.6522 145.584,-498.3948 137.714,-666.2752 -59.02,-1204.0171 -66.89,-183.6191 -85.252,-224.2777 -107.549,-226.9008 -32.789,-5.2462 -45.905,-59.0204 -17.05,-70.8245 17.05,-6.5578 17.05,-57.7089 0,-57.7089 -14.427,0 -632.175,-95.7443 -1092.534,-169.1919 -1286.646,-205.9158 -2052.6,-293.7907 -3101.852,-355.4343 -414.455,-23.6082 -1446.657,-43.2817 -1756.187,-32.7891 l -300.348,9.1809 9.181,5137.4026 c 5.246,2825.112 11.804,5166.256 14.427,5201.669 2.623,36.724 7.869,697.753 13.116,1468.953 9.181,1708.97 7.869,1686.673 76.07,1823.076 111.484,226.901 632.175,870.88 1484.693,1836.192 158.699,180.996 346.253,396.092 415.766,480.033 69.513,83.94 208.539,238.705 308.218,344.941 194.111,207.228 209.85,234.771 175.75,291.168 -19.674,32.789 -19.674,48.528 1.311,226.901 13.116,104.925 27.543,299.037 32.789,431.505 l 7.87,240.016 -102.303,226.901 -100.99,228.212 51.151,69.513 c 55.086,74.76 309.529,447.244 650.536,952.197 201.982,299.037 207.228,304.283 240.017,289.856 17.05,-7.869 30.166,-18.362 27.543,-22.297 z m -1104.338,-1232.871 c 19.673,-53.774 80.005,-195.423 133.779,-314.776 l 98.368,-217.72 -6.558,-183.619 c -9.181,-229.524 -36.724,-506.264 -49.84,-497.083 -23.608,13.115 -250.509,411.831 -373.796,654.471 l -133.779,262.313 139.026,271.494 140.337,271.494 9.181,-74.759 c 3.935,-40.659 23.608,-118.041 43.282,-171.815 z m -7937.595,-540.365 c 525.9377,-1471.577 751.527,-3037.586 693.8181,-4821.315 -24.9197,-750.215 -90.498,-1392.882 -152.1416,-1488.627 -72.1361,-112.794 -283.2981,-1029.579 -737.0998,-3197.596 -342.3186,-1636.834 -419.7009,-1964.726 -511.5105,-2147.033 -80.0055,-157.388 -77.3824,-190.177 28.8544,-365.927 163.9457,-276.74 171.8151,-330.515 180.9961,-1297.1384 34.1007,-3373.3466 68.2014,-4280.9499 178.3729,-4619.3338 119.3524,-363.3037 141.649,-653.1596 57.7089,-702.9991 -10.4926,-5.2463 -18.362,-22.2966 -18.362,-35.4123 0,-14.4272 -5.2462,-26.2313 -13.1156,-26.2313 -30.166,0 -1480.7574,-512.8221 -2009.3183,-709.5569 -334.4492,-125.9103 -351.4996,-129.845 -386.9118,-111.4831 -114.1062,59.0205 -160.011,152.1416 -174.4382,359.369 -14.4273,207.2273 -53.7742,466.9173 -393.4697,2658.5432 -358.0574,2304.4205 -523.3146,3454.6637 -545.6112,3790.4244 -28.8545,457.7363 469.5404,3617.2983 881.372,5587.2693 783.0046,3735.339 1648.6378,6119.765 2583.784,7111.308 74.7592,78.694 240.0164,226.901 254.4437,226.901 3.9347,0 40.6585,-94.433 82.6286,-211.162 z m 13098.605,70.824 c 975.805,-927.276 1886.031,-3393.02 2693.955,-7289.681 428.882,-2067.027 897.111,-5094.12 859.076,-5541.3641 -35.413,-409.2084 -184.931,-1434.8528 -563.973,-3882.234 -322.646,-2086.7007 -359.369,-2335.8981 -379.043,-2565.4221 -11.804,-148.2069 -38.035,-216.4083 -107.548,-274.1172 -81.317,-68.2014 -72.136,-69.5129 -396.093,52.4627 -335.761,125.9102 -1041.383,377.7308 -1656.507,591.516 -293.791,102.3021 -410.52,148.2069 -410.52,162.6341 0,10.4925 -11.804,27.5429 -24.92,35.4123 -85.252,53.7742 -64.267,321.3335 51.151,679.3909 118.041,363.3036 140.338,902.357 183.619,4492.112 15.739,1188.2784 11.804,1158.1124 178.373,1438.7874 114.106,190.177 116.73,220.343 32.789,377.731 -87.875,162.634 -198.046,628.24 -511.51,2150.968 -43.282,209.85 -93.121,445.932 -111.483,524.626 -18.362,80.005 -86.564,398.716 -152.142,708.245 -271.494,1284.023 -407.897,1845.373 -472.163,1956.856 -40.659,70.824 -94.433,460.359 -133.78,981.051 -22.297,300.348 -22.297,1779.794 0,2078.831 87.875,1154.178 339.695,2349.014 697.753,3318.261 19.673,53.774 39.347,108.86 44.593,121.975 10.492,34.101 38.035,15.739 178.373,-118.041 z m -5456.113,-124.598 c 106.237,-217.72 246.575,-465.606 389.535,-689.884 l 111.483,-174.438 -162.634,-166.569 c -89.186,-91.809 -236.081,-255.755 -326.579,-363.303 -90.498,-108.86 -266.248,-312.153 -390.847,-452.491 -477.41,-536.43 -1017.775,-1177.785 -1223.691,-1451.903 -110.171,-145.583 -111.483,-145.583 -66.889,-6.557 31.477,93.121 39.347,106.236 62.955,99.679 27.543,-6.558 111.483,83.94 111.483,121.975 0,36.724 -43.282,35.412 -74.759,-1.311 -40.659,-47.217 -41.97,-52.463 56.397,204.604 226.901,588.893 584.958,1382.39 1106.961,2447.381 212.474,434.128 211.162,430.193 236.082,369.861 17.05,-40.658 32.789,-47.216 65.578,-26.231 17.051,10.493 14.427,22.297 -18.362,82.629 l -38.035,70.824 30.166,55.086 c 40.658,70.825 34.101,77.382 131.156,-119.352 z M 9990.6522,5488.8803 c 1106.9618,-173.1266 1261.7258,-196.7348 1495.1848,-228.2124 364.615,-49.8395 911.538,-108.8599 1265.661,-139.0259 173.127,-13.1157 358.057,-28.8545 410.52,-34.1007 l 94.433,-7.8694 0,-196.7348 0,-196.7348 -153.453,9.1809 c -1269.596,70.8245 -2270.321,191.4886 -3457.2875,414.4547 l -232.1471,44.5932 -5.2462,39.347 c -3.9347,22.2966 -17.0504,119.3524 -30.166,217.7199 l -24.9198,177.0613 66.8899,-10.4925 c 35.4122,-6.5579 292.4791,-45.9048 570.5309,-89.1865 z m 10451.8658,76.0708 c 0,-9.1809 -10.493,-81.317 -22.297,-161.3225 l -22.296,-142.9607 -85.252,-18.3619 c -802.678,-163.9457 -2053.912,-348.8764 -3003.485,-440.686 -373.796,-36.7238 -1206.64,-99.679 -1320.746,-99.679 -30.166,0 -30.166,2.6232 -30.166,174.4382 l 0,175.7498 194.111,9.181 c 449.867,19.6735 1201.394,82.6286 1687.985,139.0259 536.43,64.2667 748.904,95.7443 2124.736,314.7757 432.817,69.513 478.722,73.4477 477.41,49.8395 z m -6513.234,-518.0683 c 156.076,-7.8694 237.393,-30.166 107.548,-30.166 -41.97,0 -61.643,-6.5579 -66.89,-19.6735 -13.115,-32.7892 20.985,-59.0205 73.448,-59.0205 l 49.84,0 9.18,-127.2218 c 7.87,-91.8096 2.624,-964.0006 -6.557,-1282.7111 0,-7.8693 -34.101,-13.1156 -81.317,-13.1156 -80.006,0 -82.629,-1.3116 -86.564,-35.4123 l -3.934,-36.7238 85.251,0 c 56.398,0 86.564,-5.2463 86.564,-14.4272 0,-11.8041 -26.232,-13.1157 -87.875,-7.8694 -49.84,5.2462 -157.388,9.1809 -240.017,9.1809 -108.86,1.3116 -144.272,3.9347 -127.222,14.4273 22.297,13.1156 31.478,62.9551 13.116,65.5782 -124.599,19.6735 -203.293,-6.5578 -158.699,-51.151 11.804,-11.8041 -2.623,-15.7388 -59.021,-15.7388 l -74.759,0 0,814.4821 0,815.7938 200.67,-9.181 c 108.859,-3.9347 274.117,-11.8041 367.238,-17.0503 z m 1924.066,-823.6632 0,-806.6127 -819.728,0 c -502.33,0 -819.728,5.2462 -819.728,11.8041 0,7.8694 22.296,14.4272 49.839,17.0503 38.035,2.6232 49.84,10.4925 52.463,32.7892 3.934,26.2313 -26.232,48.5279 -57.709,41.9701 -44.593,-7.8694 -44.593,-9.181 -44.593,709.5569 l 0,708.2453 64.266,0 c 123.287,0 120.664,73.4477 -2.623,82.6286 -38.035,2.6232 301.66,5.2463 755.462,6.5579 l 822.351,2.6231 z m 4527.524,583.6467 c 0,-115.4178 1.312,-216.4083 2.624,-225.5893 1.311,-18.3619 -66.89,-30.166 -654.472,-121.9756 -1201.394,-184.9307 -2512.959,-323.9566 -3604.182,-381.6655 l -167.88,-9.181 3.935,201.9811 3.934,201.9811 170.504,9.1809 c 1204.017,64.2667 2809.373,263.6247 3993.717,494.4602 280.675,55.0858 249.197,77.3824 251.82,-169.1919 z m -10285.296,-6.5579 c 967.935,-162.6341 1987.021,-275.4287 2994.304,-329.2029 l 166.569,-7.8694 0,-201.9811 0,-200.6695 -81.317,5.2463 c -45.905,3.9347 -186.243,13.1156 -312.153,19.6735 -887.93,52.4626 -1753.563,156.0763 -2962.8268,356.7458 l -490.5255,81.317 9.181,116.7294 c 3.9347,65.5782 7.8694,154.7647 7.8694,199.3579 l 0,81.3171 161.3225,-30.166 c 87.8749,-17.0504 316.0873,-57.7089 507.5764,-90.4981 z m 10332.513,-586.2697 c 7.869,-66.8899 18.362,-154.7647 22.296,-195.4233 l 7.87,-73.4476 -76.071,-32.7892 c -465.606,-207.2273 -1847.996,-382.9771 -3820.59,-489.2139 -205.916,-10.4925 -424.947,-22.2966 -487.903,-27.5429 l -115.417,-7.8694 0,224.2777 c 0,221.6546 0,224.2777 30.166,229.524 15.738,2.6231 158.699,13.1156 317.398,20.985 1064.992,55.0858 2627.066,232.1471 3816.656,431.5051 322.645,53.7742 289.856,62.9551 305.595,-80.0055 z M 9913.2699,4210.104 c 1276.1531,-208.5389 2061.7811,-299.0369 3196.2851,-367.2383 l 146.896,-9.181 0,-209.8505 0,-208.5389 -41.97,6.5578 c -23.609,3.9347 -116.73,10.4926 -207.228,14.4273 -1581.748,76.0708 -3160.873,283.2981 -3587.1317,472.1635 l -76.0708,32.7892 9.1809,108.8599 c 14.4272,177.0613 23.6082,245.2627 34.1007,245.2627 5.2463,0 242.6396,-38.0354 525.9378,-85.2517 z M 8206.9232,3853.3582 c 0,-6.5579 32.7891,-149.5185 72.1361,-318.7104 l 70.8245,-308.2179 -35.4122,-30.166 C 8178.0688,3080.8461 7456.7077,2771.3167 6547.7929,2439.4906 l -367.2384,-135.0913 -28.8544,61.6436 c -15.7388,32.7891 -91.8096,191.4885 -169.1919,351.4996 -77.3824,161.3225 -137.7144,295.1022 -135.0913,297.7253 2.6231,2.6232 111.4831,44.5933 241.3281,93.1212 129.8449,48.5279 271.494,100.9905 314.7757,118.0409 43.2816,17.0503 232.1471,83.9402 419.7009,150.83 187.5539,65.5783 379.0424,133.7797 426.2588,150.83 516.7568,190.177 957.4428,338.3839 957.4428,325.2683 z M 22345.599,3600.226 c 281.987,-97.0558 894.488,-316.0872 1075.484,-384.2886 47.217,-18.362 186.242,-69.513 308.218,-114.1062 123.287,-45.9048 224.278,-83.9402 226.901,-85.2518 2.623,-2.6231 -48.528,-108.8599 -111.483,-237.3933 -64.267,-129.845 -137.715,-283.2982 -163.946,-342.3187 l -47.216,-107.5483 -333.138,123.2871 c -908.915,331.8261 -1517.481,594.1392 -1739.136,748.9039 -45.904,32.7892 -89.186,53.7742 -97.056,49.8395 -7.869,-5.2462 -10.492,1.3116 -5.246,15.7388 3.935,14.4272 34.101,145.5838 66.89,293.7907 32.789,148.2069 62.955,276.7403 65.578,284.6097 3.935,11.8041 72.136,-6.5578 232.147,-62.9552 124.599,-43.2816 359.369,-125.9102 522.003,-182.3076 z m -849.894,-628.2398 c 196.735,-119.3525 514.134,-263.6247 1026.956,-466.9174 361.992,-142.9606 981.051,-373.7961 1004.659,-373.7961 19.673,0 -142.961,-482.6561 -179.685,-535.1187 -5.246,-7.8694 -393.469,135.0912 -667.586,242.6396 -498.395,198.0464 -908.915,397.4043 -1301.073,629.5514 l -119.353,70.8245 36.724,81.3171 c 19.674,44.5933 53.774,153.4532 73.448,242.6396 19.673,87.8749 36.724,160.011 39.347,160.011 1.311,0 40.658,-23.6081 86.563,-51.151 z M 8415.4621,2922.1467 c 7.8694,-27.5429 23.6082,-94.4327 35.4123,-148.2069 11.8041,-53.7742 41.9701,-137.7144 65.5782,-186.2423 l 44.5933,-87.8749 -89.1865,-51.1511 C 7969.5298,2156.1924 7471.135,1929.2916 6761.578,1672.2248 c -331.826,-120.664 -306.9063,-115.4178 -318.7104,-68.2014 -3.9347,19.6735 -47.2163,137.7144 -93.1211,263.6247 -47.2164,124.5986 -83.9402,228.2123 -81.3171,229.5239 2.6232,2.6231 60.332,22.2966 128.5334,45.9048 646.6018,221.6545 1569.9439,598.0739 1868.9808,762.0195 142.9607,77.3824 133.7797,76.0708 149.5185,17.0504 z M 21578.334,2095.8604 c 439.374,-234.7702 1019.086,-483.9676 1547.647,-666.2752 80.005,-27.5429 146.895,-52.4626 149.518,-53.7742 13.116,-10.4925 -242.639,-831.53254 -259.69,-831.53254 -74.759,0 -546.922,160.011 -868.256,293.7907 -435.44,180.99604 -1388.948,659.71744 -1388.948,696.44124 0,3.9347 89.187,186.2423 199.358,405.2737 l 198.047,397.4044 112.794,-68.2015 c 61.644,-38.0354 201.981,-115.4177 309.53,-173.1266 z m -12723.4975,-183.6192 191.4886,-382.977 -180.996,-99.679 C 8077.0782,994.14546 6848.1414,478.70016 6776.0053,553.45946 c -24.9198,26.2313 -251.8206,779.06984 -237.3934,792.18554 5.2463,5.2463 112.7946,45.9048 238.7049,90.498 691.195,245.2628 1394.1941,562.6616 1803.4026,813.1706 43.2816,26.2313 80.0054,47.2163 80.0054,47.2163 1.3116,-1.3115 87.8749,-173.1266 194.1117,-384.2887 z"
       id="path3363" />
    <path
       d="m 14392.266,22290.035 c -274.117,-87.875 -259.69,-476.099 22.297,-552.169 622.96,-101.843 468.815,689.989 -22.297,552.169 z m 217.137,-70.442 c 97.056,-40.658 164.214,-214.398 115.686,-307.519 -97.056,-188.865 -439.059,-108.63 -439.059,103.843 0,148.207 185.659,262.697 323.373,203.676 z"
       id="path3365" />
    <path
       d="m 11830.779,11991.623 c -15.739,-19.674 -1996.2031,-3470.4033 -2028.9922,-3534.67 l -20.985,-43.2817 48.5279,-30.166 c 106.2368,-65.5783 473.4753,-271.494 485.2793,-271.494 14.427,0 2052.6,3547.7847 2055.223,3577.9517 1.312,13.115 -85.252,70.824 -254.444,167.88 -278.052,162.634 -266.247,156.076 -284.609,133.78 z m 238.705,-228.213 174.438,-100.99 -115.418,-198.047 c -62.955,-108.86 -472.164,-823.663 -911.538,-1588.3059 -438.063,-764.6427 -828.909,-1444.0339 -866.945,-1509.6121 l -70.824,-120.6641 -177.062,100.9906 c -97.055,55.0857 -175.7495,106.2368 -173.1263,114.1062 5.2462,30.166 1943.7403,3400.8903 1955.5443,3402.2013 6.558,0 90.498,-44.593 184.931,-99.679 z"
       id="path3367" />
    <path
       d="m 14678.188,19223.595 c -144.272,-68.202 -200.67,-238.705 -125.911,-384.289 132.469,-263.625 532.496,-169.192 532.496,125.91 0,205.916 -219.031,344.942 -406.585,258.379 z m 249.197,-69.513 c 123.287,-83.941 135.091,-251.821 24.92,-355.435 -201.981,-191.488 -504.953,100.991 -325.268,314.776 73.447,86.563 205.915,104.925 300.348,40.659 z"
       id="path3369" />
    <path
       d="m 14678.188,16782.771 c -271.494,-123.287 -177.062,-537.742 123.287,-539.053 236.082,-1.312 367.238,262.313 225.589,456.425 -70.824,98.367 -230.835,136.402 -348.876,82.628 z m 200.669,-41.97 c 86.564,-32.789 148.207,-121.975 148.207,-215.097 0,-225.589 -291.167,-312.152 -414.455,-124.598 -119.352,179.684 66.89,415.766 266.248,339.695 z"
       id="path3371" />
    <path
       d="m 14712.288,14427.2 c -225.589,-72.136 -263.624,-385.601 -61.643,-510.199 191.488,-118.041 435.44,17.05 434.128,241.328 -2.623,195.423 -187.554,327.891 -372.485,268.871 z m 192.801,-66.89 c 137.714,-65.578 165.257,-270.183 49.839,-371.173 -207.227,-180.996 -502.33,90.498 -331.826,306.906 65.578,82.629 183.619,110.172 281.987,64.267 z"
       id="path3373" />
    <path
       d="m 14738.52,11995.557 c -267.56,-85.252 -304.283,-419.701 -59.021,-533.807 334.449,-157.388 579.712,343.63 249.198,510.199 -49.84,24.92 -146.896,36.724 -190.177,23.608 z m 166.569,-74.759 c 111.483,-53.774 160.011,-221.655 93.121,-320.022 -89.187,-131.157 -249.198,-150.83 -355.435,-43.282 -180.996,180.997 28.855,473.476 262.314,363.304 z"
       id="path3375" />
    <path
       d="m 17579.371,11863.089 c -135.092,-78.694 -253.133,-148.207 -259.69,-154.765 -14.428,-14.427 2032.926,-3596.3127 2055.223,-3596.3127 17.05,0 491.837,271.494 515.445,295.1022 19.673,18.3619 -2021.122,3600.2475 -2049.977,3598.9365 -6.558,0 -124.599,-64.267 -261.001,-142.961 z m 1205.328,-1691.92 c 533.807,-931.2112 971.87,-1699.7888 974.493,-1708.9698 1.312,-7.8693 -76.07,-60.332 -173.126,-116.7293 l -177.062,-99.679 -77.382,132.4682 c -721.361,1243.3643 -1878.162,3280.2259 -1867.669,3290.7189 18.362,18.361 321.333,192.8 337.072,192.8 7.87,0 449.867,-760.709 983.674,-1690.609 z"
       id="path3377" />
    <path
       d="m 14731.962,9476.0396 c -271.494,-132.4681 -180.996,-539.0534 119.352,-539.0534 166.569,0 281.987,116.7293 281.987,284.6097 0,203.2927 -220.343,342.3186 -401.339,254.4437 z m 209.85,-51.151 c 154.765,-70.8246 186.243,-257.0669 64.267,-371.1731 -196.735,-183.6191 -490.525,65.5783 -341.007,291.1676 61.644,93.1211 177.061,125.9103 276.74,80.0055 z"
       id="path3379" />
    <path
       d="m 14751.635,7045.7085 c -137.714,-44.5932 -221.654,-234.7702 -162.634,-373.7961 119.353,-287.2329 548.235,-201.9811 545.612,108.8599 -1.312,196.7348 -188.866,326.5798 -382.978,264.9362 z m 190.177,-60.332 c 234.771,-107.5483 149.519,-452.4901 -106.236,-431.505 -80.006,6.5578 -125.911,34.1007 -171.815,102.3021 -125.911,183.6192 76.07,422.3241 278.051,329.2029 z"
       id="path3381" />
    <path
       d="m 15990.367,21971.324 c -225.589,-82.628 -297.028,-394.781 -89.8,-515.445 541.615,-166.668 446.849,560.711 89.8,515.445 z m 151.528,-98.367 c 139.026,-68.202 121.975,-288.545 -26.232,-354.123 -89.186,-39.347 -203.292,1.312 -245.262,87.875 -87.875,178.373 93.121,355.434 271.494,266.248 z"
       id="path3383" />
    <path
       d="m 14528.669,4913.1031 c -261.001,-83.9402 -299.037,-414.4547 -61.643,-532.4956 270.182,-133.7797 539.053,191.4886 351.499,426.2588 -66.89,85.2517 -203.292,135.0912 -289.856,106.2368 z m 194.112,-89.1865 c 199.358,-146.8953 56.397,-474.7867 -180.996,-410.52 -268.871,72.1361 -209.851,460.3595 69.513,441.9976 48.528,-2.6231 87.875,-13.1157 111.483,-31.4776 z"
       id="path3385" />
    <path
       d="m 14512.93,4158.9529 c -312.152,-115.4177 -247.885,-549.5459 81.318,-552.169 144.272,0 238.704,73.4476 278.051,220.343 52.463,198.0464 -169.192,402.6506 -359.369,331.826 z m 200.67,-77.3823 c 211.162,-141.6491 70.825,-481.3446 -171.815,-415.7663 -258.378,69.513 -215.097,445.9323 52.463,445.9323 56.397,0 85.251,-7.8694 119.352,-30.166 z"
       id="path3387" />
    <path
       d="m 40763.725,25617.848 c -27.917,-61.15 -103.691,-231.31 -166.171,-377.539 -135.595,-313.73 -98.373,-269.861 -315.059,-366.905 -821.547,-368.233 -981.071,-433.372 -1300.118,-534.404 -1051.526,-333.67 -2146.922,-784.324 -2511.168,-1035.574 -1204.403,-829.523 -2379.561,-4162.238 -3310.116,-9387.966 -229.979,-1290.813 -495.852,-3086.783 -539.721,-3649.104 -19.94,-253.908 91.726,-1046.2086 689.94,-4905.3516 195.417,-1256.2487 247.262,-1617.8356 260.555,-1802.6171 17.282,-237.9561 67.798,-354.9402 186.111,-437.3607 66.468,-46.5277 368.234,-630.1184 390.833,-756.4079 2.659,-17.2817 17.281,-54.504 31.905,-82.4205 13.293,-27.9167 29.246,-69.127 34.563,-90.3968 5.317,-19.9404 17.282,-45.1984 26.587,-54.5039 25.258,-25.2579 183.453,-458.6305 188.77,-513.1344 1.33,-26.5872 11.965,-66.4682 22.6,-86.4087 10.634,-21.2698 23.928,-59.8213 29.245,-85.0793 5.317,-25.2578 14.623,-51.8451 19.941,-59.8213 6.646,-6.6468 50.515,-147.5594 99.702,-312.4005 94.385,-317.71795 175.476,-557.00335 194.087,-576.94385 65.138,-71.7856 1172.498,354.9401 1873.073,719.18575 227.322,118.3134 598.215,321.7061 620.813,338.9879 10.635,7.9761 -73.115,190.0989 -293.789,639.4238 -170.159,345.6346 -313.73,646.0708 -319.047,667.3407 -5.318,22.5991 -23.929,106.349 -42.54,186.1109 -17.282,81.0911 -71.786,328.3528 -123.631,551.6858 l -91.726,404.1266 27.917,54.5039 c 65.139,124.9602 39.88,389.5036 -70.457,731.15 -94.384,293.7894 -126.289,798.9476 -152.876,2399.5018 -3.989,237.956 -9.306,606.1898 -13.294,817.5587 -3.988,212.6981 -9.305,759.0666 -13.293,1216.3677 -10.635,1276.189 -13.294,1294.8 -206.052,1621.823 -78.432,134.266 -81.091,162.182 -21.27,269.861 85.079,151.548 172.818,513.134 471.924,1943.53 382.857,1822.557 709.88,3304.798 727.162,3286.187 11.965,-11.964 71.786,-941.19 138.254,-2162.875 22.599,-405.455 53.174,-931.884 67.797,-1169.839 29.247,-455.972 29.247,-828.195 -1.328,-1694.94 -6.648,-196.746 -18.612,-538.392 -26.588,-757.737 -7.976,-219.345 -26.587,-697.9156 -41.211,-1063.4906 -14.622,-365.5748 -31.904,-906.6259 -38.55,-1203.074 -6.647,-311.0711 -17.282,-563.6502 -26.588,-598.2136 -7.976,-33.2341 -41.211,-148.8888 -73.115,-259.226 -97.044,-332.3408 -119.642,-482.559 -99.702,-658.035 19.94,-175.476 67.797,-354.9404 167.5,-622.1424 130.277,-352.2815 182.122,-618.1542 183.451,-942.5189 1.33,-97.0436 6.647,-176.8054 13.294,-176.8054 18.611,0 0,-321.706 -31.904,-571.6263 -15.953,-120.9721 -29.247,-276.5077 -30.576,-345.6346 l -2.659,-126.2896 111.667,-55.8332 c 529.087,-263.214 2515.156,-481.2297 5231.046,-575.6145 954.483,-33.2341 3448.369,115.6546 4693.984,280.4957 753.749,99.7023 1394.502,263.214 1434.382,365.5751 7.977,21.2698 -3.988,166.1704 -45.198,510.4756 -38.551,336.329 -42.539,442.6781 -27.916,651.3882 26.587,348.2933 75.773,640.7533 135.595,810.9119 291.13,824.2057 297.777,907.9556 111.666,1524.7804 -65.139,211.3688 -70.456,268.5314 -79.761,735.1381 -3.988,229.9799 -18.612,715.1977 -33.235,1076.7845 -86.408,2133.6286 -110.336,3199.7776 -81.091,3595.9286 7.977,116.983 42.54,697.916 74.444,1289.482 83.751,1502.181 123.631,2120.336 139.584,2120.336 17.282,0 166.17,-646.071 405.455,-1761.407 83.751,-386.845 168.83,-788.313 191.429,-890.673 22.599,-102.362 97.043,-458.632 166.171,-790.973 249.92,-1203.074 348.292,-1601.882 433.372,-1765.394 65.139,-123.631 65.139,-122.302 -1.329,-235.298 -212.698,-362.916 -208.71,-329.682 -224.663,-1681.6443 -38.551,-3393.8658 -65.139,-4039.9365 -179.464,-4401.5234 -111.667,-356.2695 -136.924,-590.2374 -75.774,-725.8326 l 31.905,-69.1269 -132.937,-588.9081 -134.265,-588.9081 -305.753,-620.8128 c -168.83,-341.6465 -307.084,-626.1304 -307.084,-631.4478 0,-26.5873 751.091,-421.4083 1152.559,-607.51925 497.182,-229.9799 1183.133,-473.2534 1332.023,-473.2534 29.245,0 98.372,199.4045 279.165,805.59445 168.83,563.6501 349.623,1027.5981 600.873,1535.415 71.786,146.23 136.924,264.5434 144.901,264.5434 33.234,0 131.606,111.6665 166.17,188.7696 29.246,66.4682 38.552,111.6666 47.857,235.2974 13.293,184.7815 66.468,558.3327 271.19,1875.7321 545.039,3520.1553 663.353,4335.0551 679.305,4692.6537 19.941,421.408 -331.012,2789.005 -693.928,4686.007 -905.297,4727.218 -2002.022,7704.992 -3137.298,8511.916 -346.964,247.261 -1391.843,683.292 -2444.7,1019.621 -428.055,136.925 -380.197,116.985 -1010.317,397.48 l -558.332,247.262 -23.929,111.667 c -49.186,243.273 -171.488,570.296 -227.32,612.836 -13.295,10.635 -77.104,9.306 -210.04,-1.329 -1215.039,-102.361 -2722.537,-99.703 -3958.845,9.305 -164.841,14.623 -342.976,29.246 -394.821,34.564 l -97.044,7.976 -53.174,-112.996 z m 485.217,-37.222 c 794.96,-67.797 1472.935,-93.056 2306.446,-86.409 684.623,6.647 1441.031,39.881 1790.653,81.091 58.492,6.647 70.456,3.988 82.421,-18.61 53.174,-99.703 -1276.189,-164.842 -2504.522,-122.303 -768.371,26.588 -1978.092,101.033 -2051.207,126.291 -31.905,10.635 6.646,61.15 41.21,53.174 15.952,-3.988 167.5,-18.611 334.999,-33.234 z m -139.583,-166.171 c 1740.137,-150.218 3887.06,-150.218 4360.313,0 21.27,6.647 66.468,-81.091 66.468,-127.618 0,-13.294 -182.122,-59.822 -325.694,-83.75 -651.388,-109.008 -1882.378,-116.984 -3416.465,-21.27 -233.968,14.623 -555.674,38.551 -716.527,53.175 -159.523,14.622 -301.765,26.587 -316.388,26.587 -31.905,0 -27.916,23.928 15.952,124.959 25.258,57.164 31.905,62.481 63.81,55.834 19.94,-3.988 140.912,-15.952 268.531,-27.917 z m 4489.261,-447.995 c -9.305,-5.317 -25.257,-10.635 -35.892,-10.635 -10.635,0 -123.631,-11.964 -249.92,-26.587 -1096.725,-124.961 -2673.352,-140.913 -3937.576,-39.882 -346.964,27.917 -751.091,70.457 -761.726,79.762 -5.317,5.318 5.318,49.187 26.588,98.374 34.564,86.408 37.222,89.067 77.103,82.42 67.797,-11.964 608.849,-59.821 930.555,-81.091 1737.478,-116.984 3174.52,-94.385 3778.051,57.162 l 143.572,35.893 22.598,-93.055 c 17.282,-70.456 18.612,-94.385 6.647,-102.361 z m -4840.213,-130.278 c 1535.415,-168.829 3348.667,-168.829 4709.935,0 l 204.723,25.258 586.25,-259.226 c 321.705,-142.241 642.082,-276.507 711.209,-299.107 826.864,-261.884 1470.276,-498.511 2008.668,-736.467 284.484,-124.96 598.214,-284.484 607.52,-307.083 3.988,-9.305 -29.247,-116.984 -73.116,-240.615 -324.364,-909.285 -566.309,-1988.728 -659.364,-2935.235 -103.69,-1042.221 -70.456,-2709.243 66.468,-3401.841 18.612,-94.386 18.612,-123.631 0,-312.401 -30.575,-301.766 -66.468,-864.086 -134.266,-2095.077 -33.234,-599.543 -67.797,-1173.829 -75.774,-1276.19 -33.233,-385.515 -13.293,-1371.902 69.127,-3449.6976 34.564,-862.7572 54.504,-1528.7684 46.529,-1568.6492 -11.965,-65.1389 22.598,-299.1069 69.127,-455.9718 180.793,-616.8248 178.134,-740.4556 -31.905,-1318.729 -47.857,-131.607 -95.714,-267.2022 -105.021,-300.4363 l -18.61,-61.1506 -148.889,-22.5993 c -82.421,-13.2936 -413.432,-65.1388 -735.138,-115.6546 -2011.327,-319.0472 -3029.62,-414.7614 -4559.717,-428.0551 -1567.32,-14.623 -2839.522,91.7261 -4745.829,396.1504 -292.46,46.5277 -656.705,103.6903 -810.912,127.6189 -152.876,22.5992 -280.495,42.5397 -281.825,43.869 -29.246,19.9405 -14.623,74.4444 19.94,74.4444 82.421,0 63.81,65.1387 -22.598,78.4324 -45.199,7.9762 -45.199,7.9762 -123.631,216.6863 -192.758,522.4401 -200.734,719.1861 -49.187,1228.3323 82.42,279.1664 89.067,340.3172 97.044,869.4038 3.988,244.603 19.94,735.1382 34.563,1090.0784 87.738,2129.6396 107.679,3085.4526 74.444,3569.3406 -11.963,175.476 -45.198,756.408 -74.444,1289.483 -66.468,1203.074 -101.032,1744.125 -128.948,2027.28 -27.916,285.813 -27.916,277.836 13.294,525.098 140.912,856.111 144.9,2578.966 7.975,3615.87 -110.336,833.51 -319.047,1718.867 -590.236,2499.203 -55.834,160.854 -105.021,301.766 -109.009,313.73 -27.917,89.068 1409.126,679.305 2440.712,1002.341 283.155,89.067 447.996,156.864 1144.582,470.594 179.464,79.762 325.694,146.23 327.024,146.23 0,1.329 107.679,-10.635 239.285,-25.258 z m -4144.956,-1942.2 c 303.095,-882.698 527.757,-1893.014 619.484,-2790.334 111.666,-1091.408 53.174,-3221.049 -98.374,-3522.814 -75.773,-151.548 -207.38,-700.575 -491.864,-2047.221 -50.515,-237.955 -115.654,-539.721 -144.901,-671.328 -29.245,-131.607 -95.714,-442.678 -146.229,-691.269 -287.143,-1399.82 -396.151,-1851.804 -485.218,-2017.974 -79.762,-146.23 -75.774,-179.464 34.563,-365.575 171.488,-285.813 168.829,-267.202 183.453,-1491.5459 41.21,-3537.4369 66.467,-4159.5791 187.44,-4533.1304 111.666,-344.3051 136.924,-643.412 57.162,-673.9873 -11.964,-3.9881 -25.257,-21.2698 -31.904,-37.2222 -9.306,-23.9285 -74.445,-50.5158 -368.234,-151.5475 -550.356,-191.4283 -1332.022,-470.5947 -1697.598,-607.5191 l -332.341,-123.6309 -53.174,29.246 c -69.127,37.2222 -136.924,138.2539 -146.23,212.6982 -2.659,30.5753 -11.964,124.9602 -21.269,208.7101 -17.282,188.7697 -93.056,695.2572 -324.366,2186.8032 -583.591,3762.0992 -647.4,4232.6938 -612.836,4562.3758 130.277,1233.65 514.464,3597.258 850.793,5219.082 741.784,3586.624 1535.415,5911.68 2423.43,7101.461 109.007,146.23 458.63,503.828 483.888,495.853 9.305,-3.988 61.151,-134.266 114.325,-291.131 z m 13204.569,196.746 c 1121.984,-985.058 2202.756,-4154.262 3088.113,-9059.614 291.131,-1605.871 579.602,-3629.163 560.991,-3930.928 -23.928,-382.8566 -160.853,-1326.7048 -704.563,-4832.237 -186.11,-1197.7567 -233.967,-1532.7564 -247.261,-1716.2086 -11.965,-170.1585 -33.235,-235.2973 -97.044,-301.7655 -87.738,-91.7261 -93.055,-93.0555 -305.754,-10.6349 -338.987,130.2777 -1066.149,390.833 -1940.871,695.2572 -191.428,66.4682 -267.202,99.7023 -279.166,119.6427 -9.306,14.623 -26.588,42.5396 -41.21,62.4801 -55.833,78.4324 -22.6,340.3171 82.421,672.658 85.079,265.8727 116.984,704.5627 142.241,1934.2244 3.988,198.0752 9.305,475.9123 13.294,618.1542 3.988,142.2419 13.293,854.7808 21.27,1581.9427 15.952,1604.5417 11.964,1565.9897 186.111,1859.7797 111.666,188.769 114.325,218.016 33.234,377.539 -91.726,182.123 -182.123,562.321 -487.877,2036.585 -73.115,350.952 -138.253,659.365 -144.9,684.622 -6.647,25.258 -63.81,288.472 -126.29,584.921 -271.19,1281.506 -428.055,1943.529 -491.865,2080.454 -167.499,350.952 -232.638,2294.482 -118.312,3496.226 85.079,905.297 332.34,2024.621 631.447,2867.438 37.222,105.019 73.115,210.039 79.762,233.967 17.281,57.164 18.611,57.164 146.229,-54.503 z M 37799.243,5680.0517 c 150.219,-22.5992 511.806,-79.7618 804.266,-126.2895 2742.477,-437.3607 4902.693,-503.8289 7397.909,-224.6625 440.019,49.1865 901.308,114.3253 1595.236,224.6625 340.317,54.5039 720.515,114.3252 844.146,132.9363 124.96,17.2818 237.956,35.8928 253.908,39.8809 26.587,5.3175 26.587,3.9881 10.635,-97.0435 -7.976,-55.8333 -19.94,-135.5952 -23.928,-176.8054 l -9.306,-75.7737 -115.655,-21.2698 c -3899.023,-736.4675 -7347.392,-789.6421 -10690.742,-166.1705 -357.599,66.4682 -332.341,58.492 -332.341,109.0079 0,39.8808 -27.917,256.5671 -47.857,377.5392 -7.977,49.1865 -5.317,54.5039 15.952,50.5158 14.623,-3.9881 147.559,-23.9285 297.777,-46.5277 z M 48646.851,5004.735 c 0,-73.115 3.988,-176.8055 7.977,-231.3094 l 9.305,-99.7022 -337.659,-54.5039 c -3903.011,-638.0946 -6916.679,-656.7057 -10447.469,-65.1389 l -338.987,57.1627 5.318,198.0752 c 2.658,110.3372 5.317,200.7339 6.646,202.0632 1.329,1.3294 61.151,-9.3055 134.265,-23.9285 2370.256,-458.6304 5145.967,-572.9557 7790.072,-316.3885 925.237,89.0673 2063.172,252.5791 2898.013,416.0908 124.96,25.2579 236.627,45.1983 249.92,46.5277 19.941,1.3294 22.599,-13.2936 22.599,-128.9482 z m 62.481,-700.5747 c 30.575,-269.8608 39.88,-259.2259 -268.532,-349.6227 -903.967,-267.202 -4291.186,-534.4042 -5955.55,-469.2654 -2516.484,97.0436 -4348.348,296.4481 -4919.974,534.4042 l -101.032,42.5397 7.976,54.5039 c 3.989,29.246 10.635,101.0316 15.952,158.1943 6.647,86.4087 11.965,102.361 31.905,102.361 13.294,0 240.615,-35.8928 506.488,-79.7618 1306.764,-214.0276 2137.617,-307.083 3355.313,-374.8806 412.103,-22.5992 2142.935,-22.5992 2592.26,0 1523.451,78.4325 3000.374,236.6267 4400.194,473.2535 349.623,59.8213 316.388,69.1269 335,-91.7261 z M 36386.13,3664.7364 c 37.222,-167.4999 66.468,-311.0711 63.809,-320.3767 -15.952,-49.1864 -357.599,-231.3093 -741.785,-394.821 -366.904,-156.8649 -1441.03,-564.9796 -1450.335,-550.3566 -1.33,2.6588 -29.246,63.8095 -59.822,136.9245 -31.905,73.115 -107.678,233.968 -170.158,357.5988 -61.151,123.6308 -109.008,225.9919 -107.679,228.6506 7.977,6.6468 790.972,296.4481 1060.833,390.8329 150.218,53.1746 311.071,110.3372 358.928,127.6189 454.642,163.5118 953.154,334.9996 963.789,332.3409 6.646,-1.3293 43.869,-140.9125 82.42,-308.4123 z m 13851.97,192.7577 c 188.769,-66.4682 385.515,-135.5951 436.031,-154.2062 51.846,-17.2817 135.595,-46.5277 186.11,-63.8095 134.266,-43.869 664.682,-233.9679 857.44,-307.083 25.258,-9.3055 94.385,-34.5634 152.878,-55.8332 58.492,-22.5992 175.475,-65.1389 259.225,-97.0436 l 154.206,-57.1626 -94.384,-186.1109 c -51.845,-103.6904 -128.949,-268.5315 -172.818,-366.9044 -42.54,-98.3729 -79.762,-180.7935 -79.762,-182.1229 -6.647,-13.2936 -1132.617,414.7616 -1478.252,562.3209 -320.377,136.9245 -721.845,342.9759 -721.845,370.8925 0,1.3293 33.234,147.5594 73.116,324.3647 39.88,178.1347 73.114,325.6941 73.114,328.3528 0,9.3056 3.988,7.9762 354.941,-115.6546 z m -13689.788,-917.261 c 18.612,-83.7498 51.845,-188.7696 77.104,-240.6148 23.928,-51.8452 42.539,-95.7142 41.21,-97.0435 -268.532,-204.7221 -1200.416,-632.7771 -1992.717,-914.6022 l -127.619,-45.1984 -21.269,67.7975 c -11.964,37.2223 -57.163,159.5237 -99.702,269.8609 -75.774,196.7458 -78.432,203.3927 -50.517,211.3688 505.159,155.5356 1769.384,679.3049 2061.844,854.7809 37.222,21.2698 69.127,39.8809 73.115,39.8809 3.988,1.3294 21.269,-65.1388 38.551,-146.2301 z m 13390.681,-6.6467 c 324.364,-163.5118 986.387,-430.7139 1659.046,-671.3287 120.972,-43.869 225.991,-81.0912 235.297,-85.0793 10.635,-2.6587 -2.659,-51.8452 -41.21,-148.8888 -30.576,-78.4324 -73.115,-194.087 -94.385,-256.5671 -21.27,-62.4801 -42.54,-118.3134 -47.857,-124.9602 -10.635,-13.2937 -345.635,105.0197 -723.174,253.9085 -445.337,176.8053 -858.769,373.5512 -1213.709,575.6144 -218.015,124.9602 -202.063,99.7023 -139.583,235.2974 30.575,65.1388 65.139,164.8411 77.103,223.3331 11.964,58.492 23.928,114.3253 26.587,122.3015 3.988,11.9642 26.588,3.988 74.445,-23.9286 38.551,-22.5991 123.631,-67.7975 187.44,-99.7022 z M 36969.72,2009.6786 c 106.349,-214.0276 188.77,-392.1623 182.123,-398.8091 -21.269,-19.9405 -410.773,-228.6506 -683.292,-365.5751 -567.639,-283.15445 -1039.563,-477.24155 -1421.09,-582.26125 -207.381,-57.1627 -176.805,-74.4444 -243.274,134.2657 -111.666,348.29335 -186.111,616.82475 -174.146,627.45975 6.646,5.3174 78.432,33.234 158.194,61.1507 658.035,225.9918 1413.114,567.6383 1874.403,845.4753 58.492,35.8928 107.678,65.1388 109.007,65.1388 2.659,0 91.726,-174.1466 198.075,-386.8448 z m 12647.567,256.5672 c 430.713,-247.2617 1052.856,-526.428 1648.411,-740.4556 135.595,-47.8571 261.885,-93.0554 280.495,-101.0316 l 34.564,-13.2937 -71.786,-241.9441 c -81.091,-277.83715 -162.182,-530.41625 -175.476,-545.03925 -13.294,-14.623 -311.071,70.4563 -541.051,154.2062 -457.3,166.1705 -995.693,417.42025 -1583.272,739.12625 l -175.476,95.7142 192.758,386.8449 192.758,385.5154 35.892,-23.9285 c 19.94,-13.2937 93.056,-55.8333 162.183,-95.7142 z"
       id="path3389" />
  </g>
</svg>
